%FSLAX45Y45*%
G04 Gerber Fmt 4.5, Leading zero omitted, Abs format (unit mm)*
G04 Created by KiCad (PCBNEW (6.0.0)) date 2023-03-26 17:47:11*
%MOMM*%
%LPD*%
G01*
G04 APERTURE LIST*
%TA.AperFunction,Profile*%
%ADD10C,0.100000*%
%TD*%
%ADD11C,0.200000*%
%ADD12C,0.320000*%
G04 APERTURE END LIST*
D10*
X12400000Y-5000000D02*
X12400000Y-8600000D01*
X10000000Y-5000000D02*
X10000000Y-8600000D01*
X10000000Y-5000000D02*
X12400000Y-5000000D01*
X12400000Y-8600000D02*
X10000000Y-8600000D01*
D11*
D12*
X10190000Y-8090000D02*
X10510000Y-8410000D01*
X10510000Y-8090000D02*
X10190000Y-8410000D01*
X11040000Y-5190000D02*
X11360000Y-5510000D01*
X11360000Y-5190000D02*
X11040000Y-5510000D01*
X11890000Y-8090000D02*
X12210000Y-8410000D01*
X12210000Y-8090000D02*
X11890000Y-8410000D01*
D11*
X10252619Y-8915476D02*
X10252619Y-8715476D01*
X10300238Y-8715476D01*
X10328810Y-8725000D01*
X10347857Y-8744048D01*
X10357381Y-8763095D01*
X10366905Y-8801190D01*
X10366905Y-8829762D01*
X10357381Y-8867857D01*
X10347857Y-8886905D01*
X10328810Y-8905952D01*
X10300238Y-8915476D01*
X10252619Y-8915476D01*
X10452619Y-8915476D02*
X10452619Y-8782143D01*
X10452619Y-8820238D02*
X10462143Y-8801190D01*
X10471667Y-8791667D01*
X10490714Y-8782143D01*
X10509762Y-8782143D01*
X10576429Y-8915476D02*
X10576429Y-8782143D01*
X10576429Y-8715476D02*
X10566905Y-8725000D01*
X10576429Y-8734524D01*
X10585952Y-8725000D01*
X10576429Y-8715476D01*
X10576429Y-8734524D01*
X10700238Y-8915476D02*
X10681190Y-8905952D01*
X10671667Y-8886905D01*
X10671667Y-8715476D01*
X10805000Y-8915476D02*
X10785952Y-8905952D01*
X10776429Y-8886905D01*
X10776429Y-8715476D01*
X11033571Y-8915476D02*
X11033571Y-8715476D01*
X11100238Y-8858333D01*
X11166905Y-8715476D01*
X11166905Y-8915476D01*
X11347857Y-8915476D02*
X11347857Y-8810714D01*
X11338333Y-8791667D01*
X11319286Y-8782143D01*
X11281190Y-8782143D01*
X11262143Y-8791667D01*
X11347857Y-8905952D02*
X11328809Y-8915476D01*
X11281190Y-8915476D01*
X11262143Y-8905952D01*
X11252619Y-8886905D01*
X11252619Y-8867857D01*
X11262143Y-8848810D01*
X11281190Y-8839286D01*
X11328809Y-8839286D01*
X11347857Y-8829762D01*
X11443095Y-8782143D02*
X11443095Y-8982143D01*
X11443095Y-8791667D02*
X11462143Y-8782143D01*
X11500238Y-8782143D01*
X11519286Y-8791667D01*
X11528809Y-8801190D01*
X11538333Y-8820238D01*
X11538333Y-8877381D01*
X11528809Y-8896429D01*
X11519286Y-8905952D01*
X11500238Y-8915476D01*
X11462143Y-8915476D01*
X11443095Y-8905952D01*
X11624048Y-8896429D02*
X11633571Y-8905952D01*
X11624048Y-8915476D01*
X11614524Y-8905952D01*
X11624048Y-8896429D01*
X11624048Y-8915476D01*
X11624048Y-8791667D02*
X11633571Y-8801190D01*
X11624048Y-8810714D01*
X11614524Y-8801190D01*
X11624048Y-8791667D01*
X11624048Y-8810714D01*
X9795000Y-9145000D02*
X9995000Y-9345000D01*
X9995000Y-9145000D02*
X9795000Y-9345000D01*
X10233571Y-9135476D02*
X10357381Y-9135476D01*
X10290714Y-9211667D01*
X10319286Y-9211667D01*
X10338333Y-9221190D01*
X10347857Y-9230714D01*
X10357381Y-9249762D01*
X10357381Y-9297381D01*
X10347857Y-9316429D01*
X10338333Y-9325952D01*
X10319286Y-9335476D01*
X10262143Y-9335476D01*
X10243095Y-9325952D01*
X10233571Y-9316429D01*
X10443095Y-9316429D02*
X10452619Y-9325952D01*
X10443095Y-9335476D01*
X10433571Y-9325952D01*
X10443095Y-9316429D01*
X10443095Y-9335476D01*
X10528810Y-9154524D02*
X10538333Y-9145000D01*
X10557381Y-9135476D01*
X10605000Y-9135476D01*
X10624048Y-9145000D01*
X10633571Y-9154524D01*
X10643095Y-9173571D01*
X10643095Y-9192619D01*
X10633571Y-9221190D01*
X10519286Y-9335476D01*
X10643095Y-9335476D01*
X10766905Y-9135476D02*
X10785952Y-9135476D01*
X10805000Y-9145000D01*
X10814524Y-9154524D01*
X10824048Y-9173571D01*
X10833571Y-9211667D01*
X10833571Y-9259286D01*
X10824048Y-9297381D01*
X10814524Y-9316429D01*
X10805000Y-9325952D01*
X10785952Y-9335476D01*
X10766905Y-9335476D01*
X10747857Y-9325952D01*
X10738333Y-9316429D01*
X10728810Y-9297381D01*
X10719286Y-9259286D01*
X10719286Y-9211667D01*
X10728810Y-9173571D01*
X10738333Y-9154524D01*
X10747857Y-9145000D01*
X10766905Y-9135476D01*
X10957381Y-9135476D02*
X10976429Y-9135476D01*
X10995476Y-9145000D01*
X11005000Y-9154524D01*
X11014524Y-9173571D01*
X11024048Y-9211667D01*
X11024048Y-9259286D01*
X11014524Y-9297381D01*
X11005000Y-9316429D01*
X10995476Y-9325952D01*
X10976429Y-9335476D01*
X10957381Y-9335476D01*
X10938333Y-9325952D01*
X10928810Y-9316429D01*
X10919286Y-9297381D01*
X10909762Y-9259286D01*
X10909762Y-9211667D01*
X10919286Y-9173571D01*
X10928810Y-9154524D01*
X10938333Y-9145000D01*
X10957381Y-9135476D01*
X11109762Y-9335476D02*
X11109762Y-9202143D01*
X11109762Y-9221190D02*
X11119286Y-9211667D01*
X11138333Y-9202143D01*
X11166905Y-9202143D01*
X11185952Y-9211667D01*
X11195476Y-9230714D01*
X11195476Y-9335476D01*
X11195476Y-9230714D02*
X11205000Y-9211667D01*
X11224048Y-9202143D01*
X11252619Y-9202143D01*
X11271667Y-9211667D01*
X11281190Y-9230714D01*
X11281190Y-9335476D01*
X11376428Y-9335476D02*
X11376428Y-9202143D01*
X11376428Y-9221190D02*
X11385952Y-9211667D01*
X11405000Y-9202143D01*
X11433571Y-9202143D01*
X11452619Y-9211667D01*
X11462143Y-9230714D01*
X11462143Y-9335476D01*
X11462143Y-9230714D02*
X11471667Y-9211667D01*
X11490714Y-9202143D01*
X11519286Y-9202143D01*
X11538333Y-9211667D01*
X11547857Y-9230714D01*
X11547857Y-9335476D01*
X11938333Y-9125952D02*
X11766905Y-9383095D01*
X12195476Y-9135476D02*
X12214524Y-9135476D01*
X12233571Y-9145000D01*
X12243095Y-9154524D01*
X12252619Y-9173571D01*
X12262143Y-9211667D01*
X12262143Y-9259286D01*
X12252619Y-9297381D01*
X12243095Y-9316429D01*
X12233571Y-9325952D01*
X12214524Y-9335476D01*
X12195476Y-9335476D01*
X12176428Y-9325952D01*
X12166905Y-9316429D01*
X12157381Y-9297381D01*
X12147857Y-9259286D01*
X12147857Y-9211667D01*
X12157381Y-9173571D01*
X12166905Y-9154524D01*
X12176428Y-9145000D01*
X12195476Y-9135476D01*
X12347857Y-9316429D02*
X12357381Y-9325952D01*
X12347857Y-9335476D01*
X12338333Y-9325952D01*
X12347857Y-9316429D01*
X12347857Y-9335476D01*
X12547857Y-9335476D02*
X12433571Y-9335476D01*
X12490714Y-9335476D02*
X12490714Y-9135476D01*
X12471667Y-9164048D01*
X12452619Y-9183095D01*
X12433571Y-9192619D01*
X12624048Y-9154524D02*
X12633571Y-9145000D01*
X12652619Y-9135476D01*
X12700238Y-9135476D01*
X12719286Y-9145000D01*
X12728809Y-9154524D01*
X12738333Y-9173571D01*
X12738333Y-9192619D01*
X12728809Y-9221190D01*
X12614524Y-9335476D01*
X12738333Y-9335476D01*
X12909762Y-9135476D02*
X12871667Y-9135476D01*
X12852619Y-9145000D01*
X12843095Y-9154524D01*
X12824048Y-9183095D01*
X12814524Y-9221190D01*
X12814524Y-9297381D01*
X12824048Y-9316429D01*
X12833571Y-9325952D01*
X12852619Y-9335476D01*
X12890714Y-9335476D01*
X12909762Y-9325952D01*
X12919286Y-9316429D01*
X12928809Y-9297381D01*
X12928809Y-9249762D01*
X12919286Y-9230714D01*
X12909762Y-9221190D01*
X12890714Y-9211667D01*
X12852619Y-9211667D01*
X12833571Y-9221190D01*
X12824048Y-9230714D01*
X12814524Y-9249762D01*
X13052619Y-9135476D02*
X13071667Y-9135476D01*
X13090714Y-9145000D01*
X13100238Y-9154524D01*
X13109762Y-9173571D01*
X13119286Y-9211667D01*
X13119286Y-9259286D01*
X13109762Y-9297381D01*
X13100238Y-9316429D01*
X13090714Y-9325952D01*
X13071667Y-9335476D01*
X13052619Y-9335476D01*
X13033571Y-9325952D01*
X13024048Y-9316429D01*
X13014524Y-9297381D01*
X13005000Y-9259286D01*
X13005000Y-9211667D01*
X13014524Y-9173571D01*
X13024048Y-9154524D01*
X13033571Y-9145000D01*
X13052619Y-9135476D01*
X13195476Y-9135476D02*
X13195476Y-9173571D01*
X13271667Y-9135476D02*
X13271667Y-9173571D01*
X13566905Y-9411667D02*
X13557381Y-9402143D01*
X13538333Y-9373571D01*
X13528809Y-9354524D01*
X13519286Y-9325952D01*
X13509762Y-9278333D01*
X13509762Y-9240238D01*
X13519286Y-9192619D01*
X13528809Y-9164048D01*
X13538333Y-9145000D01*
X13557381Y-9116429D01*
X13566905Y-9106905D01*
X13624048Y-9135476D02*
X13747857Y-9135476D01*
X13681190Y-9211667D01*
X13709762Y-9211667D01*
X13728809Y-9221190D01*
X13738333Y-9230714D01*
X13747857Y-9249762D01*
X13747857Y-9297381D01*
X13738333Y-9316429D01*
X13728809Y-9325952D01*
X13709762Y-9335476D01*
X13652619Y-9335476D01*
X13633571Y-9325952D01*
X13624048Y-9316429D01*
X13985952Y-9335476D02*
X13985952Y-9135476D01*
X14071667Y-9335476D02*
X14071667Y-9230714D01*
X14062143Y-9211667D01*
X14043095Y-9202143D01*
X14014524Y-9202143D01*
X13995476Y-9211667D01*
X13985952Y-9221190D01*
X14195476Y-9335476D02*
X14176428Y-9325952D01*
X14166905Y-9316429D01*
X14157381Y-9297381D01*
X14157381Y-9240238D01*
X14166905Y-9221190D01*
X14176428Y-9211667D01*
X14195476Y-9202143D01*
X14224048Y-9202143D01*
X14243095Y-9211667D01*
X14252619Y-9221190D01*
X14262143Y-9240238D01*
X14262143Y-9297381D01*
X14252619Y-9316429D01*
X14243095Y-9325952D01*
X14224048Y-9335476D01*
X14195476Y-9335476D01*
X14376428Y-9335476D02*
X14357381Y-9325952D01*
X14347857Y-9306905D01*
X14347857Y-9135476D01*
X14528809Y-9325952D02*
X14509762Y-9335476D01*
X14471667Y-9335476D01*
X14452619Y-9325952D01*
X14443095Y-9306905D01*
X14443095Y-9230714D01*
X14452619Y-9211667D01*
X14471667Y-9202143D01*
X14509762Y-9202143D01*
X14528809Y-9211667D01*
X14538333Y-9230714D01*
X14538333Y-9249762D01*
X14443095Y-9268810D01*
X14614524Y-9325952D02*
X14633571Y-9335476D01*
X14671667Y-9335476D01*
X14690714Y-9325952D01*
X14700238Y-9306905D01*
X14700238Y-9297381D01*
X14690714Y-9278333D01*
X14671667Y-9268810D01*
X14643095Y-9268810D01*
X14624048Y-9259286D01*
X14614524Y-9240238D01*
X14614524Y-9230714D01*
X14624048Y-9211667D01*
X14643095Y-9202143D01*
X14671667Y-9202143D01*
X14690714Y-9211667D01*
X14766905Y-9411667D02*
X14776428Y-9402143D01*
X14795476Y-9373571D01*
X14805000Y-9354524D01*
X14814524Y-9325952D01*
X14824048Y-9278333D01*
X14824048Y-9240238D01*
X14814524Y-9192619D01*
X14805000Y-9164048D01*
X14795476Y-9145000D01*
X14776428Y-9116429D01*
X14766905Y-9106905D01*
X15128809Y-9411667D02*
X15119286Y-9402143D01*
X15100238Y-9373571D01*
X15090714Y-9354524D01*
X15081190Y-9325952D01*
X15071667Y-9278333D01*
X15071667Y-9240238D01*
X15081190Y-9192619D01*
X15090714Y-9164048D01*
X15100238Y-9145000D01*
X15119286Y-9116429D01*
X15128809Y-9106905D01*
X15205000Y-9202143D02*
X15205000Y-9335476D01*
X15205000Y-9221190D02*
X15214524Y-9211667D01*
X15233571Y-9202143D01*
X15262143Y-9202143D01*
X15281190Y-9211667D01*
X15290714Y-9230714D01*
X15290714Y-9335476D01*
X15414524Y-9335476D02*
X15395476Y-9325952D01*
X15385952Y-9316429D01*
X15376428Y-9297381D01*
X15376428Y-9240238D01*
X15385952Y-9221190D01*
X15395476Y-9211667D01*
X15414524Y-9202143D01*
X15443095Y-9202143D01*
X15462143Y-9211667D01*
X15471667Y-9221190D01*
X15481190Y-9240238D01*
X15481190Y-9297381D01*
X15471667Y-9316429D01*
X15462143Y-9325952D01*
X15443095Y-9335476D01*
X15414524Y-9335476D01*
X15538333Y-9202143D02*
X15614524Y-9202143D01*
X15566905Y-9135476D02*
X15566905Y-9306905D01*
X15576428Y-9325952D01*
X15595476Y-9335476D01*
X15614524Y-9335476D01*
X15833571Y-9202143D02*
X15833571Y-9402143D01*
X15833571Y-9211667D02*
X15852619Y-9202143D01*
X15890714Y-9202143D01*
X15909762Y-9211667D01*
X15919286Y-9221190D01*
X15928809Y-9240238D01*
X15928809Y-9297381D01*
X15919286Y-9316429D01*
X15909762Y-9325952D01*
X15890714Y-9335476D01*
X15852619Y-9335476D01*
X15833571Y-9325952D01*
X16043095Y-9335476D02*
X16024048Y-9325952D01*
X16014524Y-9306905D01*
X16014524Y-9135476D01*
X16205000Y-9335476D02*
X16205000Y-9230714D01*
X16195476Y-9211667D01*
X16176428Y-9202143D01*
X16138333Y-9202143D01*
X16119286Y-9211667D01*
X16205000Y-9325952D02*
X16185952Y-9335476D01*
X16138333Y-9335476D01*
X16119286Y-9325952D01*
X16109762Y-9306905D01*
X16109762Y-9287857D01*
X16119286Y-9268810D01*
X16138333Y-9259286D01*
X16185952Y-9259286D01*
X16205000Y-9249762D01*
X16271667Y-9202143D02*
X16347857Y-9202143D01*
X16300238Y-9135476D02*
X16300238Y-9306905D01*
X16309762Y-9325952D01*
X16328809Y-9335476D01*
X16347857Y-9335476D01*
X16490714Y-9325952D02*
X16471667Y-9335476D01*
X16433571Y-9335476D01*
X16414524Y-9325952D01*
X16405000Y-9306905D01*
X16405000Y-9230714D01*
X16414524Y-9211667D01*
X16433571Y-9202143D01*
X16471667Y-9202143D01*
X16490714Y-9211667D01*
X16500238Y-9230714D01*
X16500238Y-9249762D01*
X16405000Y-9268810D01*
X16671667Y-9335476D02*
X16671667Y-9135476D01*
X16671667Y-9325952D02*
X16652619Y-9335476D01*
X16614524Y-9335476D01*
X16595476Y-9325952D01*
X16585952Y-9316429D01*
X16576428Y-9297381D01*
X16576428Y-9240238D01*
X16585952Y-9221190D01*
X16595476Y-9211667D01*
X16614524Y-9202143D01*
X16652619Y-9202143D01*
X16671667Y-9211667D01*
X16747857Y-9411667D02*
X16757381Y-9402143D01*
X16776428Y-9373571D01*
X16785952Y-9354524D01*
X16795476Y-9325952D01*
X16805000Y-9278333D01*
X16805000Y-9240238D01*
X16795476Y-9192619D01*
X16785952Y-9164048D01*
X16776428Y-9145000D01*
X16757381Y-9116429D01*
X16747857Y-9106905D01*
M02*
