%TF.GenerationSoftware,KiCad,Pcbnew,(6.0.0)*%
%TF.CreationDate,2023-03-26T17:46:31-04:00*%
%TF.ProjectId,daughterBoard,64617567-6874-4657-9242-6f6172642e6b,rev?*%
%TF.SameCoordinates,Original*%
%TF.FileFunction,Copper,L3,Inr*%
%TF.FilePolarity,Positive*%
%FSLAX46Y46*%
G04 Gerber Fmt 4.6, Leading zero omitted, Abs format (unit mm)*
G04 Created by KiCad (PCBNEW (6.0.0)) date 2023-03-26 17:46:31*
%MOMM*%
%LPD*%
G01*
G04 APERTURE LIST*
%TA.AperFunction,ComponentPad*%
%ADD10R,1.700000X1.700000*%
%TD*%
%TA.AperFunction,ComponentPad*%
%ADD11O,1.700000X1.700000*%
%TD*%
%TA.AperFunction,ViaPad*%
%ADD12C,0.800000*%
%TD*%
G04 APERTURE END LIST*
D10*
%TO.N,/SCM*%
%TO.C,J4*%
X119500000Y-52000000D03*
D11*
%TO.N,unconnected-(J4-Pad2)*%
X122040000Y-52000000D03*
%TO.N,/SDM*%
X119500000Y-54540000D03*
%TO.N,unconnected-(J4-Pad4)*%
X122040000Y-54540000D03*
%TO.N,+3V3*%
X119500000Y-57080000D03*
X122040000Y-57080000D03*
%TO.N,GND*%
X119500000Y-59620000D03*
X122040000Y-59620000D03*
%TO.N,unconnected-(J4-Pad9)*%
X119500000Y-62160000D03*
%TO.N,unconnected-(J4-Pad10)*%
X122040000Y-62160000D03*
%TD*%
D10*
%TO.N,Net-(J2-Pad1)*%
%TO.C,J2*%
X119500000Y-73500000D03*
D11*
%TO.N,unconnected-(J2-Pad2)*%
X122040000Y-73500000D03*
%TO.N,Net-(J2-Pad3)*%
X119500000Y-76040000D03*
%TO.N,unconnected-(J2-Pad4)*%
X122040000Y-76040000D03*
%TD*%
D10*
%TO.N,Net-(J3-Pad1)*%
%TO.C,J3*%
X104500000Y-76000000D03*
D11*
%TO.N,unconnected-(J3-Pad2)*%
X101960000Y-76000000D03*
%TO.N,Net-(J3-Pad3)*%
X104500000Y-73460000D03*
%TO.N,unconnected-(J3-Pad4)*%
X101960000Y-73460000D03*
%TD*%
D10*
%TO.N,/SCM*%
%TO.C,J1*%
X102000000Y-52000000D03*
D11*
%TO.N,unconnected-(J1-Pad2)*%
X104540000Y-52000000D03*
%TO.N,/SDM*%
X102000000Y-54540000D03*
%TO.N,unconnected-(J1-Pad4)*%
X104540000Y-54540000D03*
%TO.N,+3V3*%
X102000000Y-57080000D03*
X104540000Y-57080000D03*
%TO.N,GND*%
X102000000Y-59620000D03*
X104540000Y-59620000D03*
%TO.N,unconnected-(J1-Pad9)*%
X102000000Y-62160000D03*
%TO.N,unconnected-(J1-Pad10)*%
X104540000Y-62160000D03*
%TD*%
D12*
%TO.N,+3V3*%
X109728000Y-61087000D03*
X116713000Y-63627000D03*
X111506000Y-75057000D03*
X116500000Y-76500000D03*
X108331000Y-81407000D03*
X101000000Y-67000000D03*
X117221000Y-64389000D03*
X110071500Y-74000000D03*
X123000040Y-67001893D03*
%TO.N,GND*%
X111000000Y-80000000D03*
X113000000Y-80000000D03*
X101054500Y-66000000D03*
X122973500Y-66002610D03*
X112014000Y-82423000D03*
X118618000Y-71882000D03*
X116500000Y-54500000D03*
X112000000Y-80000000D03*
%TO.N,Net-(C3-Pad1)*%
X117531916Y-67526500D03*
%TO.N,Net-(C6-Pad1)*%
X105918000Y-65786000D03*
%TO.N,Net-(R1-Pad2)*%
X115062000Y-84074000D03*
%TO.N,/INT0*%
X111379000Y-65913000D03*
%TO.N,/INT1*%
X111464849Y-68986971D03*
%TO.N,Net-(R4-Pad2)*%
X111887000Y-64770000D03*
%TO.N,/SC3*%
X112395000Y-65913000D03*
%TO.N,/SD3*%
X112487701Y-67012299D03*
%TO.N,/SC2*%
X112463103Y-69036897D03*
%TO.N,/SD2*%
X112513029Y-70035151D03*
%TO.N,/SC1*%
X111500000Y-71000000D03*
%TO.N,/SD1*%
X111512299Y-69987701D03*
%TO.N,/SC0*%
X111476583Y-67987537D03*
%TO.N,/SD0*%
X111383299Y-66933299D03*
%TO.N,/INT2*%
X112499557Y-71034563D03*
%TO.N,/INT3*%
X112475402Y-68024598D03*
%TD*%
%TA.AperFunction,Conductor*%
%TO.N,+3V3*%
G36*
X118348562Y-50528002D02*
G01*
X118395055Y-50581658D01*
X118405159Y-50651932D01*
X118375665Y-50716512D01*
X118356006Y-50734826D01*
X118323568Y-50759137D01*
X118286739Y-50786739D01*
X118199385Y-50903295D01*
X118148255Y-51039684D01*
X118141500Y-51101866D01*
X118141500Y-52898134D01*
X118148255Y-52960316D01*
X118199385Y-53096705D01*
X118286739Y-53213261D01*
X118403295Y-53300615D01*
X118411704Y-53303767D01*
X118411705Y-53303768D01*
X118520451Y-53344535D01*
X118577216Y-53387176D01*
X118601916Y-53453738D01*
X118586709Y-53523087D01*
X118567316Y-53549568D01*
X118440629Y-53682138D01*
X118314743Y-53866680D01*
X118299006Y-53900583D01*
X118223516Y-54063213D01*
X118220688Y-54069305D01*
X118160989Y-54284570D01*
X118137251Y-54506695D01*
X118137548Y-54511848D01*
X118137548Y-54511851D01*
X118147816Y-54689928D01*
X118150110Y-54729715D01*
X118151247Y-54734761D01*
X118151248Y-54734767D01*
X118171119Y-54822939D01*
X118199222Y-54947639D01*
X118235485Y-55036944D01*
X118273647Y-55130926D01*
X118283266Y-55154616D01*
X118334019Y-55237438D01*
X118397291Y-55340688D01*
X118399987Y-55345088D01*
X118546250Y-55513938D01*
X118718126Y-55656632D01*
X118791955Y-55699774D01*
X118840679Y-55751412D01*
X118853750Y-55821195D01*
X118827019Y-55886967D01*
X118786562Y-55920327D01*
X118778457Y-55924546D01*
X118769738Y-55930036D01*
X118599433Y-56057905D01*
X118591726Y-56064748D01*
X118444590Y-56218717D01*
X118438104Y-56226727D01*
X118318098Y-56402649D01*
X118313000Y-56411623D01*
X118223338Y-56604783D01*
X118219775Y-56614470D01*
X118164389Y-56814183D01*
X118165912Y-56822607D01*
X118178292Y-56826000D01*
X122168000Y-56826000D01*
X122236121Y-56846002D01*
X122282614Y-56899658D01*
X122294000Y-56952000D01*
X122294000Y-57208000D01*
X122273998Y-57276121D01*
X122220342Y-57322614D01*
X122168000Y-57334000D01*
X118183225Y-57334000D01*
X118169694Y-57337973D01*
X118168257Y-57347966D01*
X118198565Y-57482446D01*
X118201645Y-57492275D01*
X118281770Y-57689603D01*
X118286413Y-57698794D01*
X118397694Y-57880388D01*
X118403777Y-57888699D01*
X118543213Y-58049667D01*
X118550580Y-58056883D01*
X118714434Y-58192916D01*
X118722881Y-58198831D01*
X118791969Y-58239203D01*
X118840693Y-58290842D01*
X118853764Y-58360625D01*
X118827033Y-58426396D01*
X118786584Y-58459752D01*
X118773607Y-58466507D01*
X118769474Y-58469610D01*
X118769471Y-58469612D01*
X118745247Y-58487800D01*
X118594965Y-58600635D01*
X118440629Y-58762138D01*
X118314743Y-58946680D01*
X118299006Y-58980583D01*
X118223516Y-59143213D01*
X118220688Y-59149305D01*
X118160989Y-59364570D01*
X118137251Y-59586695D01*
X118137548Y-59591848D01*
X118137548Y-59591851D01*
X118143011Y-59686590D01*
X118150110Y-59809715D01*
X118151247Y-59814761D01*
X118151248Y-59814767D01*
X118171119Y-59902939D01*
X118199222Y-60027639D01*
X118283266Y-60234616D01*
X118334019Y-60317438D01*
X118397291Y-60420688D01*
X118399987Y-60425088D01*
X118546250Y-60593938D01*
X118718126Y-60736632D01*
X118788595Y-60777811D01*
X118791445Y-60779476D01*
X118840169Y-60831114D01*
X118853240Y-60900897D01*
X118826509Y-60966669D01*
X118786055Y-61000027D01*
X118773607Y-61006507D01*
X118769474Y-61009610D01*
X118769471Y-61009612D01*
X118745247Y-61027800D01*
X118594965Y-61140635D01*
X118440629Y-61302138D01*
X118314743Y-61486680D01*
X118299006Y-61520583D01*
X118223516Y-61683213D01*
X118220688Y-61689305D01*
X118160989Y-61904570D01*
X118137251Y-62126695D01*
X118137548Y-62131848D01*
X118137548Y-62131851D01*
X118143011Y-62226590D01*
X118150110Y-62349715D01*
X118151247Y-62354761D01*
X118151248Y-62354767D01*
X118171119Y-62442939D01*
X118199222Y-62567639D01*
X118283266Y-62774616D01*
X118334019Y-62857438D01*
X118397291Y-62960688D01*
X118399987Y-62965088D01*
X118546250Y-63133938D01*
X118718126Y-63276632D01*
X118911000Y-63389338D01*
X119119692Y-63469030D01*
X119124760Y-63470061D01*
X119124763Y-63470062D01*
X119232017Y-63491883D01*
X119338597Y-63513567D01*
X119343772Y-63513757D01*
X119343774Y-63513757D01*
X119556673Y-63521564D01*
X119556677Y-63521564D01*
X119561837Y-63521753D01*
X119566957Y-63521097D01*
X119566959Y-63521097D01*
X119778288Y-63494025D01*
X119778289Y-63494025D01*
X119783416Y-63493368D01*
X119788366Y-63491883D01*
X119992429Y-63430661D01*
X119992434Y-63430659D01*
X119997384Y-63429174D01*
X120197994Y-63330896D01*
X120379860Y-63201173D01*
X120538096Y-63043489D01*
X120597594Y-62960689D01*
X120668453Y-62862077D01*
X120669776Y-62863028D01*
X120716645Y-62819857D01*
X120786580Y-62807625D01*
X120852026Y-62835144D01*
X120879875Y-62866994D01*
X120939987Y-62965088D01*
X121086250Y-63133938D01*
X121258126Y-63276632D01*
X121451000Y-63389338D01*
X121659692Y-63469030D01*
X121664760Y-63470061D01*
X121664763Y-63470062D01*
X121772017Y-63491883D01*
X121878597Y-63513567D01*
X121883772Y-63513757D01*
X121883774Y-63513757D01*
X122096673Y-63521564D01*
X122096677Y-63521564D01*
X122101837Y-63521753D01*
X122106957Y-63521097D01*
X122106959Y-63521097D01*
X122318288Y-63494025D01*
X122318289Y-63494025D01*
X122323416Y-63493368D01*
X122328366Y-63491883D01*
X122532429Y-63430661D01*
X122532434Y-63430659D01*
X122537384Y-63429174D01*
X122737994Y-63330896D01*
X122919860Y-63201173D01*
X123078096Y-63043489D01*
X123137594Y-62960689D01*
X123205435Y-62866277D01*
X123208453Y-62862077D01*
X123253044Y-62771854D01*
X123301156Y-62719648D01*
X123369857Y-62701741D01*
X123437334Y-62723819D01*
X123482162Y-62778873D01*
X123492000Y-62827682D01*
X123492000Y-65044961D01*
X123471998Y-65113082D01*
X123418342Y-65159575D01*
X123348068Y-65169679D01*
X123314751Y-65160068D01*
X123261819Y-65136501D01*
X123261818Y-65136501D01*
X123255788Y-65133816D01*
X123153364Y-65112045D01*
X123075444Y-65095482D01*
X123075439Y-65095482D01*
X123068987Y-65094110D01*
X122878013Y-65094110D01*
X122871561Y-65095482D01*
X122871556Y-65095482D01*
X122793636Y-65112045D01*
X122691212Y-65133816D01*
X122685182Y-65136501D01*
X122685181Y-65136501D01*
X122522778Y-65208807D01*
X122522776Y-65208808D01*
X122516748Y-65211492D01*
X122511407Y-65215372D01*
X122511406Y-65215373D01*
X122485584Y-65234134D01*
X122362247Y-65323744D01*
X122357826Y-65328654D01*
X122357825Y-65328655D01*
X122309997Y-65381774D01*
X122234460Y-65465666D01*
X122187081Y-65547729D01*
X122162795Y-65589794D01*
X122138973Y-65631054D01*
X122079958Y-65812682D01*
X122059996Y-66002610D01*
X122060686Y-66009175D01*
X122071200Y-66109206D01*
X122079958Y-66192538D01*
X122138973Y-66374166D01*
X122142276Y-66379888D01*
X122142277Y-66379889D01*
X122169403Y-66426873D01*
X122234460Y-66539554D01*
X122238878Y-66544461D01*
X122238879Y-66544462D01*
X122254439Y-66561743D01*
X122362247Y-66681476D01*
X122516748Y-66793728D01*
X122522776Y-66796412D01*
X122522778Y-66796413D01*
X122678679Y-66865824D01*
X122691212Y-66871404D01*
X122784613Y-66891257D01*
X122871556Y-66909738D01*
X122871561Y-66909738D01*
X122878013Y-66911110D01*
X123068987Y-66911110D01*
X123075439Y-66909738D01*
X123075444Y-66909738D01*
X123162387Y-66891257D01*
X123255788Y-66871404D01*
X123314751Y-66845152D01*
X123385118Y-66835718D01*
X123449415Y-66865824D01*
X123487229Y-66925913D01*
X123492000Y-66960259D01*
X123492000Y-72826519D01*
X123471998Y-72894640D01*
X123418342Y-72941133D01*
X123348068Y-72951237D01*
X123283488Y-72921743D01*
X123250452Y-72876764D01*
X123241354Y-72855840D01*
X123179105Y-72759618D01*
X123122822Y-72672617D01*
X123122820Y-72672614D01*
X123120014Y-72668277D01*
X122969670Y-72503051D01*
X122965619Y-72499852D01*
X122965615Y-72499848D01*
X122798414Y-72367800D01*
X122798410Y-72367798D01*
X122794359Y-72364598D01*
X122598789Y-72256638D01*
X122593920Y-72254914D01*
X122593916Y-72254912D01*
X122393087Y-72183795D01*
X122393083Y-72183794D01*
X122388212Y-72182069D01*
X122383119Y-72181162D01*
X122383116Y-72181161D01*
X122173373Y-72143800D01*
X122173367Y-72143799D01*
X122168284Y-72142894D01*
X122094452Y-72141992D01*
X121950081Y-72140228D01*
X121950079Y-72140228D01*
X121944911Y-72140165D01*
X121724091Y-72173955D01*
X121511756Y-72243357D01*
X121481443Y-72259137D01*
X121384482Y-72309612D01*
X121313607Y-72346507D01*
X121309474Y-72349610D01*
X121309471Y-72349612D01*
X121153298Y-72466870D01*
X121134965Y-72480635D01*
X121058295Y-72560866D01*
X121054283Y-72565064D01*
X120992759Y-72600494D01*
X120921846Y-72597037D01*
X120864060Y-72555791D01*
X120845207Y-72522243D01*
X120803767Y-72411703D01*
X120800615Y-72403295D01*
X120713261Y-72286739D01*
X120596705Y-72199385D01*
X120460316Y-72148255D01*
X120398134Y-72141500D01*
X119644167Y-72141500D01*
X119576046Y-72121498D01*
X119529553Y-72067842D01*
X119518857Y-72002330D01*
X119530814Y-71888565D01*
X119531504Y-71882000D01*
X119511542Y-71692072D01*
X119452527Y-71510444D01*
X119357040Y-71345056D01*
X119229253Y-71203134D01*
X119074752Y-71090882D01*
X119068724Y-71088198D01*
X119068722Y-71088197D01*
X118906319Y-71015891D01*
X118906318Y-71015891D01*
X118900288Y-71013206D01*
X118806888Y-70993353D01*
X118719944Y-70974872D01*
X118719939Y-70974872D01*
X118713487Y-70973500D01*
X118522513Y-70973500D01*
X118516061Y-70974872D01*
X118516056Y-70974872D01*
X118429112Y-70993353D01*
X118335712Y-71013206D01*
X118329682Y-71015891D01*
X118329681Y-71015891D01*
X118167278Y-71088197D01*
X118167276Y-71088198D01*
X118161248Y-71090882D01*
X118006747Y-71203134D01*
X117878960Y-71345056D01*
X117783473Y-71510444D01*
X117724458Y-71692072D01*
X117704496Y-71882000D01*
X117724458Y-72071928D01*
X117783473Y-72253556D01*
X117786776Y-72259278D01*
X117786777Y-72259279D01*
X117802631Y-72286739D01*
X117878960Y-72418944D01*
X117883378Y-72423851D01*
X117883379Y-72423852D01*
X117901856Y-72444373D01*
X118006747Y-72560866D01*
X118012089Y-72564747D01*
X118012091Y-72564749D01*
X118089561Y-72621034D01*
X118132915Y-72677256D01*
X118141500Y-72722970D01*
X118141500Y-74398134D01*
X118148255Y-74460316D01*
X118199385Y-74596705D01*
X118286739Y-74713261D01*
X118403295Y-74800615D01*
X118411704Y-74803767D01*
X118411705Y-74803768D01*
X118520451Y-74844535D01*
X118577216Y-74887176D01*
X118601916Y-74953738D01*
X118586709Y-75023087D01*
X118567316Y-75049568D01*
X118474771Y-75146411D01*
X118440629Y-75182138D01*
X118314743Y-75366680D01*
X118220688Y-75569305D01*
X118160989Y-75784570D01*
X118137251Y-76006695D01*
X118150110Y-76229715D01*
X118151247Y-76234761D01*
X118151248Y-76234767D01*
X118172275Y-76328069D01*
X118199222Y-76447639D01*
X118231723Y-76527680D01*
X118267194Y-76615034D01*
X118283266Y-76654616D01*
X118334022Y-76737443D01*
X118397291Y-76840688D01*
X118399987Y-76845088D01*
X118546250Y-77013938D01*
X118718126Y-77156632D01*
X118911000Y-77269338D01*
X119119692Y-77349030D01*
X119124760Y-77350061D01*
X119124763Y-77350062D01*
X119181298Y-77361564D01*
X119338597Y-77393567D01*
X119343772Y-77393757D01*
X119343774Y-77393757D01*
X119556673Y-77401564D01*
X119556677Y-77401564D01*
X119561837Y-77401753D01*
X119566957Y-77401097D01*
X119566959Y-77401097D01*
X119778288Y-77374025D01*
X119778289Y-77374025D01*
X119783416Y-77373368D01*
X119788366Y-77371883D01*
X119992429Y-77310661D01*
X119992434Y-77310659D01*
X119997384Y-77309174D01*
X120197994Y-77210896D01*
X120379860Y-77081173D01*
X120538096Y-76923489D01*
X120597594Y-76840689D01*
X120668453Y-76742077D01*
X120669776Y-76743028D01*
X120716645Y-76699857D01*
X120786580Y-76687625D01*
X120852026Y-76715144D01*
X120879875Y-76746994D01*
X120939987Y-76845088D01*
X121086250Y-77013938D01*
X121258126Y-77156632D01*
X121451000Y-77269338D01*
X121659692Y-77349030D01*
X121664760Y-77350061D01*
X121664763Y-77350062D01*
X121721298Y-77361564D01*
X121878597Y-77393567D01*
X121883772Y-77393757D01*
X121883774Y-77393757D01*
X122096673Y-77401564D01*
X122096677Y-77401564D01*
X122101837Y-77401753D01*
X122106957Y-77401097D01*
X122106959Y-77401097D01*
X122318288Y-77374025D01*
X122318289Y-77374025D01*
X122323416Y-77373368D01*
X122328366Y-77371883D01*
X122532429Y-77310661D01*
X122532434Y-77310659D01*
X122537384Y-77309174D01*
X122737994Y-77210896D01*
X122919860Y-77081173D01*
X123078096Y-76923489D01*
X123137594Y-76840689D01*
X123205435Y-76746277D01*
X123208453Y-76742077D01*
X123253044Y-76651854D01*
X123301156Y-76599648D01*
X123369857Y-76581741D01*
X123437334Y-76603819D01*
X123482162Y-76658873D01*
X123492000Y-76707682D01*
X123492000Y-85366000D01*
X123471998Y-85434121D01*
X123418342Y-85480614D01*
X123366000Y-85492000D01*
X100634000Y-85492000D01*
X100565879Y-85471998D01*
X100519386Y-85418342D01*
X100508000Y-85366000D01*
X100508000Y-82632703D01*
X101390743Y-82632703D01*
X101428268Y-82917734D01*
X101504129Y-83195036D01*
X101505813Y-83198984D01*
X101589479Y-83395134D01*
X101616923Y-83459476D01*
X101764561Y-83706161D01*
X101944313Y-83930528D01*
X102152851Y-84128423D01*
X102386317Y-84296186D01*
X102390112Y-84298195D01*
X102390113Y-84298196D01*
X102411869Y-84309715D01*
X102640392Y-84430712D01*
X102910373Y-84529511D01*
X103191264Y-84590755D01*
X103219841Y-84593004D01*
X103414282Y-84608307D01*
X103414291Y-84608307D01*
X103416739Y-84608500D01*
X103572271Y-84608500D01*
X103574407Y-84608354D01*
X103574418Y-84608354D01*
X103782548Y-84594165D01*
X103782554Y-84594164D01*
X103786825Y-84593873D01*
X103791020Y-84593004D01*
X103791022Y-84593004D01*
X103927584Y-84564723D01*
X104068342Y-84535574D01*
X104339343Y-84439607D01*
X104594812Y-84307750D01*
X104598313Y-84305289D01*
X104598317Y-84305287D01*
X104712417Y-84225096D01*
X104830023Y-84142441D01*
X104903674Y-84074000D01*
X114148496Y-84074000D01*
X114149186Y-84080565D01*
X114155383Y-84139522D01*
X114168458Y-84263928D01*
X114227473Y-84445556D01*
X114322960Y-84610944D01*
X114450747Y-84752866D01*
X114605248Y-84865118D01*
X114611276Y-84867802D01*
X114611278Y-84867803D01*
X114773681Y-84940109D01*
X114779712Y-84942794D01*
X114873112Y-84962647D01*
X114960056Y-84981128D01*
X114960061Y-84981128D01*
X114966513Y-84982500D01*
X115157487Y-84982500D01*
X115163939Y-84981128D01*
X115163944Y-84981128D01*
X115250888Y-84962647D01*
X115344288Y-84942794D01*
X115350319Y-84940109D01*
X115512722Y-84867803D01*
X115512724Y-84867802D01*
X115518752Y-84865118D01*
X115673253Y-84752866D01*
X115801040Y-84610944D01*
X115896527Y-84445556D01*
X115955542Y-84263928D01*
X115968618Y-84139522D01*
X115974814Y-84080565D01*
X115975504Y-84074000D01*
X115961780Y-83943421D01*
X115956232Y-83890635D01*
X115956232Y-83890633D01*
X115955542Y-83884072D01*
X115896527Y-83702444D01*
X115801040Y-83537056D01*
X115673253Y-83395134D01*
X115532907Y-83293166D01*
X115524094Y-83286763D01*
X115524093Y-83286762D01*
X115518752Y-83282882D01*
X115512724Y-83280198D01*
X115512722Y-83280197D01*
X115350319Y-83207891D01*
X115350318Y-83207891D01*
X115344288Y-83205206D01*
X115250888Y-83185353D01*
X115163944Y-83166872D01*
X115163939Y-83166872D01*
X115157487Y-83165500D01*
X114966513Y-83165500D01*
X114960061Y-83166872D01*
X114960056Y-83166872D01*
X114873112Y-83185353D01*
X114779712Y-83205206D01*
X114773682Y-83207891D01*
X114773681Y-83207891D01*
X114611278Y-83280197D01*
X114611276Y-83280198D01*
X114605248Y-83282882D01*
X114599907Y-83286762D01*
X114599906Y-83286763D01*
X114591093Y-83293166D01*
X114450747Y-83395134D01*
X114322960Y-83537056D01*
X114227473Y-83702444D01*
X114168458Y-83884072D01*
X114167768Y-83890633D01*
X114167768Y-83890635D01*
X114162220Y-83943421D01*
X114148496Y-84074000D01*
X104903674Y-84074000D01*
X105040622Y-83946740D01*
X105222713Y-83724268D01*
X105372927Y-83479142D01*
X105411509Y-83391251D01*
X105486757Y-83219830D01*
X105488483Y-83215898D01*
X105502449Y-83166872D01*
X105559995Y-82964852D01*
X105567244Y-82939406D01*
X105607751Y-82654784D01*
X105607845Y-82636951D01*
X105608966Y-82423000D01*
X111100496Y-82423000D01*
X111120458Y-82612928D01*
X111179473Y-82794556D01*
X111274960Y-82959944D01*
X111402747Y-83101866D01*
X111490331Y-83165500D01*
X111544982Y-83205206D01*
X111557248Y-83214118D01*
X111563276Y-83216802D01*
X111563278Y-83216803D01*
X111711695Y-83282882D01*
X111731712Y-83291794D01*
X111825112Y-83311647D01*
X111912056Y-83330128D01*
X111912061Y-83330128D01*
X111918513Y-83331500D01*
X112109487Y-83331500D01*
X112115939Y-83330128D01*
X112115944Y-83330128D01*
X112202888Y-83311647D01*
X112296288Y-83291794D01*
X112316305Y-83282882D01*
X112464722Y-83216803D01*
X112464724Y-83216802D01*
X112470752Y-83214118D01*
X112483019Y-83205206D01*
X112537669Y-83165500D01*
X112625253Y-83101866D01*
X112753040Y-82959944D01*
X112848527Y-82794556D01*
X112901117Y-82632703D01*
X118390743Y-82632703D01*
X118428268Y-82917734D01*
X118504129Y-83195036D01*
X118505813Y-83198984D01*
X118589479Y-83395134D01*
X118616923Y-83459476D01*
X118764561Y-83706161D01*
X118944313Y-83930528D01*
X119152851Y-84128423D01*
X119386317Y-84296186D01*
X119390112Y-84298195D01*
X119390113Y-84298196D01*
X119411869Y-84309715D01*
X119640392Y-84430712D01*
X119910373Y-84529511D01*
X120191264Y-84590755D01*
X120219841Y-84593004D01*
X120414282Y-84608307D01*
X120414291Y-84608307D01*
X120416739Y-84608500D01*
X120572271Y-84608500D01*
X120574407Y-84608354D01*
X120574418Y-84608354D01*
X120782548Y-84594165D01*
X120782554Y-84594164D01*
X120786825Y-84593873D01*
X120791020Y-84593004D01*
X120791022Y-84593004D01*
X120927584Y-84564723D01*
X121068342Y-84535574D01*
X121339343Y-84439607D01*
X121594812Y-84307750D01*
X121598313Y-84305289D01*
X121598317Y-84305287D01*
X121712417Y-84225096D01*
X121830023Y-84142441D01*
X122040622Y-83946740D01*
X122222713Y-83724268D01*
X122372927Y-83479142D01*
X122411509Y-83391251D01*
X122486757Y-83219830D01*
X122488483Y-83215898D01*
X122502449Y-83166872D01*
X122559995Y-82964852D01*
X122567244Y-82939406D01*
X122607751Y-82654784D01*
X122607845Y-82636951D01*
X122609235Y-82371583D01*
X122609235Y-82371576D01*
X122609257Y-82367297D01*
X122571732Y-82082266D01*
X122565020Y-82057729D01*
X122518055Y-81886056D01*
X122495871Y-81804964D01*
X122383077Y-81540524D01*
X122235439Y-81293839D01*
X122055687Y-81069472D01*
X121847149Y-80871577D01*
X121613683Y-80703814D01*
X121591843Y-80692250D01*
X121568654Y-80679972D01*
X121359608Y-80569288D01*
X121089627Y-80470489D01*
X120808736Y-80409245D01*
X120777685Y-80406801D01*
X120585718Y-80391693D01*
X120585709Y-80391693D01*
X120583261Y-80391500D01*
X120427729Y-80391500D01*
X120425593Y-80391646D01*
X120425582Y-80391646D01*
X120217452Y-80405835D01*
X120217446Y-80405836D01*
X120213175Y-80406127D01*
X120208980Y-80406996D01*
X120208978Y-80406996D01*
X120072416Y-80435277D01*
X119931658Y-80464426D01*
X119660657Y-80560393D01*
X119405188Y-80692250D01*
X119401687Y-80694711D01*
X119401683Y-80694713D01*
X119391594Y-80701804D01*
X119169977Y-80857559D01*
X118959378Y-81053260D01*
X118777287Y-81275732D01*
X118627073Y-81520858D01*
X118625347Y-81524791D01*
X118625346Y-81524792D01*
X118578337Y-81631882D01*
X118511517Y-81784102D01*
X118432756Y-82060594D01*
X118392249Y-82345216D01*
X118392227Y-82349505D01*
X118392226Y-82349512D01*
X118390765Y-82628417D01*
X118390743Y-82632703D01*
X112901117Y-82632703D01*
X112907542Y-82612928D01*
X112927504Y-82423000D01*
X112922100Y-82371583D01*
X112908232Y-82239635D01*
X112908232Y-82239633D01*
X112907542Y-82233072D01*
X112848527Y-82051444D01*
X112753040Y-81886056D01*
X112625253Y-81744134D01*
X112470752Y-81631882D01*
X112464724Y-81629198D01*
X112464722Y-81629197D01*
X112302319Y-81556891D01*
X112302318Y-81556891D01*
X112296288Y-81554206D01*
X112202887Y-81534353D01*
X112115944Y-81515872D01*
X112115939Y-81515872D01*
X112109487Y-81514500D01*
X111918513Y-81514500D01*
X111912061Y-81515872D01*
X111912056Y-81515872D01*
X111825113Y-81534353D01*
X111731712Y-81554206D01*
X111725682Y-81556891D01*
X111725681Y-81556891D01*
X111563278Y-81629197D01*
X111563276Y-81629198D01*
X111557248Y-81631882D01*
X111402747Y-81744134D01*
X111274960Y-81886056D01*
X111179473Y-82051444D01*
X111120458Y-82233072D01*
X111119768Y-82239633D01*
X111119768Y-82239635D01*
X111105900Y-82371583D01*
X111100496Y-82423000D01*
X105608966Y-82423000D01*
X105609235Y-82371583D01*
X105609235Y-82371576D01*
X105609257Y-82367297D01*
X105571732Y-82082266D01*
X105565020Y-82057729D01*
X105518055Y-81886056D01*
X105495871Y-81804964D01*
X105383077Y-81540524D01*
X105235439Y-81293839D01*
X105055687Y-81069472D01*
X104847149Y-80871577D01*
X104613683Y-80703814D01*
X104591843Y-80692250D01*
X104568654Y-80679972D01*
X104359608Y-80569288D01*
X104089627Y-80470489D01*
X103808736Y-80409245D01*
X103777685Y-80406801D01*
X103585718Y-80391693D01*
X103585709Y-80391693D01*
X103583261Y-80391500D01*
X103427729Y-80391500D01*
X103425593Y-80391646D01*
X103425582Y-80391646D01*
X103217452Y-80405835D01*
X103217446Y-80405836D01*
X103213175Y-80406127D01*
X103208980Y-80406996D01*
X103208978Y-80406996D01*
X103072416Y-80435277D01*
X102931658Y-80464426D01*
X102660657Y-80560393D01*
X102405188Y-80692250D01*
X102401687Y-80694711D01*
X102401683Y-80694713D01*
X102391594Y-80701804D01*
X102169977Y-80857559D01*
X101959378Y-81053260D01*
X101777287Y-81275732D01*
X101627073Y-81520858D01*
X101625347Y-81524791D01*
X101625346Y-81524792D01*
X101578337Y-81631882D01*
X101511517Y-81784102D01*
X101432756Y-82060594D01*
X101392249Y-82345216D01*
X101392227Y-82349505D01*
X101392226Y-82349512D01*
X101390765Y-82628417D01*
X101390743Y-82632703D01*
X100508000Y-82632703D01*
X100508000Y-80000000D01*
X110086496Y-80000000D01*
X110106458Y-80189928D01*
X110165473Y-80371556D01*
X110260960Y-80536944D01*
X110265378Y-80541851D01*
X110265379Y-80541852D01*
X110291893Y-80571299D01*
X110388747Y-80678866D01*
X110487843Y-80750864D01*
X110500000Y-80759696D01*
X110543248Y-80791118D01*
X110549276Y-80793802D01*
X110549278Y-80793803D01*
X110711681Y-80866109D01*
X110717712Y-80868794D01*
X110811112Y-80888647D01*
X110898056Y-80907128D01*
X110898061Y-80907128D01*
X110904513Y-80908500D01*
X111095487Y-80908500D01*
X111101939Y-80907128D01*
X111101944Y-80907128D01*
X111188888Y-80888647D01*
X111282288Y-80868794D01*
X111307523Y-80857559D01*
X111350089Y-80838607D01*
X111448752Y-80794680D01*
X111519118Y-80785246D01*
X111551247Y-80794680D01*
X111649911Y-80838607D01*
X111692478Y-80857559D01*
X111717712Y-80868794D01*
X111811112Y-80888647D01*
X111898056Y-80907128D01*
X111898061Y-80907128D01*
X111904513Y-80908500D01*
X112095487Y-80908500D01*
X112101939Y-80907128D01*
X112101944Y-80907128D01*
X112188888Y-80888647D01*
X112282288Y-80868794D01*
X112307523Y-80857559D01*
X112350089Y-80838607D01*
X112448752Y-80794680D01*
X112519118Y-80785246D01*
X112551247Y-80794680D01*
X112649911Y-80838607D01*
X112692478Y-80857559D01*
X112717712Y-80868794D01*
X112811112Y-80888647D01*
X112898056Y-80907128D01*
X112898061Y-80907128D01*
X112904513Y-80908500D01*
X113095487Y-80908500D01*
X113101939Y-80907128D01*
X113101944Y-80907128D01*
X113188888Y-80888647D01*
X113282288Y-80868794D01*
X113288319Y-80866109D01*
X113450722Y-80793803D01*
X113450724Y-80793802D01*
X113456752Y-80791118D01*
X113500001Y-80759696D01*
X113512157Y-80750864D01*
X113611253Y-80678866D01*
X113708107Y-80571299D01*
X113734621Y-80541852D01*
X113734622Y-80541851D01*
X113739040Y-80536944D01*
X113834527Y-80371556D01*
X113893542Y-80189928D01*
X113913504Y-80000000D01*
X113893542Y-79810072D01*
X113834527Y-79628444D01*
X113739040Y-79463056D01*
X113611253Y-79321134D01*
X113512157Y-79249136D01*
X113462094Y-79212763D01*
X113462093Y-79212762D01*
X113456752Y-79208882D01*
X113450724Y-79206198D01*
X113450722Y-79206197D01*
X113288319Y-79133891D01*
X113288318Y-79133891D01*
X113282288Y-79131206D01*
X113188888Y-79111353D01*
X113101944Y-79092872D01*
X113101939Y-79092872D01*
X113095487Y-79091500D01*
X112904513Y-79091500D01*
X112898061Y-79092872D01*
X112898056Y-79092872D01*
X112811112Y-79111353D01*
X112717712Y-79131206D01*
X112551248Y-79205320D01*
X112480882Y-79214754D01*
X112448753Y-79205320D01*
X112282288Y-79131206D01*
X112188888Y-79111353D01*
X112101944Y-79092872D01*
X112101939Y-79092872D01*
X112095487Y-79091500D01*
X111904513Y-79091500D01*
X111898061Y-79092872D01*
X111898056Y-79092872D01*
X111811112Y-79111353D01*
X111717712Y-79131206D01*
X111551248Y-79205320D01*
X111480882Y-79214754D01*
X111448753Y-79205320D01*
X111282288Y-79131206D01*
X111188888Y-79111353D01*
X111101944Y-79092872D01*
X111101939Y-79092872D01*
X111095487Y-79091500D01*
X110904513Y-79091500D01*
X110898061Y-79092872D01*
X110898056Y-79092872D01*
X110811112Y-79111353D01*
X110717712Y-79131206D01*
X110711682Y-79133891D01*
X110711681Y-79133891D01*
X110549278Y-79206197D01*
X110549276Y-79206198D01*
X110543248Y-79208882D01*
X110537907Y-79212762D01*
X110537906Y-79212763D01*
X110487843Y-79249136D01*
X110388747Y-79321134D01*
X110260960Y-79463056D01*
X110165473Y-79628444D01*
X110106458Y-79810072D01*
X110086496Y-80000000D01*
X100508000Y-80000000D01*
X100508000Y-76676822D01*
X100528002Y-76608701D01*
X100581658Y-76562208D01*
X100651932Y-76552104D01*
X100716512Y-76581598D01*
X100742584Y-76615034D01*
X100743266Y-76614616D01*
X100823948Y-76746277D01*
X100859987Y-76805088D01*
X101006250Y-76973938D01*
X101178126Y-77116632D01*
X101371000Y-77229338D01*
X101579692Y-77309030D01*
X101584760Y-77310061D01*
X101584763Y-77310062D01*
X101692017Y-77331883D01*
X101798597Y-77353567D01*
X101803772Y-77353757D01*
X101803774Y-77353757D01*
X102016673Y-77361564D01*
X102016677Y-77361564D01*
X102021837Y-77361753D01*
X102026957Y-77361097D01*
X102026959Y-77361097D01*
X102238288Y-77334025D01*
X102238289Y-77334025D01*
X102243416Y-77333368D01*
X102319102Y-77310661D01*
X102452429Y-77270661D01*
X102452434Y-77270659D01*
X102457384Y-77269174D01*
X102657994Y-77170896D01*
X102839860Y-77041173D01*
X102948091Y-76933319D01*
X103010462Y-76899404D01*
X103081268Y-76904592D01*
X103138030Y-76947238D01*
X103155012Y-76978341D01*
X103199385Y-77096705D01*
X103286739Y-77213261D01*
X103403295Y-77300615D01*
X103539684Y-77351745D01*
X103601866Y-77358500D01*
X105398134Y-77358500D01*
X105460316Y-77351745D01*
X105596705Y-77300615D01*
X105713261Y-77213261D01*
X105800615Y-77096705D01*
X105851745Y-76960316D01*
X105858500Y-76898134D01*
X105858500Y-75101866D01*
X105851745Y-75039684D01*
X105800615Y-74903295D01*
X105713261Y-74786739D01*
X105596705Y-74699385D01*
X105569905Y-74689338D01*
X105478203Y-74654960D01*
X105421439Y-74612318D01*
X105396739Y-74545756D01*
X105411947Y-74476408D01*
X105433493Y-74447727D01*
X105497956Y-74383489D01*
X105538096Y-74343489D01*
X105597594Y-74260689D01*
X105665435Y-74166277D01*
X105668453Y-74162077D01*
X105689320Y-74119857D01*
X105765136Y-73966453D01*
X105765137Y-73966451D01*
X105767430Y-73961811D01*
X105832370Y-73748069D01*
X105861529Y-73526590D01*
X105863156Y-73460000D01*
X105844852Y-73237361D01*
X105790431Y-73020702D01*
X105701354Y-72815840D01*
X105580014Y-72628277D01*
X105429670Y-72463051D01*
X105425619Y-72459852D01*
X105425615Y-72459848D01*
X105258414Y-72327800D01*
X105258410Y-72327798D01*
X105254359Y-72324598D01*
X105058789Y-72216638D01*
X105053920Y-72214914D01*
X105053916Y-72214912D01*
X104853087Y-72143795D01*
X104853083Y-72143794D01*
X104848212Y-72142069D01*
X104843119Y-72141162D01*
X104843116Y-72141161D01*
X104633373Y-72103800D01*
X104633367Y-72103799D01*
X104628284Y-72102894D01*
X104554452Y-72101992D01*
X104410081Y-72100228D01*
X104410079Y-72100228D01*
X104404911Y-72100165D01*
X104184091Y-72133955D01*
X103971756Y-72203357D01*
X103773607Y-72306507D01*
X103769474Y-72309610D01*
X103769471Y-72309612D01*
X103599100Y-72437530D01*
X103594965Y-72440635D01*
X103591393Y-72444373D01*
X103445504Y-72597037D01*
X103440629Y-72602138D01*
X103333201Y-72759621D01*
X103278293Y-72804621D01*
X103207768Y-72812792D01*
X103144021Y-72781538D01*
X103123324Y-72757054D01*
X103042822Y-72632617D01*
X103042820Y-72632614D01*
X103040014Y-72628277D01*
X102889670Y-72463051D01*
X102885619Y-72459852D01*
X102885615Y-72459848D01*
X102718414Y-72327800D01*
X102718410Y-72327798D01*
X102714359Y-72324598D01*
X102518789Y-72216638D01*
X102513920Y-72214914D01*
X102513916Y-72214912D01*
X102313087Y-72143795D01*
X102313083Y-72143794D01*
X102308212Y-72142069D01*
X102303119Y-72141162D01*
X102303116Y-72141161D01*
X102093373Y-72103800D01*
X102093367Y-72103799D01*
X102088284Y-72102894D01*
X102014452Y-72101992D01*
X101870081Y-72100228D01*
X101870079Y-72100228D01*
X101864911Y-72100165D01*
X101644091Y-72133955D01*
X101431756Y-72203357D01*
X101233607Y-72306507D01*
X101229474Y-72309610D01*
X101229471Y-72309612D01*
X101059100Y-72437530D01*
X101054965Y-72440635D01*
X101051393Y-72444373D01*
X100905504Y-72597037D01*
X100900629Y-72602138D01*
X100774743Y-72786680D01*
X100748946Y-72842256D01*
X100748288Y-72843673D01*
X100701464Y-72897040D01*
X100633221Y-72916621D01*
X100565225Y-72896198D01*
X100519065Y-72842256D01*
X100508000Y-72790623D01*
X100508000Y-66945183D01*
X100528002Y-66877062D01*
X100581658Y-66830569D01*
X100651932Y-66820465D01*
X100685248Y-66830076D01*
X100766177Y-66866108D01*
X100766185Y-66866111D01*
X100772212Y-66868794D01*
X100865613Y-66888647D01*
X100952556Y-66907128D01*
X100952561Y-66907128D01*
X100959013Y-66908500D01*
X101149987Y-66908500D01*
X101156439Y-66907128D01*
X101156444Y-66907128D01*
X101243387Y-66888647D01*
X101336788Y-66868794D01*
X101373284Y-66852545D01*
X101505222Y-66793803D01*
X101505224Y-66793802D01*
X101511252Y-66791118D01*
X101665753Y-66678866D01*
X101771211Y-66561743D01*
X101789121Y-66541852D01*
X101789122Y-66541851D01*
X101793540Y-66536944D01*
X101889027Y-66371556D01*
X101948042Y-66189928D01*
X101951445Y-66157556D01*
X101967314Y-66006565D01*
X101968004Y-66000000D01*
X101948042Y-65810072D01*
X101940220Y-65786000D01*
X105004496Y-65786000D01*
X105024458Y-65975928D01*
X105083473Y-66157556D01*
X105086776Y-66163278D01*
X105086777Y-66163279D01*
X105120686Y-66222010D01*
X105178960Y-66322944D01*
X105183378Y-66327851D01*
X105183379Y-66327852D01*
X105217071Y-66365271D01*
X105306747Y-66464866D01*
X105398083Y-66531226D01*
X105448737Y-66568028D01*
X105461248Y-66577118D01*
X105467276Y-66579802D01*
X105467278Y-66579803D01*
X105618269Y-66647028D01*
X105635712Y-66654794D01*
X105725857Y-66673955D01*
X105816056Y-66693128D01*
X105816061Y-66693128D01*
X105822513Y-66694500D01*
X106013487Y-66694500D01*
X106019939Y-66693128D01*
X106019944Y-66693128D01*
X106110143Y-66673955D01*
X106200288Y-66654794D01*
X106217731Y-66647028D01*
X106368722Y-66579803D01*
X106368724Y-66579802D01*
X106374752Y-66577118D01*
X106387264Y-66568028D01*
X106437917Y-66531226D01*
X106529253Y-66464866D01*
X106618929Y-66365271D01*
X106652621Y-66327852D01*
X106652622Y-66327851D01*
X106657040Y-66322944D01*
X106715314Y-66222010D01*
X106749223Y-66163279D01*
X106749224Y-66163278D01*
X106752527Y-66157556D01*
X106811542Y-65975928D01*
X106818156Y-65913000D01*
X110465496Y-65913000D01*
X110485458Y-66102928D01*
X110544473Y-66284556D01*
X110547776Y-66290278D01*
X110547777Y-66290279D01*
X110590267Y-66363873D01*
X110607005Y-66432868D01*
X110590268Y-66489870D01*
X110548772Y-66561743D01*
X110489757Y-66743371D01*
X110489067Y-66749932D01*
X110489067Y-66749934D01*
X110476575Y-66868794D01*
X110469795Y-66933299D01*
X110489757Y-67123227D01*
X110548772Y-67304855D01*
X110642612Y-67467390D01*
X110644259Y-67470243D01*
X110643737Y-67470544D01*
X110666057Y-67533101D01*
X110649383Y-67603290D01*
X110642056Y-67615981D01*
X110583041Y-67797609D01*
X110582351Y-67804170D01*
X110582351Y-67804172D01*
X110579146Y-67834670D01*
X110563079Y-67987537D01*
X110583041Y-68177465D01*
X110642056Y-68359093D01*
X110666758Y-68401877D01*
X110673810Y-68414092D01*
X110690548Y-68483087D01*
X110673810Y-68540091D01*
X110630322Y-68615415D01*
X110571307Y-68797043D01*
X110570617Y-68803604D01*
X110570617Y-68803606D01*
X110565370Y-68853532D01*
X110551345Y-68986971D01*
X110571307Y-69176899D01*
X110630322Y-69358527D01*
X110633625Y-69364249D01*
X110633626Y-69364250D01*
X110692042Y-69465429D01*
X110708780Y-69534424D01*
X110692043Y-69591428D01*
X110677772Y-69616145D01*
X110618757Y-69797773D01*
X110598795Y-69987701D01*
X110618757Y-70177629D01*
X110677772Y-70359257D01*
X110681075Y-70364979D01*
X110681076Y-70364980D01*
X110712957Y-70420199D01*
X110729695Y-70489194D01*
X110712957Y-70546199D01*
X110665473Y-70628444D01*
X110606458Y-70810072D01*
X110605768Y-70816633D01*
X110605768Y-70816635D01*
X110589281Y-70973500D01*
X110586496Y-71000000D01*
X110606458Y-71189928D01*
X110665473Y-71371556D01*
X110760960Y-71536944D01*
X110765378Y-71541851D01*
X110765379Y-71541852D01*
X110796500Y-71576415D01*
X110888747Y-71678866D01*
X110936319Y-71713429D01*
X111024008Y-71777139D01*
X111043248Y-71791118D01*
X111049276Y-71793802D01*
X111049278Y-71793803D01*
X111211681Y-71866109D01*
X111217712Y-71868794D01*
X111310727Y-71888565D01*
X111398056Y-71907128D01*
X111398061Y-71907128D01*
X111404513Y-71908500D01*
X111595487Y-71908500D01*
X111601939Y-71907128D01*
X111601944Y-71907128D01*
X111689273Y-71888565D01*
X111782288Y-71868794D01*
X111914156Y-71810083D01*
X111984522Y-71800649D01*
X112031008Y-71819777D01*
X112031746Y-71818499D01*
X112037464Y-71821800D01*
X112042805Y-71825681D01*
X112048833Y-71828365D01*
X112048835Y-71828366D01*
X112169300Y-71882000D01*
X112217269Y-71903357D01*
X112310669Y-71923210D01*
X112397613Y-71941691D01*
X112397618Y-71941691D01*
X112404070Y-71943063D01*
X112595044Y-71943063D01*
X112601496Y-71941691D01*
X112601501Y-71941691D01*
X112688445Y-71923210D01*
X112781845Y-71903357D01*
X112829814Y-71882000D01*
X112950279Y-71828366D01*
X112950281Y-71828365D01*
X112956309Y-71825681D01*
X112990763Y-71800649D01*
X113023121Y-71777139D01*
X113110810Y-71713429D01*
X113238597Y-71571507D01*
X113334084Y-71406119D01*
X113393099Y-71224491D01*
X113397422Y-71183365D01*
X113412371Y-71041128D01*
X113413061Y-71034563D01*
X113393099Y-70844635D01*
X113334084Y-70663007D01*
X113303204Y-70609522D01*
X113286467Y-70540530D01*
X113303204Y-70483526D01*
X113347556Y-70406707D01*
X113406571Y-70225079D01*
X113426533Y-70035151D01*
X113406571Y-69845223D01*
X113347556Y-69663595D01*
X113316860Y-69610427D01*
X113285313Y-69555787D01*
X113268575Y-69486792D01*
X113285312Y-69429788D01*
X113297630Y-69408453D01*
X113356645Y-69226825D01*
X113361893Y-69176899D01*
X113375917Y-69043462D01*
X113376607Y-69036897D01*
X113356645Y-68846969D01*
X113297630Y-68665341D01*
X113262445Y-68604399D01*
X113245707Y-68535404D01*
X113262445Y-68478399D01*
X113306625Y-68401877D01*
X113306626Y-68401876D01*
X113309929Y-68396154D01*
X113368944Y-68214526D01*
X113372180Y-68183743D01*
X113388216Y-68031163D01*
X113388906Y-68024598D01*
X113375606Y-67898056D01*
X113369634Y-67841233D01*
X113369634Y-67841231D01*
X113368944Y-67834670D01*
X113309929Y-67653042D01*
X113292161Y-67622266D01*
X113274744Y-67592100D01*
X113258830Y-67526500D01*
X116618412Y-67526500D01*
X116619102Y-67533065D01*
X116632373Y-67659327D01*
X116638374Y-67716428D01*
X116697389Y-67898056D01*
X116792876Y-68063444D01*
X116797294Y-68068351D01*
X116797295Y-68068352D01*
X116916241Y-68200455D01*
X116920663Y-68205366D01*
X117075164Y-68317618D01*
X117081192Y-68320302D01*
X117081194Y-68320303D01*
X117237443Y-68389869D01*
X117249628Y-68395294D01*
X117338065Y-68414092D01*
X117429972Y-68433628D01*
X117429977Y-68433628D01*
X117436429Y-68435000D01*
X117627403Y-68435000D01*
X117633855Y-68433628D01*
X117633860Y-68433628D01*
X117725767Y-68414092D01*
X117814204Y-68395294D01*
X117826389Y-68389869D01*
X117982638Y-68320303D01*
X117982640Y-68320302D01*
X117988668Y-68317618D01*
X118143169Y-68205366D01*
X118147591Y-68200455D01*
X118266537Y-68068352D01*
X118266538Y-68068351D01*
X118270956Y-68063444D01*
X118366443Y-67898056D01*
X118425458Y-67716428D01*
X118431460Y-67659327D01*
X118444730Y-67533065D01*
X118445420Y-67526500D01*
X118425458Y-67336572D01*
X118366443Y-67154944D01*
X118270956Y-66989556D01*
X118231003Y-66945183D01*
X118147591Y-66852545D01*
X118147590Y-66852544D01*
X118143169Y-66847634D01*
X117988668Y-66735382D01*
X117982640Y-66732698D01*
X117982638Y-66732697D01*
X117820235Y-66660391D01*
X117820234Y-66660391D01*
X117814204Y-66657706D01*
X117720804Y-66637853D01*
X117633860Y-66619372D01*
X117633855Y-66619372D01*
X117627403Y-66618000D01*
X117436429Y-66618000D01*
X117429977Y-66619372D01*
X117429972Y-66619372D01*
X117343028Y-66637853D01*
X117249628Y-66657706D01*
X117243598Y-66660391D01*
X117243597Y-66660391D01*
X117081194Y-66732697D01*
X117081192Y-66732698D01*
X117075164Y-66735382D01*
X116920663Y-66847634D01*
X116916242Y-66852544D01*
X116916241Y-66852545D01*
X116832830Y-66945183D01*
X116792876Y-66989556D01*
X116697389Y-67154944D01*
X116638374Y-67336572D01*
X116618412Y-67526500D01*
X113258830Y-67526500D01*
X113258006Y-67523105D01*
X113274744Y-67466100D01*
X113318924Y-67389578D01*
X113318925Y-67389577D01*
X113322228Y-67383855D01*
X113381243Y-67202227D01*
X113401205Y-67012299D01*
X113390426Y-66909738D01*
X113381933Y-66828934D01*
X113381933Y-66828932D01*
X113381243Y-66822371D01*
X113322228Y-66640743D01*
X113318924Y-66635020D01*
X113230045Y-66481077D01*
X113230043Y-66481074D01*
X113226741Y-66475355D01*
X113222322Y-66470447D01*
X113218440Y-66465104D01*
X113219504Y-66464331D01*
X113191857Y-66406719D01*
X113200620Y-66336266D01*
X113207091Y-66323416D01*
X113226223Y-66290279D01*
X113226224Y-66290278D01*
X113229527Y-66284556D01*
X113288542Y-66102928D01*
X113308504Y-65913000D01*
X113297686Y-65810072D01*
X113289232Y-65729635D01*
X113289232Y-65729633D01*
X113288542Y-65723072D01*
X113229527Y-65541444D01*
X113134040Y-65376056D01*
X113006253Y-65234134D01*
X112871873Y-65136501D01*
X112857094Y-65125763D01*
X112857093Y-65125762D01*
X112851752Y-65121882D01*
X112845722Y-65119197D01*
X112839999Y-65115893D01*
X112840838Y-65114441D01*
X112793121Y-65073887D01*
X112772467Y-65005961D01*
X112777563Y-64972758D01*
X112777129Y-64972666D01*
X112778502Y-64966205D01*
X112780542Y-64959928D01*
X112785177Y-64915834D01*
X112799814Y-64776565D01*
X112800504Y-64770000D01*
X112780542Y-64580072D01*
X112721527Y-64398444D01*
X112626040Y-64233056D01*
X112498253Y-64091134D01*
X112343752Y-63978882D01*
X112337724Y-63976198D01*
X112337722Y-63976197D01*
X112175319Y-63903891D01*
X112175318Y-63903891D01*
X112169288Y-63901206D01*
X112075888Y-63881353D01*
X111988944Y-63862872D01*
X111988939Y-63862872D01*
X111982487Y-63861500D01*
X111791513Y-63861500D01*
X111785061Y-63862872D01*
X111785056Y-63862872D01*
X111698112Y-63881353D01*
X111604712Y-63901206D01*
X111598682Y-63903891D01*
X111598681Y-63903891D01*
X111436278Y-63976197D01*
X111436276Y-63976198D01*
X111430248Y-63978882D01*
X111275747Y-64091134D01*
X111147960Y-64233056D01*
X111052473Y-64398444D01*
X110993458Y-64580072D01*
X110973496Y-64770000D01*
X110974186Y-64776565D01*
X110988824Y-64915834D01*
X110993458Y-64959928D01*
X110995498Y-64966205D01*
X110996871Y-64972666D01*
X110995575Y-64972942D01*
X110997401Y-65036781D01*
X110960740Y-65097580D01*
X110933680Y-65115337D01*
X110934001Y-65115893D01*
X110928278Y-65119197D01*
X110922248Y-65121882D01*
X110916907Y-65125762D01*
X110916906Y-65125763D01*
X110902127Y-65136501D01*
X110767747Y-65234134D01*
X110639960Y-65376056D01*
X110544473Y-65541444D01*
X110485458Y-65723072D01*
X110484768Y-65729633D01*
X110484768Y-65729635D01*
X110476314Y-65810072D01*
X110465496Y-65913000D01*
X106818156Y-65913000D01*
X106831504Y-65786000D01*
X106815219Y-65631054D01*
X106812232Y-65602635D01*
X106812232Y-65602633D01*
X106811542Y-65596072D01*
X106752527Y-65414444D01*
X106657040Y-65249056D01*
X106529253Y-65107134D01*
X106374752Y-64994882D01*
X106368724Y-64992198D01*
X106368722Y-64992197D01*
X106206319Y-64919891D01*
X106206318Y-64919891D01*
X106200288Y-64917206D01*
X106106888Y-64897353D01*
X106019944Y-64878872D01*
X106019939Y-64878872D01*
X106013487Y-64877500D01*
X105822513Y-64877500D01*
X105816061Y-64878872D01*
X105816056Y-64878872D01*
X105729112Y-64897353D01*
X105635712Y-64917206D01*
X105629682Y-64919891D01*
X105629681Y-64919891D01*
X105467278Y-64992197D01*
X105467276Y-64992198D01*
X105461248Y-64994882D01*
X105306747Y-65107134D01*
X105178960Y-65249056D01*
X105083473Y-65414444D01*
X105024458Y-65596072D01*
X105023768Y-65602633D01*
X105023768Y-65602635D01*
X105020781Y-65631054D01*
X105004496Y-65786000D01*
X101940220Y-65786000D01*
X101889027Y-65628444D01*
X101793540Y-65463056D01*
X101720354Y-65381774D01*
X101670175Y-65326045D01*
X101670174Y-65326044D01*
X101665753Y-65321134D01*
X101511252Y-65208882D01*
X101505224Y-65206198D01*
X101505222Y-65206197D01*
X101342819Y-65133891D01*
X101342818Y-65133891D01*
X101336788Y-65131206D01*
X101223539Y-65107134D01*
X101156444Y-65092872D01*
X101156439Y-65092872D01*
X101149987Y-65091500D01*
X100959013Y-65091500D01*
X100952561Y-65092872D01*
X100952556Y-65092872D01*
X100885461Y-65107134D01*
X100772212Y-65131206D01*
X100766185Y-65133889D01*
X100766177Y-65133892D01*
X100685248Y-65169924D01*
X100614881Y-65179358D01*
X100550584Y-65149251D01*
X100512771Y-65089162D01*
X100508000Y-65054817D01*
X100508000Y-62741925D01*
X100528002Y-62673804D01*
X100581658Y-62627311D01*
X100651932Y-62617207D01*
X100716512Y-62646701D01*
X100750743Y-62694521D01*
X100783266Y-62774616D01*
X100834019Y-62857438D01*
X100897291Y-62960688D01*
X100899987Y-62965088D01*
X101046250Y-63133938D01*
X101218126Y-63276632D01*
X101411000Y-63389338D01*
X101619692Y-63469030D01*
X101624760Y-63470061D01*
X101624763Y-63470062D01*
X101732017Y-63491883D01*
X101838597Y-63513567D01*
X101843772Y-63513757D01*
X101843774Y-63513757D01*
X102056673Y-63521564D01*
X102056677Y-63521564D01*
X102061837Y-63521753D01*
X102066957Y-63521097D01*
X102066959Y-63521097D01*
X102278288Y-63494025D01*
X102278289Y-63494025D01*
X102283416Y-63493368D01*
X102288366Y-63491883D01*
X102492429Y-63430661D01*
X102492434Y-63430659D01*
X102497384Y-63429174D01*
X102697994Y-63330896D01*
X102879860Y-63201173D01*
X103038096Y-63043489D01*
X103097594Y-62960689D01*
X103168453Y-62862077D01*
X103169776Y-62863028D01*
X103216645Y-62819857D01*
X103286580Y-62807625D01*
X103352026Y-62835144D01*
X103379875Y-62866994D01*
X103439987Y-62965088D01*
X103586250Y-63133938D01*
X103758126Y-63276632D01*
X103951000Y-63389338D01*
X104159692Y-63469030D01*
X104164760Y-63470061D01*
X104164763Y-63470062D01*
X104272017Y-63491883D01*
X104378597Y-63513567D01*
X104383772Y-63513757D01*
X104383774Y-63513757D01*
X104596673Y-63521564D01*
X104596677Y-63521564D01*
X104601837Y-63521753D01*
X104606957Y-63521097D01*
X104606959Y-63521097D01*
X104818288Y-63494025D01*
X104818289Y-63494025D01*
X104823416Y-63493368D01*
X104828366Y-63491883D01*
X105032429Y-63430661D01*
X105032434Y-63430659D01*
X105037384Y-63429174D01*
X105237994Y-63330896D01*
X105419860Y-63201173D01*
X105578096Y-63043489D01*
X105637594Y-62960689D01*
X105705435Y-62866277D01*
X105708453Y-62862077D01*
X105729320Y-62819857D01*
X105805136Y-62666453D01*
X105805137Y-62666451D01*
X105807430Y-62661811D01*
X105872370Y-62448069D01*
X105901529Y-62226590D01*
X105903156Y-62160000D01*
X105884852Y-61937361D01*
X105830431Y-61720702D01*
X105741354Y-61515840D01*
X105620014Y-61328277D01*
X105469670Y-61163051D01*
X105465619Y-61159852D01*
X105465615Y-61159848D01*
X105298414Y-61027800D01*
X105298410Y-61027798D01*
X105294359Y-61024598D01*
X105253053Y-61001796D01*
X105203084Y-60951364D01*
X105188312Y-60881921D01*
X105213428Y-60815516D01*
X105240780Y-60788909D01*
X105284603Y-60757650D01*
X105419860Y-60661173D01*
X105578096Y-60503489D01*
X105637594Y-60420689D01*
X105705435Y-60326277D01*
X105708453Y-60322077D01*
X105729320Y-60279857D01*
X105805136Y-60126453D01*
X105805137Y-60126451D01*
X105807430Y-60121811D01*
X105872370Y-59908069D01*
X105901529Y-59686590D01*
X105903156Y-59620000D01*
X105884852Y-59397361D01*
X105830431Y-59180702D01*
X105741354Y-58975840D01*
X105620014Y-58788277D01*
X105469670Y-58623051D01*
X105465619Y-58619852D01*
X105465615Y-58619848D01*
X105298414Y-58487800D01*
X105298410Y-58487798D01*
X105294359Y-58484598D01*
X105252569Y-58461529D01*
X105202598Y-58411097D01*
X105187826Y-58341654D01*
X105212942Y-58275248D01*
X105240294Y-58248641D01*
X105415328Y-58123792D01*
X105423200Y-58117139D01*
X105574052Y-57966812D01*
X105580730Y-57958965D01*
X105705003Y-57786020D01*
X105710313Y-57777183D01*
X105804670Y-57586267D01*
X105808469Y-57576672D01*
X105870377Y-57372910D01*
X105872555Y-57362837D01*
X105873986Y-57351962D01*
X105871775Y-57337778D01*
X105858617Y-57334000D01*
X101872000Y-57334000D01*
X101803879Y-57313998D01*
X101757386Y-57260342D01*
X101746000Y-57208000D01*
X101746000Y-56952000D01*
X101766002Y-56883879D01*
X101819658Y-56837386D01*
X101872000Y-56826000D01*
X105858344Y-56826000D01*
X105871875Y-56822027D01*
X105873180Y-56812947D01*
X105831214Y-56645875D01*
X105827894Y-56636124D01*
X105742972Y-56440814D01*
X105738105Y-56431739D01*
X105622426Y-56252926D01*
X105616136Y-56244757D01*
X105472806Y-56087240D01*
X105465273Y-56080215D01*
X105298139Y-55948222D01*
X105289556Y-55942520D01*
X105252602Y-55922120D01*
X105202631Y-55871687D01*
X105187859Y-55802245D01*
X105212975Y-55735839D01*
X105240327Y-55709232D01*
X105263797Y-55692491D01*
X105419860Y-55581173D01*
X105578096Y-55423489D01*
X105619328Y-55366109D01*
X105705435Y-55246277D01*
X105708453Y-55242077D01*
X105729320Y-55199857D01*
X105805136Y-55046453D01*
X105805137Y-55046451D01*
X105807430Y-55041811D01*
X105872370Y-54828069D01*
X105901529Y-54606590D01*
X105903156Y-54540000D01*
X105884852Y-54317361D01*
X105830431Y-54100702D01*
X105741354Y-53895840D01*
X105696202Y-53826045D01*
X105622822Y-53712617D01*
X105622820Y-53712614D01*
X105620014Y-53708277D01*
X105551247Y-53632703D01*
X109890743Y-53632703D01*
X109891302Y-53636947D01*
X109891302Y-53636951D01*
X109900419Y-53706197D01*
X109928268Y-53917734D01*
X110004129Y-54195036D01*
X110005813Y-54198984D01*
X110054165Y-54312342D01*
X110116923Y-54459476D01*
X110128693Y-54479142D01*
X110254846Y-54689928D01*
X110264561Y-54706161D01*
X110444313Y-54930528D01*
X110556452Y-55036944D01*
X110646004Y-55121925D01*
X110652851Y-55128423D01*
X110886317Y-55296186D01*
X110890112Y-55298195D01*
X110890113Y-55298196D01*
X110911869Y-55309715D01*
X111140392Y-55430712D01*
X111410373Y-55529511D01*
X111691264Y-55590755D01*
X111719841Y-55593004D01*
X111914282Y-55608307D01*
X111914291Y-55608307D01*
X111916739Y-55608500D01*
X112072271Y-55608500D01*
X112074407Y-55608354D01*
X112074418Y-55608354D01*
X112282548Y-55594165D01*
X112282554Y-55594164D01*
X112286825Y-55593873D01*
X112291020Y-55593004D01*
X112291022Y-55593004D01*
X112427583Y-55564724D01*
X112568342Y-55535574D01*
X112839343Y-55439607D01*
X113094812Y-55307750D01*
X113098313Y-55305289D01*
X113098317Y-55305287D01*
X113248328Y-55199857D01*
X113330023Y-55142441D01*
X113433318Y-55046453D01*
X113537479Y-54949661D01*
X113537481Y-54949658D01*
X113540622Y-54946740D01*
X113722713Y-54724268D01*
X113860145Y-54500000D01*
X115586496Y-54500000D01*
X115606458Y-54689928D01*
X115665473Y-54871556D01*
X115760960Y-55036944D01*
X115765378Y-55041851D01*
X115765379Y-55041852D01*
X115884325Y-55173955D01*
X115888747Y-55178866D01*
X116043248Y-55291118D01*
X116049276Y-55293802D01*
X116049278Y-55293803D01*
X116164467Y-55345088D01*
X116217712Y-55368794D01*
X116311112Y-55388647D01*
X116398056Y-55407128D01*
X116398061Y-55407128D01*
X116404513Y-55408500D01*
X116595487Y-55408500D01*
X116601939Y-55407128D01*
X116601944Y-55407128D01*
X116688888Y-55388647D01*
X116782288Y-55368794D01*
X116835533Y-55345088D01*
X116950722Y-55293803D01*
X116950724Y-55293802D01*
X116956752Y-55291118D01*
X117111253Y-55178866D01*
X117115675Y-55173955D01*
X117234621Y-55041852D01*
X117234622Y-55041851D01*
X117239040Y-55036944D01*
X117334527Y-54871556D01*
X117393542Y-54689928D01*
X117413504Y-54500000D01*
X117393542Y-54310072D01*
X117334527Y-54128444D01*
X117239040Y-53963056D01*
X117233404Y-53956796D01*
X117115675Y-53826045D01*
X117115674Y-53826044D01*
X117111253Y-53821134D01*
X116956752Y-53708882D01*
X116950724Y-53706198D01*
X116950722Y-53706197D01*
X116788319Y-53633891D01*
X116788318Y-53633891D01*
X116782288Y-53631206D01*
X116688888Y-53611353D01*
X116601944Y-53592872D01*
X116601939Y-53592872D01*
X116595487Y-53591500D01*
X116404513Y-53591500D01*
X116398061Y-53592872D01*
X116398056Y-53592872D01*
X116311112Y-53611353D01*
X116217712Y-53631206D01*
X116211682Y-53633891D01*
X116211681Y-53633891D01*
X116049278Y-53706197D01*
X116049276Y-53706198D01*
X116043248Y-53708882D01*
X115888747Y-53821134D01*
X115884326Y-53826044D01*
X115884325Y-53826045D01*
X115766597Y-53956796D01*
X115760960Y-53963056D01*
X115665473Y-54128444D01*
X115606458Y-54310072D01*
X115586496Y-54500000D01*
X113860145Y-54500000D01*
X113872927Y-54479142D01*
X113988483Y-54215898D01*
X114067244Y-53939406D01*
X114107751Y-53654784D01*
X114107845Y-53636951D01*
X114109235Y-53371583D01*
X114109235Y-53371576D01*
X114109257Y-53367297D01*
X114106542Y-53346669D01*
X114088695Y-53211114D01*
X114071732Y-53082266D01*
X113995871Y-52804964D01*
X113913503Y-52611856D01*
X113884763Y-52544476D01*
X113884761Y-52544472D01*
X113883077Y-52540524D01*
X113735439Y-52293839D01*
X113555687Y-52069472D01*
X113347149Y-51871577D01*
X113113683Y-51703814D01*
X113091843Y-51692250D01*
X113068654Y-51679972D01*
X112859608Y-51569288D01*
X112589627Y-51470489D01*
X112308736Y-51409245D01*
X112277685Y-51406801D01*
X112085718Y-51391693D01*
X112085709Y-51391693D01*
X112083261Y-51391500D01*
X111927729Y-51391500D01*
X111925593Y-51391646D01*
X111925582Y-51391646D01*
X111717452Y-51405835D01*
X111717446Y-51405836D01*
X111713175Y-51406127D01*
X111708980Y-51406996D01*
X111708978Y-51406996D01*
X111572416Y-51435277D01*
X111431658Y-51464426D01*
X111160657Y-51560393D01*
X110905188Y-51692250D01*
X110901687Y-51694711D01*
X110901683Y-51694713D01*
X110891594Y-51701804D01*
X110669977Y-51857559D01*
X110459378Y-52053260D01*
X110277287Y-52275732D01*
X110127073Y-52520858D01*
X110011517Y-52784102D01*
X109932756Y-53060594D01*
X109911334Y-53211114D01*
X109898597Y-53300615D01*
X109892249Y-53345216D01*
X109892227Y-53349505D01*
X109892226Y-53349512D01*
X109890765Y-53628417D01*
X109890743Y-53632703D01*
X105551247Y-53632703D01*
X105469670Y-53543051D01*
X105465619Y-53539852D01*
X105465615Y-53539848D01*
X105298414Y-53407800D01*
X105298410Y-53407798D01*
X105294359Y-53404598D01*
X105253053Y-53381796D01*
X105203084Y-53331364D01*
X105188312Y-53261921D01*
X105213428Y-53195516D01*
X105240780Y-53168909D01*
X105303270Y-53124335D01*
X105419860Y-53041173D01*
X105578096Y-52883489D01*
X105631548Y-52809103D01*
X105705435Y-52706277D01*
X105708453Y-52702077D01*
X105778846Y-52559648D01*
X105805136Y-52506453D01*
X105805137Y-52506451D01*
X105807430Y-52501811D01*
X105872370Y-52288069D01*
X105901529Y-52066590D01*
X105903156Y-52000000D01*
X105884852Y-51777361D01*
X105830431Y-51560702D01*
X105741354Y-51355840D01*
X105620014Y-51168277D01*
X105469670Y-51003051D01*
X105465619Y-50999852D01*
X105465615Y-50999848D01*
X105298414Y-50867800D01*
X105298410Y-50867798D01*
X105294359Y-50864598D01*
X105098789Y-50756638D01*
X105093919Y-50754913D01*
X105093909Y-50754909D01*
X105087874Y-50752772D01*
X105030338Y-50711178D01*
X105004423Y-50645080D01*
X105018358Y-50575464D01*
X105067717Y-50524433D01*
X105129935Y-50508000D01*
X118280441Y-50508000D01*
X118348562Y-50528002D01*
G37*
%TD.AperFunction*%
%TD*%
M02*
