%TF.GenerationSoftware,KiCad,Pcbnew,(6.0.0)*%
%TF.CreationDate,2023-03-26T17:46:31-04:00*%
%TF.ProjectId,daughterBoard,64617567-6874-4657-9242-6f6172642e6b,rev?*%
%TF.SameCoordinates,Original*%
%TF.FileFunction,Copper,L1,Top*%
%TF.FilePolarity,Positive*%
%FSLAX46Y46*%
G04 Gerber Fmt 4.6, Leading zero omitted, Abs format (unit mm)*
G04 Created by KiCad (PCBNEW (6.0.0)) date 2023-03-26 17:46:31*
%MOMM*%
%LPD*%
G01*
G04 APERTURE LIST*
G04 Aperture macros list*
%AMFreePoly0*
4,1,6,1.000000,0.000000,0.500000,-0.750000,-0.500000,-0.750000,-0.500000,0.750000,0.500000,0.750000,1.000000,0.000000,1.000000,0.000000,$1*%
%AMFreePoly1*
4,1,6,0.500000,-0.750000,-0.650000,-0.750000,-0.150000,0.000000,-0.650000,0.750000,0.500000,0.750000,0.500000,-0.750000,0.500000,-0.750000,$1*%
G04 Aperture macros list end*
%TA.AperFunction,SMDPad,CuDef*%
%ADD10O,0.299999X1.699999*%
%TD*%
%TA.AperFunction,ComponentPad*%
%ADD11R,1.700000X1.700000*%
%TD*%
%TA.AperFunction,ComponentPad*%
%ADD12O,1.700000X1.700000*%
%TD*%
%TA.AperFunction,SMDPad,CuDef*%
%ADD13FreePoly0,0.000000*%
%TD*%
%TA.AperFunction,SMDPad,CuDef*%
%ADD14FreePoly1,0.000000*%
%TD*%
%TA.AperFunction,SMDPad,CuDef*%
%ADD15R,0.812800X0.254000*%
%TD*%
%TA.AperFunction,SMDPad,CuDef*%
%ADD16R,1.803400X2.489200*%
%TD*%
%TA.AperFunction,SMDPad,CuDef*%
%ADD17R,0.500000X0.400000*%
%TD*%
%TA.AperFunction,SMDPad,CuDef*%
%ADD18FreePoly0,270.000000*%
%TD*%
%TA.AperFunction,SMDPad,CuDef*%
%ADD19FreePoly1,270.000000*%
%TD*%
%TA.AperFunction,SMDPad,CuDef*%
%ADD20FreePoly0,90.000000*%
%TD*%
%TA.AperFunction,SMDPad,CuDef*%
%ADD21FreePoly1,90.000000*%
%TD*%
%TA.AperFunction,SMDPad,CuDef*%
%ADD22R,1.016000X0.508000*%
%TD*%
%TA.AperFunction,SMDPad,CuDef*%
%ADD23R,0.508000X1.016000*%
%TD*%
%TA.AperFunction,SMDPad,CuDef*%
%ADD24O,1.699999X0.349999*%
%TD*%
%TA.AperFunction,ViaPad*%
%ADD25C,0.800000*%
%TD*%
%TA.AperFunction,Conductor*%
%ADD26C,0.250000*%
%TD*%
G04 APERTURE END LIST*
D10*
%TO.P,U4,1,REG*%
%TO.N,Net-(C6-Pad1)*%
X104500001Y-65450002D03*
%TO.P,U4,2,SCL*%
%TO.N,/SC0*%
X104000002Y-65450002D03*
%TO.P,U4,3,SDA*%
%TO.N,/SD0*%
X103500000Y-65450002D03*
%TO.P,U4,4,IN_TRIG*%
%TO.N,GND*%
X103000001Y-65450002D03*
%TO.P,U4,5,EN*%
%TO.N,+3V3*%
X102499999Y-65450002D03*
%TO.P,U4,6,VDD_NC*%
X102499999Y-69550001D03*
%TO.P,U4,7,OUT+*%
%TO.N,Net-(J3-Pad1)*%
X103000001Y-69550001D03*
%TO.P,U4,8,GND*%
%TO.N,GND*%
X103500000Y-69550001D03*
%TO.P,U4,9,OUT-*%
%TO.N,Net-(J3-Pad3)*%
X104000002Y-69550001D03*
%TO.P,U4,10,VDD*%
%TO.N,+3V3*%
X104500001Y-69550001D03*
%TD*%
D11*
%TO.P,J4,1,Pin_1*%
%TO.N,/SCM*%
X119500000Y-52000000D03*
D12*
%TO.P,J4,2,Pin_2*%
%TO.N,unconnected-(J4-Pad2)*%
X122040000Y-52000000D03*
%TO.P,J4,3,Pin_3*%
%TO.N,/SDM*%
X119500000Y-54540000D03*
%TO.P,J4,4,Pin_4*%
%TO.N,unconnected-(J4-Pad4)*%
X122040000Y-54540000D03*
%TO.P,J4,5,Pin_5*%
%TO.N,+3V3*%
X119500000Y-57080000D03*
%TO.P,J4,6,Pin_6*%
X122040000Y-57080000D03*
%TO.P,J4,7,Pin_7*%
%TO.N,GND*%
X119500000Y-59620000D03*
%TO.P,J4,8,Pin_8*%
X122040000Y-59620000D03*
%TO.P,J4,9,Pin_9*%
%TO.N,unconnected-(J4-Pad9)*%
X119500000Y-62160000D03*
%TO.P,J4,10,Pin_10*%
%TO.N,unconnected-(J4-Pad10)*%
X122040000Y-62160000D03*
%TD*%
D10*
%TO.P,U1,1,REG*%
%TO.N,Net-(C3-Pad1)*%
X121500001Y-65450002D03*
%TO.P,U1,2,SCL*%
%TO.N,/SC3*%
X121000002Y-65450002D03*
%TO.P,U1,3,SDA*%
%TO.N,/SD3*%
X120500000Y-65450002D03*
%TO.P,U1,4,IN_TRIG*%
%TO.N,GND*%
X120000001Y-65450002D03*
%TO.P,U1,5,EN*%
%TO.N,+3V3*%
X119499999Y-65450002D03*
%TO.P,U1,6,VDD_NC*%
X119499999Y-69550001D03*
%TO.P,U1,7,OUT+*%
%TO.N,Net-(J2-Pad1)*%
X120000001Y-69550001D03*
%TO.P,U1,8,GND*%
%TO.N,GND*%
X120500000Y-69550001D03*
%TO.P,U1,9,OUT-*%
%TO.N,Net-(J2-Pad3)*%
X121000002Y-69550001D03*
%TO.P,U1,10,VDD*%
%TO.N,+3V3*%
X121500001Y-69550001D03*
%TD*%
D13*
%TO.P,JP3,1,A*%
%TO.N,+3V3*%
X111275000Y-61500000D03*
D14*
%TO.P,JP3,2,B*%
%TO.N,Net-(JP3-Pad2)*%
X112725000Y-61500000D03*
%TD*%
D15*
%TO.P,U5,1,SDB*%
%TO.N,+3V3*%
X110552200Y-75999999D03*
%TO.P,U5,2,VCC*%
X110552200Y-76500001D03*
%TO.P,U5,3,OUT1*%
%TO.N,Net-(D1-Pad2)*%
X110552200Y-77000000D03*
%TO.P,U5,4,OUT2*%
%TO.N,Net-(D1-Pad4)*%
X110552200Y-77499999D03*
%TO.P,U5,5,OUT3*%
%TO.N,Net-(D1-Pad3)*%
X110552200Y-78000001D03*
%TO.P,U5,6,GND*%
%TO.N,GND*%
X113447800Y-78000001D03*
%TO.P,U5,7,AD*%
X113447800Y-77499999D03*
%TO.P,U5,8,SCL*%
%TO.N,/SC2*%
X113447800Y-77000000D03*
%TO.P,U5,9,SDA*%
%TO.N,/SD2*%
X113447800Y-76500001D03*
%TO.P,U5,10,V_BM*%
%TO.N,/INT2*%
X113447800Y-75999999D03*
D16*
%TO.P,U5,11,GND*%
%TO.N,GND*%
X112000000Y-77000000D03*
%TD*%
D17*
%TO.P,D1,1*%
%TO.N,+3V3*%
X111350000Y-73150000D03*
%TO.P,D1,2*%
%TO.N,Net-(D1-Pad2)*%
X111350000Y-73850000D03*
%TO.P,D1,3*%
%TO.N,Net-(D1-Pad3)*%
X112650000Y-73850000D03*
%TO.P,D1,4*%
%TO.N,Net-(D1-Pad4)*%
X112650000Y-73150000D03*
%TD*%
D11*
%TO.P,J2,1,Pin_1*%
%TO.N,Net-(J2-Pad1)*%
X119500000Y-73500000D03*
D12*
%TO.P,J2,2,Pin_2*%
%TO.N,unconnected-(J2-Pad2)*%
X122040000Y-73500000D03*
%TO.P,J2,3,Pin_3*%
%TO.N,Net-(J2-Pad3)*%
X119500000Y-76040000D03*
%TO.P,J2,4,Pin_4*%
%TO.N,unconnected-(J2-Pad4)*%
X122040000Y-76040000D03*
%TD*%
D18*
%TO.P,JP6,1,A*%
%TO.N,GND*%
X108000000Y-57275000D03*
D19*
%TO.P,JP6,2,B*%
%TO.N,Net-(JP5-Pad2)*%
X108000000Y-58725000D03*
%TD*%
D11*
%TO.P,J3,1,Pin_1*%
%TO.N,Net-(J3-Pad1)*%
X104500000Y-76000000D03*
D12*
%TO.P,J3,2,Pin_2*%
%TO.N,unconnected-(J3-Pad2)*%
X101960000Y-76000000D03*
%TO.P,J3,3,Pin_3*%
%TO.N,Net-(J3-Pad3)*%
X104500000Y-73460000D03*
%TO.P,J3,4,Pin_4*%
%TO.N,unconnected-(J3-Pad4)*%
X101960000Y-73460000D03*
%TD*%
D13*
%TO.P,JP4,1,A*%
%TO.N,GND*%
X111275000Y-58500000D03*
D14*
%TO.P,JP4,2,B*%
%TO.N,Net-(JP3-Pad2)*%
X112725000Y-58500000D03*
%TD*%
D18*
%TO.P,JP2,1,A*%
%TO.N,GND*%
X116000000Y-57275000D03*
D19*
%TO.P,JP2,2,B*%
%TO.N,Net-(JP1-Pad2)*%
X116000000Y-58725000D03*
%TD*%
D11*
%TO.P,J1,1,Pin_1*%
%TO.N,/SCM*%
X102000000Y-52000000D03*
D12*
%TO.P,J1,2,Pin_2*%
%TO.N,unconnected-(J1-Pad2)*%
X104540000Y-52000000D03*
%TO.P,J1,3,Pin_3*%
%TO.N,/SDM*%
X102000000Y-54540000D03*
%TO.P,J1,4,Pin_4*%
%TO.N,unconnected-(J1-Pad4)*%
X104540000Y-54540000D03*
%TO.P,J1,5,Pin_5*%
%TO.N,+3V3*%
X102000000Y-57080000D03*
%TO.P,J1,6,Pin_6*%
X104540000Y-57080000D03*
%TO.P,J1,7,Pin_7*%
%TO.N,GND*%
X102000000Y-59620000D03*
%TO.P,J1,8,Pin_8*%
X104540000Y-59620000D03*
%TO.P,J1,9,Pin_9*%
%TO.N,unconnected-(J1-Pad9)*%
X102000000Y-62160000D03*
%TO.P,J1,10,Pin_10*%
%TO.N,unconnected-(J1-Pad10)*%
X104540000Y-62160000D03*
%TD*%
D20*
%TO.P,JP1,1,A*%
%TO.N,+3V3*%
X116000000Y-62225000D03*
D21*
%TO.P,JP1,2,B*%
%TO.N,Net-(JP1-Pad2)*%
X116000000Y-60775000D03*
%TD*%
D20*
%TO.P,JP5,1,A*%
%TO.N,+3V3*%
X108000000Y-62225000D03*
D21*
%TO.P,JP5,2,B*%
%TO.N,Net-(JP5-Pad2)*%
X108000000Y-60775000D03*
%TD*%
D22*
%TO.P,U3,1,AVDDVCSEL*%
%TO.N,+3V3*%
X110146001Y-81700027D03*
D23*
%TO.P,U3,2,AVSSVCSEL*%
%TO.N,GND*%
X111199999Y-81446027D03*
%TO.P,U3,3,GND*%
X112000000Y-81446027D03*
%TO.P,U3,4,GND2*%
X112800001Y-81446027D03*
D22*
%TO.P,U3,5,XSHUT*%
%TO.N,Net-(R1-Pad2)*%
X113853999Y-81700027D03*
%TO.P,U3,6,GND3*%
%TO.N,GND*%
X113853999Y-82500000D03*
%TO.P,U3,7,GPIO1*%
%TO.N,/INT1*%
X113853999Y-83299973D03*
D23*
%TO.P,U3,8,DNC*%
%TO.N,unconnected-(U3-Pad8)*%
X112800001Y-83553973D03*
%TO.P,U3,9,SDA*%
%TO.N,/SD1*%
X112000000Y-83553973D03*
%TO.P,U3,10,SCL*%
%TO.N,/SC1*%
X111199999Y-83553973D03*
D22*
%TO.P,U3,11,AVDD*%
%TO.N,+3V3*%
X110146001Y-83299973D03*
%TO.P,U3,12,GND4*%
%TO.N,GND*%
X110146001Y-82500000D03*
%TD*%
D24*
%TO.P,U2,1,A0*%
%TO.N,Net-(JP1-Pad2)*%
X109150001Y-64575000D03*
%TO.P,U2,2,A1*%
%TO.N,Net-(JP3-Pad2)*%
X109150001Y-65225001D03*
%TO.P,U2,3,A2*%
%TO.N,Net-(JP5-Pad2)*%
X109150001Y-65874999D03*
%TO.P,U2,4,INT0_N*%
%TO.N,/INT0*%
X109150001Y-66525001D03*
%TO.P,U2,5,SD0*%
%TO.N,/SD0*%
X109150001Y-67174999D03*
%TO.P,U2,6,SC0*%
%TO.N,/SC0*%
X109150001Y-67825001D03*
%TO.P,U2,7,INT1_N*%
%TO.N,/INT1*%
X109150001Y-68474999D03*
%TO.P,U2,8,SD1*%
%TO.N,/SD1*%
X109150001Y-69125001D03*
%TO.P,U2,9,SC1*%
%TO.N,/SC1*%
X109150001Y-69774999D03*
%TO.P,U2,10,GND*%
%TO.N,GND*%
X109150001Y-70425000D03*
%TO.P,U2,11,INT2_N*%
%TO.N,/INT2*%
X114849999Y-70425000D03*
%TO.P,U2,12,SD2*%
%TO.N,/SD2*%
X114849999Y-69774999D03*
%TO.P,U2,13,SC2*%
%TO.N,/SC2*%
X114849999Y-69125001D03*
%TO.P,U2,14,INT3_N*%
%TO.N,/INT3*%
X114849999Y-68474999D03*
%TO.P,U2,15,SD3*%
%TO.N,/SD3*%
X114849999Y-67825001D03*
%TO.P,U2,16,SC3*%
%TO.N,/SC3*%
X114849999Y-67174999D03*
%TO.P,U2,17,INT_N*%
%TO.N,Net-(R4-Pad2)*%
X114849999Y-66525001D03*
%TO.P,U2,18,SCL*%
%TO.N,/SCM*%
X114849999Y-65874999D03*
%TO.P,U2,19,SDA*%
%TO.N,/SDM*%
X114849999Y-65225001D03*
%TO.P,U2,20,VCC*%
%TO.N,+3V3*%
X114849999Y-64575000D03*
%TD*%
D25*
%TO.N,+3V3*%
X109728000Y-61087000D03*
X116713000Y-63627000D03*
X111506000Y-75057000D03*
X116500000Y-76500000D03*
X108331000Y-81407000D03*
X101000000Y-67000000D03*
X117221000Y-64389000D03*
X110071500Y-74000000D03*
X123000040Y-67001893D03*
%TO.N,GND*%
X111000000Y-80000000D03*
X113000000Y-80000000D03*
X101054500Y-66000000D03*
X122973500Y-66002610D03*
X112014000Y-82423000D03*
X118618000Y-71882000D03*
X116500000Y-54500000D03*
X112000000Y-80000000D03*
%TO.N,Net-(C3-Pad1)*%
X117531916Y-67526500D03*
%TO.N,Net-(C6-Pad1)*%
X105918000Y-65786000D03*
%TO.N,Net-(R1-Pad2)*%
X115062000Y-84074000D03*
%TO.N,/INT0*%
X111379000Y-65913000D03*
%TO.N,/INT1*%
X111464849Y-68986971D03*
%TO.N,Net-(R4-Pad2)*%
X111887000Y-64770000D03*
%TO.N,/SC3*%
X112395000Y-65913000D03*
%TO.N,/SD3*%
X112487701Y-67012299D03*
%TO.N,/SC2*%
X112463103Y-69036897D03*
%TO.N,/SD2*%
X112513029Y-70035151D03*
%TO.N,/SC1*%
X111500000Y-71000000D03*
%TO.N,/SD1*%
X111512299Y-69987701D03*
%TO.N,/SC0*%
X111476583Y-67987537D03*
%TO.N,/SD0*%
X111383299Y-66933299D03*
%TO.N,/INT2*%
X112499557Y-71034563D03*
%TO.N,/INT3*%
X112475402Y-68024598D03*
%TD*%
D26*
%TO.N,+3V3*%
X111275000Y-61500000D02*
X110141000Y-61500000D01*
X119852931Y-68326000D02*
X119499999Y-68678932D01*
X116713000Y-62938000D02*
X116000000Y-62225000D01*
X109728000Y-61849000D02*
X109352000Y-62225000D01*
X109093000Y-81407000D02*
X108331000Y-81407000D01*
X111118199Y-75057000D02*
X111506000Y-75057000D01*
X109352000Y-62225000D02*
X108000000Y-62225000D01*
X102499999Y-66450000D02*
X102499999Y-65450002D01*
X101000000Y-67000000D02*
X100782000Y-67000000D01*
X123698000Y-64643000D02*
X123698000Y-66303933D01*
X119499999Y-65450002D02*
X119499999Y-64014297D01*
X123698000Y-66303933D02*
X123000040Y-67001893D01*
X110141000Y-61500000D02*
X109728000Y-61087000D01*
X119499999Y-64014297D02*
X120151319Y-63362977D01*
X110552200Y-75622999D02*
X111118199Y-75057000D01*
X110146001Y-83299973D02*
X109207973Y-83299973D01*
X100711000Y-64897000D02*
X101219000Y-64897000D01*
X122038387Y-63362979D02*
X122048408Y-63373000D01*
X119499999Y-68678932D02*
X119499999Y-69550001D01*
X110850000Y-73150000D02*
X110071500Y-73928500D01*
X123000040Y-68769960D02*
X123000040Y-67001893D01*
X122219999Y-69550001D02*
X123000040Y-68769960D01*
X101219000Y-64897000D02*
X101772002Y-65450002D01*
X102499999Y-69550001D02*
X102499999Y-68499999D01*
X109386027Y-81700027D02*
X109093000Y-81407000D01*
X123000040Y-67001893D02*
X122990107Y-67001893D01*
X104500001Y-68450002D02*
X102499999Y-66450000D01*
X121666000Y-68326000D02*
X119852931Y-68326000D01*
X111350000Y-73150000D02*
X110850000Y-73150000D01*
X120151319Y-63362977D02*
X122038387Y-63362979D01*
X122048408Y-63373000D02*
X122428000Y-63373000D01*
X100782000Y-67000000D02*
X100330000Y-66548000D01*
X110146001Y-81700027D02*
X109386027Y-81700027D01*
X108331000Y-82423000D02*
X108331000Y-81407000D01*
X121500001Y-69550001D02*
X122219999Y-69550001D01*
X122990107Y-67001893D02*
X121666000Y-68326000D01*
X102499999Y-68499999D02*
X101000000Y-67000000D01*
X122428000Y-63373000D02*
X123698000Y-64643000D01*
X110552200Y-75999999D02*
X110552200Y-75622999D01*
X100330000Y-66548000D02*
X100330000Y-65278000D01*
X110071500Y-73928500D02*
X110071500Y-74000000D01*
X110552200Y-76500001D02*
X110552200Y-75999999D01*
X109207973Y-83299973D02*
X108331000Y-82423000D01*
X116713000Y-63881000D02*
X117221000Y-64389000D01*
X101772002Y-65450002D02*
X102499999Y-65450002D01*
X109728000Y-61087000D02*
X109728000Y-61849000D01*
X117035000Y-64575000D02*
X117221000Y-64389000D01*
X116713000Y-63627000D02*
X116713000Y-62938000D01*
X100330000Y-65278000D02*
X100711000Y-64897000D01*
X114849999Y-64575000D02*
X117035000Y-64575000D01*
X116713000Y-63627000D02*
X116713000Y-63881000D01*
X104500001Y-69550001D02*
X104500001Y-68450002D01*
%TO.N,GND*%
X109150001Y-70425000D02*
X109150001Y-72078999D01*
X106885000Y-57275000D02*
X108000000Y-57275000D01*
X103500000Y-69550001D02*
X103500000Y-68445500D01*
X112014000Y-56642000D02*
X111275000Y-57381000D01*
X107950000Y-73279000D02*
X107950000Y-77597000D01*
X122973500Y-64916726D02*
X122973500Y-66002610D01*
X112800001Y-81446027D02*
X112800001Y-80199999D01*
X120464511Y-63812489D02*
X121869264Y-63812490D01*
X121869264Y-63812490D02*
X122973500Y-64916726D01*
X120500000Y-69550001D02*
X120500000Y-71524000D01*
X113447800Y-77499999D02*
X113447800Y-78000001D01*
X111199999Y-80199999D02*
X111000000Y-80000000D01*
X110742000Y-57275000D02*
X108000000Y-57275000D01*
X112800001Y-81636999D02*
X112014000Y-82423000D01*
X111275000Y-57808000D02*
X110742000Y-57275000D01*
X120142000Y-71882000D02*
X118618000Y-71882000D01*
X113447800Y-78000001D02*
X113447800Y-79552200D01*
X111199999Y-81608999D02*
X112014000Y-82423000D01*
X103000001Y-63242999D02*
X103251000Y-62992000D01*
X110353000Y-80000000D02*
X111000000Y-80000000D01*
X112091000Y-82500000D02*
X112014000Y-82423000D01*
X113447800Y-79552200D02*
X113000000Y-80000000D01*
X112800001Y-81446027D02*
X112800001Y-81636999D01*
X110146001Y-82500000D02*
X111937000Y-82500000D01*
X112000000Y-80000000D02*
X112000000Y-77000000D01*
X112000000Y-81446027D02*
X112000000Y-82409000D01*
X116000000Y-57275000D02*
X115367000Y-56642000D01*
X103000001Y-65450002D02*
X103000001Y-63242999D01*
X107950000Y-77597000D02*
X110353000Y-80000000D01*
X111275000Y-57381000D02*
X111275000Y-58500000D01*
X120000001Y-64276999D02*
X120464511Y-63812489D01*
X120000001Y-65450002D02*
X120000001Y-64276999D01*
X103251000Y-60909000D02*
X104540000Y-59620000D01*
X111199999Y-81446027D02*
X111199999Y-80199999D01*
X109150001Y-72078999D02*
X107950000Y-73279000D01*
X103500000Y-68445500D02*
X101054500Y-66000000D01*
X103251000Y-62992000D02*
X103251000Y-60909000D01*
X111275000Y-58500000D02*
X111275000Y-57808000D01*
X111937000Y-82500000D02*
X112014000Y-82423000D01*
X112000000Y-82409000D02*
X112014000Y-82423000D01*
X104540000Y-59620000D02*
X106885000Y-57275000D01*
X113853999Y-82500000D02*
X112091000Y-82500000D01*
X112000000Y-81446027D02*
X112000000Y-80000000D01*
X112800001Y-80199999D02*
X113000000Y-80000000D01*
X120500000Y-71524000D02*
X120142000Y-71882000D01*
X115367000Y-56642000D02*
X112014000Y-56642000D01*
X111199999Y-81446027D02*
X111199999Y-81608999D01*
%TO.N,Net-(C3-Pad1)*%
X121500001Y-65450002D02*
X121500001Y-66685719D01*
X120875720Y-67310000D02*
X117748416Y-67310000D01*
X121500001Y-66685719D02*
X120875720Y-67310000D01*
X117748416Y-67310000D02*
X117531916Y-67526500D01*
%TO.N,Net-(C6-Pad1)*%
X104500001Y-65450002D02*
X105582002Y-65450002D01*
X105582002Y-65450002D02*
X105918000Y-65786000D01*
%TO.N,Net-(D1-Pad4)*%
X112125489Y-72625489D02*
X110127511Y-72625489D01*
X108966000Y-76731927D02*
X109734072Y-77499999D01*
X112650000Y-73150000D02*
X112125489Y-72625489D01*
X109734072Y-77499999D02*
X110552200Y-77499999D01*
X110127511Y-72625489D02*
X108966000Y-73787000D01*
X108966000Y-73787000D02*
X108966000Y-76731927D01*
%TO.N,Net-(D1-Pad2)*%
X109821289Y-75378711D02*
X111350000Y-73850000D01*
X110552200Y-77000000D02*
X109869777Y-77000000D01*
X109821289Y-76951512D02*
X109821289Y-75378711D01*
X109869777Y-77000000D02*
X109821289Y-76951512D01*
%TO.N,Net-(D1-Pad3)*%
X110108296Y-72009000D02*
X112903000Y-72009000D01*
X113538000Y-73660000D02*
X113348000Y-73850000D01*
X109495297Y-78000001D02*
X108516490Y-77021194D01*
X110552200Y-78000001D02*
X109495297Y-78000001D01*
X108516490Y-77021194D02*
X108516490Y-73600806D01*
X112903000Y-72009000D02*
X113538000Y-72644000D01*
X108516490Y-73600806D02*
X110108296Y-72009000D01*
X113538000Y-72644000D02*
X113538000Y-73660000D01*
X113348000Y-73850000D02*
X112650000Y-73850000D01*
%TO.N,/SCM*%
X119986499Y-60985489D02*
X120777000Y-60194988D01*
X102000000Y-52000000D02*
X102000000Y-50900000D01*
X118325489Y-61673501D02*
X119013501Y-60985489D01*
X102000000Y-50900000D02*
X102074511Y-50825489D01*
X119013501Y-60985489D02*
X119986499Y-60985489D01*
X119013501Y-64373795D02*
X119013501Y-63334511D01*
X102074511Y-50825489D02*
X118325489Y-50825489D01*
X120777000Y-53277000D02*
X119500000Y-52000000D01*
X118325489Y-50825489D02*
X119500000Y-52000000D01*
X120777000Y-60194988D02*
X120777000Y-53277000D01*
X114849999Y-65874999D02*
X117512297Y-65874999D01*
X117512297Y-65874999D02*
X119013501Y-64373795D01*
X119013501Y-63334511D02*
X118325489Y-62646499D01*
X118325489Y-62646499D02*
X118325489Y-61673501D01*
%TO.N,/SDM*%
X119500000Y-54540000D02*
X118325489Y-55714511D01*
X118325489Y-55714511D02*
X103174511Y-55714511D01*
X114849999Y-65225001D02*
X117526591Y-65225001D01*
X117526591Y-65225001D02*
X118325489Y-64426103D01*
X117875978Y-56164022D02*
X118325489Y-55714511D01*
X118325489Y-64426103D02*
X118325489Y-63282203D01*
X103174511Y-55714511D02*
X102000000Y-54540000D01*
X117875978Y-62832692D02*
X117875978Y-56164022D01*
X118325489Y-63282203D02*
X117875978Y-62832692D01*
%TO.N,Net-(J2-Pad1)*%
X117602000Y-71374000D02*
X117602000Y-72771000D01*
X119634000Y-70993000D02*
X117983000Y-70993000D01*
X118331000Y-73500000D02*
X119500000Y-73500000D01*
X120000001Y-70626999D02*
X119634000Y-70993000D01*
X117983000Y-70993000D02*
X117602000Y-71374000D01*
X120000001Y-69550001D02*
X120000001Y-70626999D01*
X117602000Y-72771000D02*
X118331000Y-73500000D01*
%TO.N,Net-(J2-Pad3)*%
X121000002Y-71912998D02*
X120777000Y-72136000D01*
X120777000Y-72136000D02*
X120777000Y-74763000D01*
X121000002Y-69550001D02*
X121000002Y-71912998D01*
X120777000Y-74763000D02*
X119500000Y-76040000D01*
%TO.N,Net-(J3-Pad1)*%
X103134511Y-70784510D02*
X103000001Y-70650000D01*
X103000001Y-70650000D02*
X103000001Y-69550001D01*
X104500000Y-76000000D02*
X103134511Y-74634511D01*
X103134511Y-74634511D02*
X103134511Y-70784510D01*
%TO.N,Net-(J3-Pad3)*%
X104000002Y-72960002D02*
X104000002Y-69550001D01*
X104500000Y-73460000D02*
X104000002Y-72960002D01*
%TO.N,Net-(JP1-Pad2)*%
X110939000Y-64575000D02*
X112268000Y-63246000D01*
X112268000Y-63246000D02*
X113792000Y-63246000D01*
X109150001Y-64575000D02*
X110939000Y-64575000D01*
X114300000Y-61849000D02*
X115374000Y-60775000D01*
X113792000Y-63246000D02*
X114300000Y-62738000D01*
X114300000Y-62738000D02*
X114300000Y-61849000D01*
X116000000Y-58725000D02*
X116000000Y-60775000D01*
X115374000Y-60775000D02*
X116000000Y-60775000D01*
%TO.N,Net-(JP3-Pad2)*%
X110856940Y-63627000D02*
X112725000Y-61758940D01*
X112599520Y-61374520D02*
X112725000Y-61500000D01*
X107897001Y-65225001D02*
X107442000Y-64770000D01*
X107442000Y-64389000D02*
X108204000Y-63627000D01*
X107442000Y-64770000D02*
X107442000Y-64389000D01*
X109150001Y-65225001D02*
X107897001Y-65225001D01*
X112725000Y-58500000D02*
X112599520Y-58625480D01*
X112599520Y-58625480D02*
X112599520Y-61374520D01*
X112725000Y-61758940D02*
X112725000Y-61500000D01*
X108204000Y-63627000D02*
X110856940Y-63627000D01*
%TO.N,Net-(JP5-Pad2)*%
X108000000Y-59640000D02*
X106426000Y-61214000D01*
X108000000Y-58725000D02*
X108000000Y-59640000D01*
X107911295Y-65874999D02*
X109150001Y-65874999D01*
X106426000Y-61214000D02*
X106426000Y-64389704D01*
X108000000Y-59640000D02*
X108000000Y-60775000D01*
X106426000Y-64389704D02*
X107911295Y-65874999D01*
%TO.N,Net-(R1-Pad2)*%
X114720027Y-81700027D02*
X115062000Y-82042000D01*
X115062000Y-82042000D02*
X115062000Y-84074000D01*
X113853999Y-81700027D02*
X114720027Y-81700027D01*
%TO.N,/INT0*%
X109150001Y-66525001D02*
X110766999Y-66525001D01*
X110766999Y-66525001D02*
X111379000Y-65913000D01*
%TO.N,/INT1*%
X106542979Y-84064683D02*
X108203296Y-85725000D01*
X108203296Y-85725000D02*
X112141000Y-85725000D01*
X108050002Y-68474999D02*
X106542979Y-69982022D01*
X109150001Y-68474999D02*
X110250000Y-68474999D01*
X110761972Y-68986971D02*
X111464849Y-68986971D01*
X109150001Y-68474999D02*
X108050002Y-68474999D01*
X110250000Y-68474999D02*
X110761972Y-68986971D01*
X112141000Y-85725000D02*
X113853999Y-84012001D01*
X113853999Y-84012001D02*
X113853999Y-83299973D01*
X106542979Y-69982022D02*
X106542979Y-84064683D01*
%TO.N,Net-(R4-Pad2)*%
X112395000Y-64770000D02*
X111887000Y-64770000D01*
X114849999Y-66525001D02*
X113896001Y-66525001D01*
X113284000Y-65913000D02*
X113284000Y-65659000D01*
X113284000Y-65659000D02*
X112395000Y-64770000D01*
X113896001Y-66525001D02*
X113284000Y-65913000D01*
%TO.N,/SC3*%
X121000002Y-66469467D02*
X120667469Y-66802000D01*
X116322997Y-66802000D02*
X115949998Y-67174999D01*
X120667469Y-66802000D02*
X116322997Y-66802000D01*
X121000002Y-65450002D02*
X121000002Y-66469467D01*
X112395000Y-65913000D02*
X112488001Y-65913000D01*
X113750000Y-67174999D02*
X114849999Y-67174999D01*
X115949998Y-67174999D02*
X114849999Y-67174999D01*
X112488001Y-65913000D02*
X113750000Y-67174999D01*
%TO.N,/SD3*%
X121003425Y-67818000D02*
X118864295Y-67818000D01*
X114849999Y-67825001D02*
X113300403Y-67825001D01*
X121974520Y-64553450D02*
X121974520Y-66846905D01*
X121683070Y-64262000D02*
X121974520Y-64553450D01*
X113300403Y-67825001D02*
X112487701Y-67012299D01*
X120500000Y-65450002D02*
X120500000Y-64539000D01*
X120500000Y-64539000D02*
X120777000Y-64262000D01*
X116805817Y-67825001D02*
X114849999Y-67825001D01*
X118864295Y-67818000D02*
X118431294Y-68251001D01*
X118431294Y-68251001D02*
X117231817Y-68251001D01*
X120777000Y-64262000D02*
X121683070Y-64262000D01*
X117231817Y-68251001D02*
X116805817Y-67825001D01*
X121974520Y-66846905D02*
X121003425Y-67818000D01*
%TO.N,/SC2*%
X112551207Y-69125001D02*
X112463103Y-69036897D01*
X114849999Y-69125001D02*
X115949998Y-69125001D01*
X115949998Y-69125001D02*
X116586000Y-69761003D01*
X114849999Y-69125001D02*
X112551207Y-69125001D01*
X116586000Y-74930000D02*
X114516000Y-77000000D01*
X114516000Y-77000000D02*
X113447800Y-77000000D01*
X116586000Y-69761003D02*
X116586000Y-74930000D01*
%TO.N,/SD2*%
X114849999Y-69774999D02*
X112773181Y-69774999D01*
X116024518Y-74605703D02*
X114130220Y-76500001D01*
X115949998Y-69774999D02*
X116024518Y-69849519D01*
X116024518Y-69849519D02*
X116024518Y-74605703D01*
X114849999Y-69774999D02*
X115949998Y-69774999D01*
X112773181Y-69774999D02*
X112513029Y-70035151D01*
X114130220Y-76500001D02*
X113447800Y-76500001D01*
%TO.N,/SC1*%
X109150001Y-69774999D02*
X108050002Y-69774999D01*
X111489295Y-71000000D02*
X111500000Y-71000000D01*
X111199999Y-84126001D02*
X111199999Y-83553973D01*
X107442000Y-70383001D02*
X107442000Y-83312000D01*
X110264294Y-69774999D02*
X111489295Y-71000000D01*
X107442000Y-83312000D02*
X108458000Y-84328000D01*
X110998000Y-84328000D02*
X111199999Y-84126001D01*
X108458000Y-84328000D02*
X110998000Y-84328000D01*
X108050002Y-69774999D02*
X107442000Y-70383001D01*
X109150001Y-69774999D02*
X110264294Y-69774999D01*
%TO.N,/SD1*%
X112000000Y-84596000D02*
X112000000Y-83553973D01*
X111512299Y-69987701D02*
X111112700Y-69987701D01*
X111112700Y-69987701D02*
X110250000Y-69125001D01*
X108050002Y-69125001D02*
X106992489Y-70182514D01*
X110250000Y-69125001D02*
X109150001Y-69125001D01*
X106992489Y-70182514D02*
X106992489Y-83878489D01*
X106992489Y-83878489D02*
X108077000Y-84963000D01*
X111633000Y-84963000D02*
X112000000Y-84596000D01*
X109150001Y-69125001D02*
X108050002Y-69125001D01*
X108077000Y-84963000D02*
X111633000Y-84963000D01*
%TO.N,/SC0*%
X105275002Y-67825001D02*
X109150001Y-67825001D01*
X104000002Y-66550001D02*
X105275002Y-67825001D01*
X111314047Y-67825001D02*
X111476583Y-67987537D01*
X109150001Y-67825001D02*
X111314047Y-67825001D01*
X104000002Y-65450002D02*
X104000002Y-66550001D01*
%TO.N,/SD0*%
X103500000Y-65450002D02*
X103500000Y-64350003D01*
X105251574Y-64008000D02*
X108418573Y-67174999D01*
X103500000Y-64350003D02*
X103842003Y-64008000D01*
X111141599Y-67174999D02*
X111383299Y-66933299D01*
X108418573Y-67174999D02*
X109150001Y-67174999D01*
X111301594Y-67174999D02*
X111488488Y-66988105D01*
X103842003Y-64008000D02*
X105251574Y-64008000D01*
X109150001Y-67174999D02*
X111141599Y-67174999D01*
%TO.N,/INT2*%
X114849999Y-70425000D02*
X114849999Y-74597800D01*
X114240436Y-71034563D02*
X112499557Y-71034563D01*
X114849999Y-74597800D02*
X113447800Y-75999999D01*
X114849999Y-70425000D02*
X114240436Y-71034563D01*
%TO.N,/INT3*%
X112925803Y-68474999D02*
X112475402Y-68024598D01*
X114849999Y-68474999D02*
X112925803Y-68474999D01*
%TD*%
%TA.AperFunction,NonConductor*%
G36*
X100848562Y-50528002D02*
G01*
X100895055Y-50581658D01*
X100905159Y-50651932D01*
X100875665Y-50716512D01*
X100856006Y-50734826D01*
X100823568Y-50759137D01*
X100786739Y-50786739D01*
X100781358Y-50793919D01*
X100781357Y-50793920D01*
X100734826Y-50856006D01*
X100677967Y-50898521D01*
X100607148Y-50903547D01*
X100544855Y-50869487D01*
X100510865Y-50807155D01*
X100508000Y-50780441D01*
X100508000Y-50634000D01*
X100528002Y-50565879D01*
X100581658Y-50519386D01*
X100634000Y-50508000D01*
X100780441Y-50508000D01*
X100848562Y-50528002D01*
G37*
%TD.AperFunction*%
%TA.AperFunction,NonConductor*%
G36*
X121517075Y-50528002D02*
G01*
X121563568Y-50581658D01*
X121573672Y-50651932D01*
X121544178Y-50716512D01*
X121507134Y-50745763D01*
X121414626Y-50793920D01*
X121313607Y-50846507D01*
X121309474Y-50849610D01*
X121309471Y-50849612D01*
X121139100Y-50977530D01*
X121134965Y-50980635D01*
X121078537Y-51039684D01*
X121054283Y-51065064D01*
X120992759Y-51100494D01*
X120921846Y-51097037D01*
X120864060Y-51055791D01*
X120845207Y-51022243D01*
X120803767Y-50911703D01*
X120800615Y-50903295D01*
X120713261Y-50786739D01*
X120676432Y-50759137D01*
X120643994Y-50734826D01*
X120601479Y-50677967D01*
X120596453Y-50607148D01*
X120630513Y-50544855D01*
X120692845Y-50510865D01*
X120719559Y-50508000D01*
X121448954Y-50508000D01*
X121517075Y-50528002D01*
G37*
%TD.AperFunction*%
%TA.AperFunction,NonConductor*%
G36*
X123434121Y-50528002D02*
G01*
X123480614Y-50581658D01*
X123492000Y-50634000D01*
X123492000Y-51326519D01*
X123471998Y-51394640D01*
X123418342Y-51441133D01*
X123348068Y-51451237D01*
X123283488Y-51421743D01*
X123250452Y-51376764D01*
X123241354Y-51355840D01*
X123120014Y-51168277D01*
X122969670Y-51003051D01*
X122965619Y-50999852D01*
X122965615Y-50999848D01*
X122798414Y-50867800D01*
X122798410Y-50867798D01*
X122794359Y-50864598D01*
X122598789Y-50756638D01*
X122593919Y-50754913D01*
X122593909Y-50754909D01*
X122587874Y-50752772D01*
X122530338Y-50711178D01*
X122504423Y-50645080D01*
X122518358Y-50575464D01*
X122567717Y-50524433D01*
X122629935Y-50508000D01*
X123366000Y-50508000D01*
X123434121Y-50528002D01*
G37*
%TD.AperFunction*%
%TA.AperFunction,NonConductor*%
G36*
X103523150Y-52913126D02*
G01*
X103557817Y-52941114D01*
X103586250Y-52973938D01*
X103758126Y-53116632D01*
X103804951Y-53143994D01*
X103831445Y-53159476D01*
X103880169Y-53211114D01*
X103893240Y-53280897D01*
X103866509Y-53346669D01*
X103826055Y-53380027D01*
X103813607Y-53386507D01*
X103809474Y-53389610D01*
X103809471Y-53389612D01*
X103685567Y-53482642D01*
X103634965Y-53520635D01*
X103480629Y-53682138D01*
X103373201Y-53839621D01*
X103318293Y-53884621D01*
X103247768Y-53892792D01*
X103184021Y-53861538D01*
X103163324Y-53837054D01*
X103082822Y-53712617D01*
X103082820Y-53712614D01*
X103080014Y-53708277D01*
X103076532Y-53704450D01*
X102932798Y-53546488D01*
X102901746Y-53482642D01*
X102910141Y-53412143D01*
X102955317Y-53357375D01*
X102981761Y-53343706D01*
X103088297Y-53303767D01*
X103096705Y-53300615D01*
X103213261Y-53213261D01*
X103300615Y-53096705D01*
X103312560Y-53064841D01*
X103344598Y-52979382D01*
X103387240Y-52922618D01*
X103453802Y-52897918D01*
X103523150Y-52913126D01*
G37*
%TD.AperFunction*%
%TA.AperFunction,NonConductor*%
G36*
X123437334Y-52563819D02*
G01*
X123482162Y-52618873D01*
X123492000Y-52667682D01*
X123492000Y-53866519D01*
X123471998Y-53934640D01*
X123418342Y-53981133D01*
X123348068Y-53991237D01*
X123283488Y-53961743D01*
X123250452Y-53916764D01*
X123241354Y-53895840D01*
X123196202Y-53826045D01*
X123122822Y-53712617D01*
X123122820Y-53712614D01*
X123120014Y-53708277D01*
X122969670Y-53543051D01*
X122965619Y-53539852D01*
X122965615Y-53539848D01*
X122798414Y-53407800D01*
X122798410Y-53407798D01*
X122794359Y-53404598D01*
X122753053Y-53381796D01*
X122703084Y-53331364D01*
X122688312Y-53261921D01*
X122713428Y-53195516D01*
X122740780Y-53168909D01*
X122803270Y-53124335D01*
X122919860Y-53041173D01*
X123078096Y-52883489D01*
X123131548Y-52809103D01*
X123205435Y-52706277D01*
X123208453Y-52702077D01*
X123253044Y-52611854D01*
X123301156Y-52559648D01*
X123369857Y-52541741D01*
X123437334Y-52563819D01*
G37*
%TD.AperFunction*%
%TA.AperFunction,NonConductor*%
G36*
X100716512Y-53124335D02*
G01*
X100734826Y-53143994D01*
X100786739Y-53213261D01*
X100903295Y-53300615D01*
X100911704Y-53303767D01*
X100911705Y-53303768D01*
X101020451Y-53344535D01*
X101077216Y-53387176D01*
X101101916Y-53453738D01*
X101086709Y-53523087D01*
X101067316Y-53549568D01*
X100940629Y-53682138D01*
X100814743Y-53866680D01*
X100770007Y-53963056D01*
X100748288Y-54009846D01*
X100701464Y-54063213D01*
X100633221Y-54082794D01*
X100565225Y-54062371D01*
X100519065Y-54008428D01*
X100508000Y-53956796D01*
X100508000Y-53219559D01*
X100528002Y-53151438D01*
X100581658Y-53104945D01*
X100651932Y-53094841D01*
X100716512Y-53124335D01*
G37*
%TD.AperFunction*%
%TA.AperFunction,NonConductor*%
G36*
X110907750Y-51478991D02*
G01*
X110954243Y-51532647D01*
X110964347Y-51602921D01*
X110934853Y-51667501D01*
X110906022Y-51691820D01*
X110905188Y-51692250D01*
X110901683Y-51694713D01*
X110901677Y-51694717D01*
X110791233Y-51772339D01*
X110669977Y-51857559D01*
X110459378Y-52053260D01*
X110277287Y-52275732D01*
X110127073Y-52520858D01*
X110011517Y-52784102D01*
X109932756Y-53060594D01*
X109911334Y-53211114D01*
X109898597Y-53300615D01*
X109892249Y-53345216D01*
X109892227Y-53349505D01*
X109892226Y-53349512D01*
X109890765Y-53628417D01*
X109890743Y-53632703D01*
X109891302Y-53636947D01*
X109891302Y-53636951D01*
X109900419Y-53706197D01*
X109928268Y-53917734D01*
X110004129Y-54195036D01*
X110005813Y-54198984D01*
X110054165Y-54312342D01*
X110116923Y-54459476D01*
X110128693Y-54479142D01*
X110254846Y-54689928D01*
X110264561Y-54706161D01*
X110287479Y-54734767D01*
X110400812Y-54876230D01*
X110427794Y-54941900D01*
X110414989Y-55011732D01*
X110366462Y-55063556D01*
X110302478Y-55081011D01*
X105965489Y-55081011D01*
X105897368Y-55061009D01*
X105850875Y-55007353D01*
X105840771Y-54937079D01*
X105844930Y-54918383D01*
X105857301Y-54877668D01*
X105872370Y-54828069D01*
X105901529Y-54606590D01*
X105903156Y-54540000D01*
X105884852Y-54317361D01*
X105830431Y-54100702D01*
X105741354Y-53895840D01*
X105696202Y-53826045D01*
X105622822Y-53712617D01*
X105622820Y-53712614D01*
X105620014Y-53708277D01*
X105469670Y-53543051D01*
X105465619Y-53539852D01*
X105465615Y-53539848D01*
X105298414Y-53407800D01*
X105298410Y-53407798D01*
X105294359Y-53404598D01*
X105253053Y-53381796D01*
X105203084Y-53331364D01*
X105188312Y-53261921D01*
X105213428Y-53195516D01*
X105240780Y-53168909D01*
X105303270Y-53124335D01*
X105419860Y-53041173D01*
X105578096Y-52883489D01*
X105631548Y-52809103D01*
X105705435Y-52706277D01*
X105708453Y-52702077D01*
X105778846Y-52559648D01*
X105805136Y-52506453D01*
X105805137Y-52506451D01*
X105807430Y-52501811D01*
X105872370Y-52288069D01*
X105901529Y-52066590D01*
X105903156Y-52000000D01*
X105884852Y-51777361D01*
X105867008Y-51706321D01*
X105844242Y-51615684D01*
X105847046Y-51544743D01*
X105887759Y-51486580D01*
X105953455Y-51459661D01*
X105966446Y-51458989D01*
X110839629Y-51458989D01*
X110907750Y-51478991D01*
G37*
%TD.AperFunction*%
%TA.AperFunction,NonConductor*%
G36*
X118079016Y-51478991D02*
G01*
X118099990Y-51495894D01*
X118104595Y-51500499D01*
X118138621Y-51562811D01*
X118141500Y-51589594D01*
X118141500Y-52898134D01*
X118148255Y-52960316D01*
X118199385Y-53096705D01*
X118286739Y-53213261D01*
X118403295Y-53300615D01*
X118411704Y-53303767D01*
X118411705Y-53303768D01*
X118520451Y-53344535D01*
X118577216Y-53387176D01*
X118601916Y-53453738D01*
X118586709Y-53523087D01*
X118567316Y-53549568D01*
X118440629Y-53682138D01*
X118314743Y-53866680D01*
X118299006Y-53900583D01*
X118223516Y-54063213D01*
X118220688Y-54069305D01*
X118160989Y-54284570D01*
X118137251Y-54506695D01*
X118137548Y-54511848D01*
X118137548Y-54511851D01*
X118147816Y-54689928D01*
X118150110Y-54729715D01*
X118151247Y-54734761D01*
X118151248Y-54734767D01*
X118171119Y-54822939D01*
X118182076Y-54871556D01*
X118183453Y-54877668D01*
X118178917Y-54948520D01*
X118149631Y-54994464D01*
X118099989Y-55044106D01*
X118037677Y-55078132D01*
X118010894Y-55081011D01*
X117431836Y-55081011D01*
X117363715Y-55061009D01*
X117317222Y-55007353D01*
X117307118Y-54937079D01*
X117322716Y-54892014D01*
X117334527Y-54871556D01*
X117393542Y-54689928D01*
X117413504Y-54500000D01*
X117393542Y-54310072D01*
X117334527Y-54128444D01*
X117239040Y-53963056D01*
X117233404Y-53956796D01*
X117115675Y-53826045D01*
X117115674Y-53826044D01*
X117111253Y-53821134D01*
X116956752Y-53708882D01*
X116950724Y-53706198D01*
X116950722Y-53706197D01*
X116788319Y-53633891D01*
X116788318Y-53633891D01*
X116782288Y-53631206D01*
X116688888Y-53611353D01*
X116601944Y-53592872D01*
X116601939Y-53592872D01*
X116595487Y-53591500D01*
X116404513Y-53591500D01*
X116398061Y-53592872D01*
X116398056Y-53592872D01*
X116311112Y-53611353D01*
X116217712Y-53631206D01*
X116211682Y-53633891D01*
X116211681Y-53633891D01*
X116049278Y-53706197D01*
X116049276Y-53706198D01*
X116043248Y-53708882D01*
X115888747Y-53821134D01*
X115884326Y-53826044D01*
X115884325Y-53826045D01*
X115766597Y-53956796D01*
X115760960Y-53963056D01*
X115665473Y-54128444D01*
X115606458Y-54310072D01*
X115586496Y-54500000D01*
X115606458Y-54689928D01*
X115665473Y-54871556D01*
X115677284Y-54892013D01*
X115694021Y-54961005D01*
X115670801Y-55028097D01*
X115614995Y-55071985D01*
X115568164Y-55081011D01*
X113696677Y-55081011D01*
X113628556Y-55061009D01*
X113582063Y-55007353D01*
X113571959Y-54937079D01*
X113599173Y-54875205D01*
X113669641Y-54789109D01*
X113722713Y-54724268D01*
X113872927Y-54479142D01*
X113988483Y-54215898D01*
X114067244Y-53939406D01*
X114107751Y-53654784D01*
X114107845Y-53636951D01*
X114109235Y-53371583D01*
X114109235Y-53371576D01*
X114109257Y-53367297D01*
X114106542Y-53346669D01*
X114088695Y-53211114D01*
X114071732Y-53082266D01*
X113995871Y-52804964D01*
X113913503Y-52611856D01*
X113884763Y-52544476D01*
X113884761Y-52544472D01*
X113883077Y-52540524D01*
X113735439Y-52293839D01*
X113555687Y-52069472D01*
X113347149Y-51871577D01*
X113113683Y-51703814D01*
X113099571Y-51696342D01*
X113048729Y-51646790D01*
X113032748Y-51577615D01*
X113056702Y-51510782D01*
X113112987Y-51467509D01*
X113158532Y-51458989D01*
X118010895Y-51458989D01*
X118079016Y-51478991D01*
G37*
%TD.AperFunction*%
%TA.AperFunction,NonConductor*%
G36*
X123437334Y-55103819D02*
G01*
X123482162Y-55158873D01*
X123492000Y-55207682D01*
X123492000Y-56406519D01*
X123471998Y-56474640D01*
X123418342Y-56521133D01*
X123348068Y-56531237D01*
X123283488Y-56501743D01*
X123250452Y-56456764D01*
X123241354Y-56435840D01*
X123120014Y-56248277D01*
X122969670Y-56083051D01*
X122965619Y-56079852D01*
X122965615Y-56079848D01*
X122798414Y-55947800D01*
X122798410Y-55947798D01*
X122794359Y-55944598D01*
X122753053Y-55921796D01*
X122703084Y-55871364D01*
X122688312Y-55801921D01*
X122713428Y-55735516D01*
X122740780Y-55708909D01*
X122784603Y-55677650D01*
X122919860Y-55581173D01*
X123078096Y-55423489D01*
X123137594Y-55340689D01*
X123205435Y-55246277D01*
X123208453Y-55242077D01*
X123253044Y-55151854D01*
X123301156Y-55099648D01*
X123369857Y-55081741D01*
X123437334Y-55103819D01*
G37*
%TD.AperFunction*%
%TA.AperFunction,NonConductor*%
G36*
X100716512Y-55026701D02*
G01*
X100750743Y-55074521D01*
X100783266Y-55154616D01*
X100899987Y-55345088D01*
X101046250Y-55513938D01*
X101218126Y-55656632D01*
X101288595Y-55697811D01*
X101291445Y-55699476D01*
X101340169Y-55751114D01*
X101353240Y-55820897D01*
X101326509Y-55886669D01*
X101286055Y-55920027D01*
X101273607Y-55926507D01*
X101269474Y-55929610D01*
X101269471Y-55929612D01*
X101245247Y-55947800D01*
X101094965Y-56060635D01*
X100940629Y-56222138D01*
X100814743Y-56406680D01*
X100761616Y-56521133D01*
X100748288Y-56549846D01*
X100701464Y-56603213D01*
X100633221Y-56622794D01*
X100565225Y-56602371D01*
X100519065Y-56548428D01*
X100508000Y-56496796D01*
X100508000Y-55121925D01*
X100528002Y-55053804D01*
X100581658Y-55007311D01*
X100651932Y-54997207D01*
X100716512Y-55026701D01*
G37*
%TD.AperFunction*%
%TA.AperFunction,NonConductor*%
G36*
X111176016Y-56368013D02*
G01*
X111222509Y-56421669D01*
X111232613Y-56491943D01*
X111203119Y-56556523D01*
X111196990Y-56563106D01*
X111107696Y-56652400D01*
X111045384Y-56686426D01*
X110977173Y-56680860D01*
X110977059Y-56681305D01*
X110957437Y-56676267D01*
X110938734Y-56669863D01*
X110927420Y-56664967D01*
X110927419Y-56664967D01*
X110920145Y-56661819D01*
X110912322Y-56660580D01*
X110912312Y-56660577D01*
X110876476Y-56654901D01*
X110864856Y-56652495D01*
X110829711Y-56643472D01*
X110829710Y-56643472D01*
X110822030Y-56641500D01*
X110801776Y-56641500D01*
X110782065Y-56639949D01*
X110769886Y-56638020D01*
X110762057Y-56636780D01*
X110754165Y-56637526D01*
X110718039Y-56640941D01*
X110706181Y-56641500D01*
X109333363Y-56641500D01*
X109265242Y-56621498D01*
X109219340Y-56568522D01*
X109217304Y-56561589D01*
X109204799Y-56542131D01*
X109184798Y-56474010D01*
X109204801Y-56405889D01*
X109258457Y-56359397D01*
X109310798Y-56348011D01*
X111107895Y-56348011D01*
X111176016Y-56368013D01*
G37*
%TD.AperFunction*%
%TA.AperFunction,NonConductor*%
G36*
X106758043Y-56368013D02*
G01*
X106804536Y-56421669D01*
X106814640Y-56491943D01*
X106804536Y-56526353D01*
X106770327Y-56601260D01*
X106723834Y-56654916D01*
X106702097Y-56666070D01*
X106685089Y-56672804D01*
X106673865Y-56676646D01*
X106631407Y-56688982D01*
X106624581Y-56693019D01*
X106613972Y-56699293D01*
X106596224Y-56707988D01*
X106577383Y-56715448D01*
X106570967Y-56720110D01*
X106570966Y-56720110D01*
X106541613Y-56741436D01*
X106531693Y-56747952D01*
X106500465Y-56766420D01*
X106500462Y-56766422D01*
X106493638Y-56770458D01*
X106479317Y-56784779D01*
X106464284Y-56797619D01*
X106447893Y-56809528D01*
X106442842Y-56815634D01*
X106419702Y-56843605D01*
X106411712Y-56852384D01*
X106116877Y-57147219D01*
X106054565Y-57181245D01*
X105983750Y-57176180D01*
X105926914Y-57133633D01*
X105902206Y-57068448D01*
X105885276Y-56862522D01*
X105884852Y-56857361D01*
X105830431Y-56640702D01*
X105779797Y-56524252D01*
X105770977Y-56453807D01*
X105801644Y-56389775D01*
X105862060Y-56352487D01*
X105895347Y-56348011D01*
X106689922Y-56348011D01*
X106758043Y-56368013D01*
G37*
%TD.AperFunction*%
%TA.AperFunction,NonConductor*%
G36*
X118708957Y-58191727D02*
G01*
X118709912Y-58190363D01*
X118714145Y-58193327D01*
X118718126Y-58196632D01*
X118788595Y-58237811D01*
X118791445Y-58239476D01*
X118840169Y-58291114D01*
X118853240Y-58360897D01*
X118826509Y-58426669D01*
X118786055Y-58460027D01*
X118773607Y-58466507D01*
X118711129Y-58513417D01*
X118644646Y-58538321D01*
X118575250Y-58523328D01*
X118524977Y-58473198D01*
X118509478Y-58412655D01*
X118509478Y-58291780D01*
X118529480Y-58223659D01*
X118583136Y-58177166D01*
X118653410Y-58167062D01*
X118708957Y-58191727D01*
G37*
%TD.AperFunction*%
%TA.AperFunction,NonConductor*%
G36*
X103352026Y-57755144D02*
G01*
X103379875Y-57786994D01*
X103439987Y-57885088D01*
X103586250Y-58053938D01*
X103758126Y-58196632D01*
X103828595Y-58237811D01*
X103831445Y-58239476D01*
X103880169Y-58291114D01*
X103893240Y-58360897D01*
X103866509Y-58426669D01*
X103826055Y-58460027D01*
X103813607Y-58466507D01*
X103809474Y-58469610D01*
X103809471Y-58469612D01*
X103704647Y-58548316D01*
X103634965Y-58600635D01*
X103480629Y-58762138D01*
X103373201Y-58919621D01*
X103318293Y-58964621D01*
X103247768Y-58972792D01*
X103184021Y-58941538D01*
X103163324Y-58917054D01*
X103082822Y-58792617D01*
X103082820Y-58792614D01*
X103080014Y-58788277D01*
X102929670Y-58623051D01*
X102925619Y-58619852D01*
X102925615Y-58619848D01*
X102758414Y-58487800D01*
X102758410Y-58487798D01*
X102754359Y-58484598D01*
X102713053Y-58461796D01*
X102663084Y-58411364D01*
X102648312Y-58341921D01*
X102673428Y-58275516D01*
X102700780Y-58248909D01*
X102744603Y-58217650D01*
X102879860Y-58121173D01*
X102928713Y-58072491D01*
X103008125Y-57993355D01*
X103038096Y-57963489D01*
X103050545Y-57946165D01*
X103168453Y-57782077D01*
X103169776Y-57783028D01*
X103216645Y-57739857D01*
X103286580Y-57727625D01*
X103352026Y-57755144D01*
G37*
%TD.AperFunction*%
%TA.AperFunction,NonConductor*%
G36*
X123437334Y-57643819D02*
G01*
X123482162Y-57698873D01*
X123492000Y-57747682D01*
X123492000Y-58946519D01*
X123471998Y-59014640D01*
X123418342Y-59061133D01*
X123348068Y-59071237D01*
X123283488Y-59041743D01*
X123250452Y-58996764D01*
X123241354Y-58975840D01*
X123120014Y-58788277D01*
X122969670Y-58623051D01*
X122965619Y-58619852D01*
X122965615Y-58619848D01*
X122798414Y-58487800D01*
X122798410Y-58487798D01*
X122794359Y-58484598D01*
X122753053Y-58461796D01*
X122703084Y-58411364D01*
X122688312Y-58341921D01*
X122713428Y-58275516D01*
X122740780Y-58248909D01*
X122784603Y-58217650D01*
X122919860Y-58121173D01*
X122968713Y-58072491D01*
X123048125Y-57993355D01*
X123078096Y-57963489D01*
X123090545Y-57946165D01*
X123205435Y-57786277D01*
X123208453Y-57782077D01*
X123253044Y-57691854D01*
X123301156Y-57639648D01*
X123369857Y-57621741D01*
X123437334Y-57643819D01*
G37*
%TD.AperFunction*%
%TA.AperFunction,NonConductor*%
G36*
X100716512Y-57566701D02*
G01*
X100750743Y-57614521D01*
X100783266Y-57694616D01*
X100831318Y-57773030D01*
X100897291Y-57880688D01*
X100899987Y-57885088D01*
X101046250Y-58053938D01*
X101218126Y-58196632D01*
X101288595Y-58237811D01*
X101291445Y-58239476D01*
X101340169Y-58291114D01*
X101353240Y-58360897D01*
X101326509Y-58426669D01*
X101286055Y-58460027D01*
X101273607Y-58466507D01*
X101269474Y-58469610D01*
X101269471Y-58469612D01*
X101164647Y-58548316D01*
X101094965Y-58600635D01*
X100940629Y-58762138D01*
X100814743Y-58946680D01*
X100761616Y-59061133D01*
X100748288Y-59089846D01*
X100701464Y-59143213D01*
X100633221Y-59162794D01*
X100565225Y-59142371D01*
X100519065Y-59088428D01*
X100508000Y-59036796D01*
X100508000Y-57661925D01*
X100528002Y-57593804D01*
X100581658Y-57547311D01*
X100651932Y-57537207D01*
X100716512Y-57566701D01*
G37*
%TD.AperFunction*%
%TA.AperFunction,NonConductor*%
G36*
X117184591Y-59637707D02*
G01*
X117231088Y-59691359D01*
X117242478Y-59743710D01*
X117242478Y-59752991D01*
X117222476Y-59821112D01*
X117168820Y-59867605D01*
X117098546Y-59877709D01*
X117033974Y-59848223D01*
X117032759Y-59847171D01*
X117027823Y-59842893D01*
X116989435Y-59783173D01*
X116989429Y-59712176D01*
X117027807Y-59652446D01*
X117042200Y-59641670D01*
X117048350Y-59637717D01*
X117116469Y-59617710D01*
X117184591Y-59637707D01*
G37*
%TD.AperFunction*%
%TA.AperFunction,NonConductor*%
G36*
X110203392Y-57928502D02*
G01*
X110249885Y-57982158D01*
X110261271Y-58034500D01*
X110261271Y-59250000D01*
X110266500Y-59323111D01*
X110286828Y-59392342D01*
X110302581Y-59445990D01*
X110307696Y-59463411D01*
X110312567Y-59470990D01*
X110381878Y-59578841D01*
X110381880Y-59578844D01*
X110386750Y-59586421D01*
X110393560Y-59592322D01*
X110490445Y-59676274D01*
X110490448Y-59676276D01*
X110497257Y-59682176D01*
X110630266Y-59742919D01*
X110775000Y-59763729D01*
X111775000Y-59763729D01*
X111776965Y-59763605D01*
X111776967Y-59763605D01*
X111797935Y-59762282D01*
X111832088Y-59760128D01*
X111901333Y-59775802D01*
X111951111Y-59826424D01*
X111966020Y-59885878D01*
X111966020Y-60118324D01*
X111946018Y-60186445D01*
X111892362Y-60232938D01*
X111822091Y-60243042D01*
X111775000Y-60236271D01*
X110775000Y-60236271D01*
X110743014Y-60238559D01*
X110708627Y-60241018D01*
X110708626Y-60241018D01*
X110701889Y-60241500D01*
X110631249Y-60262242D01*
X110570235Y-60280157D01*
X110570233Y-60280158D01*
X110561589Y-60282696D01*
X110554010Y-60287567D01*
X110446159Y-60356878D01*
X110446156Y-60356880D01*
X110438579Y-60361750D01*
X110437480Y-60363018D01*
X110376269Y-60390972D01*
X110305995Y-60380869D01*
X110284276Y-60368191D01*
X110190094Y-60299763D01*
X110190093Y-60299762D01*
X110184752Y-60295882D01*
X110178724Y-60293198D01*
X110178722Y-60293197D01*
X110016319Y-60220891D01*
X110016318Y-60220891D01*
X110010288Y-60218206D01*
X109916887Y-60198353D01*
X109829944Y-60179872D01*
X109829939Y-60179872D01*
X109823487Y-60178500D01*
X109632513Y-60178500D01*
X109626061Y-60179872D01*
X109626056Y-60179872D01*
X109539113Y-60198353D01*
X109445712Y-60218206D01*
X109439679Y-60220892D01*
X109439673Y-60220894D01*
X109415949Y-60231456D01*
X109345582Y-60240890D01*
X109281286Y-60210783D01*
X109243806Y-60151847D01*
X109240090Y-60139189D01*
X109217304Y-60061589D01*
X109175960Y-59997257D01*
X109143122Y-59946159D01*
X109143120Y-59946156D01*
X109138250Y-59938579D01*
X109027815Y-59842886D01*
X108989432Y-59783162D01*
X108989432Y-59712165D01*
X109027815Y-59652439D01*
X109042207Y-59641665D01*
X109078841Y-59618122D01*
X109078844Y-59618120D01*
X109086421Y-59613250D01*
X109109431Y-59586695D01*
X109176274Y-59509555D01*
X109176276Y-59509552D01*
X109182176Y-59502743D01*
X109242919Y-59369734D01*
X109263729Y-59225000D01*
X109263729Y-58075000D01*
X109261293Y-58044544D01*
X109275800Y-57975047D01*
X109325578Y-57924424D01*
X109386892Y-57908500D01*
X110135271Y-57908500D01*
X110203392Y-57928502D01*
G37*
%TD.AperFunction*%
%TA.AperFunction,NonConductor*%
G36*
X106654304Y-58505769D02*
G01*
X106711139Y-58548316D01*
X106735950Y-58614836D01*
X106736271Y-58623825D01*
X106736271Y-59225000D01*
X106741500Y-59298111D01*
X106761014Y-59364570D01*
X106770643Y-59397361D01*
X106782696Y-59438411D01*
X106787567Y-59445990D01*
X106856878Y-59553841D01*
X106856880Y-59553844D01*
X106861750Y-59561421D01*
X106931412Y-59621784D01*
X106969795Y-59681508D01*
X106969795Y-59752505D01*
X106937996Y-59806100D01*
X106033736Y-60710359D01*
X106025462Y-60717888D01*
X106018982Y-60722000D01*
X106013557Y-60727777D01*
X105972357Y-60771651D01*
X105969602Y-60774493D01*
X105949865Y-60794230D01*
X105947385Y-60797427D01*
X105939682Y-60806447D01*
X105909414Y-60838679D01*
X105905595Y-60845625D01*
X105905593Y-60845628D01*
X105899652Y-60856434D01*
X105888801Y-60872953D01*
X105876386Y-60888959D01*
X105873241Y-60896228D01*
X105873238Y-60896232D01*
X105858826Y-60929537D01*
X105853609Y-60940187D01*
X105832305Y-60978940D01*
X105830334Y-60986615D01*
X105830334Y-60986616D01*
X105827267Y-60998562D01*
X105820863Y-61017266D01*
X105818770Y-61022104D01*
X105812819Y-61035855D01*
X105811580Y-61043678D01*
X105811577Y-61043688D01*
X105805901Y-61079524D01*
X105803495Y-61091144D01*
X105792500Y-61133970D01*
X105792500Y-61154224D01*
X105790949Y-61173934D01*
X105787780Y-61193943D01*
X105787882Y-61195027D01*
X105766701Y-61259595D01*
X105711612Y-61304381D01*
X105641056Y-61312274D01*
X105577433Y-61280769D01*
X105569700Y-61272981D01*
X105473152Y-61166876D01*
X105473142Y-61166867D01*
X105469670Y-61163051D01*
X105465619Y-61159852D01*
X105465615Y-61159848D01*
X105298414Y-61027800D01*
X105298410Y-61027798D01*
X105294359Y-61024598D01*
X105253053Y-61001796D01*
X105203084Y-60951364D01*
X105188312Y-60881921D01*
X105213428Y-60815516D01*
X105240780Y-60788909D01*
X105298483Y-60747750D01*
X105419860Y-60661173D01*
X105578096Y-60503489D01*
X105637594Y-60420689D01*
X105705435Y-60326277D01*
X105708453Y-60322077D01*
X105712406Y-60314080D01*
X105805136Y-60126453D01*
X105805137Y-60126451D01*
X105807430Y-60121811D01*
X105872370Y-59908069D01*
X105901529Y-59686590D01*
X105902363Y-59652446D01*
X105903074Y-59623365D01*
X105903074Y-59623361D01*
X105903156Y-59620000D01*
X105884852Y-59397361D01*
X105856821Y-59285765D01*
X105859625Y-59214825D01*
X105889930Y-59165974D01*
X106521176Y-58534729D01*
X106583488Y-58500704D01*
X106654304Y-58505769D01*
G37*
%TD.AperFunction*%
%TA.AperFunction,NonConductor*%
G36*
X114678392Y-57295502D02*
G01*
X114724885Y-57349158D01*
X114736271Y-57401500D01*
X114736271Y-57775000D01*
X114736395Y-57776964D01*
X114736395Y-57776968D01*
X114737028Y-57786994D01*
X114740343Y-57839557D01*
X114752925Y-57885232D01*
X114756167Y-57936624D01*
X114736271Y-58075000D01*
X114736271Y-59225000D01*
X114741500Y-59298111D01*
X114761014Y-59364570D01*
X114770643Y-59397361D01*
X114782696Y-59438411D01*
X114787567Y-59445990D01*
X114856878Y-59553841D01*
X114856880Y-59553844D01*
X114861750Y-59561421D01*
X114972185Y-59657114D01*
X115010568Y-59716838D01*
X115010568Y-59787835D01*
X114972185Y-59847561D01*
X114957793Y-59858335D01*
X114921159Y-59881878D01*
X114921156Y-59881880D01*
X114913579Y-59886750D01*
X114907678Y-59893560D01*
X114823726Y-59990445D01*
X114823724Y-59990448D01*
X114817824Y-59997257D01*
X114757081Y-60130266D01*
X114736271Y-60275000D01*
X114736271Y-60464634D01*
X114716269Y-60532755D01*
X114699366Y-60553729D01*
X113953824Y-61299271D01*
X113891512Y-61333297D01*
X113820697Y-61328232D01*
X113763861Y-61285685D01*
X113739050Y-61219165D01*
X113738729Y-61210176D01*
X113738729Y-60750000D01*
X113733500Y-60676889D01*
X113697337Y-60553729D01*
X113694843Y-60545235D01*
X113694842Y-60545233D01*
X113692304Y-60536589D01*
X113631259Y-60441601D01*
X113618122Y-60421159D01*
X113618120Y-60421156D01*
X113613250Y-60413579D01*
X113560870Y-60368191D01*
X113509555Y-60323726D01*
X113509552Y-60323724D01*
X113502743Y-60317824D01*
X113369734Y-60257081D01*
X113360811Y-60255798D01*
X113341087Y-60252962D01*
X113276506Y-60223469D01*
X113238123Y-60163742D01*
X113233020Y-60128245D01*
X113233020Y-59871935D01*
X113253022Y-59803814D01*
X113306678Y-59757321D01*
X113323521Y-59751039D01*
X113351175Y-59742919D01*
X113438411Y-59717304D01*
X113487245Y-59685920D01*
X113553841Y-59643122D01*
X113553844Y-59643120D01*
X113561421Y-59638250D01*
X113606331Y-59586421D01*
X113651274Y-59534555D01*
X113651276Y-59534552D01*
X113657176Y-59527743D01*
X113717919Y-59394734D01*
X113738729Y-59250000D01*
X113738729Y-57750000D01*
X113734768Y-57694616D01*
X113733982Y-57683627D01*
X113733982Y-57683626D01*
X113733500Y-57676889D01*
X113709104Y-57593804D01*
X113694843Y-57545235D01*
X113694842Y-57545233D01*
X113692304Y-57536589D01*
X113649266Y-57469621D01*
X113629264Y-57401500D01*
X113649266Y-57333380D01*
X113702921Y-57286887D01*
X113755264Y-57275500D01*
X114610271Y-57275500D01*
X114678392Y-57295502D01*
G37*
%TD.AperFunction*%
%TA.AperFunction,NonConductor*%
G36*
X121242442Y-60729616D02*
G01*
X121261979Y-60738884D01*
X121277152Y-60747750D01*
X121331445Y-60779476D01*
X121380169Y-60831115D01*
X121393240Y-60900898D01*
X121366509Y-60966669D01*
X121326055Y-61000027D01*
X121313607Y-61006507D01*
X121309474Y-61009610D01*
X121309471Y-61009612D01*
X121139100Y-61137530D01*
X121134965Y-61140635D01*
X120980629Y-61302138D01*
X120873201Y-61459621D01*
X120818293Y-61504621D01*
X120747768Y-61512792D01*
X120684021Y-61481538D01*
X120663325Y-61457055D01*
X120619468Y-61389264D01*
X120599260Y-61321204D01*
X120619055Y-61253023D01*
X120636164Y-61231728D01*
X121109315Y-60758577D01*
X121171627Y-60724551D01*
X121242442Y-60729616D01*
G37*
%TD.AperFunction*%
%TA.AperFunction,NonConductor*%
G36*
X123437334Y-60183819D02*
G01*
X123482162Y-60238873D01*
X123492000Y-60287682D01*
X123492000Y-61486519D01*
X123471998Y-61554640D01*
X123418342Y-61601133D01*
X123348068Y-61611237D01*
X123283488Y-61581743D01*
X123250452Y-61536764D01*
X123241354Y-61515840D01*
X123190428Y-61437120D01*
X123122822Y-61332617D01*
X123122820Y-61332614D01*
X123120014Y-61328277D01*
X122969670Y-61163051D01*
X122965619Y-61159852D01*
X122965615Y-61159848D01*
X122798414Y-61027800D01*
X122798410Y-61027798D01*
X122794359Y-61024598D01*
X122753053Y-61001796D01*
X122703084Y-60951364D01*
X122688312Y-60881921D01*
X122713428Y-60815516D01*
X122740780Y-60788909D01*
X122798483Y-60747750D01*
X122919860Y-60661173D01*
X123078096Y-60503489D01*
X123137594Y-60420689D01*
X123205435Y-60326277D01*
X123208453Y-60322077D01*
X123253044Y-60231854D01*
X123301156Y-60179648D01*
X123369857Y-60161741D01*
X123437334Y-60183819D01*
G37*
%TD.AperFunction*%
%TA.AperFunction,NonConductor*%
G36*
X100716512Y-60106701D02*
G01*
X100750743Y-60154521D01*
X100776603Y-60218206D01*
X100783266Y-60234616D01*
X100812729Y-60282696D01*
X100889598Y-60408134D01*
X100899987Y-60425088D01*
X101046250Y-60593938D01*
X101218126Y-60736632D01*
X101241003Y-60750000D01*
X101291445Y-60779476D01*
X101340169Y-60831114D01*
X101353240Y-60900897D01*
X101326509Y-60966669D01*
X101286055Y-61000027D01*
X101273607Y-61006507D01*
X101269474Y-61009610D01*
X101269471Y-61009612D01*
X101099100Y-61137530D01*
X101094965Y-61140635D01*
X100940629Y-61302138D01*
X100814743Y-61486680D01*
X100763033Y-61598080D01*
X100748288Y-61629846D01*
X100701464Y-61683213D01*
X100633221Y-61702794D01*
X100565225Y-61682371D01*
X100519065Y-61628428D01*
X100508000Y-61576796D01*
X100508000Y-60201925D01*
X100528002Y-60133804D01*
X100581658Y-60087311D01*
X100651932Y-60077207D01*
X100716512Y-60106701D01*
G37*
%TD.AperFunction*%
%TA.AperFunction,NonConductor*%
G36*
X110222975Y-62354095D02*
G01*
X110279811Y-62396642D01*
X110299839Y-62436651D01*
X110307696Y-62463411D01*
X110312567Y-62470990D01*
X110381878Y-62578841D01*
X110381880Y-62578844D01*
X110386750Y-62586421D01*
X110393560Y-62592322D01*
X110490445Y-62676274D01*
X110490448Y-62676276D01*
X110497257Y-62682176D01*
X110612685Y-62734890D01*
X110666340Y-62781382D01*
X110686342Y-62849502D01*
X110666340Y-62917623D01*
X110649437Y-62938598D01*
X110631440Y-62956595D01*
X110569128Y-62990621D01*
X110542345Y-62993500D01*
X109759814Y-62993500D01*
X109691693Y-62973498D01*
X109645200Y-62919842D01*
X109635096Y-62849568D01*
X109664590Y-62784988D01*
X109685752Y-62765565D01*
X109695385Y-62758566D01*
X109705307Y-62752048D01*
X109736535Y-62733580D01*
X109736538Y-62733578D01*
X109743362Y-62729542D01*
X109757683Y-62715221D01*
X109772717Y-62702380D01*
X109789107Y-62690472D01*
X109817298Y-62656395D01*
X109825288Y-62647616D01*
X110089848Y-62383056D01*
X110152160Y-62349030D01*
X110222975Y-62354095D01*
G37*
%TD.AperFunction*%
%TA.AperFunction,NonConductor*%
G36*
X123437334Y-62723819D02*
G01*
X123482162Y-62778873D01*
X123492000Y-62827682D01*
X123492000Y-63236905D01*
X123471998Y-63305026D01*
X123418342Y-63351519D01*
X123348068Y-63361623D01*
X123283488Y-63332129D01*
X123276905Y-63326000D01*
X123118791Y-63167886D01*
X123084765Y-63105574D01*
X123089830Y-63034759D01*
X123105563Y-63005265D01*
X123205435Y-62866277D01*
X123208453Y-62862077D01*
X123253044Y-62771854D01*
X123301156Y-62719648D01*
X123369857Y-62701741D01*
X123437334Y-62723819D01*
G37*
%TD.AperFunction*%
%TA.AperFunction,NonConductor*%
G36*
X105710739Y-63015295D02*
G01*
X105767500Y-63057941D01*
X105792194Y-63124505D01*
X105792500Y-63133274D01*
X105792500Y-63368645D01*
X105772498Y-63436766D01*
X105718842Y-63483259D01*
X105648568Y-63493363D01*
X105589278Y-63468208D01*
X105582875Y-63463241D01*
X105582872Y-63463239D01*
X105576615Y-63458386D01*
X105569346Y-63455241D01*
X105569342Y-63455238D01*
X105536037Y-63440826D01*
X105525387Y-63435609D01*
X105486634Y-63414305D01*
X105477873Y-63412056D01*
X105477117Y-63411605D01*
X105471587Y-63409416D01*
X105471940Y-63408524D01*
X105416868Y-63375741D01*
X105385180Y-63312209D01*
X105392871Y-63241630D01*
X105420270Y-63200764D01*
X105424030Y-63197018D01*
X105577560Y-63044023D01*
X105639932Y-63010107D01*
X105710739Y-63015295D01*
G37*
%TD.AperFunction*%
%TA.AperFunction,NonConductor*%
G36*
X107231908Y-63236128D02*
G01*
X107245540Y-63238088D01*
X107245544Y-63238088D01*
X107250000Y-63238729D01*
X107392176Y-63238729D01*
X107460297Y-63258731D01*
X107506790Y-63312387D01*
X107516894Y-63382661D01*
X107487400Y-63447241D01*
X107481271Y-63453825D01*
X107274595Y-63660500D01*
X107212283Y-63694525D01*
X107141467Y-63689460D01*
X107084632Y-63646913D01*
X107059821Y-63580392D01*
X107059500Y-63571404D01*
X107059500Y-63356750D01*
X107079502Y-63288629D01*
X107133158Y-63242136D01*
X107203431Y-63232033D01*
X107231908Y-63236128D01*
G37*
%TD.AperFunction*%
%TA.AperFunction,NonConductor*%
G36*
X114909614Y-63117373D02*
G01*
X114955593Y-63142736D01*
X114972257Y-63157176D01*
X115105266Y-63217919D01*
X115250000Y-63238729D01*
X115710480Y-63238729D01*
X115778601Y-63258731D01*
X115825094Y-63312387D01*
X115835198Y-63382661D01*
X115830315Y-63403659D01*
X115819458Y-63437072D01*
X115818768Y-63443633D01*
X115818768Y-63443635D01*
X115804395Y-63580392D01*
X115799496Y-63627000D01*
X115810239Y-63729207D01*
X115814199Y-63766888D01*
X115801427Y-63836727D01*
X115752925Y-63888573D01*
X115684092Y-63905968D01*
X115672447Y-63904981D01*
X115570052Y-63891501D01*
X114347939Y-63891501D01*
X114279818Y-63871499D01*
X114233325Y-63817843D01*
X114223221Y-63747569D01*
X114250852Y-63685189D01*
X114257296Y-63677399D01*
X114265288Y-63668616D01*
X114692247Y-63241657D01*
X114700537Y-63234113D01*
X114707018Y-63230000D01*
X114753659Y-63180332D01*
X114756413Y-63177491D01*
X114776134Y-63157770D01*
X114778562Y-63154640D01*
X114778567Y-63154634D01*
X114838620Y-63116764D01*
X114909614Y-63117373D01*
G37*
%TD.AperFunction*%
%TA.AperFunction,NonConductor*%
G36*
X100716512Y-62646701D02*
G01*
X100750743Y-62694521D01*
X100783266Y-62774616D01*
X100832938Y-62855673D01*
X100894783Y-62956595D01*
X100899987Y-62965088D01*
X101046250Y-63133938D01*
X101218126Y-63276632D01*
X101411000Y-63389338D01*
X101619692Y-63469030D01*
X101624760Y-63470061D01*
X101624763Y-63470062D01*
X101689629Y-63483259D01*
X101838597Y-63513567D01*
X101843772Y-63513757D01*
X101843774Y-63513757D01*
X102056673Y-63521564D01*
X102056677Y-63521564D01*
X102061837Y-63521753D01*
X102224492Y-63500916D01*
X102294601Y-63512100D01*
X102347535Y-63559413D01*
X102366501Y-63625895D01*
X102366501Y-64009447D01*
X102346499Y-64077568D01*
X102292843Y-64124061D01*
X102279454Y-64129274D01*
X102217395Y-64149438D01*
X102210702Y-64153685D01*
X102210701Y-64153686D01*
X102175060Y-64176305D01*
X102076920Y-64238587D01*
X101963028Y-64359870D01*
X101959211Y-64366813D01*
X101908242Y-64459526D01*
X101857897Y-64509584D01*
X101788480Y-64524478D01*
X101722031Y-64499477D01*
X101711513Y-64489436D01*
X101711000Y-64489982D01*
X101661349Y-64443357D01*
X101658507Y-64440602D01*
X101638770Y-64420865D01*
X101635573Y-64418385D01*
X101626551Y-64410680D01*
X101600100Y-64385841D01*
X101594321Y-64380414D01*
X101587375Y-64376595D01*
X101587372Y-64376593D01*
X101576566Y-64370652D01*
X101560047Y-64359801D01*
X101552688Y-64354093D01*
X101544041Y-64347386D01*
X101536772Y-64344241D01*
X101536768Y-64344238D01*
X101503463Y-64329826D01*
X101492813Y-64324609D01*
X101454060Y-64303305D01*
X101434437Y-64298267D01*
X101415734Y-64291863D01*
X101404420Y-64286967D01*
X101404419Y-64286967D01*
X101397145Y-64283819D01*
X101389322Y-64282580D01*
X101389312Y-64282577D01*
X101353476Y-64276901D01*
X101341856Y-64274495D01*
X101306711Y-64265472D01*
X101306710Y-64265472D01*
X101299030Y-64263500D01*
X101278776Y-64263500D01*
X101259065Y-64261949D01*
X101256534Y-64261548D01*
X101239057Y-64258780D01*
X101231165Y-64259526D01*
X101195039Y-64262941D01*
X101183181Y-64263500D01*
X100789763Y-64263500D01*
X100778579Y-64262973D01*
X100771091Y-64261299D01*
X100763168Y-64261548D01*
X100703033Y-64263438D01*
X100699075Y-64263500D01*
X100671144Y-64263500D01*
X100667229Y-64263995D01*
X100667225Y-64263995D01*
X100667167Y-64264003D01*
X100667138Y-64264006D01*
X100655290Y-64264939D01*
X100653277Y-64265002D01*
X100637952Y-64265483D01*
X100569237Y-64247627D01*
X100521084Y-64195456D01*
X100508000Y-64139545D01*
X100508000Y-62741925D01*
X100528002Y-62673804D01*
X100581658Y-62627311D01*
X100651932Y-62617207D01*
X100716512Y-62646701D01*
G37*
%TD.AperFunction*%
%TA.AperFunction,NonConductor*%
G36*
X113666289Y-63899502D02*
G01*
X113712782Y-63953158D01*
X113722886Y-64023432D01*
X113692244Y-64089319D01*
X113614678Y-64176377D01*
X113614674Y-64176383D01*
X113609622Y-64182053D01*
X113606066Y-64188769D01*
X113538512Y-64316357D01*
X113532211Y-64328257D01*
X113530361Y-64335622D01*
X113499239Y-64459526D01*
X113491909Y-64488706D01*
X113491869Y-64496305D01*
X113491869Y-64496307D01*
X113491820Y-64505666D01*
X113491043Y-64654136D01*
X113491404Y-64655642D01*
X113479802Y-64723067D01*
X113431846Y-64775419D01*
X113363199Y-64793533D01*
X113295656Y-64771658D01*
X113277582Y-64756676D01*
X112898648Y-64377742D01*
X112891113Y-64369462D01*
X112887000Y-64362982D01*
X112837348Y-64316356D01*
X112834507Y-64313602D01*
X112814770Y-64293865D01*
X112811573Y-64291385D01*
X112802551Y-64283680D01*
X112770321Y-64253414D01*
X112763375Y-64249595D01*
X112763372Y-64249593D01*
X112752566Y-64243652D01*
X112736047Y-64232801D01*
X112735583Y-64232441D01*
X112720041Y-64220386D01*
X112712772Y-64217241D01*
X112712768Y-64217238D01*
X112679463Y-64202826D01*
X112668813Y-64197609D01*
X112630060Y-64176305D01*
X112610437Y-64171267D01*
X112591734Y-64164863D01*
X112573145Y-64156819D01*
X112574453Y-64153796D01*
X112529062Y-64125351D01*
X112498253Y-64091134D01*
X112498252Y-64091133D01*
X112500132Y-64089440D01*
X112468865Y-64038672D01*
X112470227Y-63967688D01*
X112509750Y-63908710D01*
X112574885Y-63880461D01*
X112590420Y-63879500D01*
X113598168Y-63879500D01*
X113666289Y-63899502D01*
G37*
%TD.AperFunction*%
%TA.AperFunction,NonConductor*%
G36*
X118759533Y-65627836D02*
G01*
X118816368Y-65670383D01*
X118841179Y-65736903D01*
X118841500Y-65745892D01*
X118841500Y-66042500D01*
X118821498Y-66110621D01*
X118767842Y-66157114D01*
X118715500Y-66168500D01*
X118418891Y-66168500D01*
X118350770Y-66148498D01*
X118304277Y-66094842D01*
X118294173Y-66024568D01*
X118323667Y-65959988D01*
X118329796Y-65953404D01*
X118626405Y-65656796D01*
X118688717Y-65622771D01*
X118759533Y-65627836D01*
G37*
%TD.AperFunction*%
%TA.AperFunction,NonConductor*%
G36*
X106706058Y-66378586D02*
G01*
X106757358Y-66409689D01*
X107324075Y-66976406D01*
X107358101Y-67038718D01*
X107353036Y-67109533D01*
X107310489Y-67166369D01*
X107243969Y-67191180D01*
X107234980Y-67191501D01*
X105589597Y-67191501D01*
X105521476Y-67171499D01*
X105500502Y-67154596D01*
X105048842Y-66702936D01*
X105014816Y-66640624D01*
X105019881Y-66569809D01*
X105034262Y-66543020D01*
X105036972Y-66540134D01*
X105079522Y-66462736D01*
X105129866Y-66412679D01*
X105199283Y-66397785D01*
X105265732Y-66422786D01*
X105283569Y-66439125D01*
X105306747Y-66464866D01*
X105461248Y-66577118D01*
X105467276Y-66579802D01*
X105467278Y-66579803D01*
X105629681Y-66652109D01*
X105635712Y-66654794D01*
X105729112Y-66674647D01*
X105816056Y-66693128D01*
X105816061Y-66693128D01*
X105822513Y-66694500D01*
X106013487Y-66694500D01*
X106019939Y-66693128D01*
X106019944Y-66693128D01*
X106106888Y-66674647D01*
X106200288Y-66654794D01*
X106206319Y-66652109D01*
X106368722Y-66579803D01*
X106368724Y-66579802D01*
X106374752Y-66577118D01*
X106529253Y-66464866D01*
X106533676Y-66459954D01*
X106574628Y-66414473D01*
X106635074Y-66377234D01*
X106706058Y-66378586D01*
G37*
%TD.AperFunction*%
%TA.AperFunction,NonConductor*%
G36*
X116559343Y-68478503D02*
G01*
X116580317Y-68495405D01*
X116660298Y-68575387D01*
X116728171Y-68643260D01*
X116735704Y-68651538D01*
X116739817Y-68658019D01*
X116745596Y-68663446D01*
X116745598Y-68663448D01*
X116789452Y-68704628D01*
X116792296Y-68707384D01*
X116812047Y-68727136D01*
X116815244Y-68729616D01*
X116824264Y-68737319D01*
X116856496Y-68767587D01*
X116863442Y-68771406D01*
X116863445Y-68771408D01*
X116874251Y-68777349D01*
X116890770Y-68788200D01*
X116906776Y-68800615D01*
X116914045Y-68803760D01*
X116914049Y-68803763D01*
X116947354Y-68818175D01*
X116958004Y-68823392D01*
X116996757Y-68844696D01*
X117004432Y-68846667D01*
X117004433Y-68846667D01*
X117016379Y-68849734D01*
X117035084Y-68856138D01*
X117053672Y-68864182D01*
X117061495Y-68865421D01*
X117061505Y-68865424D01*
X117097341Y-68871100D01*
X117108961Y-68873506D01*
X117140776Y-68881674D01*
X117151787Y-68884501D01*
X117172041Y-68884501D01*
X117191751Y-68886052D01*
X117211760Y-68889221D01*
X117219652Y-68888475D01*
X117238397Y-68886703D01*
X117255779Y-68885060D01*
X117267636Y-68884501D01*
X118352527Y-68884501D01*
X118363710Y-68885028D01*
X118371203Y-68886703D01*
X118379129Y-68886454D01*
X118379130Y-68886454D01*
X118439280Y-68884563D01*
X118443239Y-68884501D01*
X118471150Y-68884501D01*
X118475085Y-68884004D01*
X118475150Y-68883996D01*
X118486987Y-68883063D01*
X118519245Y-68882049D01*
X118523264Y-68881923D01*
X118531183Y-68881674D01*
X118550637Y-68876022D01*
X118569994Y-68872014D01*
X118582224Y-68870469D01*
X118582225Y-68870469D01*
X118590091Y-68869475D01*
X118597462Y-68866556D01*
X118597464Y-68866556D01*
X118631206Y-68853197D01*
X118642437Y-68849352D01*
X118680348Y-68838338D01*
X118751344Y-68838541D01*
X118810960Y-68877095D01*
X118840268Y-68941760D01*
X118841500Y-68959335D01*
X118841500Y-70233500D01*
X118821498Y-70301621D01*
X118767842Y-70348114D01*
X118715500Y-70359500D01*
X118061763Y-70359500D01*
X118050579Y-70358973D01*
X118043091Y-70357299D01*
X118035168Y-70357548D01*
X117975033Y-70359438D01*
X117971075Y-70359500D01*
X117943144Y-70359500D01*
X117939229Y-70359995D01*
X117939225Y-70359995D01*
X117939167Y-70360003D01*
X117939138Y-70360006D01*
X117927296Y-70360939D01*
X117883110Y-70362327D01*
X117865744Y-70367372D01*
X117863658Y-70367978D01*
X117844306Y-70371986D01*
X117832068Y-70373532D01*
X117832066Y-70373533D01*
X117824203Y-70374526D01*
X117783086Y-70390806D01*
X117771885Y-70394641D01*
X117729406Y-70406982D01*
X117722587Y-70411015D01*
X117722582Y-70411017D01*
X117711971Y-70417293D01*
X117694221Y-70425990D01*
X117675383Y-70433448D01*
X117668967Y-70438109D01*
X117668966Y-70438110D01*
X117639625Y-70459428D01*
X117629701Y-70465947D01*
X117598460Y-70484422D01*
X117598455Y-70484426D01*
X117591637Y-70488458D01*
X117577313Y-70502782D01*
X117562281Y-70515621D01*
X117545893Y-70527528D01*
X117522004Y-70556405D01*
X117517712Y-70561593D01*
X117509722Y-70570373D01*
X117434595Y-70645500D01*
X117372283Y-70679526D01*
X117301468Y-70674461D01*
X117244632Y-70631914D01*
X117219821Y-70565394D01*
X117219500Y-70556405D01*
X117219500Y-69839771D01*
X117220027Y-69828588D01*
X117221702Y-69821095D01*
X117219562Y-69753004D01*
X117219500Y-69749047D01*
X117219500Y-69721147D01*
X117218996Y-69717156D01*
X117218063Y-69705314D01*
X117217820Y-69697559D01*
X117216674Y-69661114D01*
X117211021Y-69641655D01*
X117207012Y-69622296D01*
X117206846Y-69620986D01*
X117204474Y-69602206D01*
X117201558Y-69594840D01*
X117201556Y-69594834D01*
X117188200Y-69561101D01*
X117184355Y-69549871D01*
X117174230Y-69515020D01*
X117174230Y-69515019D01*
X117172019Y-69507410D01*
X117161705Y-69489969D01*
X117153008Y-69472216D01*
X117148472Y-69460761D01*
X117145552Y-69453386D01*
X117119563Y-69417615D01*
X117113047Y-69407695D01*
X117094578Y-69376466D01*
X117090542Y-69369641D01*
X117076221Y-69355320D01*
X117063380Y-69340286D01*
X117056132Y-69330310D01*
X117051472Y-69323896D01*
X117017407Y-69295715D01*
X117008626Y-69287725D01*
X116453645Y-68732743D01*
X116446111Y-68724464D01*
X116441998Y-68717983D01*
X116436220Y-68712557D01*
X116436214Y-68712550D01*
X116397665Y-68676351D01*
X116361699Y-68615139D01*
X116364536Y-68544199D01*
X116405276Y-68486055D01*
X116470984Y-68459166D01*
X116483917Y-68458501D01*
X116491222Y-68458501D01*
X116559343Y-68478503D01*
G37*
%TD.AperFunction*%
%TA.AperFunction,NonConductor*%
G36*
X110442704Y-70869945D02*
G01*
X110494635Y-70901244D01*
X110554135Y-70960744D01*
X110588161Y-71023056D01*
X110590350Y-71036669D01*
X110597900Y-71108499D01*
X110606458Y-71189928D01*
X110608498Y-71196206D01*
X110613163Y-71210564D01*
X110615190Y-71281532D01*
X110578528Y-71342330D01*
X110514816Y-71373655D01*
X110493330Y-71375500D01*
X110187064Y-71375500D01*
X110175881Y-71374973D01*
X110168388Y-71373298D01*
X110160462Y-71373547D01*
X110160461Y-71373547D01*
X110100298Y-71375438D01*
X110096340Y-71375500D01*
X110068440Y-71375500D01*
X110064450Y-71376004D01*
X110052616Y-71376936D01*
X110008407Y-71378326D01*
X110000791Y-71380539D01*
X110000789Y-71380539D01*
X109988948Y-71383979D01*
X109969589Y-71387988D01*
X109957366Y-71389532D01*
X109957365Y-71389532D01*
X109949499Y-71390526D01*
X109942131Y-71393443D01*
X109940831Y-71393777D01*
X109869876Y-71391341D01*
X109811502Y-71350931D01*
X109784242Y-71285377D01*
X109783501Y-71271734D01*
X109783501Y-71230212D01*
X109803503Y-71162091D01*
X109857159Y-71115598D01*
X109894362Y-71105125D01*
X109989236Y-71093644D01*
X110143989Y-71035168D01*
X110224715Y-70979687D01*
X110274068Y-70945768D01*
X110274070Y-70945766D01*
X110280327Y-70941466D01*
X110285380Y-70935795D01*
X110285383Y-70935792D01*
X110311464Y-70906520D01*
X110371714Y-70868964D01*
X110442704Y-70869945D01*
G37*
%TD.AperFunction*%
%TA.AperFunction,NonConductor*%
G36*
X108247268Y-71069858D02*
G01*
X108303773Y-71091888D01*
X108311306Y-71092880D01*
X108311307Y-71092880D01*
X108406947Y-71105471D01*
X108471874Y-71134193D01*
X108510966Y-71193458D01*
X108516501Y-71230393D01*
X108516501Y-71764404D01*
X108496499Y-71832525D01*
X108479596Y-71853500D01*
X108290595Y-72042500D01*
X108228283Y-72076525D01*
X108157467Y-72071460D01*
X108100632Y-72028913D01*
X108075821Y-71962392D01*
X108075500Y-71953404D01*
X108075500Y-71187251D01*
X108095502Y-71119130D01*
X108149158Y-71072637D01*
X108219432Y-71062533D01*
X108247268Y-71069858D01*
G37*
%TD.AperFunction*%
%TA.AperFunction,NonConductor*%
G36*
X114158620Y-71688065D02*
G01*
X114205113Y-71741721D01*
X114216499Y-71794063D01*
X114216499Y-72116956D01*
X114196497Y-72185077D01*
X114142841Y-72231570D01*
X114072567Y-72241674D01*
X114007987Y-72212180D01*
X114005756Y-72210037D01*
X114003472Y-72206893D01*
X113969407Y-72178712D01*
X113960626Y-72170722D01*
X113673063Y-71883158D01*
X113639038Y-71820846D01*
X113644103Y-71750030D01*
X113686650Y-71693195D01*
X113753170Y-71668384D01*
X113762159Y-71668063D01*
X114090499Y-71668063D01*
X114158620Y-71688065D01*
G37*
%TD.AperFunction*%
%TA.AperFunction,NonConductor*%
G36*
X106934526Y-68478503D02*
G01*
X106981019Y-68532159D01*
X106991123Y-68602433D01*
X106961629Y-68667013D01*
X106955500Y-68673596D01*
X106150726Y-69478370D01*
X106142440Y-69485910D01*
X106135961Y-69490022D01*
X106130536Y-69495799D01*
X106089336Y-69539673D01*
X106086581Y-69542515D01*
X106066844Y-69562252D01*
X106064364Y-69565449D01*
X106056661Y-69574469D01*
X106026393Y-69606701D01*
X106022574Y-69613647D01*
X106022572Y-69613650D01*
X106016631Y-69624456D01*
X106005780Y-69640975D01*
X105993365Y-69656981D01*
X105990220Y-69664250D01*
X105990217Y-69664254D01*
X105975805Y-69697559D01*
X105970588Y-69708209D01*
X105949284Y-69746962D01*
X105947313Y-69754637D01*
X105947313Y-69754638D01*
X105944246Y-69766584D01*
X105937842Y-69785288D01*
X105929798Y-69803877D01*
X105928559Y-69811700D01*
X105928556Y-69811710D01*
X105922880Y-69847546D01*
X105920474Y-69859166D01*
X105909479Y-69901992D01*
X105909479Y-69922246D01*
X105907928Y-69941956D01*
X105904759Y-69961965D01*
X105905505Y-69969857D01*
X105908920Y-70005983D01*
X105909479Y-70017841D01*
X105909479Y-72710816D01*
X105889477Y-72778937D01*
X105835821Y-72825430D01*
X105765547Y-72835534D01*
X105700967Y-72806040D01*
X105677687Y-72779256D01*
X105582822Y-72632617D01*
X105582820Y-72632614D01*
X105580014Y-72628277D01*
X105429670Y-72463051D01*
X105425619Y-72459852D01*
X105425615Y-72459848D01*
X105258414Y-72327800D01*
X105258410Y-72327798D01*
X105254359Y-72324598D01*
X105058789Y-72216638D01*
X105053920Y-72214914D01*
X105053916Y-72214912D01*
X104853087Y-72143795D01*
X104853083Y-72143794D01*
X104848212Y-72142069D01*
X104759089Y-72126194D01*
X104737405Y-72122331D01*
X104673848Y-72090693D01*
X104637485Y-72029715D01*
X104633502Y-71998284D01*
X104633502Y-70990555D01*
X104653504Y-70922434D01*
X104707160Y-70875941D01*
X104720549Y-70870728D01*
X104782605Y-70850565D01*
X104923080Y-70761416D01*
X105036972Y-70640133D01*
X105117124Y-70494337D01*
X105158500Y-70333189D01*
X105158500Y-68808569D01*
X105145541Y-68705985D01*
X105143876Y-68692804D01*
X105143876Y-68692803D01*
X105142882Y-68684937D01*
X105139964Y-68677566D01*
X105137992Y-68669887D01*
X105139655Y-68669460D01*
X105133501Y-68637208D01*
X105133501Y-68588433D01*
X105153503Y-68520312D01*
X105207159Y-68473819D01*
X105255036Y-68464188D01*
X105254945Y-68463221D01*
X105298964Y-68459060D01*
X105310821Y-68458501D01*
X106866405Y-68458501D01*
X106934526Y-68478503D01*
G37*
%TD.AperFunction*%
%TA.AperFunction,NonConductor*%
G36*
X100685247Y-67854341D02*
G01*
X100711673Y-67866106D01*
X100711679Y-67866108D01*
X100717712Y-67868794D01*
X100811112Y-67888647D01*
X100898056Y-67907128D01*
X100898061Y-67907128D01*
X100904513Y-67908500D01*
X100960405Y-67908500D01*
X101028526Y-67928502D01*
X101049501Y-67945405D01*
X101804596Y-68700501D01*
X101838621Y-68762813D01*
X101841500Y-68789596D01*
X101841500Y-70291433D01*
X101846775Y-70333189D01*
X101856097Y-70406982D01*
X101857118Y-70415065D01*
X101918365Y-70569757D01*
X101923023Y-70576168D01*
X101923024Y-70576170D01*
X101969496Y-70640133D01*
X102016158Y-70704358D01*
X102144353Y-70810409D01*
X102294894Y-70881249D01*
X102331472Y-70888226D01*
X102353624Y-70892452D01*
X102416791Y-70924864D01*
X102438763Y-70953359D01*
X102440449Y-70957617D01*
X102445105Y-70964026D01*
X102445107Y-70964029D01*
X102466437Y-70993387D01*
X102472953Y-71003307D01*
X102483464Y-71021080D01*
X102501011Y-71085220D01*
X102501011Y-72032057D01*
X102481009Y-72100178D01*
X102427353Y-72146671D01*
X102357079Y-72156775D01*
X102332956Y-72150831D01*
X102308212Y-72142069D01*
X102303123Y-72141162D01*
X102303121Y-72141162D01*
X102093373Y-72103800D01*
X102093367Y-72103799D01*
X102088284Y-72102894D01*
X102014452Y-72101992D01*
X101870081Y-72100228D01*
X101870079Y-72100228D01*
X101864911Y-72100165D01*
X101644091Y-72133955D01*
X101431756Y-72203357D01*
X101233607Y-72306507D01*
X101229474Y-72309610D01*
X101229471Y-72309612D01*
X101059100Y-72437530D01*
X101054965Y-72440635D01*
X100900629Y-72602138D01*
X100774743Y-72786680D01*
X100752066Y-72835534D01*
X100748288Y-72843673D01*
X100701464Y-72897040D01*
X100633221Y-72916621D01*
X100565225Y-72896198D01*
X100519065Y-72842256D01*
X100508000Y-72790623D01*
X100508000Y-67969448D01*
X100528002Y-67901327D01*
X100581658Y-67854834D01*
X100651932Y-67844730D01*
X100685247Y-67854341D01*
G37*
%TD.AperFunction*%
%TA.AperFunction,NonConductor*%
G36*
X123410032Y-69360038D02*
G01*
X123466868Y-69402585D01*
X123491679Y-69469105D01*
X123492000Y-69478094D01*
X123492000Y-72826519D01*
X123471998Y-72894640D01*
X123418342Y-72941133D01*
X123348068Y-72951237D01*
X123283488Y-72921743D01*
X123250452Y-72876764D01*
X123241354Y-72855840D01*
X123120014Y-72668277D01*
X122969670Y-72503051D01*
X122965619Y-72499852D01*
X122965615Y-72499848D01*
X122798414Y-72367800D01*
X122798410Y-72367798D01*
X122794359Y-72364598D01*
X122598789Y-72256638D01*
X122593920Y-72254914D01*
X122593916Y-72254912D01*
X122393087Y-72183795D01*
X122393083Y-72183794D01*
X122388212Y-72182069D01*
X122383119Y-72181162D01*
X122383116Y-72181161D01*
X122173373Y-72143800D01*
X122173367Y-72143799D01*
X122168284Y-72142894D01*
X122094452Y-72141992D01*
X121950081Y-72140228D01*
X121950079Y-72140228D01*
X121944911Y-72140165D01*
X121769975Y-72166934D01*
X121699614Y-72157466D01*
X121645540Y-72111461D01*
X121624922Y-72043524D01*
X121628875Y-72011051D01*
X121631530Y-72000709D01*
X121631530Y-72000708D01*
X121633502Y-71993028D01*
X121633502Y-71972767D01*
X121635053Y-71953056D01*
X121636981Y-71940883D01*
X121638221Y-71933055D01*
X121634061Y-71889044D01*
X121633502Y-71877187D01*
X121633502Y-70990555D01*
X121653504Y-70922434D01*
X121707160Y-70875941D01*
X121720549Y-70870728D01*
X121782605Y-70850565D01*
X121923080Y-70761416D01*
X122036972Y-70640133D01*
X122117124Y-70494337D01*
X122158500Y-70333189D01*
X122158500Y-70307849D01*
X122178502Y-70239728D01*
X122232158Y-70193235D01*
X122280541Y-70181911D01*
X122293813Y-70181494D01*
X122311969Y-70180923D01*
X122319888Y-70180674D01*
X122339342Y-70175022D01*
X122358699Y-70171014D01*
X122370929Y-70169469D01*
X122370930Y-70169469D01*
X122378796Y-70168475D01*
X122386167Y-70165556D01*
X122386169Y-70165556D01*
X122419911Y-70152197D01*
X122431141Y-70148352D01*
X122465982Y-70138230D01*
X122465983Y-70138230D01*
X122473592Y-70136019D01*
X122480411Y-70131986D01*
X122480416Y-70131984D01*
X122491027Y-70125708D01*
X122508775Y-70117013D01*
X122527616Y-70109553D01*
X122563386Y-70083565D01*
X122573306Y-70077049D01*
X122604534Y-70058581D01*
X122604537Y-70058579D01*
X122611361Y-70054543D01*
X122625682Y-70040222D01*
X122640716Y-70027381D01*
X122650693Y-70020132D01*
X122657106Y-70015473D01*
X122685297Y-69981396D01*
X122693287Y-69972617D01*
X123276905Y-69388999D01*
X123339217Y-69354973D01*
X123410032Y-69360038D01*
G37*
%TD.AperFunction*%
%TA.AperFunction,NonConductor*%
G36*
X105854816Y-74109858D02*
G01*
X105899643Y-74164913D01*
X105909479Y-74213718D01*
X105909479Y-74681906D01*
X105889477Y-74750027D01*
X105835821Y-74796520D01*
X105765547Y-74806624D01*
X105707914Y-74782732D01*
X105596705Y-74699385D01*
X105569905Y-74689338D01*
X105478203Y-74654960D01*
X105421439Y-74612318D01*
X105396739Y-74545756D01*
X105411947Y-74476408D01*
X105433493Y-74447727D01*
X105464322Y-74417006D01*
X105538096Y-74343489D01*
X105543912Y-74335396D01*
X105665435Y-74166277D01*
X105668453Y-74162077D01*
X105670746Y-74157438D01*
X105673405Y-74153012D01*
X105674442Y-74153635D01*
X105718639Y-74105682D01*
X105787340Y-74087777D01*
X105854816Y-74109858D01*
G37*
%TD.AperFunction*%
%TA.AperFunction,NonConductor*%
G36*
X114134531Y-74063539D02*
G01*
X114191367Y-74106086D01*
X114216178Y-74172606D01*
X114216499Y-74181595D01*
X114216499Y-74283206D01*
X114196497Y-74351327D01*
X114179594Y-74372301D01*
X113277558Y-75274336D01*
X113215248Y-75308361D01*
X113144236Y-75303222D01*
X113012016Y-75253655D01*
X112949834Y-75246900D01*
X112539482Y-75246900D01*
X112471361Y-75226898D01*
X112424868Y-75173242D01*
X112414172Y-75107729D01*
X112418814Y-75063564D01*
X112419504Y-75057000D01*
X112411396Y-74979858D01*
X112400232Y-74873635D01*
X112400232Y-74873633D01*
X112399542Y-74867072D01*
X112352871Y-74723434D01*
X112350843Y-74652469D01*
X112387505Y-74591671D01*
X112451218Y-74560346D01*
X112472704Y-74558500D01*
X112948134Y-74558500D01*
X113010316Y-74551745D01*
X113146705Y-74500615D01*
X113149842Y-74498264D01*
X113207550Y-74483500D01*
X113269233Y-74483500D01*
X113280416Y-74484027D01*
X113287909Y-74485702D01*
X113295835Y-74485453D01*
X113295836Y-74485453D01*
X113355986Y-74483562D01*
X113359945Y-74483500D01*
X113387856Y-74483500D01*
X113391791Y-74483003D01*
X113391856Y-74482995D01*
X113403693Y-74482062D01*
X113435951Y-74481048D01*
X113439970Y-74480922D01*
X113447889Y-74480673D01*
X113467343Y-74475021D01*
X113486700Y-74471013D01*
X113498930Y-74469468D01*
X113498931Y-74469468D01*
X113506797Y-74468474D01*
X113514168Y-74465555D01*
X113514170Y-74465555D01*
X113547912Y-74452196D01*
X113559142Y-74448351D01*
X113593983Y-74438229D01*
X113593984Y-74438229D01*
X113601593Y-74436018D01*
X113608412Y-74431985D01*
X113608417Y-74431983D01*
X113619028Y-74425707D01*
X113636776Y-74417012D01*
X113655617Y-74409552D01*
X113691387Y-74383564D01*
X113701307Y-74377048D01*
X113732535Y-74358580D01*
X113732538Y-74358578D01*
X113739362Y-74354542D01*
X113753683Y-74340221D01*
X113768717Y-74327380D01*
X113778694Y-74320131D01*
X113785107Y-74315472D01*
X113813298Y-74281395D01*
X113821288Y-74272616D01*
X113930247Y-74163657D01*
X113938537Y-74156113D01*
X113945018Y-74152000D01*
X113991659Y-74102332D01*
X113994413Y-74099491D01*
X114001404Y-74092500D01*
X114063716Y-74058474D01*
X114134531Y-74063539D01*
G37*
%TD.AperFunction*%
%TA.AperFunction,NonConductor*%
G36*
X100716512Y-74041598D02*
G01*
X100742584Y-74075034D01*
X100743266Y-74074616D01*
X100828508Y-74213718D01*
X100859987Y-74265088D01*
X101006250Y-74433938D01*
X101178126Y-74576632D01*
X101239196Y-74612318D01*
X101251445Y-74619476D01*
X101300169Y-74671114D01*
X101313240Y-74740897D01*
X101286509Y-74806669D01*
X101246055Y-74840027D01*
X101233607Y-74846507D01*
X101229474Y-74849610D01*
X101229471Y-74849612D01*
X101059100Y-74977530D01*
X101054965Y-74980635D01*
X100900629Y-75142138D01*
X100897715Y-75146410D01*
X100897714Y-75146411D01*
X100828573Y-75247768D01*
X100774743Y-75326680D01*
X100753544Y-75372349D01*
X100748288Y-75383673D01*
X100701464Y-75437040D01*
X100633221Y-75456621D01*
X100565225Y-75436198D01*
X100519065Y-75382256D01*
X100508000Y-75330623D01*
X100508000Y-74136822D01*
X100528002Y-74068701D01*
X100581658Y-74022208D01*
X100651932Y-74012104D01*
X100716512Y-74041598D01*
G37*
%TD.AperFunction*%
%TA.AperFunction,NonConductor*%
G36*
X123437334Y-74063819D02*
G01*
X123482162Y-74118873D01*
X123492000Y-74167682D01*
X123492000Y-75366519D01*
X123471998Y-75434640D01*
X123418342Y-75481133D01*
X123348068Y-75491237D01*
X123283488Y-75461743D01*
X123250452Y-75416764D01*
X123241354Y-75395840D01*
X123178299Y-75298372D01*
X123122822Y-75212617D01*
X123122820Y-75212614D01*
X123120014Y-75208277D01*
X122969670Y-75043051D01*
X122965619Y-75039852D01*
X122965615Y-75039848D01*
X122798414Y-74907800D01*
X122798410Y-74907798D01*
X122794359Y-74904598D01*
X122753053Y-74881796D01*
X122703084Y-74831364D01*
X122688312Y-74761921D01*
X122713428Y-74695516D01*
X122740780Y-74668909D01*
X122794072Y-74630896D01*
X122919860Y-74541173D01*
X122992814Y-74468474D01*
X123044462Y-74417006D01*
X123078096Y-74383489D01*
X123086136Y-74372301D01*
X123205435Y-74206277D01*
X123208453Y-74202077D01*
X123253044Y-74111854D01*
X123301156Y-74059648D01*
X123369857Y-74041741D01*
X123437334Y-74063819D01*
G37*
%TD.AperFunction*%
%TA.AperFunction,NonConductor*%
G36*
X110798065Y-78655503D02*
G01*
X110805490Y-78660661D01*
X110851595Y-78695215D01*
X110987984Y-78746345D01*
X111050166Y-78753100D01*
X111240500Y-78753100D01*
X111308621Y-78773102D01*
X111355114Y-78826758D01*
X111366500Y-78879100D01*
X111366500Y-78993508D01*
X111346498Y-79061629D01*
X111292842Y-79108122D01*
X111222568Y-79118226D01*
X111214303Y-79116755D01*
X111101944Y-79092872D01*
X111101939Y-79092872D01*
X111095487Y-79091500D01*
X110904513Y-79091500D01*
X110898061Y-79092872D01*
X110898056Y-79092872D01*
X110826313Y-79108122D01*
X110717712Y-79131206D01*
X110563224Y-79199988D01*
X110492858Y-79209422D01*
X110428561Y-79179316D01*
X110422881Y-79173976D01*
X110099501Y-78850596D01*
X110065475Y-78788284D01*
X110070540Y-78717469D01*
X110113087Y-78660633D01*
X110179607Y-78635822D01*
X110188596Y-78635501D01*
X110729944Y-78635501D01*
X110798065Y-78655503D01*
G37*
%TD.AperFunction*%
%TA.AperFunction,NonConductor*%
G36*
X108284012Y-78827370D02*
G01*
X108290595Y-78833499D01*
X109849343Y-80392247D01*
X109856887Y-80400537D01*
X109861000Y-80407018D01*
X109866777Y-80412443D01*
X109910667Y-80453658D01*
X109913509Y-80456413D01*
X109933230Y-80476134D01*
X109936425Y-80478612D01*
X109945447Y-80486318D01*
X109977679Y-80516586D01*
X109984628Y-80520406D01*
X109995432Y-80526346D01*
X110011956Y-80537199D01*
X110027959Y-80549613D01*
X110068543Y-80567176D01*
X110079173Y-80572383D01*
X110117940Y-80593695D01*
X110125617Y-80595666D01*
X110125622Y-80595668D01*
X110137558Y-80598732D01*
X110156266Y-80605137D01*
X110174855Y-80613181D01*
X110182683Y-80614421D01*
X110182690Y-80614423D01*
X110218524Y-80620099D01*
X110230144Y-80622505D01*
X110265289Y-80631528D01*
X110272970Y-80633500D01*
X110291801Y-80633500D01*
X110359922Y-80653502D01*
X110379150Y-80669845D01*
X110379423Y-80669541D01*
X110384325Y-80673955D01*
X110388747Y-80678866D01*
X110394089Y-80682747D01*
X110394091Y-80682749D01*
X110399169Y-80686438D01*
X110442523Y-80742660D01*
X110447691Y-80817520D01*
X110447026Y-80820317D01*
X110444254Y-80827711D01*
X110443401Y-80835563D01*
X110442186Y-80840673D01*
X110406969Y-80902319D01*
X110344014Y-80935140D01*
X110319603Y-80937527D01*
X109589867Y-80937527D01*
X109583508Y-80938218D01*
X109513626Y-80925691D01*
X109483646Y-80904805D01*
X109474101Y-80895841D01*
X109474097Y-80895838D01*
X109468321Y-80890414D01*
X109461375Y-80886595D01*
X109461372Y-80886593D01*
X109450566Y-80880652D01*
X109434047Y-80869801D01*
X109426399Y-80863869D01*
X109418041Y-80857386D01*
X109410772Y-80854241D01*
X109410768Y-80854238D01*
X109377463Y-80839826D01*
X109366813Y-80834609D01*
X109328060Y-80813305D01*
X109308437Y-80808267D01*
X109289734Y-80801863D01*
X109278420Y-80796967D01*
X109278419Y-80796967D01*
X109271145Y-80793819D01*
X109263322Y-80792580D01*
X109263312Y-80792577D01*
X109227476Y-80786901D01*
X109215856Y-80784495D01*
X109180711Y-80775472D01*
X109180710Y-80775472D01*
X109173030Y-80773500D01*
X109152776Y-80773500D01*
X109133065Y-80771949D01*
X109120886Y-80770020D01*
X109113057Y-80768780D01*
X109105165Y-80769526D01*
X109069039Y-80772941D01*
X109057181Y-80773500D01*
X109039200Y-80773500D01*
X108971079Y-80753498D01*
X108951853Y-80737157D01*
X108951580Y-80737460D01*
X108946668Y-80733037D01*
X108942253Y-80728134D01*
X108867682Y-80673955D01*
X108793094Y-80619763D01*
X108793093Y-80619762D01*
X108787752Y-80615882D01*
X108781724Y-80613198D01*
X108781722Y-80613197D01*
X108619319Y-80540891D01*
X108619318Y-80540891D01*
X108613288Y-80538206D01*
X108519887Y-80518353D01*
X108432944Y-80499872D01*
X108432939Y-80499872D01*
X108426487Y-80498500D01*
X108235513Y-80498500D01*
X108229054Y-80499873D01*
X108229053Y-80499873D01*
X108227692Y-80500162D01*
X108226886Y-80500100D01*
X108222485Y-80500563D01*
X108222400Y-80499758D01*
X108156901Y-80494757D01*
X108100270Y-80451938D01*
X108075779Y-80385299D01*
X108075500Y-80376914D01*
X108075500Y-78922594D01*
X108095502Y-78854473D01*
X108149158Y-78807980D01*
X108219432Y-78797876D01*
X108284012Y-78827370D01*
G37*
%TD.AperFunction*%
%TA.AperFunction,NonConductor*%
G36*
X117428012Y-73493370D02*
G01*
X117434595Y-73499499D01*
X117827343Y-73892247D01*
X117834887Y-73900537D01*
X117839000Y-73907018D01*
X117844777Y-73912443D01*
X117888667Y-73953658D01*
X117891509Y-73956413D01*
X117911231Y-73976135D01*
X117914373Y-73978572D01*
X117914433Y-73978619D01*
X117923445Y-73986317D01*
X117939945Y-74001811D01*
X117955679Y-74016586D01*
X117962622Y-74020403D01*
X117973431Y-74026345D01*
X117989953Y-74037198D01*
X118005959Y-74049614D01*
X118013237Y-74052764D01*
X118013238Y-74052764D01*
X118046537Y-74067174D01*
X118057187Y-74072391D01*
X118076202Y-74082844D01*
X118126260Y-74133189D01*
X118141500Y-74193258D01*
X118141500Y-74398134D01*
X118148255Y-74460316D01*
X118199385Y-74596705D01*
X118286739Y-74713261D01*
X118403295Y-74800615D01*
X118411704Y-74803767D01*
X118411705Y-74803768D01*
X118520451Y-74844535D01*
X118577216Y-74887176D01*
X118601916Y-74953738D01*
X118586709Y-75023087D01*
X118567316Y-75049568D01*
X118474771Y-75146411D01*
X118440629Y-75182138D01*
X118314743Y-75366680D01*
X118287366Y-75425659D01*
X118242149Y-75523072D01*
X118220688Y-75569305D01*
X118160989Y-75784570D01*
X118137251Y-76006695D01*
X118150110Y-76229715D01*
X118151247Y-76234761D01*
X118151248Y-76234767D01*
X118172275Y-76328069D01*
X118199222Y-76447639D01*
X118231723Y-76527680D01*
X118267194Y-76615034D01*
X118283266Y-76654616D01*
X118334022Y-76737443D01*
X118397291Y-76840688D01*
X118399987Y-76845088D01*
X118546250Y-77013938D01*
X118718126Y-77156632D01*
X118911000Y-77269338D01*
X119119692Y-77349030D01*
X119124760Y-77350061D01*
X119124763Y-77350062D01*
X119223578Y-77370166D01*
X119338597Y-77393567D01*
X119343772Y-77393757D01*
X119343774Y-77393757D01*
X119556673Y-77401564D01*
X119556677Y-77401564D01*
X119561837Y-77401753D01*
X119566957Y-77401097D01*
X119566959Y-77401097D01*
X119778288Y-77374025D01*
X119778289Y-77374025D01*
X119783416Y-77373368D01*
X119798662Y-77368794D01*
X119992429Y-77310661D01*
X119992434Y-77310659D01*
X119997384Y-77309174D01*
X120197994Y-77210896D01*
X120379860Y-77081173D01*
X120538096Y-76923489D01*
X120575414Y-76871556D01*
X120668453Y-76742077D01*
X120669776Y-76743028D01*
X120716645Y-76699857D01*
X120786580Y-76687625D01*
X120852026Y-76715144D01*
X120879875Y-76746994D01*
X120939987Y-76845088D01*
X121086250Y-77013938D01*
X121258126Y-77156632D01*
X121451000Y-77269338D01*
X121659692Y-77349030D01*
X121664760Y-77350061D01*
X121664763Y-77350062D01*
X121763578Y-77370166D01*
X121878597Y-77393567D01*
X121883772Y-77393757D01*
X121883774Y-77393757D01*
X122096673Y-77401564D01*
X122096677Y-77401564D01*
X122101837Y-77401753D01*
X122106957Y-77401097D01*
X122106959Y-77401097D01*
X122318288Y-77374025D01*
X122318289Y-77374025D01*
X122323416Y-77373368D01*
X122338662Y-77368794D01*
X122532429Y-77310661D01*
X122532434Y-77310659D01*
X122537384Y-77309174D01*
X122737994Y-77210896D01*
X122919860Y-77081173D01*
X123078096Y-76923489D01*
X123115414Y-76871556D01*
X123205435Y-76746277D01*
X123208453Y-76742077D01*
X123253044Y-76651854D01*
X123301156Y-76599648D01*
X123369857Y-76581741D01*
X123437334Y-76603819D01*
X123482162Y-76658873D01*
X123492000Y-76707682D01*
X123492000Y-85366000D01*
X123471998Y-85434121D01*
X123418342Y-85480614D01*
X123366000Y-85492000D01*
X113574094Y-85492000D01*
X113505973Y-85471998D01*
X113459480Y-85418342D01*
X113449376Y-85348068D01*
X113478870Y-85283488D01*
X113484999Y-85276905D01*
X114147580Y-84614324D01*
X114209892Y-84580298D01*
X114280707Y-84585363D01*
X114330311Y-84619108D01*
X114450747Y-84752866D01*
X114605248Y-84865118D01*
X114611276Y-84867802D01*
X114611278Y-84867803D01*
X114773681Y-84940109D01*
X114779712Y-84942794D01*
X114873112Y-84962647D01*
X114960056Y-84981128D01*
X114960061Y-84981128D01*
X114966513Y-84982500D01*
X115157487Y-84982500D01*
X115163939Y-84981128D01*
X115163944Y-84981128D01*
X115250888Y-84962647D01*
X115344288Y-84942794D01*
X115350319Y-84940109D01*
X115512722Y-84867803D01*
X115512724Y-84867802D01*
X115518752Y-84865118D01*
X115673253Y-84752866D01*
X115801040Y-84610944D01*
X115896527Y-84445556D01*
X115955542Y-84263928D01*
X115961906Y-84203383D01*
X115974814Y-84080565D01*
X115975504Y-84074000D01*
X115961780Y-83943421D01*
X115956232Y-83890635D01*
X115956232Y-83890633D01*
X115955542Y-83884072D01*
X115896527Y-83702444D01*
X115801040Y-83537056D01*
X115727863Y-83455785D01*
X115697147Y-83391779D01*
X115695500Y-83371476D01*
X115695500Y-82632703D01*
X118390743Y-82632703D01*
X118428268Y-82917734D01*
X118504129Y-83195036D01*
X118505813Y-83198984D01*
X118600018Y-83419842D01*
X118616923Y-83459476D01*
X118764561Y-83706161D01*
X118944313Y-83930528D01*
X119015178Y-83997776D01*
X119144378Y-84120382D01*
X119152851Y-84128423D01*
X119386317Y-84296186D01*
X119390112Y-84298195D01*
X119390113Y-84298196D01*
X119411869Y-84309715D01*
X119640392Y-84430712D01*
X119748752Y-84470366D01*
X119840664Y-84504001D01*
X119910373Y-84529511D01*
X120191264Y-84590755D01*
X120219841Y-84593004D01*
X120414282Y-84608307D01*
X120414291Y-84608307D01*
X120416739Y-84608500D01*
X120572271Y-84608500D01*
X120574407Y-84608354D01*
X120574418Y-84608354D01*
X120782548Y-84594165D01*
X120782554Y-84594164D01*
X120786825Y-84593873D01*
X120791020Y-84593004D01*
X120791022Y-84593004D01*
X121056791Y-84537966D01*
X121068342Y-84535574D01*
X121339343Y-84439607D01*
X121594812Y-84307750D01*
X121598313Y-84305289D01*
X121598317Y-84305287D01*
X121770859Y-84184022D01*
X121830023Y-84142441D01*
X121910739Y-84067435D01*
X122037479Y-83949661D01*
X122037481Y-83949658D01*
X122040622Y-83946740D01*
X122222713Y-83724268D01*
X122372927Y-83479142D01*
X122488483Y-83215898D01*
X122567244Y-82939406D01*
X122607751Y-82654784D01*
X122607845Y-82636951D01*
X122609235Y-82371583D01*
X122609235Y-82371576D01*
X122609257Y-82367297D01*
X122571732Y-82082266D01*
X122557989Y-82032028D01*
X122531306Y-81934492D01*
X122495871Y-81804964D01*
X122473797Y-81753213D01*
X122384763Y-81544476D01*
X122384761Y-81544472D01*
X122383077Y-81540524D01*
X122243776Y-81307769D01*
X122237643Y-81297521D01*
X122237640Y-81297517D01*
X122235439Y-81293839D01*
X122055687Y-81069472D01*
X121916646Y-80937527D01*
X121850258Y-80874527D01*
X121850255Y-80874525D01*
X121847149Y-80871577D01*
X121613683Y-80703814D01*
X121591843Y-80692250D01*
X121568654Y-80679972D01*
X121359608Y-80569288D01*
X121166171Y-80498500D01*
X121093658Y-80471964D01*
X121093656Y-80471963D01*
X121089627Y-80470489D01*
X120808736Y-80409245D01*
X120777685Y-80406801D01*
X120585718Y-80391693D01*
X120585709Y-80391693D01*
X120583261Y-80391500D01*
X120427729Y-80391500D01*
X120425593Y-80391646D01*
X120425582Y-80391646D01*
X120217452Y-80405835D01*
X120217446Y-80405836D01*
X120213175Y-80406127D01*
X120208980Y-80406996D01*
X120208978Y-80406996D01*
X120072416Y-80435277D01*
X119931658Y-80464426D01*
X119660657Y-80560393D01*
X119656848Y-80562359D01*
X119416449Y-80686438D01*
X119405188Y-80692250D01*
X119401687Y-80694711D01*
X119401683Y-80694713D01*
X119333462Y-80742660D01*
X119169977Y-80857559D01*
X119145126Y-80880652D01*
X118976253Y-81037579D01*
X118959378Y-81053260D01*
X118777287Y-81275732D01*
X118627073Y-81520858D01*
X118625347Y-81524791D01*
X118625346Y-81524792D01*
X118582990Y-81621281D01*
X118511517Y-81784102D01*
X118432756Y-82060594D01*
X118392249Y-82345216D01*
X118392227Y-82349505D01*
X118392226Y-82349512D01*
X118390765Y-82628417D01*
X118390743Y-82632703D01*
X115695500Y-82632703D01*
X115695500Y-82120767D01*
X115696027Y-82109584D01*
X115697702Y-82102091D01*
X115695562Y-82034000D01*
X115695500Y-82030043D01*
X115695500Y-82002144D01*
X115694996Y-81998153D01*
X115694063Y-81986311D01*
X115692923Y-81950036D01*
X115692674Y-81942111D01*
X115690462Y-81934497D01*
X115690461Y-81934492D01*
X115687023Y-81922659D01*
X115683012Y-81903295D01*
X115681467Y-81891064D01*
X115680474Y-81883203D01*
X115677557Y-81875836D01*
X115677556Y-81875831D01*
X115664198Y-81842092D01*
X115660354Y-81830865D01*
X115654031Y-81809103D01*
X115648018Y-81788407D01*
X115637707Y-81770972D01*
X115629012Y-81753224D01*
X115621552Y-81734383D01*
X115595564Y-81698613D01*
X115589048Y-81688693D01*
X115570578Y-81657463D01*
X115566542Y-81650638D01*
X115560936Y-81645031D01*
X115552220Y-81636315D01*
X115539379Y-81621281D01*
X115532131Y-81611305D01*
X115532130Y-81611304D01*
X115527472Y-81604893D01*
X115493407Y-81576712D01*
X115484626Y-81568722D01*
X115223674Y-81307769D01*
X115216140Y-81299490D01*
X115212027Y-81293009D01*
X115162374Y-81246382D01*
X115159533Y-81243628D01*
X115139797Y-81223892D01*
X115136600Y-81221412D01*
X115127578Y-81213707D01*
X115101127Y-81188868D01*
X115095348Y-81183441D01*
X115088402Y-81179622D01*
X115088399Y-81179620D01*
X115077593Y-81173679D01*
X115061074Y-81162828D01*
X115060610Y-81162468D01*
X115045068Y-81150413D01*
X115037799Y-81147268D01*
X115037795Y-81147265D01*
X115004490Y-81132853D01*
X114993840Y-81127636D01*
X114955087Y-81106332D01*
X114935464Y-81101294D01*
X114916761Y-81094890D01*
X114905447Y-81089994D01*
X114905446Y-81089994D01*
X114898172Y-81086846D01*
X114890349Y-81085607D01*
X114890339Y-81085604D01*
X114854503Y-81079928D01*
X114842883Y-81077522D01*
X114807738Y-81068499D01*
X114807737Y-81068499D01*
X114800057Y-81066527D01*
X114779803Y-81066527D01*
X114760092Y-81064976D01*
X114747913Y-81063047D01*
X114740084Y-81061807D01*
X114735336Y-81062256D01*
X114664967Y-81037579D01*
X114615890Y-81000798D01*
X114608704Y-80995412D01*
X114472315Y-80944282D01*
X114410133Y-80937527D01*
X113680397Y-80937527D01*
X113612276Y-80917525D01*
X113565783Y-80863869D01*
X113557814Y-80840673D01*
X113556599Y-80835563D01*
X113555746Y-80827711D01*
X113552974Y-80820317D01*
X113552309Y-80817520D01*
X113556011Y-80746620D01*
X113600831Y-80686438D01*
X113605909Y-80682749D01*
X113605911Y-80682747D01*
X113611253Y-80678866D01*
X113662001Y-80622505D01*
X113734621Y-80541852D01*
X113734622Y-80541851D01*
X113739040Y-80536944D01*
X113814736Y-80405835D01*
X113831223Y-80377279D01*
X113831224Y-80377278D01*
X113834527Y-80371556D01*
X113893542Y-80189928D01*
X113911237Y-80021570D01*
X113938250Y-79955914D01*
X113944696Y-79948489D01*
X113958959Y-79933301D01*
X113958962Y-79933297D01*
X113964386Y-79927521D01*
X113968205Y-79920575D01*
X113968207Y-79920572D01*
X113974148Y-79909766D01*
X113984999Y-79893247D01*
X113992558Y-79883501D01*
X113997414Y-79877241D01*
X114000559Y-79869972D01*
X114000562Y-79869968D01*
X114014974Y-79836663D01*
X114020191Y-79826013D01*
X114041495Y-79787260D01*
X114046533Y-79767637D01*
X114052937Y-79748934D01*
X114057833Y-79737620D01*
X114057833Y-79737619D01*
X114060981Y-79730345D01*
X114062220Y-79722522D01*
X114062223Y-79722512D01*
X114067899Y-79686676D01*
X114070305Y-79675056D01*
X114079328Y-79639911D01*
X114079328Y-79639910D01*
X114081300Y-79632230D01*
X114081300Y-79611976D01*
X114082851Y-79592265D01*
X114084780Y-79580086D01*
X114086020Y-79572257D01*
X114081859Y-79528238D01*
X114081300Y-79516381D01*
X114081300Y-78655336D01*
X114101302Y-78587215D01*
X114131735Y-78554510D01*
X114210281Y-78495643D01*
X114217461Y-78490262D01*
X114304815Y-78373706D01*
X114355945Y-78237317D01*
X114362700Y-78175135D01*
X114362700Y-77824867D01*
X114357232Y-77774536D01*
X114369760Y-77704655D01*
X114418080Y-77652639D01*
X114478535Y-77634991D01*
X114520401Y-77633675D01*
X114523986Y-77633562D01*
X114527945Y-77633500D01*
X114555856Y-77633500D01*
X114559791Y-77633003D01*
X114559856Y-77632995D01*
X114571693Y-77632062D01*
X114603951Y-77631048D01*
X114607970Y-77630922D01*
X114615889Y-77630673D01*
X114635343Y-77625021D01*
X114654700Y-77621013D01*
X114666930Y-77619468D01*
X114666931Y-77619468D01*
X114674797Y-77618474D01*
X114682168Y-77615555D01*
X114682170Y-77615555D01*
X114715912Y-77602196D01*
X114727142Y-77598351D01*
X114761983Y-77588229D01*
X114761984Y-77588229D01*
X114769593Y-77586018D01*
X114776412Y-77581985D01*
X114776417Y-77581983D01*
X114787028Y-77575707D01*
X114804776Y-77567012D01*
X114823617Y-77559552D01*
X114859387Y-77533564D01*
X114869307Y-77527048D01*
X114900535Y-77508580D01*
X114900538Y-77508578D01*
X114907362Y-77504542D01*
X114921683Y-77490221D01*
X114936717Y-77477380D01*
X114946694Y-77470131D01*
X114953107Y-77465472D01*
X114958157Y-77459368D01*
X114958162Y-77459363D01*
X114981293Y-77431402D01*
X114989283Y-77422621D01*
X115503564Y-76908341D01*
X115565876Y-76874316D01*
X115636692Y-76879381D01*
X115693527Y-76921928D01*
X115701773Y-76934430D01*
X115760960Y-77036944D01*
X115765378Y-77041851D01*
X115765379Y-77041852D01*
X115868727Y-77156632D01*
X115888747Y-77178866D01*
X115960752Y-77231181D01*
X116013271Y-77269338D01*
X116043248Y-77291118D01*
X116049276Y-77293802D01*
X116049278Y-77293803D01*
X116211681Y-77366109D01*
X116217712Y-77368794D01*
X116311113Y-77388647D01*
X116398056Y-77407128D01*
X116398061Y-77407128D01*
X116404513Y-77408500D01*
X116595487Y-77408500D01*
X116601939Y-77407128D01*
X116601944Y-77407128D01*
X116688887Y-77388647D01*
X116782288Y-77368794D01*
X116788319Y-77366109D01*
X116950722Y-77293803D01*
X116950724Y-77293802D01*
X116956752Y-77291118D01*
X116986730Y-77269338D01*
X117039248Y-77231181D01*
X117111253Y-77178866D01*
X117131273Y-77156632D01*
X117234621Y-77041852D01*
X117234622Y-77041851D01*
X117239040Y-77036944D01*
X117319182Y-76898134D01*
X117331223Y-76877279D01*
X117331224Y-76877278D01*
X117334527Y-76871556D01*
X117393542Y-76689928D01*
X117394920Y-76676822D01*
X117412814Y-76506565D01*
X117413504Y-76500000D01*
X117393542Y-76310072D01*
X117334527Y-76128444D01*
X117239040Y-75963056D01*
X117111253Y-75821134D01*
X116956752Y-75708882D01*
X116948673Y-75705285D01*
X116947679Y-75704440D01*
X116944999Y-75702893D01*
X116945282Y-75702403D01*
X116894577Y-75659307D01*
X116873925Y-75591381D01*
X116893275Y-75523072D01*
X116910824Y-75501082D01*
X116978258Y-75433648D01*
X116986538Y-75426113D01*
X116993018Y-75422000D01*
X117039644Y-75372348D01*
X117042398Y-75369507D01*
X117062135Y-75349770D01*
X117064615Y-75346573D01*
X117072320Y-75337551D01*
X117078826Y-75330623D01*
X117102586Y-75305321D01*
X117106405Y-75298375D01*
X117106407Y-75298372D01*
X117112348Y-75287566D01*
X117123199Y-75271047D01*
X117130758Y-75261301D01*
X117135614Y-75255041D01*
X117138759Y-75247772D01*
X117138762Y-75247768D01*
X117153174Y-75214463D01*
X117158391Y-75203813D01*
X117179695Y-75165060D01*
X117184733Y-75145437D01*
X117191137Y-75126734D01*
X117196033Y-75115420D01*
X117196033Y-75115419D01*
X117199181Y-75108145D01*
X117200420Y-75100322D01*
X117200423Y-75100312D01*
X117206099Y-75064476D01*
X117208505Y-75052856D01*
X117217528Y-75017711D01*
X117217528Y-75017710D01*
X117219500Y-75010030D01*
X117219500Y-74989776D01*
X117221051Y-74970065D01*
X117222980Y-74957886D01*
X117224220Y-74950057D01*
X117220059Y-74906038D01*
X117219500Y-74894181D01*
X117219500Y-73588594D01*
X117239502Y-73520473D01*
X117293158Y-73473980D01*
X117363432Y-73463876D01*
X117428012Y-73493370D01*
G37*
%TD.AperFunction*%
%TA.AperFunction,NonConductor*%
G36*
X100716512Y-76581598D02*
G01*
X100742584Y-76615034D01*
X100743266Y-76614616D01*
X100823948Y-76746277D01*
X100859987Y-76805088D01*
X101006250Y-76973938D01*
X101178126Y-77116632D01*
X101371000Y-77229338D01*
X101579692Y-77309030D01*
X101584760Y-77310061D01*
X101584763Y-77310062D01*
X101692017Y-77331883D01*
X101798597Y-77353567D01*
X101803772Y-77353757D01*
X101803774Y-77353757D01*
X102016673Y-77361564D01*
X102016677Y-77361564D01*
X102021837Y-77361753D01*
X102026957Y-77361097D01*
X102026959Y-77361097D01*
X102238288Y-77334025D01*
X102238289Y-77334025D01*
X102243416Y-77333368D01*
X102248366Y-77331883D01*
X102452429Y-77270661D01*
X102452434Y-77270659D01*
X102457384Y-77269174D01*
X102657994Y-77170896D01*
X102839860Y-77041173D01*
X102948091Y-76933319D01*
X103010462Y-76899404D01*
X103081268Y-76904592D01*
X103138030Y-76947238D01*
X103155012Y-76978341D01*
X103179691Y-77044171D01*
X103199385Y-77096705D01*
X103286739Y-77213261D01*
X103403295Y-77300615D01*
X103539684Y-77351745D01*
X103601866Y-77358500D01*
X105398134Y-77358500D01*
X105460316Y-77351745D01*
X105596705Y-77300615D01*
X105707915Y-77217268D01*
X105774420Y-77192420D01*
X105843803Y-77207473D01*
X105894033Y-77257647D01*
X105909479Y-77318094D01*
X105909479Y-83985916D01*
X105908952Y-83997099D01*
X105907277Y-84004592D01*
X105907526Y-84012518D01*
X105907526Y-84012519D01*
X105909417Y-84072669D01*
X105909479Y-84076628D01*
X105909479Y-84104539D01*
X105909976Y-84108473D01*
X105909976Y-84108474D01*
X105909984Y-84108539D01*
X105910917Y-84120376D01*
X105912306Y-84164572D01*
X105917957Y-84184022D01*
X105921966Y-84203383D01*
X105924505Y-84223480D01*
X105927424Y-84230851D01*
X105927424Y-84230853D01*
X105940783Y-84264595D01*
X105944628Y-84275825D01*
X105956961Y-84318276D01*
X105960994Y-84325095D01*
X105960996Y-84325100D01*
X105967272Y-84335711D01*
X105975967Y-84353459D01*
X105983427Y-84372300D01*
X105988089Y-84378716D01*
X105988089Y-84378717D01*
X106009415Y-84408070D01*
X106015931Y-84417990D01*
X106032234Y-84445556D01*
X106038437Y-84456045D01*
X106052758Y-84470366D01*
X106065598Y-84485399D01*
X106077507Y-84501790D01*
X106083611Y-84506840D01*
X106083616Y-84506845D01*
X106111577Y-84529976D01*
X106120358Y-84537966D01*
X106859296Y-85276905D01*
X106893321Y-85339217D01*
X106888256Y-85410033D01*
X106845709Y-85466868D01*
X106779189Y-85491679D01*
X106770200Y-85492000D01*
X100634000Y-85492000D01*
X100565879Y-85471998D01*
X100519386Y-85418342D01*
X100508000Y-85366000D01*
X100508000Y-82632703D01*
X101390743Y-82632703D01*
X101428268Y-82917734D01*
X101504129Y-83195036D01*
X101505813Y-83198984D01*
X101600018Y-83419842D01*
X101616923Y-83459476D01*
X101764561Y-83706161D01*
X101944313Y-83930528D01*
X102015178Y-83997776D01*
X102144378Y-84120382D01*
X102152851Y-84128423D01*
X102386317Y-84296186D01*
X102390112Y-84298195D01*
X102390113Y-84298196D01*
X102411869Y-84309715D01*
X102640392Y-84430712D01*
X102748752Y-84470366D01*
X102840664Y-84504001D01*
X102910373Y-84529511D01*
X103191264Y-84590755D01*
X103219841Y-84593004D01*
X103414282Y-84608307D01*
X103414291Y-84608307D01*
X103416739Y-84608500D01*
X103572271Y-84608500D01*
X103574407Y-84608354D01*
X103574418Y-84608354D01*
X103782548Y-84594165D01*
X103782554Y-84594164D01*
X103786825Y-84593873D01*
X103791020Y-84593004D01*
X103791022Y-84593004D01*
X104056791Y-84537966D01*
X104068342Y-84535574D01*
X104339343Y-84439607D01*
X104594812Y-84307750D01*
X104598313Y-84305289D01*
X104598317Y-84305287D01*
X104770859Y-84184022D01*
X104830023Y-84142441D01*
X104910739Y-84067435D01*
X105037479Y-83949661D01*
X105037481Y-83949658D01*
X105040622Y-83946740D01*
X105222713Y-83724268D01*
X105372927Y-83479142D01*
X105488483Y-83215898D01*
X105567244Y-82939406D01*
X105607751Y-82654784D01*
X105607845Y-82636951D01*
X105609235Y-82371583D01*
X105609235Y-82371576D01*
X105609257Y-82367297D01*
X105571732Y-82082266D01*
X105557989Y-82032028D01*
X105531306Y-81934492D01*
X105495871Y-81804964D01*
X105473797Y-81753213D01*
X105384763Y-81544476D01*
X105384761Y-81544472D01*
X105383077Y-81540524D01*
X105243776Y-81307769D01*
X105237643Y-81297521D01*
X105237640Y-81297517D01*
X105235439Y-81293839D01*
X105055687Y-81069472D01*
X104916646Y-80937527D01*
X104850258Y-80874527D01*
X104850255Y-80874525D01*
X104847149Y-80871577D01*
X104613683Y-80703814D01*
X104591843Y-80692250D01*
X104568654Y-80679972D01*
X104359608Y-80569288D01*
X104166171Y-80498500D01*
X104093658Y-80471964D01*
X104093656Y-80471963D01*
X104089627Y-80470489D01*
X103808736Y-80409245D01*
X103777685Y-80406801D01*
X103585718Y-80391693D01*
X103585709Y-80391693D01*
X103583261Y-80391500D01*
X103427729Y-80391500D01*
X103425593Y-80391646D01*
X103425582Y-80391646D01*
X103217452Y-80405835D01*
X103217446Y-80405836D01*
X103213175Y-80406127D01*
X103208980Y-80406996D01*
X103208978Y-80406996D01*
X103072416Y-80435277D01*
X102931658Y-80464426D01*
X102660657Y-80560393D01*
X102656848Y-80562359D01*
X102416449Y-80686438D01*
X102405188Y-80692250D01*
X102401687Y-80694711D01*
X102401683Y-80694713D01*
X102333462Y-80742660D01*
X102169977Y-80857559D01*
X102145126Y-80880652D01*
X101976253Y-81037579D01*
X101959378Y-81053260D01*
X101777287Y-81275732D01*
X101627073Y-81520858D01*
X101625347Y-81524791D01*
X101625346Y-81524792D01*
X101582990Y-81621281D01*
X101511517Y-81784102D01*
X101432756Y-82060594D01*
X101392249Y-82345216D01*
X101392227Y-82349505D01*
X101392226Y-82349512D01*
X101390765Y-82628417D01*
X101390743Y-82632703D01*
X100508000Y-82632703D01*
X100508000Y-76676822D01*
X100528002Y-76608701D01*
X100581658Y-76562208D01*
X100651932Y-76552104D01*
X100716512Y-76581598D01*
G37*
%TD.AperFunction*%
%TA.AperFunction,Conductor*%
%TO.N,+3V3*%
G36*
X108229053Y-81006946D02*
G01*
X108229053Y-81007873D01*
X108229054Y-81007873D01*
X108234222Y-81007330D01*
X108234226Y-81007330D01*
X108235553Y-81007190D01*
X108248724Y-81006500D01*
X108359853Y-81006500D01*
X108386050Y-81009254D01*
X108414108Y-81015218D01*
X108414133Y-81015223D01*
X108414264Y-81015251D01*
X108414268Y-81015252D01*
X108442495Y-81021252D01*
X108467537Y-81029389D01*
X108520252Y-81052859D01*
X108543065Y-81066030D01*
X108569081Y-81084932D01*
X108569087Y-81084936D01*
X108617124Y-81119837D01*
X108624664Y-81125767D01*
X108640475Y-81139206D01*
X108640498Y-81139224D01*
X108642086Y-81140574D01*
X108643751Y-81141808D01*
X108643761Y-81141816D01*
X108665974Y-81158279D01*
X108696434Y-81180855D01*
X108827960Y-81240921D01*
X108851714Y-81247896D01*
X108891758Y-81259654D01*
X108891762Y-81259655D01*
X108896081Y-81260923D01*
X108900529Y-81261563D01*
X108900536Y-81261564D01*
X108976689Y-81272512D01*
X109021933Y-81279017D01*
X109086513Y-81308510D01*
X109124897Y-81368236D01*
X109130001Y-81403735D01*
X109130001Y-81427912D01*
X109134476Y-81443151D01*
X109135866Y-81444356D01*
X109143549Y-81446027D01*
X110274001Y-81446027D01*
X110342122Y-81466029D01*
X110388615Y-81519685D01*
X110400001Y-81572027D01*
X110400001Y-81611500D01*
X110379999Y-81679621D01*
X110326343Y-81726114D01*
X110274001Y-81737500D01*
X109589867Y-81737500D01*
X109527685Y-81744255D01*
X109391296Y-81795385D01*
X109274740Y-81882739D01*
X109259111Y-81903592D01*
X109202255Y-81946107D01*
X109158286Y-81954027D01*
X109148117Y-81954027D01*
X109132878Y-81958502D01*
X109131673Y-81959892D01*
X109130002Y-81967575D01*
X109130002Y-81998696D01*
X109130372Y-82005517D01*
X109135896Y-82056379D01*
X109139081Y-82069775D01*
X109139081Y-82128072D01*
X109139031Y-82128281D01*
X109136256Y-82135684D01*
X109129501Y-82197866D01*
X109129501Y-82802134D01*
X109136256Y-82864316D01*
X109139030Y-82871715D01*
X109139080Y-82871926D01*
X109139081Y-82930227D01*
X109135895Y-82943623D01*
X109130370Y-82994487D01*
X109130001Y-83001301D01*
X109130001Y-83027858D01*
X109134476Y-83043097D01*
X109135866Y-83044302D01*
X109143549Y-83045973D01*
X109158286Y-83045973D01*
X109226407Y-83065975D01*
X109259111Y-83096407D01*
X109274740Y-83117261D01*
X109391296Y-83204615D01*
X109527685Y-83255745D01*
X109589867Y-83262500D01*
X110274001Y-83262500D01*
X110342122Y-83282502D01*
X110388615Y-83336158D01*
X110400001Y-83388500D01*
X110400001Y-83427973D01*
X110379999Y-83496094D01*
X110326343Y-83542587D01*
X110274001Y-83553973D01*
X109148117Y-83553973D01*
X109132878Y-83558448D01*
X109131673Y-83559838D01*
X109130002Y-83567521D01*
X109130002Y-83568500D01*
X109129180Y-83571298D01*
X109127123Y-83580756D01*
X109126447Y-83580609D01*
X109110000Y-83636621D01*
X109056344Y-83683114D01*
X109004002Y-83694500D01*
X108772595Y-83694500D01*
X108704474Y-83674498D01*
X108683499Y-83657595D01*
X108112404Y-83086499D01*
X108078379Y-83024187D01*
X108075500Y-82997404D01*
X108075500Y-81132096D01*
X108095502Y-81063975D01*
X108149158Y-81017482D01*
X108193164Y-81006372D01*
X108208019Y-81005387D01*
X108229053Y-81006946D01*
G37*
%TD.AperFunction*%
%TD*%
%TA.AperFunction,Conductor*%
%TO.N,+3V3*%
G36*
X117184599Y-61996002D02*
G01*
X117231092Y-62049658D01*
X117242478Y-62102000D01*
X117242478Y-62753925D01*
X117241951Y-62765108D01*
X117240276Y-62772601D01*
X117240525Y-62780527D01*
X117240525Y-62780528D01*
X117242416Y-62840678D01*
X117242478Y-62844637D01*
X117242478Y-62872548D01*
X117242973Y-62876463D01*
X117242973Y-62876467D01*
X117242983Y-62876543D01*
X117243916Y-62888386D01*
X117245305Y-62932581D01*
X117250956Y-62952031D01*
X117254965Y-62971392D01*
X117257504Y-62991489D01*
X117260423Y-62998860D01*
X117260423Y-62998862D01*
X117273782Y-63032604D01*
X117277627Y-63043834D01*
X117280380Y-63053309D01*
X117289960Y-63086285D01*
X117293993Y-63093104D01*
X117293995Y-63093109D01*
X117300271Y-63103720D01*
X117308966Y-63121468D01*
X117316426Y-63140309D01*
X117321088Y-63146725D01*
X117321088Y-63146726D01*
X117342414Y-63176079D01*
X117348930Y-63185999D01*
X117365272Y-63213631D01*
X117371436Y-63224054D01*
X117385757Y-63238375D01*
X117398597Y-63253408D01*
X117410506Y-63269799D01*
X117416612Y-63274850D01*
X117444583Y-63297990D01*
X117453362Y-63305980D01*
X117655084Y-63507702D01*
X117689110Y-63570014D01*
X117691989Y-63596797D01*
X117691989Y-64111508D01*
X117671987Y-64179629D01*
X117655084Y-64200603D01*
X117301091Y-64554596D01*
X117238779Y-64588622D01*
X117211996Y-64591501D01*
X116330731Y-64591501D01*
X116262610Y-64571499D01*
X116216117Y-64517843D01*
X116208212Y-64494915D01*
X116171635Y-64342556D01*
X116166381Y-64328430D01*
X116160710Y-64317443D01*
X116147240Y-64247736D01*
X116173148Y-64184295D01*
X116172402Y-64183774D01*
X116174714Y-64180461D01*
X116185204Y-64165430D01*
X116249993Y-64072588D01*
X116255151Y-64065197D01*
X116291132Y-63957943D01*
X116299708Y-63932380D01*
X116299710Y-63932374D01*
X116301139Y-63928113D01*
X116313911Y-63858274D01*
X116318592Y-63735440D01*
X116319246Y-63718285D01*
X116319246Y-63718282D01*
X116319417Y-63713793D01*
X116315457Y-63676112D01*
X116315456Y-63676104D01*
X116315448Y-63676020D01*
X116311679Y-63640169D01*
X116311678Y-63613825D01*
X116312871Y-63602479D01*
X116318487Y-63549046D01*
X116322406Y-63528448D01*
X116322783Y-63527096D01*
X116325112Y-63518722D01*
X116329995Y-63497724D01*
X116338027Y-63454956D01*
X116338027Y-63310364D01*
X116331273Y-63263386D01*
X116328564Y-63244546D01*
X116328563Y-63244542D01*
X116327923Y-63240090D01*
X116326318Y-63234622D01*
X116289726Y-63110004D01*
X116287187Y-63101357D01*
X116209015Y-62979719D01*
X116190833Y-62958735D01*
X116165462Y-62929456D01*
X116162522Y-62926063D01*
X116053246Y-62831374D01*
X115921720Y-62771308D01*
X115892574Y-62762750D01*
X115857922Y-62752575D01*
X115857918Y-62752574D01*
X115853599Y-62751306D01*
X115849151Y-62750666D01*
X115849144Y-62750665D01*
X115714928Y-62731368D01*
X115714921Y-62731367D01*
X115710480Y-62730729D01*
X115295346Y-62730729D01*
X115277417Y-62729447D01*
X115267787Y-62728063D01*
X115233498Y-62718014D01*
X115233179Y-62717868D01*
X115213324Y-62706546D01*
X115200961Y-62697923D01*
X115174087Y-62683099D01*
X115157874Y-62674155D01*
X115157870Y-62674153D01*
X115154982Y-62672560D01*
X115124170Y-62659565D01*
X115069178Y-62614662D01*
X115047192Y-62547155D01*
X115060440Y-62487120D01*
X115281175Y-62045651D01*
X115329530Y-61993667D01*
X115393873Y-61976000D01*
X117116478Y-61976000D01*
X117184599Y-61996002D01*
G37*
%TD.AperFunction*%
%TD*%
%TA.AperFunction,Conductor*%
%TO.N,GND*%
G36*
X112532900Y-77128000D02*
G01*
X112512898Y-77196121D01*
X112459242Y-77242614D01*
X112406900Y-77254000D01*
X112272115Y-77254000D01*
X112256876Y-77258475D01*
X112255671Y-77259865D01*
X112254000Y-77267548D01*
X112254000Y-78734484D01*
X112258475Y-78749723D01*
X112259865Y-78750928D01*
X112267548Y-78752599D01*
X112946369Y-78752599D01*
X112953190Y-78752229D01*
X113004052Y-78746705D01*
X113019304Y-78743079D01*
X113139759Y-78697922D01*
X113155347Y-78689389D01*
X113194326Y-78660175D01*
X113260832Y-78635327D01*
X113269891Y-78635001D01*
X113302685Y-78635001D01*
X113317924Y-78630526D01*
X113319129Y-78629136D01*
X113320800Y-78621453D01*
X113320800Y-77761500D01*
X113340802Y-77693379D01*
X113394458Y-77646886D01*
X113446800Y-77635500D01*
X113448800Y-77635500D01*
X113516921Y-77655502D01*
X113563414Y-77709158D01*
X113574800Y-77761500D01*
X113574800Y-78635000D01*
X113572313Y-78635000D01*
X113573117Y-78646314D01*
X113574262Y-78646396D01*
X113573942Y-78650873D01*
X113573300Y-78655336D01*
X113573300Y-79516381D01*
X113573864Y-79540304D01*
X113573900Y-79541065D01*
X113574147Y-79546310D01*
X113571584Y-79578199D01*
X113571560Y-79578313D01*
X113561421Y-79607775D01*
X113559866Y-79610951D01*
X113559821Y-79611042D01*
X113547728Y-79629685D01*
X113548168Y-79629995D01*
X113545219Y-79634176D01*
X113541944Y-79638101D01*
X113539347Y-79642501D01*
X113539344Y-79642506D01*
X113524550Y-79667576D01*
X113468459Y-79762627D01*
X113441446Y-79828283D01*
X113406020Y-79968470D01*
X113405550Y-79972941D01*
X113405549Y-79972947D01*
X113395290Y-80070559D01*
X113389813Y-80096324D01*
X113371984Y-80151196D01*
X113361270Y-80175261D01*
X113332416Y-80225237D01*
X113316934Y-80246545D01*
X113284486Y-80282583D01*
X113284485Y-80282585D01*
X113255279Y-80315021D01*
X113247803Y-80322596D01*
X113246701Y-80323537D01*
X113246699Y-80323539D01*
X113246768Y-80323608D01*
X113246746Y-80323629D01*
X113247178Y-80324018D01*
X113238162Y-80334032D01*
X113233737Y-80338946D01*
X113234010Y-80339192D01*
X113225102Y-80351687D01*
X113193405Y-80383011D01*
X113190638Y-80386727D01*
X113130873Y-80424986D01*
X113095589Y-80430027D01*
X113072116Y-80430027D01*
X113056877Y-80434502D01*
X113055672Y-80435892D01*
X113054001Y-80443575D01*
X113054001Y-80680975D01*
X113051614Y-80705383D01*
X113048702Y-80720131D01*
X113045000Y-80791031D01*
X113045407Y-80795508D01*
X113045407Y-80795514D01*
X113052330Y-80871686D01*
X113052248Y-80882409D01*
X113050717Y-80882575D01*
X113051570Y-80890427D01*
X113052160Y-80893846D01*
X113052167Y-80893888D01*
X113054001Y-80915306D01*
X113054001Y-80966330D01*
X113033999Y-81034451D01*
X113003569Y-81067154D01*
X112982738Y-81082766D01*
X112895384Y-81199322D01*
X112844254Y-81335711D01*
X112837499Y-81397893D01*
X112837499Y-82002161D01*
X112844254Y-82064343D01*
X112895384Y-82200732D01*
X112982738Y-82317288D01*
X112989695Y-82322502D01*
X113023653Y-82384690D01*
X113018588Y-82455505D01*
X112976041Y-82512341D01*
X112909521Y-82537152D01*
X112900532Y-82537473D01*
X112672001Y-82537473D01*
X112603880Y-82517471D01*
X112557387Y-82463815D01*
X112546001Y-82411473D01*
X112546001Y-81718142D01*
X112541526Y-81702903D01*
X112540136Y-81701698D01*
X112532453Y-81700027D01*
X111472114Y-81700027D01*
X111456875Y-81704502D01*
X111455670Y-81705892D01*
X111453999Y-81713575D01*
X111453999Y-82411473D01*
X111433997Y-82479594D01*
X111380341Y-82526087D01*
X111327999Y-82537473D01*
X111099468Y-82537473D01*
X111031347Y-82517471D01*
X110984854Y-82463815D01*
X110974750Y-82393541D01*
X111004244Y-82328961D01*
X111010148Y-82322620D01*
X111017262Y-82317288D01*
X111104616Y-82200732D01*
X111155746Y-82064343D01*
X111162501Y-82002161D01*
X111162501Y-81397893D01*
X111155746Y-81335711D01*
X111104616Y-81199322D01*
X111085572Y-81173912D01*
X111453999Y-81173912D01*
X111458474Y-81189151D01*
X111459864Y-81190356D01*
X111467547Y-81192027D01*
X111727885Y-81192027D01*
X111743124Y-81187552D01*
X111744329Y-81186162D01*
X111746000Y-81178479D01*
X111746000Y-81173912D01*
X112254000Y-81173912D01*
X112258475Y-81189151D01*
X112259865Y-81190356D01*
X112267548Y-81192027D01*
X112527886Y-81192027D01*
X112543125Y-81187552D01*
X112544330Y-81186162D01*
X112546001Y-81178479D01*
X112546001Y-80448143D01*
X112541526Y-80432904D01*
X112540136Y-80431699D01*
X112532453Y-80430028D01*
X112501332Y-80430028D01*
X112494511Y-80430398D01*
X112443652Y-80435921D01*
X112429142Y-80439371D01*
X112370853Y-80439369D01*
X112356357Y-80435922D01*
X112305486Y-80430396D01*
X112298672Y-80430027D01*
X112272115Y-80430027D01*
X112256876Y-80434502D01*
X112255671Y-80435892D01*
X112254000Y-80443575D01*
X112254000Y-81173912D01*
X111746000Y-81173912D01*
X111746000Y-80448143D01*
X111741525Y-80432904D01*
X111740135Y-80431699D01*
X111732452Y-80430028D01*
X111701331Y-80430028D01*
X111694510Y-80430398D01*
X111643651Y-80435921D01*
X111629141Y-80439371D01*
X111570852Y-80439369D01*
X111556356Y-80435922D01*
X111505485Y-80430396D01*
X111498671Y-80430027D01*
X111472114Y-80430027D01*
X111456875Y-80434502D01*
X111455670Y-80435892D01*
X111453999Y-80443575D01*
X111453999Y-81173912D01*
X111085572Y-81173912D01*
X111017262Y-81082766D01*
X110996432Y-81067155D01*
X110953918Y-81010296D01*
X110945999Y-80966330D01*
X110945999Y-80915306D01*
X110947833Y-80893888D01*
X110947842Y-80893833D01*
X110948430Y-80890427D01*
X110949283Y-80882575D01*
X110947296Y-80882359D01*
X110946915Y-80874358D01*
X110947136Y-80871686D01*
X110953415Y-80795514D01*
X110954094Y-80787278D01*
X110954094Y-80787276D01*
X110954485Y-80782533D01*
X110949317Y-80707673D01*
X110948278Y-80703030D01*
X110947591Y-80698309D01*
X110948132Y-80698230D01*
X110945999Y-80678919D01*
X110945999Y-80448143D01*
X110941524Y-80432904D01*
X110940134Y-80431699D01*
X110932451Y-80430028D01*
X110904890Y-80430028D01*
X110836769Y-80410026D01*
X110807343Y-80383017D01*
X110807196Y-80383148D01*
X110805890Y-80381684D01*
X110805109Y-80380967D01*
X110801454Y-80376227D01*
X110775539Y-80351043D01*
X110766202Y-80338995D01*
X110766260Y-80338943D01*
X110761838Y-80334032D01*
X110756819Y-80329013D01*
X110752806Y-80324034D01*
X110753301Y-80323539D01*
X110753299Y-80323537D01*
X110750433Y-80321090D01*
X110750432Y-80321088D01*
X110743658Y-80315302D01*
X110736395Y-80308587D01*
X110725439Y-80297631D01*
X110725418Y-80297611D01*
X110724253Y-80296446D01*
X110719351Y-80292032D01*
X110713139Y-80287201D01*
X110708423Y-80282446D01*
X110708146Y-80282772D01*
X110690532Y-80267800D01*
X110690517Y-80267788D01*
X110688918Y-80266429D01*
X110687236Y-80265182D01*
X110687228Y-80265176D01*
X110658092Y-80243582D01*
X110634567Y-80226145D01*
X110503041Y-80166079D01*
X110434920Y-80146077D01*
X110430482Y-80145439D01*
X110430464Y-80145435D01*
X110401619Y-80141288D01*
X110388219Y-80138613D01*
X110357178Y-80130644D01*
X110357176Y-80130643D01*
X110356469Y-80130462D01*
X110355819Y-80130311D01*
X110355797Y-80130306D01*
X110333835Y-80125217D01*
X110333825Y-80125215D01*
X110333144Y-80125057D01*
X110328814Y-80124160D01*
X110266667Y-80091250D01*
X110264569Y-80089216D01*
X110264528Y-80089176D01*
X110264251Y-80088908D01*
X110258415Y-80083340D01*
X110258331Y-80083261D01*
X110258257Y-80083191D01*
X110239170Y-80065268D01*
X110232233Y-80058222D01*
X110225546Y-80050874D01*
X110225544Y-80050872D01*
X110225060Y-80050340D01*
X110208553Y-80033037D01*
X109912711Y-79737195D01*
X109878685Y-79674883D01*
X109883750Y-79604068D01*
X109926297Y-79547232D01*
X109992817Y-79522421D01*
X110062191Y-79537512D01*
X110086675Y-79554970D01*
X110088562Y-79556690D01*
X110088565Y-79556693D01*
X110092254Y-79560054D01*
X110096426Y-79562791D01*
X110096429Y-79562794D01*
X110209374Y-79636907D01*
X110213143Y-79639380D01*
X110236283Y-79650215D01*
X110273360Y-79667576D01*
X110273365Y-79667578D01*
X110277440Y-79669486D01*
X110415776Y-79711540D01*
X110424784Y-79711626D01*
X110424785Y-79711626D01*
X110501275Y-79712354D01*
X110560362Y-79712917D01*
X110564813Y-79712320D01*
X110564817Y-79712320D01*
X110626271Y-79704081D01*
X110626277Y-79704080D01*
X110630728Y-79703483D01*
X110635054Y-79702257D01*
X110635056Y-79702257D01*
X110750728Y-79669486D01*
X110769845Y-79664070D01*
X110863462Y-79622389D01*
X110888508Y-79614251D01*
X110931933Y-79605021D01*
X110931947Y-79605018D01*
X110944950Y-79602254D01*
X110971146Y-79599500D01*
X111028853Y-79599500D01*
X111055041Y-79602252D01*
X111108682Y-79613654D01*
X111116383Y-79615157D01*
X111124851Y-79616810D01*
X111124882Y-79616816D01*
X111125288Y-79616895D01*
X111133553Y-79618366D01*
X111150273Y-79621055D01*
X111294865Y-79621055D01*
X111329689Y-79616048D01*
X111360683Y-79611592D01*
X111360687Y-79611591D01*
X111365139Y-79610951D01*
X111369451Y-79609685D01*
X111369455Y-79609684D01*
X111495225Y-79572754D01*
X111503872Y-79570215D01*
X111625510Y-79492043D01*
X111679166Y-79445550D01*
X111773855Y-79336274D01*
X111833921Y-79204748D01*
X111853923Y-79136627D01*
X111854564Y-79132172D01*
X111873861Y-78997956D01*
X111873862Y-78997949D01*
X111874500Y-78993508D01*
X111874500Y-78879100D01*
X111862891Y-78771120D01*
X111858237Y-78749723D01*
X111856722Y-78742761D01*
X111851505Y-78718778D01*
X111817207Y-78615728D01*
X111807871Y-78601200D01*
X111766002Y-78536052D01*
X111746000Y-78467931D01*
X111746000Y-76962000D01*
X112532900Y-76962000D01*
X112532900Y-77128000D01*
G37*
%TD.AperFunction*%
%TD*%
%TA.AperFunction,Conductor*%
%TO.N,GND*%
G36*
X102946088Y-59387910D02*
G01*
X102960390Y-59397666D01*
X103024137Y-59428920D01*
X103028412Y-59430304D01*
X103028415Y-59430305D01*
X103041786Y-59434633D01*
X103161696Y-59473447D01*
X103243210Y-59475685D01*
X103301745Y-59477293D01*
X103301749Y-59477293D01*
X103306234Y-59477416D01*
X103316361Y-59476243D01*
X103372291Y-59469763D01*
X103372296Y-59469762D01*
X103376759Y-59469245D01*
X103488816Y-59439658D01*
X103507848Y-59434633D01*
X103507849Y-59434632D01*
X103516562Y-59432332D01*
X103596224Y-59384173D01*
X103661410Y-59366000D01*
X104668000Y-59366000D01*
X104736121Y-59386002D01*
X104782614Y-59439658D01*
X104794000Y-59492000D01*
X104794000Y-59748000D01*
X104773998Y-59816121D01*
X104720342Y-59862614D01*
X104668000Y-59874000D01*
X101872000Y-59874000D01*
X101803879Y-59853998D01*
X101757386Y-59800342D01*
X101746000Y-59748000D01*
X101746000Y-59492000D01*
X101766002Y-59423879D01*
X101819658Y-59377386D01*
X101872000Y-59366000D01*
X102875086Y-59366000D01*
X102946088Y-59387910D01*
G37*
%TD.AperFunction*%
%TA.AperFunction,Conductor*%
G36*
X117184599Y-56368013D02*
G01*
X117231092Y-56421669D01*
X117242478Y-56474011D01*
X117242478Y-57554297D01*
X117222476Y-57622418D01*
X117168820Y-57668911D01*
X117098546Y-57679015D01*
X117035576Y-57650893D01*
X117034570Y-57650050D01*
X117020442Y-57638218D01*
X117012187Y-57634614D01*
X117012183Y-57634612D01*
X116894692Y-57583324D01*
X116894691Y-57583324D01*
X116886431Y-57579718D01*
X116877490Y-57578585D01*
X116877488Y-57578585D01*
X116750307Y-57562476D01*
X116750305Y-57562476D01*
X116741368Y-57561344D01*
X116597004Y-57584582D01*
X116538354Y-57612567D01*
X116469095Y-57645614D01*
X116469092Y-57645616D01*
X116465034Y-57647552D01*
X116069892Y-57910980D01*
X116002117Y-57932124D01*
X115930108Y-57910980D01*
X115537062Y-57648949D01*
X115537056Y-57648945D01*
X115534966Y-57647552D01*
X115528598Y-57644005D01*
X115469548Y-57611114D01*
X115469546Y-57611113D01*
X115463411Y-57607696D01*
X115334772Y-57569924D01*
X115275046Y-57531540D01*
X115245553Y-57466959D01*
X115244271Y-57449028D01*
X115244271Y-57401500D01*
X115232662Y-57293520D01*
X115221276Y-57241178D01*
X115191752Y-57152471D01*
X115189468Y-57145609D01*
X115189468Y-57145608D01*
X115186978Y-57138128D01*
X115108806Y-57016490D01*
X115104578Y-57011610D01*
X115065253Y-56966227D01*
X115062313Y-56962834D01*
X114953037Y-56868145D01*
X114821511Y-56808079D01*
X114782870Y-56796733D01*
X114757713Y-56789346D01*
X114757709Y-56789345D01*
X114753390Y-56788077D01*
X114748942Y-56787437D01*
X114748935Y-56787436D01*
X114614719Y-56768139D01*
X114614712Y-56768138D01*
X114610271Y-56767500D01*
X113755264Y-56767500D01*
X113751915Y-56767860D01*
X113751916Y-56767860D01*
X113650633Y-56778749D01*
X113650630Y-56778750D01*
X113647277Y-56779110D01*
X113643978Y-56779828D01*
X113643976Y-56779828D01*
X113634691Y-56781848D01*
X113594934Y-56790497D01*
X113491887Y-56824795D01*
X113370249Y-56902969D01*
X113316594Y-56949462D01*
X113313654Y-56952855D01*
X113243285Y-57034066D01*
X113221910Y-57058734D01*
X113209785Y-57085284D01*
X113174469Y-57162614D01*
X113127976Y-57216269D01*
X113059856Y-57236271D01*
X112075000Y-57236271D01*
X112072487Y-57236472D01*
X112072486Y-57236472D01*
X112000355Y-57242240D01*
X112000353Y-57242240D01*
X111993355Y-57242800D01*
X111853767Y-57286348D01*
X111732103Y-57367457D01*
X111638218Y-57479558D01*
X111634614Y-57487813D01*
X111634612Y-57487817D01*
X111585979Y-57599227D01*
X111579718Y-57613569D01*
X111578585Y-57622510D01*
X111578585Y-57622512D01*
X111569586Y-57693560D01*
X111561344Y-57758632D01*
X111584582Y-57902996D01*
X111647552Y-58034966D01*
X111910980Y-58430108D01*
X111932124Y-58497883D01*
X111910980Y-58569892D01*
X111686553Y-58906533D01*
X111647552Y-58965034D01*
X111646327Y-58967234D01*
X111646326Y-58967235D01*
X111630398Y-58995832D01*
X111607696Y-59036589D01*
X111572117Y-59157759D01*
X111569924Y-59165228D01*
X111531540Y-59224954D01*
X111466959Y-59254447D01*
X111449028Y-59255729D01*
X110895271Y-59255729D01*
X110827150Y-59235727D01*
X110780657Y-59182071D01*
X110769271Y-59129729D01*
X110769271Y-58034500D01*
X110768885Y-58030905D01*
X110762029Y-57967137D01*
X110757662Y-57926520D01*
X110754315Y-57911131D01*
X110746993Y-57877475D01*
X110746276Y-57874178D01*
X110722924Y-57804015D01*
X110714468Y-57778609D01*
X110714468Y-57778608D01*
X110711978Y-57771128D01*
X110633806Y-57649490D01*
X110630448Y-57645614D01*
X110590253Y-57599227D01*
X110587313Y-57595834D01*
X110478037Y-57501145D01*
X110346511Y-57441079D01*
X110318097Y-57432736D01*
X110282713Y-57422346D01*
X110282709Y-57422345D01*
X110278390Y-57421077D01*
X110273942Y-57420437D01*
X110273935Y-57420436D01*
X110135271Y-57400500D01*
X110135433Y-57399374D01*
X110073751Y-57376370D01*
X110031203Y-57319535D01*
X110026137Y-57248719D01*
X110060161Y-57186406D01*
X110122472Y-57152380D01*
X110149258Y-57149500D01*
X110706181Y-57149500D01*
X110706935Y-57149482D01*
X110729354Y-57148954D01*
X110729384Y-57148953D01*
X110730102Y-57148936D01*
X110730840Y-57148901D01*
X110730874Y-57148900D01*
X110736111Y-57148653D01*
X110767583Y-57151129D01*
X110773476Y-57152349D01*
X110777903Y-57153157D01*
X110792865Y-57156907D01*
X110792875Y-57156874D01*
X110794047Y-57157225D01*
X110794064Y-57157230D01*
X110829890Y-57167945D01*
X110831104Y-57168308D01*
X110832291Y-57168613D01*
X110832317Y-57168620D01*
X110848543Y-57172786D01*
X110848556Y-57172789D01*
X110850726Y-57173346D01*
X110852936Y-57173747D01*
X110852948Y-57173750D01*
X110912697Y-57184601D01*
X110922308Y-57186346D01*
X110929068Y-57186110D01*
X110932275Y-57186343D01*
X110935871Y-57187013D01*
X110935858Y-57187177D01*
X110968236Y-57189819D01*
X110999436Y-57192365D01*
X110999437Y-57192365D01*
X111004069Y-57192743D01*
X111048042Y-57189819D01*
X111144223Y-57183424D01*
X111144226Y-57183423D01*
X111153374Y-57182815D01*
X111232895Y-57153154D01*
X111284634Y-57133856D01*
X111284636Y-57133855D01*
X111288848Y-57132284D01*
X111293830Y-57129564D01*
X111347212Y-57100414D01*
X111347214Y-57100413D01*
X111351160Y-57098258D01*
X111413058Y-57051921D01*
X111463304Y-57014307D01*
X111463308Y-57014303D01*
X111466906Y-57011610D01*
X111556200Y-56922316D01*
X111568792Y-56909267D01*
X111574921Y-56902684D01*
X111587034Y-56889199D01*
X111602972Y-56864401D01*
X111662770Y-56771357D01*
X111665209Y-56767562D01*
X111694703Y-56702982D01*
X111699912Y-56685244D01*
X111732904Y-56572882D01*
X111732904Y-56572881D01*
X111735442Y-56564238D01*
X111735442Y-56474011D01*
X111755444Y-56405890D01*
X111809100Y-56359397D01*
X111861442Y-56348011D01*
X117116478Y-56348011D01*
X117184599Y-56368013D01*
G37*
%TD.AperFunction*%
%TA.AperFunction,Conductor*%
G36*
X108620201Y-56368013D02*
G01*
X108666694Y-56421669D01*
X108677307Y-56470459D01*
X108676798Y-56474002D01*
X108697373Y-56617123D01*
X108698638Y-56621432D01*
X108698639Y-56621436D01*
X108703273Y-56637219D01*
X108717374Y-56685244D01*
X108719239Y-56689329D01*
X108719241Y-56689333D01*
X108741126Y-56737254D01*
X108744568Y-56745563D01*
X108754882Y-56773217D01*
X108754884Y-56773221D01*
X108757242Y-56779543D01*
X108763420Y-56789156D01*
X108772029Y-56804924D01*
X108777443Y-56816778D01*
X108789948Y-56836236D01*
X108791294Y-56835371D01*
X108798359Y-56843526D01*
X108832979Y-56897398D01*
X108832984Y-56897404D01*
X108835412Y-56901183D01*
X108881314Y-56954159D01*
X108990597Y-57048855D01*
X109122123Y-57108921D01*
X109139349Y-57113979D01*
X109185921Y-57127654D01*
X109185925Y-57127655D01*
X109190244Y-57128923D01*
X109194692Y-57129563D01*
X109194699Y-57129564D01*
X109328915Y-57148861D01*
X109328922Y-57148862D01*
X109333363Y-57149500D01*
X109371178Y-57149500D01*
X109439299Y-57169502D01*
X109485792Y-57223158D01*
X109495896Y-57293432D01*
X109466402Y-57358012D01*
X109406676Y-57396396D01*
X109386815Y-57399900D01*
X109386892Y-57400500D01*
X109263168Y-57416304D01*
X109263160Y-57416305D01*
X109259195Y-57416812D01*
X109255323Y-57417818D01*
X109255321Y-57417818D01*
X109201749Y-57431731D01*
X109201743Y-57431733D01*
X109197881Y-57432736D01*
X109078376Y-57480628D01*
X109071600Y-57485790D01*
X108980236Y-57555391D01*
X108913927Y-57580761D01*
X108886626Y-57578177D01*
X108886431Y-57579718D01*
X108750307Y-57562476D01*
X108750305Y-57562476D01*
X108741368Y-57561344D01*
X108597004Y-57584582D01*
X108538354Y-57612567D01*
X108469095Y-57645614D01*
X108469092Y-57645616D01*
X108465034Y-57647552D01*
X108069892Y-57910980D01*
X108002117Y-57932124D01*
X107930108Y-57910980D01*
X107537062Y-57648949D01*
X107537056Y-57648945D01*
X107534966Y-57647552D01*
X107528598Y-57644005D01*
X107469548Y-57611114D01*
X107469546Y-57611113D01*
X107463411Y-57607696D01*
X107380408Y-57583324D01*
X107331755Y-57569038D01*
X107331754Y-57569038D01*
X107323111Y-57566500D01*
X107176889Y-57566500D01*
X107168246Y-57569038D01*
X107168245Y-57569038D01*
X107045235Y-57605157D01*
X107045233Y-57605158D01*
X107036589Y-57607696D01*
X107013681Y-57622418D01*
X106921159Y-57681878D01*
X106921156Y-57681880D01*
X106913579Y-57686750D01*
X106907678Y-57693560D01*
X106823726Y-57790445D01*
X106823724Y-57790448D01*
X106817824Y-57797257D01*
X106765706Y-57911381D01*
X106760894Y-57921917D01*
X106714401Y-57975573D01*
X106646280Y-57995575D01*
X106637292Y-57995254D01*
X106624218Y-57994319D01*
X106624217Y-57994319D01*
X106619729Y-57993998D01*
X106615241Y-57994319D01*
X106484493Y-58003670D01*
X106484492Y-58003670D01*
X106475504Y-58004313D01*
X106340029Y-58054843D01*
X106336082Y-58056998D01*
X106336076Y-58057001D01*
X106281676Y-58086706D01*
X106277717Y-58088868D01*
X106274114Y-58091565D01*
X106274108Y-58091569D01*
X106207425Y-58141488D01*
X106161966Y-58175518D01*
X106158782Y-58178702D01*
X105679321Y-58658162D01*
X105617009Y-58692187D01*
X105546193Y-58687122D01*
X105497032Y-58653865D01*
X105472805Y-58627239D01*
X105465273Y-58620215D01*
X105298139Y-58488222D01*
X105289556Y-58482520D01*
X105252602Y-58462120D01*
X105202631Y-58411687D01*
X105187859Y-58342245D01*
X105212975Y-58275839D01*
X105240327Y-58249232D01*
X105263797Y-58232491D01*
X105419860Y-58121173D01*
X105578096Y-57963489D01*
X105590545Y-57946165D01*
X105644577Y-57870970D01*
X105708453Y-57782077D01*
X105710741Y-57777448D01*
X105710745Y-57777441D01*
X105732330Y-57733768D01*
X105780444Y-57681561D01*
X105849145Y-57663654D01*
X105872069Y-57666475D01*
X105883268Y-57668911D01*
X105943108Y-57681929D01*
X105943111Y-57681929D01*
X105947508Y-57682886D01*
X106018323Y-57687951D01*
X106022811Y-57687630D01*
X106153568Y-57678277D01*
X106153569Y-57678277D01*
X106162555Y-57677634D01*
X106170997Y-57674485D01*
X106170998Y-57674485D01*
X106293815Y-57628675D01*
X106293817Y-57628674D01*
X106298029Y-57627103D01*
X106337192Y-57605718D01*
X106356393Y-57595233D01*
X106356395Y-57595232D01*
X106360341Y-57593077D01*
X106392453Y-57569038D01*
X106472485Y-57509126D01*
X106472489Y-57509122D01*
X106476087Y-57506429D01*
X106770922Y-57211594D01*
X106771469Y-57211021D01*
X106786897Y-57194851D01*
X106786914Y-57194833D01*
X106787408Y-57194315D01*
X106787882Y-57193794D01*
X106787912Y-57193762D01*
X106791500Y-57189819D01*
X106815488Y-57169330D01*
X106815593Y-57169261D01*
X106843982Y-57155351D01*
X106849607Y-57153426D01*
X106872098Y-57145130D01*
X106872790Y-57144856D01*
X106872811Y-57144848D01*
X106887699Y-57138953D01*
X106889106Y-57138396D01*
X106934018Y-57118040D01*
X106949318Y-57110189D01*
X106954403Y-57107580D01*
X106954411Y-57107576D01*
X106955755Y-57106886D01*
X106970732Y-57098258D01*
X106993252Y-57085284D01*
X106993253Y-57085283D01*
X106998480Y-57082272D01*
X107107755Y-56987584D01*
X107131749Y-56959893D01*
X107151304Y-56937326D01*
X107151306Y-56937323D01*
X107154248Y-56933928D01*
X107161413Y-56922780D01*
X107229987Y-56816077D01*
X107229988Y-56816076D01*
X107232420Y-56812291D01*
X107242701Y-56789780D01*
X107265700Y-56739418D01*
X107266629Y-56737384D01*
X107291957Y-56669477D01*
X107292583Y-56667344D01*
X107292588Y-56667330D01*
X107301429Y-56637219D01*
X107302061Y-56635067D01*
X107317469Y-56564238D01*
X107317469Y-56474011D01*
X107337471Y-56405890D01*
X107391127Y-56359397D01*
X107443469Y-56348011D01*
X108552080Y-56348011D01*
X108620201Y-56368013D01*
G37*
%TD.AperFunction*%
%TD*%
M02*
