%TF.GenerationSoftware,KiCad,Pcbnew,(6.0.0)*%
%TF.CreationDate,2023-03-26T17:46:31-04:00*%
%TF.ProjectId,daughterBoard,64617567-6874-4657-9242-6f6172642e6b,rev?*%
%TF.SameCoordinates,Original*%
%TF.FileFunction,Copper,L4,Bot*%
%TF.FilePolarity,Positive*%
%FSLAX46Y46*%
G04 Gerber Fmt 4.6, Leading zero omitted, Abs format (unit mm)*
G04 Created by KiCad (PCBNEW (6.0.0)) date 2023-03-26 17:46:31*
%MOMM*%
%LPD*%
G01*
G04 APERTURE LIST*
G04 Aperture macros list*
%AMRoundRect*
0 Rectangle with rounded corners*
0 $1 Rounding radius*
0 $2 $3 $4 $5 $6 $7 $8 $9 X,Y pos of 4 corners*
0 Add a 4 corners polygon primitive as box body*
4,1,4,$2,$3,$4,$5,$6,$7,$8,$9,$2,$3,0*
0 Add four circle primitives for the rounded corners*
1,1,$1+$1,$2,$3*
1,1,$1+$1,$4,$5*
1,1,$1+$1,$6,$7*
1,1,$1+$1,$8,$9*
0 Add four rect primitives between the rounded corners*
20,1,$1+$1,$2,$3,$4,$5,0*
20,1,$1+$1,$4,$5,$6,$7,0*
20,1,$1+$1,$6,$7,$8,$9,0*
20,1,$1+$1,$8,$9,$2,$3,0*%
G04 Aperture macros list end*
%TA.AperFunction,ComponentPad*%
%ADD10R,1.700000X1.700000*%
%TD*%
%TA.AperFunction,ComponentPad*%
%ADD11O,1.700000X1.700000*%
%TD*%
%TA.AperFunction,SMDPad,CuDef*%
%ADD12RoundRect,0.250000X0.475000X-0.337500X0.475000X0.337500X-0.475000X0.337500X-0.475000X-0.337500X0*%
%TD*%
%TA.AperFunction,SMDPad,CuDef*%
%ADD13RoundRect,0.250000X-0.475000X0.337500X-0.475000X-0.337500X0.475000X-0.337500X0.475000X0.337500X0*%
%TD*%
%TA.AperFunction,SMDPad,CuDef*%
%ADD14RoundRect,0.250000X0.337500X0.475000X-0.337500X0.475000X-0.337500X-0.475000X0.337500X-0.475000X0*%
%TD*%
%TA.AperFunction,SMDPad,CuDef*%
%ADD15RoundRect,0.237500X-0.237500X0.250000X-0.237500X-0.250000X0.237500X-0.250000X0.237500X0.250000X0*%
%TD*%
%TA.AperFunction,SMDPad,CuDef*%
%ADD16RoundRect,0.237500X-0.250000X-0.237500X0.250000X-0.237500X0.250000X0.237500X-0.250000X0.237500X0*%
%TD*%
%TA.AperFunction,SMDPad,CuDef*%
%ADD17RoundRect,0.237500X0.250000X0.237500X-0.250000X0.237500X-0.250000X-0.237500X0.250000X-0.237500X0*%
%TD*%
%TA.AperFunction,ViaPad*%
%ADD18C,0.800000*%
%TD*%
%TA.AperFunction,Conductor*%
%ADD19C,0.250000*%
%TD*%
G04 APERTURE END LIST*
D10*
%TO.P,J4,1,Pin_1*%
%TO.N,/SCM*%
X119500000Y-52000000D03*
D11*
%TO.P,J4,2,Pin_2*%
%TO.N,unconnected-(J4-Pad2)*%
X122040000Y-52000000D03*
%TO.P,J4,3,Pin_3*%
%TO.N,/SDM*%
X119500000Y-54540000D03*
%TO.P,J4,4,Pin_4*%
%TO.N,unconnected-(J4-Pad4)*%
X122040000Y-54540000D03*
%TO.P,J4,5,Pin_5*%
%TO.N,+3V3*%
X119500000Y-57080000D03*
%TO.P,J4,6,Pin_6*%
X122040000Y-57080000D03*
%TO.P,J4,7,Pin_7*%
%TO.N,GND*%
X119500000Y-59620000D03*
%TO.P,J4,8,Pin_8*%
X122040000Y-59620000D03*
%TO.P,J4,9,Pin_9*%
%TO.N,unconnected-(J4-Pad9)*%
X119500000Y-62160000D03*
%TO.P,J4,10,Pin_10*%
%TO.N,unconnected-(J4-Pad10)*%
X122040000Y-62160000D03*
%TD*%
D10*
%TO.P,J2,1,Pin_1*%
%TO.N,Net-(J2-Pad1)*%
X119500000Y-73500000D03*
D11*
%TO.P,J2,2,Pin_2*%
%TO.N,unconnected-(J2-Pad2)*%
X122040000Y-73500000D03*
%TO.P,J2,3,Pin_3*%
%TO.N,Net-(J2-Pad3)*%
X119500000Y-76040000D03*
%TO.P,J2,4,Pin_4*%
%TO.N,unconnected-(J2-Pad4)*%
X122040000Y-76040000D03*
%TD*%
D10*
%TO.P,J3,1,Pin_1*%
%TO.N,Net-(J3-Pad1)*%
X104500000Y-76000000D03*
D11*
%TO.P,J3,2,Pin_2*%
%TO.N,unconnected-(J3-Pad2)*%
X101960000Y-76000000D03*
%TO.P,J3,3,Pin_3*%
%TO.N,Net-(J3-Pad3)*%
X104500000Y-73460000D03*
%TO.P,J3,4,Pin_4*%
%TO.N,unconnected-(J3-Pad4)*%
X101960000Y-73460000D03*
%TD*%
D10*
%TO.P,J1,1,Pin_1*%
%TO.N,/SCM*%
X102000000Y-52000000D03*
D11*
%TO.P,J1,2,Pin_2*%
%TO.N,unconnected-(J1-Pad2)*%
X104540000Y-52000000D03*
%TO.P,J1,3,Pin_3*%
%TO.N,/SDM*%
X102000000Y-54540000D03*
%TO.P,J1,4,Pin_4*%
%TO.N,unconnected-(J1-Pad4)*%
X104540000Y-54540000D03*
%TO.P,J1,5,Pin_5*%
%TO.N,+3V3*%
X102000000Y-57080000D03*
%TO.P,J1,6,Pin_6*%
X104540000Y-57080000D03*
%TO.P,J1,7,Pin_7*%
%TO.N,GND*%
X102000000Y-59620000D03*
%TO.P,J1,8,Pin_8*%
X104540000Y-59620000D03*
%TO.P,J1,9,Pin_9*%
%TO.N,unconnected-(J1-Pad9)*%
X102000000Y-62160000D03*
%TO.P,J1,10,Pin_10*%
%TO.N,unconnected-(J1-Pad10)*%
X104540000Y-62160000D03*
%TD*%
D12*
%TO.P,C10,1*%
%TO.N,GND*%
X110500000Y-78537500D03*
%TO.P,C10,2*%
%TO.N,+3V3*%
X110500000Y-76462500D03*
%TD*%
D13*
%TO.P,C8,1*%
%TO.N,+3V3*%
X108500000Y-82962500D03*
%TO.P,C8,2*%
%TO.N,GND*%
X108500000Y-85037500D03*
%TD*%
%TO.P,C5,1*%
%TO.N,+3V3*%
X104500000Y-68558500D03*
%TO.P,C5,2*%
%TO.N,GND*%
X104500000Y-70633500D03*
%TD*%
D12*
%TO.P,C11,1*%
%TO.N,GND*%
X112500000Y-78537500D03*
%TO.P,C11,2*%
%TO.N,+3V3*%
X112500000Y-76462500D03*
%TD*%
D14*
%TO.P,C13,1*%
%TO.N,+3V3*%
X115537500Y-65000000D03*
%TO.P,C13,2*%
%TO.N,GND*%
X113462500Y-65000000D03*
%TD*%
D15*
%TO.P,R1,1*%
%TO.N,+3V3*%
X113500000Y-83087500D03*
%TO.P,R1,2*%
%TO.N,Net-(R1-Pad2)*%
X113500000Y-84912500D03*
%TD*%
D13*
%TO.P,C1,1*%
%TO.N,+3V3*%
X122500000Y-68462500D03*
%TO.P,C1,2*%
%TO.N,GND*%
X122500000Y-70537500D03*
%TD*%
D15*
%TO.P,R4,1*%
%TO.N,+3V3*%
X111500000Y-61587500D03*
%TO.P,R4,2*%
%TO.N,Net-(R4-Pad2)*%
X111500000Y-63412500D03*
%TD*%
D16*
%TO.P,R7,1*%
%TO.N,/SC2*%
X114587500Y-71500000D03*
%TO.P,R7,2*%
%TO.N,+3V3*%
X116412500Y-71500000D03*
%TD*%
D17*
%TO.P,R14,1*%
%TO.N,+3V3*%
X116412500Y-70000000D03*
%TO.P,R14,2*%
%TO.N,/INT3*%
X114587500Y-70000000D03*
%TD*%
D13*
%TO.P,C3,1*%
%TO.N,Net-(C3-Pad1)*%
X118500000Y-68462500D03*
%TO.P,C3,2*%
%TO.N,GND*%
X118500000Y-70537500D03*
%TD*%
D12*
%TO.P,C6,1*%
%TO.N,Net-(C6-Pad1)*%
X104521000Y-66802000D03*
%TO.P,C6,2*%
%TO.N,GND*%
X104521000Y-64727000D03*
%TD*%
D13*
%TO.P,C9,1*%
%TO.N,+3V3*%
X110500000Y-82962500D03*
%TO.P,C9,2*%
%TO.N,GND*%
X110500000Y-85037500D03*
%TD*%
D16*
%TO.P,R5,1*%
%TO.N,/SC3*%
X114587500Y-67000000D03*
%TO.P,R5,2*%
%TO.N,+3V3*%
X116412500Y-67000000D03*
%TD*%
%TO.P,R8,1*%
%TO.N,/SD2*%
X114587500Y-73000000D03*
%TO.P,R8,2*%
%TO.N,+3V3*%
X116412500Y-73000000D03*
%TD*%
D17*
%TO.P,R12,1*%
%TO.N,/SD0*%
X109412500Y-64500000D03*
%TO.P,R12,2*%
%TO.N,+3V3*%
X107587500Y-64500000D03*
%TD*%
D14*
%TO.P,C12,1*%
%TO.N,+3V3*%
X115537500Y-63000000D03*
%TO.P,C12,2*%
%TO.N,GND*%
X113462500Y-63000000D03*
%TD*%
D17*
%TO.P,R11,1*%
%TO.N,/SC0*%
X109412500Y-66000000D03*
%TO.P,R11,2*%
%TO.N,+3V3*%
X107587500Y-66000000D03*
%TD*%
%TO.P,R10,1*%
%TO.N,/SD1*%
X109412500Y-69000000D03*
%TO.P,R10,2*%
%TO.N,+3V3*%
X107587500Y-69000000D03*
%TD*%
D16*
%TO.P,R6,1*%
%TO.N,/SD3*%
X114587500Y-68500000D03*
%TO.P,R6,2*%
%TO.N,+3V3*%
X116412500Y-68500000D03*
%TD*%
D17*
%TO.P,R13,1*%
%TO.N,+3V3*%
X116412500Y-74500000D03*
%TO.P,R13,2*%
%TO.N,/INT2*%
X114587500Y-74500000D03*
%TD*%
D13*
%TO.P,C2,1*%
%TO.N,+3V3*%
X120500000Y-68462500D03*
%TO.P,C2,2*%
%TO.N,GND*%
X120500000Y-70537500D03*
%TD*%
%TO.P,C4,1*%
%TO.N,+3V3*%
X102000000Y-68558500D03*
%TO.P,C4,2*%
%TO.N,GND*%
X102000000Y-70633500D03*
%TD*%
D12*
%TO.P,C7,1*%
%TO.N,+3V3*%
X108500000Y-74537500D03*
%TO.P,C7,2*%
%TO.N,GND*%
X108500000Y-72462500D03*
%TD*%
D16*
%TO.P,R3,1*%
%TO.N,+3V3*%
X107587500Y-67500000D03*
%TO.P,R3,2*%
%TO.N,/INT1*%
X109412500Y-67500000D03*
%TD*%
D17*
%TO.P,R9,1*%
%TO.N,/SC1*%
X109412500Y-70500000D03*
%TO.P,R9,2*%
%TO.N,+3V3*%
X107587500Y-70500000D03*
%TD*%
D16*
%TO.P,R2,1*%
%TO.N,+3V3*%
X107587500Y-63000000D03*
%TO.P,R2,2*%
%TO.N,/INT0*%
X109412500Y-63000000D03*
%TD*%
D18*
%TO.N,+3V3*%
X109728000Y-61087000D03*
X116713000Y-63627000D03*
X111506000Y-75057000D03*
X116500000Y-76500000D03*
X108331000Y-81407000D03*
X101000000Y-67000000D03*
X117221000Y-64389000D03*
X110071500Y-74000000D03*
X123000040Y-67001893D03*
%TO.N,GND*%
X111000000Y-80000000D03*
X113000000Y-80000000D03*
X101054500Y-66000000D03*
X122973500Y-66002610D03*
X112014000Y-82423000D03*
X118618000Y-71882000D03*
X116500000Y-54500000D03*
X112000000Y-80000000D03*
%TO.N,Net-(C3-Pad1)*%
X117531916Y-67526500D03*
%TO.N,Net-(C6-Pad1)*%
X105918000Y-65786000D03*
%TO.N,Net-(R1-Pad2)*%
X115062000Y-84074000D03*
%TO.N,/INT0*%
X111379000Y-65913000D03*
%TO.N,/INT1*%
X111464849Y-68986971D03*
%TO.N,Net-(R4-Pad2)*%
X111887000Y-64770000D03*
%TO.N,/SC3*%
X112395000Y-65913000D03*
%TO.N,/SD3*%
X112487701Y-67012299D03*
%TO.N,/SC2*%
X112463103Y-69036897D03*
%TO.N,/SD2*%
X112513029Y-70035151D03*
%TO.N,/SC1*%
X111500000Y-71000000D03*
%TO.N,/SD1*%
X111512299Y-69987701D03*
%TO.N,/SC0*%
X111476583Y-67987537D03*
%TO.N,/SD0*%
X111383299Y-66933299D03*
%TO.N,/INT2*%
X112499557Y-71034563D03*
%TO.N,/INT3*%
X112475402Y-68024598D03*
%TD*%
D19*
%TO.N,+3V3*%
X108331000Y-82793500D02*
X108500000Y-82962500D01*
X110500000Y-76462500D02*
X110500000Y-76063000D01*
X116713000Y-63627000D02*
X116713000Y-63824500D01*
X112500000Y-76462500D02*
X112500000Y-76051000D01*
X110500000Y-76063000D02*
X111506000Y-75057000D01*
X109534000Y-74537500D02*
X110071500Y-74000000D01*
X116713000Y-63824500D02*
X115537500Y-65000000D01*
X108500000Y-74537500D02*
X109534000Y-74537500D01*
X116412500Y-74500000D02*
X116412500Y-76412500D01*
X104500000Y-68558500D02*
X102000000Y-68558500D01*
X110500000Y-82962500D02*
X108500000Y-82962500D01*
X120500000Y-68462500D02*
X122500000Y-68462500D01*
X122500000Y-67501933D02*
X123000040Y-67001893D01*
X107587500Y-67500000D02*
X107587500Y-66000000D01*
X112500000Y-76051000D02*
X111506000Y-75057000D01*
X113000500Y-83087500D02*
X112522000Y-83566000D01*
X111500000Y-61587500D02*
X110228500Y-61587500D01*
X116412500Y-68500000D02*
X116412500Y-70000000D01*
X107587500Y-69000000D02*
X107587500Y-67500000D01*
X107587500Y-64500000D02*
X107587500Y-63000000D01*
X110228500Y-61587500D02*
X109728000Y-61087000D01*
X102000000Y-68000000D02*
X101000000Y-67000000D01*
X111103500Y-83566000D02*
X110500000Y-82962500D01*
X112522000Y-83566000D02*
X111103500Y-83566000D01*
X115537500Y-63000000D02*
X116086000Y-63000000D01*
X107587500Y-70500000D02*
X107587500Y-69000000D01*
X102000000Y-68558500D02*
X102000000Y-68000000D01*
X116412500Y-70000000D02*
X116412500Y-71500000D01*
X108331000Y-81407000D02*
X108331000Y-82793500D01*
X116412500Y-71500000D02*
X116412500Y-73000000D01*
X107587500Y-63000000D02*
X109500500Y-61087000D01*
X107587500Y-66000000D02*
X107587500Y-64500000D01*
X113500000Y-83087500D02*
X113000500Y-83087500D01*
X116086000Y-63000000D02*
X116713000Y-63627000D01*
X116412500Y-73000000D02*
X116412500Y-74500000D01*
X122500000Y-68462500D02*
X122500000Y-67501933D01*
X109500500Y-61087000D02*
X109728000Y-61087000D01*
X116412500Y-76412500D02*
X116500000Y-76500000D01*
X116412500Y-67000000D02*
X116412500Y-68500000D01*
%TO.N,GND*%
X113462500Y-65000000D02*
X113462500Y-63000000D01*
X107188000Y-84328000D02*
X107188000Y-81026000D01*
X113000000Y-80000000D02*
X113000000Y-79037500D01*
X117602000Y-77724000D02*
X115326000Y-80000000D01*
X111000000Y-80000000D02*
X110861000Y-80000000D01*
X113000000Y-79037500D02*
X112500000Y-78537500D01*
X118500000Y-70537500D02*
X117602000Y-71435500D01*
X104521000Y-64727000D02*
X103251000Y-63457000D01*
X105609500Y-72462500D02*
X108500000Y-72462500D01*
X110490000Y-78547500D02*
X110500000Y-78537500D01*
X103251000Y-60909000D02*
X104540000Y-59620000D01*
X106934000Y-74028500D02*
X108500000Y-72462500D01*
X107897500Y-85037500D02*
X107188000Y-84328000D01*
X118500000Y-70537500D02*
X120500000Y-70537500D01*
X110490000Y-79629000D02*
X110490000Y-78547500D01*
X115326000Y-80000000D02*
X113000000Y-80000000D01*
X108500000Y-85037500D02*
X107897500Y-85037500D01*
X112000000Y-79037500D02*
X112500000Y-78537500D01*
X102000000Y-70633500D02*
X104500000Y-70633500D01*
X103251000Y-63457000D02*
X103251000Y-60909000D01*
X110500000Y-85037500D02*
X108500000Y-85037500D01*
X108214000Y-80000000D02*
X111000000Y-80000000D01*
X110861000Y-80000000D02*
X110490000Y-79629000D01*
X104500000Y-70633500D02*
X104500000Y-71353000D01*
X113462500Y-57537500D02*
X116500000Y-54500000D01*
X112000000Y-80000000D02*
X112000000Y-79037500D01*
X109652500Y-78537500D02*
X106934000Y-75819000D01*
X104500000Y-71353000D02*
X105609500Y-72462500D01*
X117602000Y-71435500D02*
X117602000Y-77724000D01*
X107188000Y-81026000D02*
X108214000Y-80000000D01*
X122500000Y-70537500D02*
X120500000Y-70537500D01*
X106934000Y-75819000D02*
X106934000Y-74028500D01*
X110500000Y-78537500D02*
X109652500Y-78537500D01*
X113462500Y-63000000D02*
X113462500Y-57537500D01*
%TO.N,Net-(C3-Pad1)*%
X118000000Y-67994584D02*
X117531916Y-67526500D01*
X118000000Y-68462500D02*
X118000000Y-67994584D01*
%TO.N,Net-(C6-Pad1)*%
X104902000Y-66802000D02*
X105918000Y-65786000D01*
X104521000Y-66802000D02*
X104902000Y-66802000D01*
%TO.N,Net-(R1-Pad2)*%
X113500000Y-84912500D02*
X114223500Y-84912500D01*
X114223500Y-84912500D02*
X115062000Y-84074000D01*
%TO.N,/INT0*%
X110490000Y-64077500D02*
X109412500Y-63000000D01*
X111379000Y-65913000D02*
X111379000Y-65405000D01*
X111379000Y-65405000D02*
X110490000Y-64516000D01*
X110490000Y-64516000D02*
X110490000Y-64077500D01*
%TO.N,/INT1*%
X109412500Y-67500000D02*
X110899471Y-68986971D01*
X110899471Y-68986971D02*
X111464849Y-68986971D01*
%TO.N,Net-(R4-Pad2)*%
X111500000Y-64383000D02*
X111887000Y-64770000D01*
X111500000Y-63412500D02*
X111500000Y-64383000D01*
%TO.N,/SC3*%
X112531520Y-66049520D02*
X112785520Y-66049520D01*
X112785520Y-66049520D02*
X113736000Y-67000000D01*
X112395000Y-65913000D02*
X112531520Y-66049520D01*
X113736000Y-67000000D02*
X114587500Y-67000000D01*
%TO.N,/SD3*%
X113975402Y-68500000D02*
X112487701Y-67012299D01*
X114587500Y-68500000D02*
X113975402Y-68500000D01*
%TO.N,/SC2*%
X113538000Y-69850000D02*
X112724897Y-69036897D01*
X114587500Y-71500000D02*
X114587500Y-71407500D01*
X112724897Y-69036897D02*
X112463103Y-69036897D01*
X114587500Y-71407500D02*
X113538000Y-70358000D01*
X113538000Y-70358000D02*
X113538000Y-69850000D01*
%TO.N,/SD2*%
X113767000Y-73000000D02*
X113284000Y-72517000D01*
X113284000Y-70739704D02*
X112579447Y-70035151D01*
X114587500Y-73000000D02*
X113767000Y-73000000D01*
X112579447Y-70035151D02*
X112513029Y-70035151D01*
X113284000Y-72517000D02*
X113284000Y-70739704D01*
%TO.N,/SC1*%
X110999000Y-71501000D02*
X111500000Y-71000000D01*
X109412500Y-70500000D02*
X109412500Y-70931500D01*
X109982000Y-71501000D02*
X110999000Y-71501000D01*
X109412500Y-70931500D02*
X109982000Y-71501000D01*
%TO.N,/SD1*%
X109412500Y-69000000D02*
X109640000Y-69000000D01*
X110627701Y-69987701D02*
X111512299Y-69987701D01*
X109640000Y-69000000D02*
X110627701Y-69987701D01*
%TO.N,/SC0*%
X111182353Y-67987537D02*
X111476583Y-67987537D01*
X109412500Y-66217684D02*
X111182353Y-67987537D01*
X109412500Y-66000000D02*
X109412500Y-66217684D01*
%TO.N,/SD0*%
X109412500Y-64500000D02*
X109458000Y-64500000D01*
X109458000Y-64500000D02*
X110490000Y-65532000D01*
X111129299Y-66933299D02*
X111383299Y-66933299D01*
X110490000Y-65532000D02*
X110490000Y-66294000D01*
X110490000Y-66294000D02*
X111129299Y-66933299D01*
%TO.N,/INT2*%
X113489000Y-74500000D02*
X112499557Y-73510557D01*
X114587500Y-74500000D02*
X113489000Y-74500000D01*
X112499557Y-73510557D02*
X112499557Y-71034563D01*
%TO.N,/INT3*%
X114450804Y-70000000D02*
X112475402Y-68024598D01*
X114587500Y-70000000D02*
X114450804Y-70000000D01*
%TD*%
%TA.AperFunction,NonConductor*%
G36*
X100848562Y-50528002D02*
G01*
X100895055Y-50581658D01*
X100905159Y-50651932D01*
X100875665Y-50716512D01*
X100856006Y-50734826D01*
X100823568Y-50759137D01*
X100786739Y-50786739D01*
X100781358Y-50793919D01*
X100781357Y-50793920D01*
X100734826Y-50856006D01*
X100677967Y-50898521D01*
X100607148Y-50903547D01*
X100544855Y-50869487D01*
X100510865Y-50807155D01*
X100508000Y-50780441D01*
X100508000Y-50634000D01*
X100528002Y-50565879D01*
X100581658Y-50519386D01*
X100634000Y-50508000D01*
X100780441Y-50508000D01*
X100848562Y-50528002D01*
G37*
%TD.AperFunction*%
%TA.AperFunction,NonConductor*%
G36*
X121517075Y-50528002D02*
G01*
X121563568Y-50581658D01*
X121573672Y-50651932D01*
X121544178Y-50716512D01*
X121507134Y-50745763D01*
X121414626Y-50793920D01*
X121313607Y-50846507D01*
X121309474Y-50849610D01*
X121309471Y-50849612D01*
X121139100Y-50977530D01*
X121134965Y-50980635D01*
X121078537Y-51039684D01*
X121054283Y-51065064D01*
X120992759Y-51100494D01*
X120921846Y-51097037D01*
X120864060Y-51055791D01*
X120845207Y-51022243D01*
X120803767Y-50911703D01*
X120800615Y-50903295D01*
X120713261Y-50786739D01*
X120676432Y-50759137D01*
X120643994Y-50734826D01*
X120601479Y-50677967D01*
X120596453Y-50607148D01*
X120630513Y-50544855D01*
X120692845Y-50510865D01*
X120719559Y-50508000D01*
X121448954Y-50508000D01*
X121517075Y-50528002D01*
G37*
%TD.AperFunction*%
%TA.AperFunction,NonConductor*%
G36*
X104017075Y-50528002D02*
G01*
X104063568Y-50581658D01*
X104073672Y-50651932D01*
X104044178Y-50716512D01*
X104007134Y-50745763D01*
X103914626Y-50793920D01*
X103813607Y-50846507D01*
X103809474Y-50849610D01*
X103809471Y-50849612D01*
X103639100Y-50977530D01*
X103634965Y-50980635D01*
X103578537Y-51039684D01*
X103554283Y-51065064D01*
X103492759Y-51100494D01*
X103421846Y-51097037D01*
X103364060Y-51055791D01*
X103345207Y-51022243D01*
X103303767Y-50911703D01*
X103300615Y-50903295D01*
X103213261Y-50786739D01*
X103176432Y-50759137D01*
X103143994Y-50734826D01*
X103101479Y-50677967D01*
X103096453Y-50607148D01*
X103130513Y-50544855D01*
X103192845Y-50510865D01*
X103219559Y-50508000D01*
X103948954Y-50508000D01*
X104017075Y-50528002D01*
G37*
%TD.AperFunction*%
%TA.AperFunction,NonConductor*%
G36*
X123434121Y-50528002D02*
G01*
X123480614Y-50581658D01*
X123492000Y-50634000D01*
X123492000Y-51326519D01*
X123471998Y-51394640D01*
X123418342Y-51441133D01*
X123348068Y-51451237D01*
X123283488Y-51421743D01*
X123250452Y-51376764D01*
X123241354Y-51355840D01*
X123120014Y-51168277D01*
X122969670Y-51003051D01*
X122965619Y-50999852D01*
X122965615Y-50999848D01*
X122798414Y-50867800D01*
X122798410Y-50867798D01*
X122794359Y-50864598D01*
X122598789Y-50756638D01*
X122593919Y-50754913D01*
X122593909Y-50754909D01*
X122587874Y-50752772D01*
X122530338Y-50711178D01*
X122504423Y-50645080D01*
X122518358Y-50575464D01*
X122567717Y-50524433D01*
X122629935Y-50508000D01*
X123366000Y-50508000D01*
X123434121Y-50528002D01*
G37*
%TD.AperFunction*%
%TA.AperFunction,NonConductor*%
G36*
X103523150Y-52913126D02*
G01*
X103557817Y-52941114D01*
X103586250Y-52973938D01*
X103758126Y-53116632D01*
X103804951Y-53143994D01*
X103831445Y-53159476D01*
X103880169Y-53211114D01*
X103893240Y-53280897D01*
X103866509Y-53346669D01*
X103826055Y-53380027D01*
X103813607Y-53386507D01*
X103809474Y-53389610D01*
X103809471Y-53389612D01*
X103685567Y-53482642D01*
X103634965Y-53520635D01*
X103480629Y-53682138D01*
X103373201Y-53839621D01*
X103318293Y-53884621D01*
X103247768Y-53892792D01*
X103184021Y-53861538D01*
X103163324Y-53837054D01*
X103082822Y-53712617D01*
X103082820Y-53712614D01*
X103080014Y-53708277D01*
X103076532Y-53704450D01*
X102932798Y-53546488D01*
X102901746Y-53482642D01*
X102910141Y-53412143D01*
X102955317Y-53357375D01*
X102981761Y-53343706D01*
X103088297Y-53303767D01*
X103096705Y-53300615D01*
X103213261Y-53213261D01*
X103300615Y-53096705D01*
X103312560Y-53064841D01*
X103344598Y-52979382D01*
X103387240Y-52922618D01*
X103453802Y-52897918D01*
X103523150Y-52913126D01*
G37*
%TD.AperFunction*%
%TA.AperFunction,NonConductor*%
G36*
X121023150Y-52913126D02*
G01*
X121057817Y-52941114D01*
X121086250Y-52973938D01*
X121258126Y-53116632D01*
X121304951Y-53143994D01*
X121331445Y-53159476D01*
X121380169Y-53211114D01*
X121393240Y-53280897D01*
X121366509Y-53346669D01*
X121326055Y-53380027D01*
X121313607Y-53386507D01*
X121309474Y-53389610D01*
X121309471Y-53389612D01*
X121185567Y-53482642D01*
X121134965Y-53520635D01*
X120980629Y-53682138D01*
X120873201Y-53839621D01*
X120818293Y-53884621D01*
X120747768Y-53892792D01*
X120684021Y-53861538D01*
X120663324Y-53837054D01*
X120582822Y-53712617D01*
X120582820Y-53712614D01*
X120580014Y-53708277D01*
X120576532Y-53704450D01*
X120432798Y-53546488D01*
X120401746Y-53482642D01*
X120410141Y-53412143D01*
X120455317Y-53357375D01*
X120481761Y-53343706D01*
X120588297Y-53303767D01*
X120596705Y-53300615D01*
X120713261Y-53213261D01*
X120800615Y-53096705D01*
X120812560Y-53064841D01*
X120844598Y-52979382D01*
X120887240Y-52922618D01*
X120953802Y-52897918D01*
X121023150Y-52913126D01*
G37*
%TD.AperFunction*%
%TA.AperFunction,NonConductor*%
G36*
X123437334Y-52563819D02*
G01*
X123482162Y-52618873D01*
X123492000Y-52667682D01*
X123492000Y-53866519D01*
X123471998Y-53934640D01*
X123418342Y-53981133D01*
X123348068Y-53991237D01*
X123283488Y-53961743D01*
X123250452Y-53916764D01*
X123241354Y-53895840D01*
X123196202Y-53826045D01*
X123122822Y-53712617D01*
X123122820Y-53712614D01*
X123120014Y-53708277D01*
X122969670Y-53543051D01*
X122965619Y-53539852D01*
X122965615Y-53539848D01*
X122798414Y-53407800D01*
X122798410Y-53407798D01*
X122794359Y-53404598D01*
X122753053Y-53381796D01*
X122703084Y-53331364D01*
X122688312Y-53261921D01*
X122713428Y-53195516D01*
X122740780Y-53168909D01*
X122803270Y-53124335D01*
X122919860Y-53041173D01*
X123078096Y-52883489D01*
X123131548Y-52809103D01*
X123205435Y-52706277D01*
X123208453Y-52702077D01*
X123253044Y-52611854D01*
X123301156Y-52559648D01*
X123369857Y-52541741D01*
X123437334Y-52563819D01*
G37*
%TD.AperFunction*%
%TA.AperFunction,NonConductor*%
G36*
X100716512Y-53124335D02*
G01*
X100734826Y-53143994D01*
X100786739Y-53213261D01*
X100903295Y-53300615D01*
X100911704Y-53303767D01*
X100911705Y-53303768D01*
X101020451Y-53344535D01*
X101077216Y-53387176D01*
X101101916Y-53453738D01*
X101086709Y-53523087D01*
X101067316Y-53549568D01*
X100940629Y-53682138D01*
X100814743Y-53866680D01*
X100770007Y-53963056D01*
X100748288Y-54009846D01*
X100701464Y-54063213D01*
X100633221Y-54082794D01*
X100565225Y-54062371D01*
X100519065Y-54008428D01*
X100508000Y-53956796D01*
X100508000Y-53219559D01*
X100528002Y-53151438D01*
X100581658Y-53104945D01*
X100651932Y-53094841D01*
X100716512Y-53124335D01*
G37*
%TD.AperFunction*%
%TA.AperFunction,NonConductor*%
G36*
X103352026Y-55215144D02*
G01*
X103379875Y-55246994D01*
X103439987Y-55345088D01*
X103586250Y-55513938D01*
X103758126Y-55656632D01*
X103828595Y-55697811D01*
X103831445Y-55699476D01*
X103880169Y-55751114D01*
X103893240Y-55820897D01*
X103866509Y-55886669D01*
X103826055Y-55920027D01*
X103813607Y-55926507D01*
X103809474Y-55929610D01*
X103809471Y-55929612D01*
X103785247Y-55947800D01*
X103634965Y-56060635D01*
X103480629Y-56222138D01*
X103373201Y-56379621D01*
X103318293Y-56424621D01*
X103247768Y-56432792D01*
X103184021Y-56401538D01*
X103163324Y-56377054D01*
X103082822Y-56252617D01*
X103082820Y-56252614D01*
X103080014Y-56248277D01*
X102929670Y-56083051D01*
X102925619Y-56079852D01*
X102925615Y-56079848D01*
X102758414Y-55947800D01*
X102758410Y-55947798D01*
X102754359Y-55944598D01*
X102713053Y-55921796D01*
X102663084Y-55871364D01*
X102648312Y-55801921D01*
X102673428Y-55735516D01*
X102700780Y-55708909D01*
X102744603Y-55677650D01*
X102879860Y-55581173D01*
X103038096Y-55423489D01*
X103079328Y-55366109D01*
X103168453Y-55242077D01*
X103169776Y-55243028D01*
X103216645Y-55199857D01*
X103286580Y-55187625D01*
X103352026Y-55215144D01*
G37*
%TD.AperFunction*%
%TA.AperFunction,NonConductor*%
G36*
X120852026Y-55215144D02*
G01*
X120879875Y-55246994D01*
X120939987Y-55345088D01*
X121086250Y-55513938D01*
X121258126Y-55656632D01*
X121328595Y-55697811D01*
X121331445Y-55699476D01*
X121380169Y-55751114D01*
X121393240Y-55820897D01*
X121366509Y-55886669D01*
X121326055Y-55920027D01*
X121313607Y-55926507D01*
X121309474Y-55929610D01*
X121309471Y-55929612D01*
X121285247Y-55947800D01*
X121134965Y-56060635D01*
X120980629Y-56222138D01*
X120873201Y-56379621D01*
X120818293Y-56424621D01*
X120747768Y-56432792D01*
X120684021Y-56401538D01*
X120663324Y-56377054D01*
X120582822Y-56252617D01*
X120582820Y-56252614D01*
X120580014Y-56248277D01*
X120429670Y-56083051D01*
X120425619Y-56079852D01*
X120425615Y-56079848D01*
X120258414Y-55947800D01*
X120258410Y-55947798D01*
X120254359Y-55944598D01*
X120213053Y-55921796D01*
X120163084Y-55871364D01*
X120148312Y-55801921D01*
X120173428Y-55735516D01*
X120200780Y-55708909D01*
X120244603Y-55677650D01*
X120379860Y-55581173D01*
X120538096Y-55423489D01*
X120579328Y-55366109D01*
X120668453Y-55242077D01*
X120669776Y-55243028D01*
X120716645Y-55199857D01*
X120786580Y-55187625D01*
X120852026Y-55215144D01*
G37*
%TD.AperFunction*%
%TA.AperFunction,NonConductor*%
G36*
X123437334Y-55103819D02*
G01*
X123482162Y-55158873D01*
X123492000Y-55207682D01*
X123492000Y-56406519D01*
X123471998Y-56474640D01*
X123418342Y-56521133D01*
X123348068Y-56531237D01*
X123283488Y-56501743D01*
X123250452Y-56456764D01*
X123241354Y-56435840D01*
X123120014Y-56248277D01*
X122969670Y-56083051D01*
X122965619Y-56079852D01*
X122965615Y-56079848D01*
X122798414Y-55947800D01*
X122798410Y-55947798D01*
X122794359Y-55944598D01*
X122753053Y-55921796D01*
X122703084Y-55871364D01*
X122688312Y-55801921D01*
X122713428Y-55735516D01*
X122740780Y-55708909D01*
X122784603Y-55677650D01*
X122919860Y-55581173D01*
X123078096Y-55423489D01*
X123119328Y-55366109D01*
X123205435Y-55246277D01*
X123208453Y-55242077D01*
X123253044Y-55151854D01*
X123301156Y-55099648D01*
X123369857Y-55081741D01*
X123437334Y-55103819D01*
G37*
%TD.AperFunction*%
%TA.AperFunction,NonConductor*%
G36*
X100716512Y-55026701D02*
G01*
X100750743Y-55074521D01*
X100773647Y-55130926D01*
X100783266Y-55154616D01*
X100834019Y-55237438D01*
X100897291Y-55340688D01*
X100899987Y-55345088D01*
X101046250Y-55513938D01*
X101218126Y-55656632D01*
X101288595Y-55697811D01*
X101291445Y-55699476D01*
X101340169Y-55751114D01*
X101353240Y-55820897D01*
X101326509Y-55886669D01*
X101286055Y-55920027D01*
X101273607Y-55926507D01*
X101269474Y-55929610D01*
X101269471Y-55929612D01*
X101245247Y-55947800D01*
X101094965Y-56060635D01*
X100940629Y-56222138D01*
X100814743Y-56406680D01*
X100761616Y-56521133D01*
X100748288Y-56549846D01*
X100701464Y-56603213D01*
X100633221Y-56622794D01*
X100565225Y-56602371D01*
X100519065Y-56548428D01*
X100508000Y-56496796D01*
X100508000Y-55121925D01*
X100528002Y-55053804D01*
X100581658Y-55007311D01*
X100651932Y-54997207D01*
X100716512Y-55026701D01*
G37*
%TD.AperFunction*%
%TA.AperFunction,NonConductor*%
G36*
X120852026Y-57755144D02*
G01*
X120879875Y-57786994D01*
X120939987Y-57885088D01*
X121086250Y-58053938D01*
X121258126Y-58196632D01*
X121328595Y-58237811D01*
X121331445Y-58239476D01*
X121380169Y-58291114D01*
X121393240Y-58360897D01*
X121366509Y-58426669D01*
X121326055Y-58460027D01*
X121313607Y-58466507D01*
X121309474Y-58469610D01*
X121309471Y-58469612D01*
X121285247Y-58487800D01*
X121134965Y-58600635D01*
X120980629Y-58762138D01*
X120873201Y-58919621D01*
X120818293Y-58964621D01*
X120747768Y-58972792D01*
X120684021Y-58941538D01*
X120663324Y-58917054D01*
X120582822Y-58792617D01*
X120582820Y-58792614D01*
X120580014Y-58788277D01*
X120429670Y-58623051D01*
X120425619Y-58619852D01*
X120425615Y-58619848D01*
X120258414Y-58487800D01*
X120258410Y-58487798D01*
X120254359Y-58484598D01*
X120213053Y-58461796D01*
X120163084Y-58411364D01*
X120148312Y-58341921D01*
X120173428Y-58275516D01*
X120200780Y-58248909D01*
X120244603Y-58217650D01*
X120379860Y-58121173D01*
X120538096Y-57963489D01*
X120597594Y-57880689D01*
X120668453Y-57782077D01*
X120669776Y-57783028D01*
X120716645Y-57739857D01*
X120786580Y-57727625D01*
X120852026Y-57755144D01*
G37*
%TD.AperFunction*%
%TA.AperFunction,NonConductor*%
G36*
X103352026Y-57755144D02*
G01*
X103379875Y-57786994D01*
X103439987Y-57885088D01*
X103586250Y-58053938D01*
X103758126Y-58196632D01*
X103828595Y-58237811D01*
X103831445Y-58239476D01*
X103880169Y-58291114D01*
X103893240Y-58360897D01*
X103866509Y-58426669D01*
X103826055Y-58460027D01*
X103813607Y-58466507D01*
X103809474Y-58469610D01*
X103809471Y-58469612D01*
X103785247Y-58487800D01*
X103634965Y-58600635D01*
X103480629Y-58762138D01*
X103373201Y-58919621D01*
X103318293Y-58964621D01*
X103247768Y-58972792D01*
X103184021Y-58941538D01*
X103163324Y-58917054D01*
X103082822Y-58792617D01*
X103082820Y-58792614D01*
X103080014Y-58788277D01*
X102929670Y-58623051D01*
X102925619Y-58619852D01*
X102925615Y-58619848D01*
X102758414Y-58487800D01*
X102758410Y-58487798D01*
X102754359Y-58484598D01*
X102713053Y-58461796D01*
X102663084Y-58411364D01*
X102648312Y-58341921D01*
X102673428Y-58275516D01*
X102700780Y-58248909D01*
X102744603Y-58217650D01*
X102879860Y-58121173D01*
X103038096Y-57963489D01*
X103097594Y-57880689D01*
X103168453Y-57782077D01*
X103169776Y-57783028D01*
X103216645Y-57739857D01*
X103286580Y-57727625D01*
X103352026Y-57755144D01*
G37*
%TD.AperFunction*%
%TA.AperFunction,NonConductor*%
G36*
X123437334Y-57643819D02*
G01*
X123482162Y-57698873D01*
X123492000Y-57747682D01*
X123492000Y-58946519D01*
X123471998Y-59014640D01*
X123418342Y-59061133D01*
X123348068Y-59071237D01*
X123283488Y-59041743D01*
X123250452Y-58996764D01*
X123241354Y-58975840D01*
X123120014Y-58788277D01*
X122969670Y-58623051D01*
X122965619Y-58619852D01*
X122965615Y-58619848D01*
X122798414Y-58487800D01*
X122798410Y-58487798D01*
X122794359Y-58484598D01*
X122753053Y-58461796D01*
X122703084Y-58411364D01*
X122688312Y-58341921D01*
X122713428Y-58275516D01*
X122740780Y-58248909D01*
X122784603Y-58217650D01*
X122919860Y-58121173D01*
X123078096Y-57963489D01*
X123137594Y-57880689D01*
X123205435Y-57786277D01*
X123208453Y-57782077D01*
X123253044Y-57691854D01*
X123301156Y-57639648D01*
X123369857Y-57621741D01*
X123437334Y-57643819D01*
G37*
%TD.AperFunction*%
%TA.AperFunction,NonConductor*%
G36*
X100716512Y-57566701D02*
G01*
X100750743Y-57614521D01*
X100783266Y-57694616D01*
X100825171Y-57762999D01*
X100897291Y-57880688D01*
X100899987Y-57885088D01*
X101046250Y-58053938D01*
X101218126Y-58196632D01*
X101288595Y-58237811D01*
X101291445Y-58239476D01*
X101340169Y-58291114D01*
X101353240Y-58360897D01*
X101326509Y-58426669D01*
X101286055Y-58460027D01*
X101273607Y-58466507D01*
X101269474Y-58469610D01*
X101269471Y-58469612D01*
X101245247Y-58487800D01*
X101094965Y-58600635D01*
X100940629Y-58762138D01*
X100814743Y-58946680D01*
X100761616Y-59061133D01*
X100748288Y-59089846D01*
X100701464Y-59143213D01*
X100633221Y-59162794D01*
X100565225Y-59142371D01*
X100519065Y-59088428D01*
X100508000Y-59036796D01*
X100508000Y-57661925D01*
X100528002Y-57593804D01*
X100581658Y-57547311D01*
X100651932Y-57537207D01*
X100716512Y-57566701D01*
G37*
%TD.AperFunction*%
%TA.AperFunction,NonConductor*%
G36*
X120852026Y-60295144D02*
G01*
X120879875Y-60326994D01*
X120939987Y-60425088D01*
X121086250Y-60593938D01*
X121258126Y-60736632D01*
X121317690Y-60771438D01*
X121331445Y-60779476D01*
X121380169Y-60831114D01*
X121393240Y-60900897D01*
X121366509Y-60966669D01*
X121326055Y-61000027D01*
X121313607Y-61006507D01*
X121309474Y-61009610D01*
X121309471Y-61009612D01*
X121287856Y-61025841D01*
X121134965Y-61140635D01*
X120980629Y-61302138D01*
X120873201Y-61459621D01*
X120818293Y-61504621D01*
X120747768Y-61512792D01*
X120684021Y-61481538D01*
X120663324Y-61457054D01*
X120582822Y-61332617D01*
X120582820Y-61332614D01*
X120580014Y-61328277D01*
X120429670Y-61163051D01*
X120425619Y-61159852D01*
X120425615Y-61159848D01*
X120258414Y-61027800D01*
X120258410Y-61027798D01*
X120254359Y-61024598D01*
X120213053Y-61001796D01*
X120163084Y-60951364D01*
X120148312Y-60881921D01*
X120173428Y-60815516D01*
X120200780Y-60788909D01*
X120263418Y-60744230D01*
X120379860Y-60661173D01*
X120383701Y-60657346D01*
X120534435Y-60507137D01*
X120538096Y-60503489D01*
X120597594Y-60420689D01*
X120668453Y-60322077D01*
X120669776Y-60323028D01*
X120716645Y-60279857D01*
X120786580Y-60267625D01*
X120852026Y-60295144D01*
G37*
%TD.AperFunction*%
%TA.AperFunction,NonConductor*%
G36*
X123437334Y-60183819D02*
G01*
X123482162Y-60238873D01*
X123492000Y-60287682D01*
X123492000Y-61486519D01*
X123471998Y-61554640D01*
X123418342Y-61601133D01*
X123348068Y-61611237D01*
X123283488Y-61581743D01*
X123250452Y-61536764D01*
X123241354Y-61515840D01*
X123120014Y-61328277D01*
X122969670Y-61163051D01*
X122965619Y-61159852D01*
X122965615Y-61159848D01*
X122798414Y-61027800D01*
X122798410Y-61027798D01*
X122794359Y-61024598D01*
X122753053Y-61001796D01*
X122703084Y-60951364D01*
X122688312Y-60881921D01*
X122713428Y-60815516D01*
X122740780Y-60788909D01*
X122803418Y-60744230D01*
X122919860Y-60661173D01*
X122923701Y-60657346D01*
X123074435Y-60507137D01*
X123078096Y-60503489D01*
X123137594Y-60420689D01*
X123205435Y-60326277D01*
X123208453Y-60322077D01*
X123253044Y-60231854D01*
X123301156Y-60179648D01*
X123369857Y-60161741D01*
X123437334Y-60183819D01*
G37*
%TD.AperFunction*%
%TA.AperFunction,NonConductor*%
G36*
X100716512Y-60106701D02*
G01*
X100750743Y-60154521D01*
X100776603Y-60218206D01*
X100783266Y-60234616D01*
X100820810Y-60295882D01*
X100897291Y-60420688D01*
X100899987Y-60425088D01*
X101046250Y-60593938D01*
X101218126Y-60736632D01*
X101277690Y-60771438D01*
X101291445Y-60779476D01*
X101340169Y-60831114D01*
X101353240Y-60900897D01*
X101326509Y-60966669D01*
X101286055Y-61000027D01*
X101273607Y-61006507D01*
X101269474Y-61009610D01*
X101269471Y-61009612D01*
X101247856Y-61025841D01*
X101094965Y-61140635D01*
X100940629Y-61302138D01*
X100814743Y-61486680D01*
X100761616Y-61601133D01*
X100748288Y-61629846D01*
X100701464Y-61683213D01*
X100633221Y-61702794D01*
X100565225Y-61682371D01*
X100519065Y-61628428D01*
X100508000Y-61576796D01*
X100508000Y-60201925D01*
X100528002Y-60133804D01*
X100581658Y-60087311D01*
X100651932Y-60077207D01*
X100716512Y-60106701D01*
G37*
%TD.AperFunction*%
%TA.AperFunction,NonConductor*%
G36*
X110620422Y-62241002D02*
G01*
X110659445Y-62280698D01*
X110673884Y-62304031D01*
X110679066Y-62309204D01*
X110780786Y-62410747D01*
X110814865Y-62473030D01*
X110809862Y-62543850D01*
X110780941Y-62588937D01*
X110678246Y-62691812D01*
X110678242Y-62691817D01*
X110673071Y-62696997D01*
X110669229Y-62703229D01*
X110669228Y-62703231D01*
X110639562Y-62751357D01*
X110586790Y-62798850D01*
X110516718Y-62810272D01*
X110451595Y-62781998D01*
X110412095Y-62723004D01*
X110406976Y-62698243D01*
X110404441Y-62673804D01*
X110401730Y-62647680D01*
X110398419Y-62615766D01*
X110398418Y-62615763D01*
X110397707Y-62608907D01*
X110391045Y-62588937D01*
X110344972Y-62450841D01*
X110342654Y-62443893D01*
X110323723Y-62413301D01*
X110304886Y-62344852D01*
X110326047Y-62277082D01*
X110380487Y-62231511D01*
X110430868Y-62221000D01*
X110552301Y-62221000D01*
X110620422Y-62241002D01*
G37*
%TD.AperFunction*%
%TA.AperFunction,NonConductor*%
G36*
X118348562Y-50528002D02*
G01*
X118395055Y-50581658D01*
X118405159Y-50651932D01*
X118375665Y-50716512D01*
X118356006Y-50734826D01*
X118323568Y-50759137D01*
X118286739Y-50786739D01*
X118199385Y-50903295D01*
X118148255Y-51039684D01*
X118141500Y-51101866D01*
X118141500Y-52898134D01*
X118148255Y-52960316D01*
X118199385Y-53096705D01*
X118286739Y-53213261D01*
X118403295Y-53300615D01*
X118411704Y-53303767D01*
X118411705Y-53303768D01*
X118520451Y-53344535D01*
X118577216Y-53387176D01*
X118601916Y-53453738D01*
X118586709Y-53523087D01*
X118567316Y-53549568D01*
X118440629Y-53682138D01*
X118314743Y-53866680D01*
X118299006Y-53900583D01*
X118223516Y-54063213D01*
X118220688Y-54069305D01*
X118160989Y-54284570D01*
X118137251Y-54506695D01*
X118137548Y-54511848D01*
X118137548Y-54511851D01*
X118147816Y-54689928D01*
X118150110Y-54729715D01*
X118151247Y-54734761D01*
X118151248Y-54734767D01*
X118171119Y-54822939D01*
X118199222Y-54947639D01*
X118235485Y-55036944D01*
X118273647Y-55130926D01*
X118283266Y-55154616D01*
X118334019Y-55237438D01*
X118397291Y-55340688D01*
X118399987Y-55345088D01*
X118546250Y-55513938D01*
X118718126Y-55656632D01*
X118788595Y-55697811D01*
X118791445Y-55699476D01*
X118840169Y-55751114D01*
X118853240Y-55820897D01*
X118826509Y-55886669D01*
X118786055Y-55920027D01*
X118773607Y-55926507D01*
X118769474Y-55929610D01*
X118769471Y-55929612D01*
X118745247Y-55947800D01*
X118594965Y-56060635D01*
X118440629Y-56222138D01*
X118314743Y-56406680D01*
X118299006Y-56440583D01*
X118223516Y-56603213D01*
X118220688Y-56609305D01*
X118160989Y-56824570D01*
X118137251Y-57046695D01*
X118137548Y-57051848D01*
X118137548Y-57051851D01*
X118144310Y-57169128D01*
X118150110Y-57269715D01*
X118151247Y-57274761D01*
X118151248Y-57274767D01*
X118171119Y-57362939D01*
X118199222Y-57487639D01*
X118283266Y-57694616D01*
X118325171Y-57762999D01*
X118397291Y-57880688D01*
X118399987Y-57885088D01*
X118546250Y-58053938D01*
X118718126Y-58196632D01*
X118788595Y-58237811D01*
X118791445Y-58239476D01*
X118840169Y-58291114D01*
X118853240Y-58360897D01*
X118826509Y-58426669D01*
X118786055Y-58460027D01*
X118773607Y-58466507D01*
X118769474Y-58469610D01*
X118769471Y-58469612D01*
X118745247Y-58487800D01*
X118594965Y-58600635D01*
X118440629Y-58762138D01*
X118314743Y-58946680D01*
X118299006Y-58980583D01*
X118223516Y-59143213D01*
X118220688Y-59149305D01*
X118160989Y-59364570D01*
X118137251Y-59586695D01*
X118137548Y-59591848D01*
X118137548Y-59591851D01*
X118143011Y-59686590D01*
X118150110Y-59809715D01*
X118151247Y-59814761D01*
X118151248Y-59814767D01*
X118171119Y-59902939D01*
X118199222Y-60027639D01*
X118237461Y-60121811D01*
X118276603Y-60218206D01*
X118283266Y-60234616D01*
X118320810Y-60295882D01*
X118397291Y-60420688D01*
X118399987Y-60425088D01*
X118546250Y-60593938D01*
X118718126Y-60736632D01*
X118777690Y-60771438D01*
X118791445Y-60779476D01*
X118840169Y-60831114D01*
X118853240Y-60900897D01*
X118826509Y-60966669D01*
X118786055Y-61000027D01*
X118773607Y-61006507D01*
X118769474Y-61009610D01*
X118769471Y-61009612D01*
X118747856Y-61025841D01*
X118594965Y-61140635D01*
X118440629Y-61302138D01*
X118314743Y-61486680D01*
X118299006Y-61520583D01*
X118223516Y-61683213D01*
X118220688Y-61689305D01*
X118160989Y-61904570D01*
X118137251Y-62126695D01*
X118137548Y-62131848D01*
X118137548Y-62131851D01*
X118143842Y-62241002D01*
X118150110Y-62349715D01*
X118151247Y-62354761D01*
X118151248Y-62354767D01*
X118167328Y-62426116D01*
X118199222Y-62567639D01*
X118252254Y-62698243D01*
X118276603Y-62758206D01*
X118283266Y-62774616D01*
X118320810Y-62835882D01*
X118397291Y-62960688D01*
X118399987Y-62965088D01*
X118546250Y-63133938D01*
X118718126Y-63276632D01*
X118911000Y-63389338D01*
X119119692Y-63469030D01*
X119124760Y-63470061D01*
X119124763Y-63470062D01*
X119232003Y-63491880D01*
X119338597Y-63513567D01*
X119343772Y-63513757D01*
X119343774Y-63513757D01*
X119556673Y-63521564D01*
X119556677Y-63521564D01*
X119561837Y-63521753D01*
X119566957Y-63521097D01*
X119566959Y-63521097D01*
X119778288Y-63494025D01*
X119778289Y-63494025D01*
X119783416Y-63493368D01*
X119832920Y-63478516D01*
X119992429Y-63430661D01*
X119992434Y-63430659D01*
X119997384Y-63429174D01*
X120197994Y-63330896D01*
X120379860Y-63201173D01*
X120538096Y-63043489D01*
X120597594Y-62960689D01*
X120668453Y-62862077D01*
X120669776Y-62863028D01*
X120716645Y-62819857D01*
X120786580Y-62807625D01*
X120852026Y-62835144D01*
X120879875Y-62866994D01*
X120939987Y-62965088D01*
X121086250Y-63133938D01*
X121258126Y-63276632D01*
X121451000Y-63389338D01*
X121659692Y-63469030D01*
X121664760Y-63470061D01*
X121664763Y-63470062D01*
X121772003Y-63491880D01*
X121878597Y-63513567D01*
X121883772Y-63513757D01*
X121883774Y-63513757D01*
X122096673Y-63521564D01*
X122096677Y-63521564D01*
X122101837Y-63521753D01*
X122106957Y-63521097D01*
X122106959Y-63521097D01*
X122318288Y-63494025D01*
X122318289Y-63494025D01*
X122323416Y-63493368D01*
X122372920Y-63478516D01*
X122532429Y-63430661D01*
X122532434Y-63430659D01*
X122537384Y-63429174D01*
X122737994Y-63330896D01*
X122919860Y-63201173D01*
X123078096Y-63043489D01*
X123137594Y-62960689D01*
X123205435Y-62866277D01*
X123208453Y-62862077D01*
X123253044Y-62771854D01*
X123301156Y-62719648D01*
X123369857Y-62701741D01*
X123437334Y-62723819D01*
X123482162Y-62778873D01*
X123492000Y-62827682D01*
X123492000Y-65044961D01*
X123471998Y-65113082D01*
X123418342Y-65159575D01*
X123348068Y-65169679D01*
X123314751Y-65160068D01*
X123261819Y-65136501D01*
X123261818Y-65136501D01*
X123255788Y-65133816D01*
X123158243Y-65113082D01*
X123075444Y-65095482D01*
X123075439Y-65095482D01*
X123068987Y-65094110D01*
X122878013Y-65094110D01*
X122871561Y-65095482D01*
X122871556Y-65095482D01*
X122788757Y-65113082D01*
X122691212Y-65133816D01*
X122685182Y-65136501D01*
X122685181Y-65136501D01*
X122522778Y-65208807D01*
X122522776Y-65208808D01*
X122516748Y-65211492D01*
X122362247Y-65323744D01*
X122357826Y-65328654D01*
X122357825Y-65328655D01*
X122298380Y-65394676D01*
X122234460Y-65465666D01*
X122138973Y-65631054D01*
X122079958Y-65812682D01*
X122059996Y-66002610D01*
X122060686Y-66009175D01*
X122062489Y-66026325D01*
X122079958Y-66192538D01*
X122138973Y-66374166D01*
X122142276Y-66379888D01*
X122142277Y-66379889D01*
X122189820Y-66462236D01*
X122206558Y-66531232D01*
X122189820Y-66588236D01*
X122171844Y-66619372D01*
X122165513Y-66630337D01*
X122106498Y-66811965D01*
X122105808Y-66818526D01*
X122105808Y-66818528D01*
X122089204Y-66976505D01*
X122062191Y-67042162D01*
X122055748Y-67049583D01*
X122046361Y-67059580D01*
X122043602Y-67062426D01*
X122023865Y-67082163D01*
X122021385Y-67085360D01*
X122013682Y-67094380D01*
X121983414Y-67126612D01*
X121979595Y-67133558D01*
X121979593Y-67133561D01*
X121973652Y-67144367D01*
X121962801Y-67160886D01*
X121950386Y-67176892D01*
X121947241Y-67184161D01*
X121947238Y-67184165D01*
X121932826Y-67217470D01*
X121927609Y-67228120D01*
X121906305Y-67266873D01*
X121904334Y-67274548D01*
X121904334Y-67274549D01*
X121901267Y-67286495D01*
X121894863Y-67305199D01*
X121886819Y-67323788D01*
X121884620Y-67322837D01*
X121852843Y-67372591D01*
X121809939Y-67397123D01*
X121701054Y-67433450D01*
X121633316Y-67475368D01*
X121566421Y-67516764D01*
X121497969Y-67535602D01*
X121434002Y-67516880D01*
X121303968Y-67436725D01*
X121303966Y-67436724D01*
X121297738Y-67432885D01*
X121217995Y-67406436D01*
X121136389Y-67379368D01*
X121136387Y-67379368D01*
X121129861Y-67377203D01*
X121123025Y-67376503D01*
X121123022Y-67376502D01*
X121079969Y-67372091D01*
X121025400Y-67366500D01*
X119974600Y-67366500D01*
X119971354Y-67366837D01*
X119971350Y-67366837D01*
X119875692Y-67376762D01*
X119875688Y-67376763D01*
X119868834Y-67377474D01*
X119862298Y-67379655D01*
X119862296Y-67379655D01*
X119730194Y-67423728D01*
X119701054Y-67433450D01*
X119633316Y-67475368D01*
X119566421Y-67516764D01*
X119497969Y-67535602D01*
X119434002Y-67516880D01*
X119303968Y-67436725D01*
X119303966Y-67436724D01*
X119297738Y-67432885D01*
X119217995Y-67406436D01*
X119136389Y-67379368D01*
X119136387Y-67379368D01*
X119129861Y-67377203D01*
X119123025Y-67376503D01*
X119123022Y-67376502D01*
X119079969Y-67372091D01*
X119025400Y-67366500D01*
X118526726Y-67366500D01*
X118458605Y-67346498D01*
X118412112Y-67292842D01*
X118406893Y-67279436D01*
X118388531Y-67222922D01*
X118366443Y-67154944D01*
X118360337Y-67144367D01*
X118286181Y-67015926D01*
X118270956Y-66989556D01*
X118143169Y-66847634D01*
X117988668Y-66735382D01*
X117982640Y-66732698D01*
X117982638Y-66732697D01*
X117820235Y-66660391D01*
X117820234Y-66660391D01*
X117814204Y-66657706D01*
X117706069Y-66634721D01*
X117633860Y-66619372D01*
X117633855Y-66619372D01*
X117627403Y-66618000D01*
X117491531Y-66618000D01*
X117423410Y-66597998D01*
X117376917Y-66544342D01*
X117372007Y-66531876D01*
X117371793Y-66531232D01*
X117342654Y-66443893D01*
X117251116Y-66295969D01*
X117188538Y-66233500D01*
X117133184Y-66178242D01*
X117133179Y-66178238D01*
X117128003Y-66173071D01*
X116979920Y-66081791D01*
X116814809Y-66027026D01*
X116807973Y-66026326D01*
X116807970Y-66026325D01*
X116756474Y-66021049D01*
X116712072Y-66016500D01*
X116657950Y-66016500D01*
X116589829Y-65996498D01*
X116543336Y-65942842D01*
X116533232Y-65872568D01*
X116550690Y-65824384D01*
X116563275Y-65803968D01*
X116563276Y-65803966D01*
X116567115Y-65797738D01*
X116611538Y-65663805D01*
X116620632Y-65636389D01*
X116620632Y-65636387D01*
X116622797Y-65629861D01*
X116633500Y-65525400D01*
X116633500Y-65315928D01*
X116653502Y-65247807D01*
X116707158Y-65201314D01*
X116777432Y-65191210D01*
X116810746Y-65200820D01*
X116901962Y-65241432D01*
X116921265Y-65250026D01*
X116938712Y-65257794D01*
X117015369Y-65274088D01*
X117119056Y-65296128D01*
X117119061Y-65296128D01*
X117125513Y-65297500D01*
X117316487Y-65297500D01*
X117322939Y-65296128D01*
X117322944Y-65296128D01*
X117426631Y-65274088D01*
X117503288Y-65257794D01*
X117509319Y-65255109D01*
X117671722Y-65182803D01*
X117671724Y-65182802D01*
X117677752Y-65180118D01*
X117705349Y-65160068D01*
X117763043Y-65118150D01*
X117832253Y-65067866D01*
X117900386Y-64992197D01*
X117955621Y-64930852D01*
X117955622Y-64930851D01*
X117960040Y-64925944D01*
X118055527Y-64760556D01*
X118114542Y-64578928D01*
X118134504Y-64389000D01*
X118116337Y-64216146D01*
X118115232Y-64205635D01*
X118115232Y-64205633D01*
X118114542Y-64199072D01*
X118055527Y-64017444D01*
X118033863Y-63979920D01*
X117996642Y-63915452D01*
X117960040Y-63852056D01*
X117832253Y-63710134D01*
X117677752Y-63597882D01*
X117674768Y-63596553D01*
X117626630Y-63546065D01*
X117613314Y-63501502D01*
X117607232Y-63443636D01*
X117607232Y-63443635D01*
X117606542Y-63437072D01*
X117591603Y-63391093D01*
X117556742Y-63283806D01*
X117547527Y-63255444D01*
X117517925Y-63204171D01*
X117477375Y-63133938D01*
X117452040Y-63090056D01*
X117339519Y-62965088D01*
X117328675Y-62953045D01*
X117328674Y-62953044D01*
X117324253Y-62948134D01*
X117169752Y-62835882D01*
X117163724Y-62833198D01*
X117163722Y-62833197D01*
X117001319Y-62760891D01*
X117001318Y-62760891D01*
X116995288Y-62758206D01*
X116901887Y-62738353D01*
X116814944Y-62719872D01*
X116814939Y-62719872D01*
X116808487Y-62718500D01*
X116759500Y-62718500D01*
X116691379Y-62698498D01*
X116644886Y-62644842D01*
X116633500Y-62592500D01*
X116633500Y-62474600D01*
X116628554Y-62426929D01*
X116623238Y-62375692D01*
X116623237Y-62375688D01*
X116622526Y-62368834D01*
X116616148Y-62349715D01*
X116568868Y-62208002D01*
X116566550Y-62201054D01*
X116473478Y-62050652D01*
X116348303Y-61925695D01*
X116342072Y-61921854D01*
X116203968Y-61836725D01*
X116203966Y-61836724D01*
X116197738Y-61832885D01*
X116110091Y-61803814D01*
X116036389Y-61779368D01*
X116036387Y-61779368D01*
X116029861Y-61777203D01*
X116023025Y-61776503D01*
X116023022Y-61776502D01*
X115979969Y-61772091D01*
X115925400Y-61766500D01*
X115149600Y-61766500D01*
X115146354Y-61766837D01*
X115146350Y-61766837D01*
X115050692Y-61776762D01*
X115050688Y-61776763D01*
X115043834Y-61777474D01*
X115037298Y-61779655D01*
X115037296Y-61779655D01*
X114934128Y-61814075D01*
X114876054Y-61833450D01*
X114725652Y-61926522D01*
X114600695Y-62051697D01*
X114598094Y-62055916D01*
X114540970Y-62096417D01*
X114470047Y-62099649D01*
X114408635Y-62064024D01*
X114402078Y-62056470D01*
X114398478Y-62050652D01*
X114273303Y-61925695D01*
X114155883Y-61853316D01*
X114108391Y-61800545D01*
X114096000Y-61746057D01*
X114096000Y-57852094D01*
X114116002Y-57783973D01*
X114132905Y-57762999D01*
X116450499Y-55445405D01*
X116512811Y-55411379D01*
X116539594Y-55408500D01*
X116595487Y-55408500D01*
X116601939Y-55407128D01*
X116601944Y-55407128D01*
X116688888Y-55388647D01*
X116782288Y-55368794D01*
X116835533Y-55345088D01*
X116950722Y-55293803D01*
X116950724Y-55293802D01*
X116956752Y-55291118D01*
X117111253Y-55178866D01*
X117115675Y-55173955D01*
X117234621Y-55041852D01*
X117234622Y-55041851D01*
X117239040Y-55036944D01*
X117334527Y-54871556D01*
X117393542Y-54689928D01*
X117413504Y-54500000D01*
X117393542Y-54310072D01*
X117334527Y-54128444D01*
X117239040Y-53963056D01*
X117233404Y-53956796D01*
X117115675Y-53826045D01*
X117115674Y-53826044D01*
X117111253Y-53821134D01*
X116956752Y-53708882D01*
X116950724Y-53706198D01*
X116950722Y-53706197D01*
X116788319Y-53633891D01*
X116788318Y-53633891D01*
X116782288Y-53631206D01*
X116688888Y-53611353D01*
X116601944Y-53592872D01*
X116601939Y-53592872D01*
X116595487Y-53591500D01*
X116404513Y-53591500D01*
X116398061Y-53592872D01*
X116398056Y-53592872D01*
X116311112Y-53611353D01*
X116217712Y-53631206D01*
X116211682Y-53633891D01*
X116211681Y-53633891D01*
X116049278Y-53706197D01*
X116049276Y-53706198D01*
X116043248Y-53708882D01*
X115888747Y-53821134D01*
X115884326Y-53826044D01*
X115884325Y-53826045D01*
X115766597Y-53956796D01*
X115760960Y-53963056D01*
X115665473Y-54128444D01*
X115606458Y-54310072D01*
X115605768Y-54316633D01*
X115605768Y-54316635D01*
X115589093Y-54475293D01*
X115562080Y-54540950D01*
X115552878Y-54551218D01*
X113070247Y-57033848D01*
X113061961Y-57041388D01*
X113055482Y-57045500D01*
X113050057Y-57051277D01*
X113008857Y-57095151D01*
X113006102Y-57097993D01*
X112986365Y-57117730D01*
X112983885Y-57120927D01*
X112976182Y-57129947D01*
X112945914Y-57162179D01*
X112942095Y-57169125D01*
X112942093Y-57169128D01*
X112936152Y-57179934D01*
X112925301Y-57196453D01*
X112912886Y-57212459D01*
X112909741Y-57219728D01*
X112909738Y-57219732D01*
X112895326Y-57253037D01*
X112890109Y-57263687D01*
X112868805Y-57302440D01*
X112866834Y-57310115D01*
X112866834Y-57310116D01*
X112863767Y-57322062D01*
X112857363Y-57340766D01*
X112849319Y-57359355D01*
X112848080Y-57367178D01*
X112848077Y-57367188D01*
X112842401Y-57403024D01*
X112839995Y-57414644D01*
X112829000Y-57457470D01*
X112829000Y-57477724D01*
X112827449Y-57497434D01*
X112824280Y-57517443D01*
X112825026Y-57525335D01*
X112828441Y-57561461D01*
X112829000Y-57573319D01*
X112829000Y-61745954D01*
X112808998Y-61814075D01*
X112769303Y-61853098D01*
X112675803Y-61910958D01*
X112607351Y-61929796D01*
X112539582Y-61908635D01*
X112494010Y-61854194D01*
X112483500Y-61803814D01*
X112483500Y-61287928D01*
X112472707Y-61183907D01*
X112464681Y-61159848D01*
X112419972Y-61025841D01*
X112417654Y-61018893D01*
X112326116Y-60870969D01*
X112293006Y-60837917D01*
X112208184Y-60753242D01*
X112208179Y-60753238D01*
X112203003Y-60748071D01*
X112170048Y-60727757D01*
X112061150Y-60660631D01*
X112061148Y-60660630D01*
X112054920Y-60656791D01*
X111889809Y-60602026D01*
X111882973Y-60601326D01*
X111882970Y-60601325D01*
X111831474Y-60596049D01*
X111787072Y-60591500D01*
X111212928Y-60591500D01*
X111209682Y-60591837D01*
X111209678Y-60591837D01*
X111115765Y-60601581D01*
X111115761Y-60601582D01*
X111108907Y-60602293D01*
X111102371Y-60604474D01*
X111102369Y-60604474D01*
X110969605Y-60648768D01*
X110943893Y-60657346D01*
X110795969Y-60748884D01*
X110790796Y-60754066D01*
X110773454Y-60771438D01*
X110711171Y-60805517D01*
X110640351Y-60800514D01*
X110583478Y-60758016D01*
X110567673Y-60727570D01*
X110567253Y-60727757D01*
X110564568Y-60721726D01*
X110562527Y-60715444D01*
X110532925Y-60664171D01*
X110490968Y-60591500D01*
X110467040Y-60550056D01*
X110354519Y-60425088D01*
X110343675Y-60413045D01*
X110343674Y-60413044D01*
X110339253Y-60408134D01*
X110184752Y-60295882D01*
X110178724Y-60293198D01*
X110178722Y-60293197D01*
X110016319Y-60220891D01*
X110016318Y-60220891D01*
X110010288Y-60218206D01*
X109916887Y-60198353D01*
X109829944Y-60179872D01*
X109829939Y-60179872D01*
X109823487Y-60178500D01*
X109632513Y-60178500D01*
X109626061Y-60179872D01*
X109626056Y-60179872D01*
X109539113Y-60198353D01*
X109445712Y-60218206D01*
X109439682Y-60220891D01*
X109439681Y-60220891D01*
X109277278Y-60293197D01*
X109277276Y-60293198D01*
X109271248Y-60295882D01*
X109116747Y-60408134D01*
X109112326Y-60413044D01*
X109112325Y-60413045D01*
X109101482Y-60425088D01*
X108988960Y-60550056D01*
X108965032Y-60591500D01*
X108923076Y-60664171D01*
X108893473Y-60715444D01*
X108875279Y-60771438D01*
X108863026Y-60809150D01*
X108832288Y-60859308D01*
X107712000Y-61979595D01*
X107649688Y-62013621D01*
X107622905Y-62016500D01*
X107287928Y-62016500D01*
X107284682Y-62016837D01*
X107284678Y-62016837D01*
X107190765Y-62026581D01*
X107190761Y-62026582D01*
X107183907Y-62027293D01*
X107177371Y-62029474D01*
X107177369Y-62029474D01*
X107110759Y-62051697D01*
X107018893Y-62082346D01*
X106870969Y-62173884D01*
X106865796Y-62179066D01*
X106753242Y-62291816D01*
X106753238Y-62291821D01*
X106748071Y-62296997D01*
X106744231Y-62303227D01*
X106744230Y-62303228D01*
X106668481Y-62426116D01*
X106656791Y-62445080D01*
X106602026Y-62610191D01*
X106591500Y-62712928D01*
X106591500Y-63287072D01*
X106591837Y-63290318D01*
X106591837Y-63290322D01*
X106600139Y-63370330D01*
X106602293Y-63391093D01*
X106604474Y-63397629D01*
X106604474Y-63397631D01*
X106627679Y-63467185D01*
X106657346Y-63556107D01*
X106736237Y-63683593D01*
X106755073Y-63752043D01*
X106736351Y-63816010D01*
X106668505Y-63926077D01*
X106656791Y-63945080D01*
X106602026Y-64110191D01*
X106591500Y-64212928D01*
X106591500Y-64787072D01*
X106591837Y-64790318D01*
X106591837Y-64790322D01*
X106600883Y-64877500D01*
X106602293Y-64891093D01*
X106602318Y-64891167D01*
X106597338Y-64959343D01*
X106554705Y-65016115D01*
X106488147Y-65040824D01*
X106418796Y-65025628D01*
X106405297Y-65017074D01*
X106374752Y-64994882D01*
X106368724Y-64992198D01*
X106368722Y-64992197D01*
X106206319Y-64919891D01*
X106206318Y-64919891D01*
X106200288Y-64917206D01*
X106106888Y-64897353D01*
X106019944Y-64878872D01*
X106019939Y-64878872D01*
X106013487Y-64877500D01*
X105880500Y-64877500D01*
X105812379Y-64857498D01*
X105765886Y-64803842D01*
X105754500Y-64751500D01*
X105754500Y-64339100D01*
X105743526Y-64233334D01*
X105687550Y-64065554D01*
X105594478Y-63915152D01*
X105469303Y-63790195D01*
X105442691Y-63773791D01*
X105324968Y-63701225D01*
X105324966Y-63701224D01*
X105318738Y-63697385D01*
X105230573Y-63668142D01*
X105157389Y-63643868D01*
X105157387Y-63643868D01*
X105150861Y-63641703D01*
X105144018Y-63641002D01*
X105144014Y-63641001D01*
X105136066Y-63640186D01*
X105070340Y-63613343D01*
X105029560Y-63555226D01*
X105026674Y-63484289D01*
X105062598Y-63423051D01*
X105093474Y-63401696D01*
X105237994Y-63330896D01*
X105419860Y-63201173D01*
X105578096Y-63043489D01*
X105637594Y-62960689D01*
X105705435Y-62866277D01*
X105708453Y-62862077D01*
X105716854Y-62845080D01*
X105805136Y-62666453D01*
X105805137Y-62666451D01*
X105807430Y-62661811D01*
X105872370Y-62448069D01*
X105901529Y-62226590D01*
X105901983Y-62208002D01*
X105903074Y-62163365D01*
X105903074Y-62163361D01*
X105903156Y-62160000D01*
X105884852Y-61937361D01*
X105830431Y-61720702D01*
X105741354Y-61515840D01*
X105620014Y-61328277D01*
X105469670Y-61163051D01*
X105465619Y-61159852D01*
X105465615Y-61159848D01*
X105298414Y-61027800D01*
X105298410Y-61027798D01*
X105294359Y-61024598D01*
X105253053Y-61001796D01*
X105203084Y-60951364D01*
X105188312Y-60881921D01*
X105213428Y-60815516D01*
X105240780Y-60788909D01*
X105303418Y-60744230D01*
X105419860Y-60661173D01*
X105423701Y-60657346D01*
X105574435Y-60507137D01*
X105578096Y-60503489D01*
X105637594Y-60420689D01*
X105705435Y-60326277D01*
X105708453Y-60322077D01*
X105721400Y-60295882D01*
X105805136Y-60126453D01*
X105805137Y-60126451D01*
X105807430Y-60121811D01*
X105872370Y-59908069D01*
X105901529Y-59686590D01*
X105903156Y-59620000D01*
X105884852Y-59397361D01*
X105830431Y-59180702D01*
X105741354Y-58975840D01*
X105620014Y-58788277D01*
X105469670Y-58623051D01*
X105465619Y-58619852D01*
X105465615Y-58619848D01*
X105298414Y-58487800D01*
X105298410Y-58487798D01*
X105294359Y-58484598D01*
X105253053Y-58461796D01*
X105203084Y-58411364D01*
X105188312Y-58341921D01*
X105213428Y-58275516D01*
X105240780Y-58248909D01*
X105284603Y-58217650D01*
X105419860Y-58121173D01*
X105578096Y-57963489D01*
X105637594Y-57880689D01*
X105705435Y-57786277D01*
X105708453Y-57782077D01*
X105729320Y-57739857D01*
X105805136Y-57586453D01*
X105805137Y-57586451D01*
X105807430Y-57581811D01*
X105845208Y-57457470D01*
X105870865Y-57373023D01*
X105870865Y-57373021D01*
X105872370Y-57368069D01*
X105901529Y-57146590D01*
X105901936Y-57129949D01*
X105903074Y-57083365D01*
X105903074Y-57083361D01*
X105903156Y-57080000D01*
X105884852Y-56857361D01*
X105830431Y-56640702D01*
X105741354Y-56435840D01*
X105620014Y-56248277D01*
X105469670Y-56083051D01*
X105465619Y-56079852D01*
X105465615Y-56079848D01*
X105298414Y-55947800D01*
X105298410Y-55947798D01*
X105294359Y-55944598D01*
X105253053Y-55921796D01*
X105203084Y-55871364D01*
X105188312Y-55801921D01*
X105213428Y-55735516D01*
X105240780Y-55708909D01*
X105284603Y-55677650D01*
X105419860Y-55581173D01*
X105578096Y-55423489D01*
X105619328Y-55366109D01*
X105705435Y-55246277D01*
X105708453Y-55242077D01*
X105729320Y-55199857D01*
X105805136Y-55046453D01*
X105805137Y-55046451D01*
X105807430Y-55041811D01*
X105872370Y-54828069D01*
X105901529Y-54606590D01*
X105903156Y-54540000D01*
X105884852Y-54317361D01*
X105830431Y-54100702D01*
X105741354Y-53895840D01*
X105696202Y-53826045D01*
X105622822Y-53712617D01*
X105622820Y-53712614D01*
X105620014Y-53708277D01*
X105551247Y-53632703D01*
X109890743Y-53632703D01*
X109891302Y-53636947D01*
X109891302Y-53636951D01*
X109900419Y-53706197D01*
X109928268Y-53917734D01*
X110004129Y-54195036D01*
X110005813Y-54198984D01*
X110054165Y-54312342D01*
X110116923Y-54459476D01*
X110191473Y-54584040D01*
X110254846Y-54689928D01*
X110264561Y-54706161D01*
X110444313Y-54930528D01*
X110556452Y-55036944D01*
X110646004Y-55121925D01*
X110652851Y-55128423D01*
X110886317Y-55296186D01*
X110890112Y-55298195D01*
X110890113Y-55298196D01*
X110911869Y-55309715D01*
X111140392Y-55430712D01*
X111410373Y-55529511D01*
X111691264Y-55590755D01*
X111719841Y-55593004D01*
X111914282Y-55608307D01*
X111914291Y-55608307D01*
X111916739Y-55608500D01*
X112072271Y-55608500D01*
X112074407Y-55608354D01*
X112074418Y-55608354D01*
X112282548Y-55594165D01*
X112282554Y-55594164D01*
X112286825Y-55593873D01*
X112291020Y-55593004D01*
X112291022Y-55593004D01*
X112427583Y-55564724D01*
X112568342Y-55535574D01*
X112839343Y-55439607D01*
X113094812Y-55307750D01*
X113098313Y-55305289D01*
X113098317Y-55305287D01*
X113248328Y-55199857D01*
X113330023Y-55142441D01*
X113433318Y-55046453D01*
X113537479Y-54949661D01*
X113537481Y-54949658D01*
X113540622Y-54946740D01*
X113722713Y-54724268D01*
X113872927Y-54479142D01*
X113988483Y-54215898D01*
X114067244Y-53939406D01*
X114107751Y-53654784D01*
X114107845Y-53636951D01*
X114109235Y-53371583D01*
X114109235Y-53371576D01*
X114109257Y-53367297D01*
X114106542Y-53346669D01*
X114088695Y-53211114D01*
X114071732Y-53082266D01*
X113995871Y-52804964D01*
X113913503Y-52611856D01*
X113884763Y-52544476D01*
X113884761Y-52544472D01*
X113883077Y-52540524D01*
X113735439Y-52293839D01*
X113555687Y-52069472D01*
X113347149Y-51871577D01*
X113113683Y-51703814D01*
X113091843Y-51692250D01*
X113068654Y-51679972D01*
X112859608Y-51569288D01*
X112589627Y-51470489D01*
X112308736Y-51409245D01*
X112277685Y-51406801D01*
X112085718Y-51391693D01*
X112085709Y-51391693D01*
X112083261Y-51391500D01*
X111927729Y-51391500D01*
X111925593Y-51391646D01*
X111925582Y-51391646D01*
X111717452Y-51405835D01*
X111717446Y-51405836D01*
X111713175Y-51406127D01*
X111708980Y-51406996D01*
X111708978Y-51406996D01*
X111572416Y-51435277D01*
X111431658Y-51464426D01*
X111160657Y-51560393D01*
X110905188Y-51692250D01*
X110901687Y-51694711D01*
X110901683Y-51694713D01*
X110891594Y-51701804D01*
X110669977Y-51857559D01*
X110459378Y-52053260D01*
X110277287Y-52275732D01*
X110127073Y-52520858D01*
X110011517Y-52784102D01*
X109932756Y-53060594D01*
X109911334Y-53211114D01*
X109898597Y-53300615D01*
X109892249Y-53345216D01*
X109892227Y-53349505D01*
X109892226Y-53349512D01*
X109890765Y-53628417D01*
X109890743Y-53632703D01*
X105551247Y-53632703D01*
X105469670Y-53543051D01*
X105465619Y-53539852D01*
X105465615Y-53539848D01*
X105298414Y-53407800D01*
X105298410Y-53407798D01*
X105294359Y-53404598D01*
X105253053Y-53381796D01*
X105203084Y-53331364D01*
X105188312Y-53261921D01*
X105213428Y-53195516D01*
X105240780Y-53168909D01*
X105303270Y-53124335D01*
X105419860Y-53041173D01*
X105578096Y-52883489D01*
X105631548Y-52809103D01*
X105705435Y-52706277D01*
X105708453Y-52702077D01*
X105778846Y-52559648D01*
X105805136Y-52506453D01*
X105805137Y-52506451D01*
X105807430Y-52501811D01*
X105872370Y-52288069D01*
X105901529Y-52066590D01*
X105903156Y-52000000D01*
X105884852Y-51777361D01*
X105830431Y-51560702D01*
X105741354Y-51355840D01*
X105620014Y-51168277D01*
X105469670Y-51003051D01*
X105465619Y-50999852D01*
X105465615Y-50999848D01*
X105298414Y-50867800D01*
X105298410Y-50867798D01*
X105294359Y-50864598D01*
X105098789Y-50756638D01*
X105093919Y-50754913D01*
X105093909Y-50754909D01*
X105087874Y-50752772D01*
X105030338Y-50711178D01*
X105004423Y-50645080D01*
X105018358Y-50575464D01*
X105067717Y-50524433D01*
X105129935Y-50508000D01*
X118280441Y-50508000D01*
X118348562Y-50528002D01*
G37*
%TD.AperFunction*%
%TA.AperFunction,NonConductor*%
G36*
X100716512Y-62646701D02*
G01*
X100750743Y-62694521D01*
X100776603Y-62758206D01*
X100783266Y-62774616D01*
X100820810Y-62835882D01*
X100897291Y-62960688D01*
X100899987Y-62965088D01*
X101046250Y-63133938D01*
X101218126Y-63276632D01*
X101411000Y-63389338D01*
X101619692Y-63469030D01*
X101624760Y-63470061D01*
X101624763Y-63470062D01*
X101732003Y-63491880D01*
X101838597Y-63513567D01*
X101843772Y-63513757D01*
X101843774Y-63513757D01*
X102056673Y-63521564D01*
X102056677Y-63521564D01*
X102061837Y-63521753D01*
X102066957Y-63521097D01*
X102066959Y-63521097D01*
X102278288Y-63494025D01*
X102278289Y-63494025D01*
X102283416Y-63493368D01*
X102288373Y-63491881D01*
X102288377Y-63491880D01*
X102458298Y-63440901D01*
X102529293Y-63440483D01*
X102589244Y-63478516D01*
X102618954Y-63541874D01*
X102620078Y-63548971D01*
X102620327Y-63556889D01*
X102622537Y-63564496D01*
X102625978Y-63576339D01*
X102629987Y-63595700D01*
X102632526Y-63615797D01*
X102635445Y-63623168D01*
X102635445Y-63623170D01*
X102648804Y-63656912D01*
X102652649Y-63668142D01*
X102664982Y-63710593D01*
X102669015Y-63717412D01*
X102669017Y-63717417D01*
X102675293Y-63728028D01*
X102683988Y-63745776D01*
X102691448Y-63764617D01*
X102696110Y-63771033D01*
X102696110Y-63771034D01*
X102717436Y-63800387D01*
X102723952Y-63810307D01*
X102746458Y-63848362D01*
X102760779Y-63862683D01*
X102773619Y-63877716D01*
X102785528Y-63894107D01*
X102791634Y-63899158D01*
X102819605Y-63922298D01*
X102828384Y-63930288D01*
X103250595Y-64352499D01*
X103284621Y-64414811D01*
X103287500Y-64441594D01*
X103287500Y-65114900D01*
X103287837Y-65118146D01*
X103287837Y-65118150D01*
X103297244Y-65208807D01*
X103298474Y-65220666D01*
X103300655Y-65227202D01*
X103300655Y-65227204D01*
X103316297Y-65274088D01*
X103354450Y-65388446D01*
X103447522Y-65538848D01*
X103572697Y-65663805D01*
X103576916Y-65666406D01*
X103617417Y-65723530D01*
X103620649Y-65794453D01*
X103585024Y-65855865D01*
X103577470Y-65862422D01*
X103571652Y-65866022D01*
X103446695Y-65991197D01*
X103442855Y-65997427D01*
X103442854Y-65997428D01*
X103424610Y-66027026D01*
X103353885Y-66141762D01*
X103298203Y-66309639D01*
X103287500Y-66414100D01*
X103287500Y-67189900D01*
X103287837Y-67193146D01*
X103287837Y-67193150D01*
X103295487Y-67266873D01*
X103298474Y-67295666D01*
X103300655Y-67302202D01*
X103300655Y-67302204D01*
X103324138Y-67372591D01*
X103354450Y-67463446D01*
X103358306Y-67469677D01*
X103438378Y-67599072D01*
X103457216Y-67667524D01*
X103436055Y-67735294D01*
X103430646Y-67742737D01*
X103425695Y-67747697D01*
X103359655Y-67854834D01*
X103357303Y-67858649D01*
X103304530Y-67906142D01*
X103234459Y-67917564D01*
X103169335Y-67889290D01*
X103142899Y-67858835D01*
X103104633Y-67796997D01*
X103073478Y-67746652D01*
X102948303Y-67621695D01*
X102797738Y-67528885D01*
X102717995Y-67502436D01*
X102636389Y-67475368D01*
X102636387Y-67475368D01*
X102629861Y-67473203D01*
X102623025Y-67472503D01*
X102623022Y-67472502D01*
X102579969Y-67468091D01*
X102525400Y-67462500D01*
X102410594Y-67462500D01*
X102342473Y-67442498D01*
X102321499Y-67425595D01*
X101947122Y-67051218D01*
X101913096Y-66988906D01*
X101910907Y-66975293D01*
X101894232Y-66816635D01*
X101894232Y-66816633D01*
X101893542Y-66810072D01*
X101834527Y-66628444D01*
X101829290Y-66619372D01*
X101823993Y-66610199D01*
X101807255Y-66541204D01*
X101823993Y-66484198D01*
X101885723Y-66377279D01*
X101885724Y-66377278D01*
X101889027Y-66371556D01*
X101948042Y-66189928D01*
X101950218Y-66169230D01*
X101967314Y-66006565D01*
X101968004Y-66000000D01*
X101962680Y-65949348D01*
X101948732Y-65816635D01*
X101948732Y-65816633D01*
X101948042Y-65810072D01*
X101889027Y-65628444D01*
X101793540Y-65463056D01*
X101731971Y-65394676D01*
X101670175Y-65326045D01*
X101670174Y-65326044D01*
X101665753Y-65321134D01*
X101511252Y-65208882D01*
X101505224Y-65206198D01*
X101505222Y-65206197D01*
X101342819Y-65133891D01*
X101342818Y-65133891D01*
X101336788Y-65131206D01*
X101223539Y-65107134D01*
X101156444Y-65092872D01*
X101156439Y-65092872D01*
X101149987Y-65091500D01*
X100959013Y-65091500D01*
X100952561Y-65092872D01*
X100952556Y-65092872D01*
X100885461Y-65107134D01*
X100772212Y-65131206D01*
X100766185Y-65133889D01*
X100766177Y-65133892D01*
X100685248Y-65169924D01*
X100614881Y-65179358D01*
X100550584Y-65149251D01*
X100512771Y-65089162D01*
X100508000Y-65054817D01*
X100508000Y-62741925D01*
X100528002Y-62673804D01*
X100581658Y-62627311D01*
X100651932Y-62617207D01*
X100716512Y-62646701D01*
G37*
%TD.AperFunction*%
%TA.AperFunction,NonConductor*%
G36*
X103330665Y-69227710D02*
G01*
X103357100Y-69258164D01*
X103426522Y-69370348D01*
X103551697Y-69495305D01*
X103555916Y-69497906D01*
X103596417Y-69555030D01*
X103599649Y-69625953D01*
X103564024Y-69687365D01*
X103556470Y-69693922D01*
X103550652Y-69697522D01*
X103425695Y-69822697D01*
X103368520Y-69915452D01*
X103357303Y-69933649D01*
X103304530Y-69981142D01*
X103234459Y-69992564D01*
X103169335Y-69964290D01*
X103142899Y-69933835D01*
X103077332Y-69827880D01*
X103073478Y-69821652D01*
X102948303Y-69696695D01*
X102944084Y-69694094D01*
X102903583Y-69636970D01*
X102900351Y-69566047D01*
X102935976Y-69504635D01*
X102943530Y-69498078D01*
X102949348Y-69494478D01*
X103074305Y-69369303D01*
X103142697Y-69258351D01*
X103195470Y-69210858D01*
X103265541Y-69199436D01*
X103330665Y-69227710D01*
G37*
%TD.AperFunction*%
%TA.AperFunction,NonConductor*%
G36*
X106606212Y-66499998D02*
G01*
X106656860Y-66554649D01*
X106657346Y-66556107D01*
X106736237Y-66683593D01*
X106755073Y-66752043D01*
X106736351Y-66816010D01*
X106713831Y-66852545D01*
X106656791Y-66945080D01*
X106602026Y-67110191D01*
X106601326Y-67117027D01*
X106601325Y-67117030D01*
X106598524Y-67144367D01*
X106591500Y-67212928D01*
X106591500Y-67787072D01*
X106591837Y-67790318D01*
X106591837Y-67790322D01*
X106598927Y-67858649D01*
X106602293Y-67891093D01*
X106657346Y-68056107D01*
X106736237Y-68183593D01*
X106755073Y-68252043D01*
X106736351Y-68316010D01*
X106656791Y-68445080D01*
X106602026Y-68610191D01*
X106591500Y-68712928D01*
X106591500Y-69287072D01*
X106591837Y-69290318D01*
X106591837Y-69290322D01*
X106600570Y-69374483D01*
X106602293Y-69391093D01*
X106604474Y-69397629D01*
X106604474Y-69397631D01*
X106610420Y-69415452D01*
X106657346Y-69556107D01*
X106736237Y-69683593D01*
X106755073Y-69752043D01*
X106736351Y-69816010D01*
X106663723Y-69933835D01*
X106656791Y-69945080D01*
X106602026Y-70110191D01*
X106601326Y-70117027D01*
X106601325Y-70117030D01*
X106596049Y-70168526D01*
X106591500Y-70212928D01*
X106591500Y-70787072D01*
X106591837Y-70790318D01*
X106591837Y-70790322D01*
X106595003Y-70820829D01*
X106602293Y-70891093D01*
X106657346Y-71056107D01*
X106748884Y-71204031D01*
X106754066Y-71209204D01*
X106866816Y-71321758D01*
X106866821Y-71321762D01*
X106871997Y-71326929D01*
X106878227Y-71330769D01*
X106878228Y-71330770D01*
X106936193Y-71366500D01*
X107020080Y-71418209D01*
X107185191Y-71472974D01*
X107192027Y-71473674D01*
X107192030Y-71473675D01*
X107243526Y-71478951D01*
X107287928Y-71483500D01*
X107303691Y-71483500D01*
X107371812Y-71503502D01*
X107418305Y-71557158D01*
X107428409Y-71627432D01*
X107410951Y-71675616D01*
X107368576Y-71744362D01*
X107353317Y-71769116D01*
X107300545Y-71816609D01*
X107246057Y-71829000D01*
X105924094Y-71829000D01*
X105855973Y-71808998D01*
X105834999Y-71792095D01*
X105611517Y-71568613D01*
X105577491Y-71506301D01*
X105582556Y-71435486D01*
X105593353Y-71413401D01*
X105663274Y-71299970D01*
X105663275Y-71299967D01*
X105667115Y-71293738D01*
X105722797Y-71125861D01*
X105733500Y-71021400D01*
X105733500Y-70245600D01*
X105722526Y-70139834D01*
X105666550Y-69972054D01*
X105573478Y-69821652D01*
X105448303Y-69696695D01*
X105444084Y-69694094D01*
X105403583Y-69636970D01*
X105400351Y-69566047D01*
X105435976Y-69504635D01*
X105443530Y-69498078D01*
X105449348Y-69494478D01*
X105574305Y-69369303D01*
X105624993Y-69287072D01*
X105663275Y-69224968D01*
X105663276Y-69224966D01*
X105667115Y-69218738D01*
X105722797Y-69050861D01*
X105733500Y-68946400D01*
X105733500Y-68170600D01*
X105733163Y-68167350D01*
X105723238Y-68071692D01*
X105723237Y-68071688D01*
X105722526Y-68064834D01*
X105719615Y-68056107D01*
X105668868Y-67904002D01*
X105666550Y-67897054D01*
X105604633Y-67796997D01*
X105582622Y-67761428D01*
X105563784Y-67692976D01*
X105584945Y-67625206D01*
X105590354Y-67617763D01*
X105595305Y-67612803D01*
X105688115Y-67462238D01*
X105743797Y-67294361D01*
X105746614Y-67266873D01*
X105750583Y-67228131D01*
X105754500Y-67189900D01*
X105754500Y-66897595D01*
X105774502Y-66829474D01*
X105791405Y-66808499D01*
X105868501Y-66731404D01*
X105930814Y-66697379D01*
X105957596Y-66694500D01*
X106013487Y-66694500D01*
X106019939Y-66693128D01*
X106019944Y-66693128D01*
X106106888Y-66674647D01*
X106200288Y-66654794D01*
X106206319Y-66652109D01*
X106368722Y-66579803D01*
X106368724Y-66579802D01*
X106374752Y-66577118D01*
X106437022Y-66531876D01*
X106470193Y-66507776D01*
X106537061Y-66483917D01*
X106606212Y-66499998D01*
G37*
%TD.AperFunction*%
%TA.AperFunction,NonConductor*%
G36*
X100685247Y-67854341D02*
G01*
X100717710Y-67868794D01*
X100717032Y-67870316D01*
X100768760Y-67905687D01*
X100796397Y-67971083D01*
X100790811Y-68025111D01*
X100777203Y-68066139D01*
X100766500Y-68170600D01*
X100766500Y-68946400D01*
X100777474Y-69052166D01*
X100779655Y-69058702D01*
X100779655Y-69058704D01*
X100789907Y-69089432D01*
X100833450Y-69219946D01*
X100926522Y-69370348D01*
X101051697Y-69495305D01*
X101055916Y-69497906D01*
X101096417Y-69555030D01*
X101099649Y-69625953D01*
X101064024Y-69687365D01*
X101056470Y-69693922D01*
X101050652Y-69697522D01*
X100925695Y-69822697D01*
X100921856Y-69828925D01*
X100921854Y-69828928D01*
X100850257Y-69945080D01*
X100832885Y-69973262D01*
X100806436Y-70053005D01*
X100785200Y-70117030D01*
X100777203Y-70141139D01*
X100766500Y-70245600D01*
X100766500Y-71021400D01*
X100766837Y-71024646D01*
X100766837Y-71024650D01*
X100770748Y-71062338D01*
X100777474Y-71127166D01*
X100833450Y-71294946D01*
X100926522Y-71445348D01*
X101051697Y-71570305D01*
X101057927Y-71574145D01*
X101057928Y-71574146D01*
X101195090Y-71658694D01*
X101202262Y-71663115D01*
X101232755Y-71673229D01*
X101363611Y-71716632D01*
X101363613Y-71716632D01*
X101370139Y-71718797D01*
X101376975Y-71719497D01*
X101376978Y-71719498D01*
X101420031Y-71723909D01*
X101474600Y-71729500D01*
X102525400Y-71729500D01*
X102528646Y-71729163D01*
X102528650Y-71729163D01*
X102624308Y-71719238D01*
X102624312Y-71719237D01*
X102631166Y-71718526D01*
X102637702Y-71716345D01*
X102637704Y-71716345D01*
X102769806Y-71672272D01*
X102798946Y-71662550D01*
X102949348Y-71569478D01*
X103074305Y-71444303D01*
X103142697Y-71333351D01*
X103195470Y-71285858D01*
X103265541Y-71274436D01*
X103330665Y-71302710D01*
X103357100Y-71333164D01*
X103426522Y-71445348D01*
X103551697Y-71570305D01*
X103557927Y-71574145D01*
X103557928Y-71574146D01*
X103695090Y-71658694D01*
X103702262Y-71663115D01*
X103732755Y-71673229D01*
X103863611Y-71716632D01*
X103863613Y-71716632D01*
X103870139Y-71718797D01*
X103876975Y-71719497D01*
X103876978Y-71719498D01*
X103935771Y-71725522D01*
X104001498Y-71752364D01*
X104024861Y-71776802D01*
X104034528Y-71790107D01*
X104040634Y-71795158D01*
X104068605Y-71818298D01*
X104077384Y-71826288D01*
X104190442Y-71939346D01*
X104224468Y-72001658D01*
X104219403Y-72072473D01*
X104176856Y-72129309D01*
X104140495Y-72148204D01*
X103971756Y-72203357D01*
X103941443Y-72219137D01*
X103791876Y-72296997D01*
X103773607Y-72306507D01*
X103769474Y-72309610D01*
X103769471Y-72309612D01*
X103599100Y-72437530D01*
X103594965Y-72440635D01*
X103591393Y-72444373D01*
X103445504Y-72597037D01*
X103440629Y-72602138D01*
X103333201Y-72759621D01*
X103278293Y-72804621D01*
X103207768Y-72812792D01*
X103144021Y-72781538D01*
X103123324Y-72757054D01*
X103042822Y-72632617D01*
X103042820Y-72632614D01*
X103040014Y-72628277D01*
X102889670Y-72463051D01*
X102885619Y-72459852D01*
X102885615Y-72459848D01*
X102718414Y-72327800D01*
X102718410Y-72327798D01*
X102714359Y-72324598D01*
X102518789Y-72216638D01*
X102513920Y-72214914D01*
X102513916Y-72214912D01*
X102313087Y-72143795D01*
X102313083Y-72143794D01*
X102308212Y-72142069D01*
X102303119Y-72141162D01*
X102303116Y-72141161D01*
X102093373Y-72103800D01*
X102093367Y-72103799D01*
X102088284Y-72102894D01*
X102014452Y-72101992D01*
X101870081Y-72100228D01*
X101870079Y-72100228D01*
X101864911Y-72100165D01*
X101644091Y-72133955D01*
X101431756Y-72203357D01*
X101401443Y-72219137D01*
X101251876Y-72296997D01*
X101233607Y-72306507D01*
X101229474Y-72309610D01*
X101229471Y-72309612D01*
X101059100Y-72437530D01*
X101054965Y-72440635D01*
X101051393Y-72444373D01*
X100905504Y-72597037D01*
X100900629Y-72602138D01*
X100774743Y-72786680D01*
X100748946Y-72842256D01*
X100748288Y-72843673D01*
X100701464Y-72897040D01*
X100633221Y-72916621D01*
X100565225Y-72896198D01*
X100519065Y-72842256D01*
X100508000Y-72790623D01*
X100508000Y-67969448D01*
X100528002Y-67901327D01*
X100581658Y-67854834D01*
X100651932Y-67844730D01*
X100685247Y-67854341D01*
G37*
%TD.AperFunction*%
%TA.AperFunction,NonConductor*%
G36*
X121565998Y-71483120D02*
G01*
X121695090Y-71562694D01*
X121702262Y-71567115D01*
X121721006Y-71573332D01*
X121863611Y-71620632D01*
X121863613Y-71620632D01*
X121870139Y-71622797D01*
X121876975Y-71623497D01*
X121876978Y-71623498D01*
X121915376Y-71627432D01*
X121974600Y-71633500D01*
X123025400Y-71633500D01*
X123028646Y-71633163D01*
X123028650Y-71633163D01*
X123124308Y-71623238D01*
X123124312Y-71623237D01*
X123131166Y-71622526D01*
X123137702Y-71620345D01*
X123137704Y-71620345D01*
X123290170Y-71569478D01*
X123298946Y-71566550D01*
X123305177Y-71562694D01*
X123311797Y-71559593D01*
X123313112Y-71562399D01*
X123368117Y-71547247D01*
X123435892Y-71568390D01*
X123481477Y-71622819D01*
X123492000Y-71673229D01*
X123492000Y-72826519D01*
X123471998Y-72894640D01*
X123418342Y-72941133D01*
X123348068Y-72951237D01*
X123283488Y-72921743D01*
X123250452Y-72876764D01*
X123241354Y-72855840D01*
X123179105Y-72759618D01*
X123122822Y-72672617D01*
X123122820Y-72672614D01*
X123120014Y-72668277D01*
X122969670Y-72503051D01*
X122965619Y-72499852D01*
X122965615Y-72499848D01*
X122798414Y-72367800D01*
X122798410Y-72367798D01*
X122794359Y-72364598D01*
X122598789Y-72256638D01*
X122593920Y-72254914D01*
X122593916Y-72254912D01*
X122393087Y-72183795D01*
X122393083Y-72183794D01*
X122388212Y-72182069D01*
X122383119Y-72181162D01*
X122383116Y-72181161D01*
X122173373Y-72143800D01*
X122173367Y-72143799D01*
X122168284Y-72142894D01*
X122094452Y-72141992D01*
X121950081Y-72140228D01*
X121950079Y-72140228D01*
X121944911Y-72140165D01*
X121724091Y-72173955D01*
X121511756Y-72243357D01*
X121481443Y-72259137D01*
X121384482Y-72309612D01*
X121313607Y-72346507D01*
X121309474Y-72349610D01*
X121309471Y-72349612D01*
X121153298Y-72466870D01*
X121134965Y-72480635D01*
X121078537Y-72539684D01*
X121054283Y-72565064D01*
X120992759Y-72600494D01*
X120921846Y-72597037D01*
X120864060Y-72555791D01*
X120845207Y-72522243D01*
X120803767Y-72411703D01*
X120800615Y-72403295D01*
X120713261Y-72286739D01*
X120596705Y-72199385D01*
X120460316Y-72148255D01*
X120398134Y-72141500D01*
X119644167Y-72141500D01*
X119576046Y-72121498D01*
X119529553Y-72067842D01*
X119518857Y-72002330D01*
X119530814Y-71888565D01*
X119531504Y-71882000D01*
X119511542Y-71692072D01*
X119513253Y-71691892D01*
X119518006Y-71629601D01*
X119560822Y-71572968D01*
X119627459Y-71548473D01*
X119687869Y-71563453D01*
X119689395Y-71560180D01*
X119696032Y-71563275D01*
X119702262Y-71567115D01*
X119721006Y-71573332D01*
X119863611Y-71620632D01*
X119863613Y-71620632D01*
X119870139Y-71622797D01*
X119876975Y-71623497D01*
X119876978Y-71623498D01*
X119915376Y-71627432D01*
X119974600Y-71633500D01*
X121025400Y-71633500D01*
X121028646Y-71633163D01*
X121028650Y-71633163D01*
X121124308Y-71623238D01*
X121124312Y-71623237D01*
X121131166Y-71622526D01*
X121137702Y-71620345D01*
X121137704Y-71620345D01*
X121290170Y-71569478D01*
X121298946Y-71566550D01*
X121433580Y-71483236D01*
X121502031Y-71464398D01*
X121565998Y-71483120D01*
G37*
%TD.AperFunction*%
%TA.AperFunction,NonConductor*%
G36*
X103312026Y-74135144D02*
G01*
X103339875Y-74166994D01*
X103399987Y-74265088D01*
X103546250Y-74433938D01*
X103550230Y-74437242D01*
X103554981Y-74441187D01*
X103594616Y-74500090D01*
X103596113Y-74571071D01*
X103558997Y-74631593D01*
X103518725Y-74656112D01*
X103434835Y-74687561D01*
X103403295Y-74699385D01*
X103286739Y-74786739D01*
X103199385Y-74903295D01*
X103196233Y-74911703D01*
X103154919Y-75021907D01*
X103112277Y-75078671D01*
X103045716Y-75103371D01*
X102976367Y-75088163D01*
X102943743Y-75062476D01*
X102893151Y-75006875D01*
X102893142Y-75006866D01*
X102889670Y-75003051D01*
X102885619Y-74999852D01*
X102885615Y-74999848D01*
X102718414Y-74867800D01*
X102718410Y-74867798D01*
X102714359Y-74864598D01*
X102673053Y-74841796D01*
X102623084Y-74791364D01*
X102608312Y-74721921D01*
X102633428Y-74655516D01*
X102660780Y-74628909D01*
X102717716Y-74588297D01*
X102839860Y-74501173D01*
X102867191Y-74473938D01*
X102994435Y-74347137D01*
X102998096Y-74343489D01*
X103057594Y-74260689D01*
X103128453Y-74162077D01*
X103129776Y-74163028D01*
X103176645Y-74119857D01*
X103246580Y-74107625D01*
X103312026Y-74135144D01*
G37*
%TD.AperFunction*%
%TA.AperFunction,NonConductor*%
G36*
X118405729Y-74801528D02*
G01*
X118520451Y-74844535D01*
X118577216Y-74887176D01*
X118601916Y-74953738D01*
X118586709Y-75023087D01*
X118567316Y-75049568D01*
X118452594Y-75169617D01*
X118391069Y-75205047D01*
X118320157Y-75201590D01*
X118262371Y-75160344D01*
X118236057Y-75094403D01*
X118235500Y-75082566D01*
X118235500Y-74919510D01*
X118255502Y-74851389D01*
X118309158Y-74804896D01*
X118379432Y-74794792D01*
X118405729Y-74801528D01*
G37*
%TD.AperFunction*%
%TA.AperFunction,NonConductor*%
G36*
X121023150Y-74413126D02*
G01*
X121057817Y-74441114D01*
X121086250Y-74473938D01*
X121258126Y-74616632D01*
X121262993Y-74619476D01*
X121331445Y-74659476D01*
X121380169Y-74711114D01*
X121393240Y-74780897D01*
X121366509Y-74846669D01*
X121326055Y-74880027D01*
X121313607Y-74886507D01*
X121309474Y-74889610D01*
X121309471Y-74889612D01*
X121139100Y-75017530D01*
X121134965Y-75020635D01*
X121124944Y-75031121D01*
X121014771Y-75146411D01*
X120980629Y-75182138D01*
X120873201Y-75339621D01*
X120818293Y-75384621D01*
X120747768Y-75392792D01*
X120684021Y-75361538D01*
X120663324Y-75337054D01*
X120582822Y-75212617D01*
X120582820Y-75212614D01*
X120580014Y-75208277D01*
X120576532Y-75204450D01*
X120432798Y-75046488D01*
X120401746Y-74982642D01*
X120410141Y-74912143D01*
X120455317Y-74857375D01*
X120481761Y-74843706D01*
X120588297Y-74803767D01*
X120596705Y-74800615D01*
X120713261Y-74713261D01*
X120800615Y-74596705D01*
X120827206Y-74525774D01*
X120844598Y-74479382D01*
X120887240Y-74422618D01*
X120953802Y-74397918D01*
X121023150Y-74413126D01*
G37*
%TD.AperFunction*%
%TA.AperFunction,NonConductor*%
G36*
X110560260Y-74857495D02*
G01*
X110598074Y-74917584D01*
X110602155Y-74965100D01*
X110596343Y-75020403D01*
X110595093Y-75032292D01*
X110568080Y-75097949D01*
X110558878Y-75108218D01*
X110337499Y-75329596D01*
X110275187Y-75363621D01*
X110248404Y-75366500D01*
X109974600Y-75366500D01*
X109971354Y-75366837D01*
X109971350Y-75366837D01*
X109875692Y-75376762D01*
X109875688Y-75376763D01*
X109868834Y-75377474D01*
X109862297Y-75379655D01*
X109862292Y-75379656D01*
X109804700Y-75398870D01*
X109733751Y-75401454D01*
X109672667Y-75365270D01*
X109640843Y-75301806D01*
X109648382Y-75231210D01*
X109657567Y-75213227D01*
X109660619Y-75208277D01*
X109667115Y-75197738D01*
X109667117Y-75197735D01*
X109668432Y-75198545D01*
X109709758Y-75151604D01*
X109730668Y-75140980D01*
X109733922Y-75139692D01*
X109745142Y-75135851D01*
X109779983Y-75125729D01*
X109779984Y-75125729D01*
X109787593Y-75123518D01*
X109794412Y-75119485D01*
X109794417Y-75119483D01*
X109805028Y-75113207D01*
X109822776Y-75104512D01*
X109841617Y-75097052D01*
X109874826Y-75072925D01*
X109877387Y-75071064D01*
X109887307Y-75064548D01*
X109918535Y-75046080D01*
X109918538Y-75046078D01*
X109925362Y-75042042D01*
X109939683Y-75027721D01*
X109954717Y-75014880D01*
X109964693Y-75007632D01*
X109971107Y-75002972D01*
X109999293Y-74968901D01*
X110007282Y-74960122D01*
X110021999Y-74945405D01*
X110084311Y-74911379D01*
X110111094Y-74908500D01*
X110166987Y-74908500D01*
X110173439Y-74907128D01*
X110173444Y-74907128D01*
X110270455Y-74886507D01*
X110353788Y-74868794D01*
X110363213Y-74864598D01*
X110410137Y-74843706D01*
X110425597Y-74836823D01*
X110495963Y-74827389D01*
X110560260Y-74857495D01*
G37*
%TD.AperFunction*%
%TA.AperFunction,NonConductor*%
G36*
X100716512Y-74041598D02*
G01*
X100742584Y-74075034D01*
X100743266Y-74074616D01*
X100857291Y-74260688D01*
X100859987Y-74265088D01*
X101006250Y-74433938D01*
X101178126Y-74576632D01*
X101239196Y-74612318D01*
X101251445Y-74619476D01*
X101300169Y-74671114D01*
X101313240Y-74740897D01*
X101286509Y-74806669D01*
X101246055Y-74840027D01*
X101238988Y-74843706D01*
X101233607Y-74846507D01*
X101229474Y-74849610D01*
X101229471Y-74849612D01*
X101064702Y-74973324D01*
X101054965Y-74980635D01*
X101009969Y-75027721D01*
X100905052Y-75137510D01*
X100900629Y-75142138D01*
X100897715Y-75146410D01*
X100897714Y-75146411D01*
X100862151Y-75198545D01*
X100774743Y-75326680D01*
X100748946Y-75382256D01*
X100748288Y-75383673D01*
X100701464Y-75437040D01*
X100633221Y-75456621D01*
X100565225Y-75436198D01*
X100519065Y-75382256D01*
X100508000Y-75330623D01*
X100508000Y-74136822D01*
X100528002Y-74068701D01*
X100581658Y-74022208D01*
X100651932Y-74012104D01*
X100716512Y-74041598D01*
G37*
%TD.AperFunction*%
%TA.AperFunction,NonConductor*%
G36*
X123437334Y-74063819D02*
G01*
X123482162Y-74118873D01*
X123492000Y-74167682D01*
X123492000Y-75366519D01*
X123471998Y-75434640D01*
X123418342Y-75481133D01*
X123348068Y-75491237D01*
X123283488Y-75461743D01*
X123250452Y-75416764D01*
X123241354Y-75395840D01*
X123134850Y-75231210D01*
X123122822Y-75212617D01*
X123122820Y-75212614D01*
X123120014Y-75208277D01*
X122969670Y-75043051D01*
X122965619Y-75039852D01*
X122965615Y-75039848D01*
X122798414Y-74907800D01*
X122798410Y-74907798D01*
X122794359Y-74904598D01*
X122753053Y-74881796D01*
X122703084Y-74831364D01*
X122688312Y-74761921D01*
X122713428Y-74695516D01*
X122740780Y-74668909D01*
X122796858Y-74628909D01*
X122919860Y-74541173D01*
X123078096Y-74383489D01*
X123104218Y-74347137D01*
X123205435Y-74206277D01*
X123208453Y-74202077D01*
X123253044Y-74111854D01*
X123301156Y-74059648D01*
X123369857Y-74041741D01*
X123437334Y-74063819D01*
G37*
%TD.AperFunction*%
%TA.AperFunction,NonConductor*%
G36*
X109327333Y-75634730D02*
G01*
X109359157Y-75698194D01*
X109351618Y-75768790D01*
X109342435Y-75786769D01*
X109332885Y-75802262D01*
X109323371Y-75830945D01*
X109286198Y-75943021D01*
X109277203Y-75970139D01*
X109266500Y-76074600D01*
X109266500Y-76850400D01*
X109266837Y-76853646D01*
X109266837Y-76853650D01*
X109276766Y-76949341D01*
X109263901Y-77019162D01*
X109215330Y-77070945D01*
X109146475Y-77088247D01*
X109079195Y-77065577D01*
X109062344Y-77051440D01*
X108592502Y-76581598D01*
X107857265Y-75846360D01*
X107823240Y-75784050D01*
X107828305Y-75713235D01*
X107870852Y-75656399D01*
X107937372Y-75631588D01*
X107959200Y-75631923D01*
X107971392Y-75633172D01*
X107971405Y-75633173D01*
X107974600Y-75633500D01*
X109025400Y-75633500D01*
X109028646Y-75633163D01*
X109028650Y-75633163D01*
X109124308Y-75623238D01*
X109124312Y-75623237D01*
X109131166Y-75622526D01*
X109137703Y-75620345D01*
X109137708Y-75620344D01*
X109195300Y-75601130D01*
X109266249Y-75598546D01*
X109327333Y-75634730D01*
G37*
%TD.AperFunction*%
%TA.AperFunction,NonConductor*%
G36*
X111784651Y-71888741D02*
G01*
X111841283Y-71931558D01*
X111865777Y-71998196D01*
X111866057Y-72006586D01*
X111866057Y-73431790D01*
X111865530Y-73442973D01*
X111863855Y-73450466D01*
X111864104Y-73458392D01*
X111864104Y-73458393D01*
X111865995Y-73518543D01*
X111866057Y-73522502D01*
X111866057Y-73550413D01*
X111866554Y-73554347D01*
X111866554Y-73554348D01*
X111866562Y-73554413D01*
X111867495Y-73566250D01*
X111868884Y-73610446D01*
X111874113Y-73628444D01*
X111874535Y-73629896D01*
X111878544Y-73649257D01*
X111879040Y-73653179D01*
X111881083Y-73669354D01*
X111884002Y-73676725D01*
X111884002Y-73676727D01*
X111897361Y-73710469D01*
X111901206Y-73721699D01*
X111909436Y-73750026D01*
X111913539Y-73764150D01*
X111917572Y-73770969D01*
X111917574Y-73770974D01*
X111923850Y-73781585D01*
X111932545Y-73799333D01*
X111940005Y-73818174D01*
X111944667Y-73824590D01*
X111944667Y-73824591D01*
X111965993Y-73853944D01*
X111972509Y-73863864D01*
X111990346Y-73894024D01*
X111995015Y-73901919D01*
X112009336Y-73916240D01*
X112022176Y-73931273D01*
X112034085Y-73947664D01*
X112051186Y-73961811D01*
X112068162Y-73975855D01*
X112076941Y-73983845D01*
X112279641Y-74186545D01*
X112290600Y-74206615D01*
X112296497Y-74208225D01*
X112319502Y-74226406D01*
X112985343Y-74892247D01*
X112992887Y-74900537D01*
X112997000Y-74907018D01*
X113002777Y-74912443D01*
X113046667Y-74953658D01*
X113049509Y-74956413D01*
X113069231Y-74976135D01*
X113072373Y-74978572D01*
X113072433Y-74978619D01*
X113081445Y-74986317D01*
X113103338Y-75006875D01*
X113113679Y-75016586D01*
X113127844Y-75024373D01*
X113131431Y-75026345D01*
X113147953Y-75037198D01*
X113163959Y-75049614D01*
X113171237Y-75052764D01*
X113171238Y-75052764D01*
X113204537Y-75067174D01*
X113215187Y-75072391D01*
X113253940Y-75093695D01*
X113261615Y-75095666D01*
X113261616Y-75095666D01*
X113268346Y-75097394D01*
X113272534Y-75098469D01*
X113273562Y-75098733D01*
X113292266Y-75105137D01*
X113299384Y-75108217D01*
X113310855Y-75113181D01*
X113318678Y-75114420D01*
X113318688Y-75114423D01*
X113354524Y-75120099D01*
X113366144Y-75122505D01*
X113401289Y-75131528D01*
X113408970Y-75133500D01*
X113429224Y-75133500D01*
X113448934Y-75135051D01*
X113468943Y-75138220D01*
X113476835Y-75137474D01*
X113512961Y-75134059D01*
X113524819Y-75133500D01*
X113635036Y-75133500D01*
X113703157Y-75153502D01*
X113742179Y-75193196D01*
X113748884Y-75204031D01*
X113754066Y-75209204D01*
X113866816Y-75321758D01*
X113866821Y-75321762D01*
X113871997Y-75326929D01*
X113878227Y-75330769D01*
X113878228Y-75330770D01*
X113979729Y-75393336D01*
X114020080Y-75418209D01*
X114185191Y-75472974D01*
X114192027Y-75473674D01*
X114192030Y-75473675D01*
X114243526Y-75478951D01*
X114287928Y-75483500D01*
X114887072Y-75483500D01*
X114890318Y-75483163D01*
X114890322Y-75483163D01*
X114984235Y-75473419D01*
X114984239Y-75473418D01*
X114991093Y-75472707D01*
X114997629Y-75470526D01*
X114997631Y-75470526D01*
X115130395Y-75426232D01*
X115156107Y-75417654D01*
X115304031Y-75326116D01*
X115328299Y-75301806D01*
X115410747Y-75219214D01*
X115473030Y-75185135D01*
X115543850Y-75190138D01*
X115588937Y-75219059D01*
X115691815Y-75321757D01*
X115691820Y-75321761D01*
X115696997Y-75326929D01*
X115703224Y-75330767D01*
X115703226Y-75330769D01*
X115719116Y-75340564D01*
X115766609Y-75393336D01*
X115779000Y-75447824D01*
X115779000Y-75898461D01*
X115760168Y-75962599D01*
X115760960Y-75963056D01*
X115725525Y-76024431D01*
X115687653Y-76090028D01*
X115665473Y-76128444D01*
X115606458Y-76310072D01*
X115586496Y-76500000D01*
X115587186Y-76506565D01*
X115605081Y-76676822D01*
X115606458Y-76689928D01*
X115665473Y-76871556D01*
X115668776Y-76877278D01*
X115668777Y-76877279D01*
X115678845Y-76894717D01*
X115760960Y-77036944D01*
X115765378Y-77041851D01*
X115765379Y-77041852D01*
X115868727Y-77156632D01*
X115888747Y-77178866D01*
X115960752Y-77231181D01*
X116031501Y-77282583D01*
X116043248Y-77291118D01*
X116049276Y-77293802D01*
X116049278Y-77293803D01*
X116211681Y-77366109D01*
X116217712Y-77368794D01*
X116311113Y-77388647D01*
X116398056Y-77407128D01*
X116398061Y-77407128D01*
X116404513Y-77408500D01*
X116595487Y-77408500D01*
X116601939Y-77407128D01*
X116601944Y-77407128D01*
X116690370Y-77388332D01*
X116720545Y-77381918D01*
X116791335Y-77387320D01*
X116847967Y-77430137D01*
X116872461Y-77496774D01*
X116857040Y-77566076D01*
X116835836Y-77594260D01*
X115100500Y-79329595D01*
X115038188Y-79363621D01*
X115011405Y-79366500D01*
X113785265Y-79366500D01*
X113717144Y-79346498D01*
X113670651Y-79292842D01*
X113660547Y-79222568D01*
X113667870Y-79197988D01*
X113667115Y-79197738D01*
X113720632Y-79036389D01*
X113720632Y-79036387D01*
X113722797Y-79029861D01*
X113726763Y-78991158D01*
X113732414Y-78935995D01*
X113733500Y-78925400D01*
X113733500Y-78149600D01*
X113732564Y-78140581D01*
X113723238Y-78050692D01*
X113723237Y-78050688D01*
X113722526Y-78043834D01*
X113708907Y-78003011D01*
X113668868Y-77883002D01*
X113666550Y-77876054D01*
X113573478Y-77725652D01*
X113448303Y-77600695D01*
X113444084Y-77598094D01*
X113403583Y-77540970D01*
X113400351Y-77470047D01*
X113435976Y-77408635D01*
X113443530Y-77402078D01*
X113449348Y-77398478D01*
X113574305Y-77273303D01*
X113578356Y-77266731D01*
X113663275Y-77128968D01*
X113663276Y-77128966D01*
X113667115Y-77122738D01*
X113715374Y-76977240D01*
X113720632Y-76961389D01*
X113720632Y-76961387D01*
X113722797Y-76954861D01*
X113733500Y-76850400D01*
X113733500Y-76074600D01*
X113722526Y-75968834D01*
X113718812Y-75957700D01*
X113668868Y-75808002D01*
X113666550Y-75801054D01*
X113573478Y-75650652D01*
X113555959Y-75633163D01*
X113453483Y-75530866D01*
X113448303Y-75525695D01*
X113380736Y-75484046D01*
X113303968Y-75436725D01*
X113303966Y-75436724D01*
X113297738Y-75432885D01*
X113200350Y-75400583D01*
X113136389Y-75379368D01*
X113136387Y-75379368D01*
X113129861Y-75377203D01*
X113123025Y-75376503D01*
X113123022Y-75376502D01*
X113079969Y-75372091D01*
X113025400Y-75366500D01*
X112763595Y-75366500D01*
X112695474Y-75346498D01*
X112674500Y-75329595D01*
X112453122Y-75108217D01*
X112419096Y-75045905D01*
X112416907Y-75032292D01*
X112415658Y-75020403D01*
X112407775Y-74945405D01*
X112400232Y-74873635D01*
X112400232Y-74873633D01*
X112399542Y-74867072D01*
X112340527Y-74685444D01*
X112330981Y-74668909D01*
X112275796Y-74573327D01*
X112245040Y-74520056D01*
X112136771Y-74399811D01*
X112130263Y-74386250D01*
X112130161Y-74386228D01*
X112116485Y-74377576D01*
X111968094Y-74269763D01*
X111968093Y-74269762D01*
X111962752Y-74265882D01*
X111956724Y-74263198D01*
X111956722Y-74263197D01*
X111794319Y-74190891D01*
X111794318Y-74190891D01*
X111788288Y-74188206D01*
X111685121Y-74166277D01*
X111607944Y-74149872D01*
X111607939Y-74149872D01*
X111601487Y-74148500D01*
X111410513Y-74148500D01*
X111404061Y-74149872D01*
X111404056Y-74149872D01*
X111326879Y-74166277D01*
X111223712Y-74188206D01*
X111217682Y-74190891D01*
X111217681Y-74190891D01*
X111151904Y-74220177D01*
X111081537Y-74229611D01*
X111017240Y-74199505D01*
X110979426Y-74139416D01*
X110975345Y-74091900D01*
X110984314Y-74006565D01*
X110985004Y-74000000D01*
X110975087Y-73905644D01*
X110965732Y-73816635D01*
X110965732Y-73816633D01*
X110965042Y-73810072D01*
X110906027Y-73628444D01*
X110899201Y-73616620D01*
X110850828Y-73532837D01*
X110810540Y-73463056D01*
X110804769Y-73456646D01*
X110687175Y-73326045D01*
X110687174Y-73326044D01*
X110682753Y-73321134D01*
X110583657Y-73249136D01*
X110533594Y-73212763D01*
X110533593Y-73212762D01*
X110528252Y-73208882D01*
X110522224Y-73206198D01*
X110522222Y-73206197D01*
X110359819Y-73133891D01*
X110359818Y-73133891D01*
X110353788Y-73131206D01*
X110248226Y-73108768D01*
X110173444Y-73092872D01*
X110173439Y-73092872D01*
X110166987Y-73091500D01*
X109976013Y-73091500D01*
X109969561Y-73092872D01*
X109969556Y-73092872D01*
X109869360Y-73114170D01*
X109798569Y-73108768D01*
X109741937Y-73065951D01*
X109717443Y-72999314D01*
X109719963Y-72964510D01*
X109720633Y-72961385D01*
X109722797Y-72954861D01*
X109726191Y-72921743D01*
X109730799Y-72876761D01*
X109733500Y-72850400D01*
X109733500Y-72253683D01*
X109753502Y-72185562D01*
X109807158Y-72139069D01*
X109877432Y-72128965D01*
X109890832Y-72131641D01*
X109894287Y-72132528D01*
X109894291Y-72132529D01*
X109901970Y-72134500D01*
X109922224Y-72134500D01*
X109941934Y-72136051D01*
X109961943Y-72139220D01*
X109969835Y-72138474D01*
X109988580Y-72136702D01*
X110005962Y-72135059D01*
X110017819Y-72134500D01*
X110920233Y-72134500D01*
X110931416Y-72135027D01*
X110938909Y-72136702D01*
X110946835Y-72136453D01*
X110946836Y-72136453D01*
X111006986Y-72134562D01*
X111010945Y-72134500D01*
X111038856Y-72134500D01*
X111042791Y-72134003D01*
X111042856Y-72133995D01*
X111054693Y-72133062D01*
X111086951Y-72132048D01*
X111090970Y-72131922D01*
X111098889Y-72131673D01*
X111118343Y-72126021D01*
X111137700Y-72122013D01*
X111149930Y-72120468D01*
X111149931Y-72120468D01*
X111157797Y-72119474D01*
X111165168Y-72116555D01*
X111165170Y-72116555D01*
X111198912Y-72103196D01*
X111210142Y-72099351D01*
X111244983Y-72089229D01*
X111244984Y-72089229D01*
X111252593Y-72087018D01*
X111259412Y-72082985D01*
X111259417Y-72082983D01*
X111270028Y-72076707D01*
X111287776Y-72068012D01*
X111306617Y-72060552D01*
X111342387Y-72034564D01*
X111352307Y-72028048D01*
X111383535Y-72009580D01*
X111383538Y-72009578D01*
X111390362Y-72005542D01*
X111404683Y-71991221D01*
X111419717Y-71978380D01*
X111429693Y-71971132D01*
X111436107Y-71966472D01*
X111441161Y-71960363D01*
X111441163Y-71960361D01*
X111446274Y-71954183D01*
X111505108Y-71914446D01*
X111543357Y-71908500D01*
X111595487Y-71908500D01*
X111601939Y-71907128D01*
X111601944Y-71907128D01*
X111713860Y-71883339D01*
X111784651Y-71888741D01*
G37*
%TD.AperFunction*%
%TA.AperFunction,NonConductor*%
G36*
X123437334Y-76603819D02*
G01*
X123482162Y-76658873D01*
X123492000Y-76707682D01*
X123492000Y-85366000D01*
X123471998Y-85434121D01*
X123418342Y-85480614D01*
X123366000Y-85492000D01*
X114844096Y-85492000D01*
X114775975Y-85471998D01*
X114729482Y-85418342D01*
X114719378Y-85348068D01*
X114748872Y-85283488D01*
X114755000Y-85276905D01*
X115012499Y-85019405D01*
X115074812Y-84985380D01*
X115101595Y-84982500D01*
X115157487Y-84982500D01*
X115163939Y-84981128D01*
X115163944Y-84981128D01*
X115250888Y-84962647D01*
X115344288Y-84942794D01*
X115350319Y-84940109D01*
X115512722Y-84867803D01*
X115512724Y-84867802D01*
X115518752Y-84865118D01*
X115673253Y-84752866D01*
X115684210Y-84740697D01*
X115796621Y-84615852D01*
X115796622Y-84615851D01*
X115801040Y-84610944D01*
X115868460Y-84494170D01*
X115893223Y-84451279D01*
X115893224Y-84451278D01*
X115896527Y-84445556D01*
X115955542Y-84263928D01*
X115957087Y-84249233D01*
X115974814Y-84080565D01*
X115975504Y-84074000D01*
X115972096Y-84041573D01*
X115956232Y-83890635D01*
X115956232Y-83890633D01*
X115955542Y-83884072D01*
X115896527Y-83702444D01*
X115801040Y-83537056D01*
X115673253Y-83395134D01*
X115518752Y-83282882D01*
X115512724Y-83280198D01*
X115512722Y-83280197D01*
X115350319Y-83207891D01*
X115350318Y-83207891D01*
X115344288Y-83205206D01*
X115250888Y-83185353D01*
X115163944Y-83166872D01*
X115163939Y-83166872D01*
X115157487Y-83165500D01*
X114966513Y-83165500D01*
X114960061Y-83166872D01*
X114960056Y-83166872D01*
X114873112Y-83185353D01*
X114779712Y-83205206D01*
X114773685Y-83207889D01*
X114773677Y-83207892D01*
X114660748Y-83258171D01*
X114590381Y-83267605D01*
X114526084Y-83237498D01*
X114488271Y-83177409D01*
X114483500Y-83143064D01*
X114483500Y-82787928D01*
X114472707Y-82683907D01*
X114464410Y-82659036D01*
X114455624Y-82632703D01*
X118390743Y-82632703D01*
X118428268Y-82917734D01*
X118504129Y-83195036D01*
X118505813Y-83198984D01*
X118589479Y-83395134D01*
X118616923Y-83459476D01*
X118764561Y-83706161D01*
X118944313Y-83930528D01*
X119152851Y-84128423D01*
X119386317Y-84296186D01*
X119390112Y-84298195D01*
X119390113Y-84298196D01*
X119410097Y-84308777D01*
X119640392Y-84430712D01*
X119696594Y-84451279D01*
X119906004Y-84527912D01*
X119910373Y-84529511D01*
X120191264Y-84590755D01*
X120219841Y-84593004D01*
X120414282Y-84608307D01*
X120414291Y-84608307D01*
X120416739Y-84608500D01*
X120572271Y-84608500D01*
X120574407Y-84608354D01*
X120574418Y-84608354D01*
X120782548Y-84594165D01*
X120782554Y-84594164D01*
X120786825Y-84593873D01*
X120791020Y-84593004D01*
X120791022Y-84593004D01*
X120995339Y-84550692D01*
X121068342Y-84535574D01*
X121339343Y-84439607D01*
X121470609Y-84371856D01*
X121591005Y-84309715D01*
X121591006Y-84309715D01*
X121594812Y-84307750D01*
X121598313Y-84305289D01*
X121598317Y-84305287D01*
X121750616Y-84198249D01*
X121830023Y-84142441D01*
X121983245Y-84000058D01*
X122037479Y-83949661D01*
X122037481Y-83949658D01*
X122040622Y-83946740D01*
X122222713Y-83724268D01*
X122372927Y-83479142D01*
X122411509Y-83391251D01*
X122486757Y-83219830D01*
X122488483Y-83215898D01*
X122502449Y-83166872D01*
X122566068Y-82943534D01*
X122567244Y-82939406D01*
X122607751Y-82654784D01*
X122607845Y-82636951D01*
X122609235Y-82371583D01*
X122609235Y-82371576D01*
X122609257Y-82367297D01*
X122571732Y-82082266D01*
X122566514Y-82063190D01*
X122549585Y-82001311D01*
X122495871Y-81804964D01*
X122420900Y-81629197D01*
X122384763Y-81544476D01*
X122384761Y-81544472D01*
X122383077Y-81540524D01*
X122307094Y-81413565D01*
X122237643Y-81297521D01*
X122237640Y-81297517D01*
X122235439Y-81293839D01*
X122055687Y-81069472D01*
X121847149Y-80871577D01*
X121613683Y-80703814D01*
X121591843Y-80692250D01*
X121568654Y-80679972D01*
X121359608Y-80569288D01*
X121182681Y-80504542D01*
X121093658Y-80471964D01*
X121093656Y-80471963D01*
X121089627Y-80470489D01*
X120808736Y-80409245D01*
X120777685Y-80406801D01*
X120585718Y-80391693D01*
X120585709Y-80391693D01*
X120583261Y-80391500D01*
X120427729Y-80391500D01*
X120425593Y-80391646D01*
X120425582Y-80391646D01*
X120217452Y-80405835D01*
X120217446Y-80405836D01*
X120213175Y-80406127D01*
X120208980Y-80406996D01*
X120208978Y-80406996D01*
X120133552Y-80422616D01*
X119931658Y-80464426D01*
X119660657Y-80560393D01*
X119405188Y-80692250D01*
X119401687Y-80694711D01*
X119401683Y-80694713D01*
X119309222Y-80759696D01*
X119169977Y-80857559D01*
X119115158Y-80908500D01*
X118971787Y-81041729D01*
X118959378Y-81053260D01*
X118777287Y-81275732D01*
X118627073Y-81520858D01*
X118625347Y-81524791D01*
X118625346Y-81524792D01*
X118513243Y-81780170D01*
X118511517Y-81784102D01*
X118432756Y-82060594D01*
X118392249Y-82345216D01*
X118392227Y-82349505D01*
X118392226Y-82349512D01*
X118390765Y-82628417D01*
X118390743Y-82632703D01*
X114455624Y-82632703D01*
X114419972Y-82525841D01*
X114417654Y-82518893D01*
X114326116Y-82370969D01*
X114318182Y-82363049D01*
X114208184Y-82253242D01*
X114208179Y-82253238D01*
X114203003Y-82248071D01*
X114054920Y-82156791D01*
X113889809Y-82102026D01*
X113882973Y-82101326D01*
X113882970Y-82101325D01*
X113831474Y-82096049D01*
X113787072Y-82091500D01*
X113212928Y-82091500D01*
X113209682Y-82091837D01*
X113209678Y-82091837D01*
X113115765Y-82101581D01*
X113115761Y-82101582D01*
X113108907Y-82102293D01*
X113102371Y-82104474D01*
X113102369Y-82104474D01*
X113009364Y-82135503D01*
X112938414Y-82138087D01*
X112877331Y-82101903D01*
X112854527Y-82063190D01*
X112853253Y-82063757D01*
X112850569Y-82057728D01*
X112848527Y-82051444D01*
X112828572Y-82016880D01*
X112778748Y-81930583D01*
X112753040Y-81886056D01*
X112625253Y-81744134D01*
X112470752Y-81631882D01*
X112464724Y-81629198D01*
X112464722Y-81629197D01*
X112302319Y-81556891D01*
X112302318Y-81556891D01*
X112296288Y-81554206D01*
X112202887Y-81534353D01*
X112115944Y-81515872D01*
X112115939Y-81515872D01*
X112109487Y-81514500D01*
X111918513Y-81514500D01*
X111912061Y-81515872D01*
X111912056Y-81515872D01*
X111825113Y-81534353D01*
X111731712Y-81554206D01*
X111725682Y-81556891D01*
X111725681Y-81556891D01*
X111563278Y-81629197D01*
X111563276Y-81629198D01*
X111557248Y-81631882D01*
X111402747Y-81744134D01*
X111398326Y-81749044D01*
X111398325Y-81749045D01*
X111302848Y-81855083D01*
X111242402Y-81892323D01*
X111169546Y-81890366D01*
X111129861Y-81877203D01*
X111123025Y-81876503D01*
X111123022Y-81876502D01*
X111079969Y-81872091D01*
X111025400Y-81866500D01*
X109974600Y-81866500D01*
X109971354Y-81866837D01*
X109971350Y-81866837D01*
X109875692Y-81876762D01*
X109875688Y-81876763D01*
X109868834Y-81877474D01*
X109862298Y-81879655D01*
X109862296Y-81879655D01*
X109824326Y-81892323D01*
X109701054Y-81933450D01*
X109566421Y-82016764D01*
X109497969Y-82035602D01*
X109434002Y-82016880D01*
X109303968Y-81936725D01*
X109303966Y-81936724D01*
X109297738Y-81932885D01*
X109251986Y-81917710D01*
X109193629Y-81877282D01*
X109166391Y-81811718D01*
X109171822Y-81759182D01*
X109222502Y-81603206D01*
X109224542Y-81596928D01*
X109229177Y-81552834D01*
X109243814Y-81413565D01*
X109244504Y-81407000D01*
X109243814Y-81400435D01*
X109225232Y-81223635D01*
X109225232Y-81223633D01*
X109224542Y-81217072D01*
X109165527Y-81035444D01*
X109143975Y-80998114D01*
X109092236Y-80908500D01*
X109070040Y-80870056D01*
X109046408Y-80843810D01*
X109015690Y-80779803D01*
X109024455Y-80709349D01*
X109069918Y-80654818D01*
X109140044Y-80633500D01*
X110291800Y-80633500D01*
X110359921Y-80653502D01*
X110379147Y-80669843D01*
X110379420Y-80669540D01*
X110384332Y-80673963D01*
X110388747Y-80678866D01*
X110394086Y-80682745D01*
X110533450Y-80783999D01*
X110543248Y-80791118D01*
X110549276Y-80793802D01*
X110549278Y-80793803D01*
X110709523Y-80865148D01*
X110717712Y-80868794D01*
X110811112Y-80888647D01*
X110898056Y-80907128D01*
X110898061Y-80907128D01*
X110904513Y-80908500D01*
X111095487Y-80908500D01*
X111101939Y-80907128D01*
X111101944Y-80907128D01*
X111188888Y-80888647D01*
X111282288Y-80868794D01*
X111307523Y-80857559D01*
X111391509Y-80820166D01*
X111448752Y-80794680D01*
X111519118Y-80785246D01*
X111551247Y-80794680D01*
X111608491Y-80820166D01*
X111692478Y-80857559D01*
X111717712Y-80868794D01*
X111811112Y-80888647D01*
X111898056Y-80907128D01*
X111898061Y-80907128D01*
X111904513Y-80908500D01*
X112095487Y-80908500D01*
X112101939Y-80907128D01*
X112101944Y-80907128D01*
X112188888Y-80888647D01*
X112282288Y-80868794D01*
X112307523Y-80857559D01*
X112391509Y-80820166D01*
X112448752Y-80794680D01*
X112519118Y-80785246D01*
X112551247Y-80794680D01*
X112608491Y-80820166D01*
X112692478Y-80857559D01*
X112717712Y-80868794D01*
X112811112Y-80888647D01*
X112898056Y-80907128D01*
X112898061Y-80907128D01*
X112904513Y-80908500D01*
X113095487Y-80908500D01*
X113101939Y-80907128D01*
X113101944Y-80907128D01*
X113188888Y-80888647D01*
X113282288Y-80868794D01*
X113290477Y-80865148D01*
X113450722Y-80793803D01*
X113450724Y-80793802D01*
X113456752Y-80791118D01*
X113466551Y-80783999D01*
X113605914Y-80682745D01*
X113611253Y-80678866D01*
X113615668Y-80673963D01*
X113620580Y-80669540D01*
X113621705Y-80670789D01*
X113675014Y-80637949D01*
X113708200Y-80633500D01*
X115247233Y-80633500D01*
X115258416Y-80634027D01*
X115265909Y-80635702D01*
X115273835Y-80635453D01*
X115273836Y-80635453D01*
X115333986Y-80633562D01*
X115337945Y-80633500D01*
X115365856Y-80633500D01*
X115369791Y-80633003D01*
X115369856Y-80632995D01*
X115381693Y-80632062D01*
X115413951Y-80631048D01*
X115417970Y-80630922D01*
X115425889Y-80630673D01*
X115445343Y-80625021D01*
X115464700Y-80621013D01*
X115476930Y-80619468D01*
X115476931Y-80619468D01*
X115484797Y-80618474D01*
X115492168Y-80615555D01*
X115492170Y-80615555D01*
X115525912Y-80602196D01*
X115537142Y-80598351D01*
X115571983Y-80588229D01*
X115571984Y-80588229D01*
X115579593Y-80586018D01*
X115586412Y-80581985D01*
X115586417Y-80581983D01*
X115597028Y-80575707D01*
X115614776Y-80567012D01*
X115633617Y-80559552D01*
X115669387Y-80533564D01*
X115679307Y-80527048D01*
X115710535Y-80508580D01*
X115710538Y-80508578D01*
X115717362Y-80504542D01*
X115731683Y-80490221D01*
X115746717Y-80477380D01*
X115763107Y-80465472D01*
X115791298Y-80431395D01*
X115799288Y-80422616D01*
X117994253Y-78227652D01*
X118002539Y-78220112D01*
X118009018Y-78216000D01*
X118055644Y-78166348D01*
X118058398Y-78163507D01*
X118078135Y-78143770D01*
X118080615Y-78140573D01*
X118088320Y-78131551D01*
X118113159Y-78105100D01*
X118118586Y-78099321D01*
X118122405Y-78092375D01*
X118122407Y-78092372D01*
X118128348Y-78081566D01*
X118139199Y-78065047D01*
X118146758Y-78055301D01*
X118151614Y-78049041D01*
X118154759Y-78041772D01*
X118154762Y-78041768D01*
X118169174Y-78008463D01*
X118174391Y-77997813D01*
X118195695Y-77959060D01*
X118200733Y-77939437D01*
X118207137Y-77920734D01*
X118212033Y-77909420D01*
X118212033Y-77909419D01*
X118215181Y-77902145D01*
X118216420Y-77894322D01*
X118216423Y-77894312D01*
X118222099Y-77858476D01*
X118224505Y-77846856D01*
X118233528Y-77811711D01*
X118233528Y-77811710D01*
X118235500Y-77804030D01*
X118235500Y-77783776D01*
X118237051Y-77764065D01*
X118238980Y-77751886D01*
X118240220Y-77744057D01*
X118236059Y-77700038D01*
X118235500Y-77688181D01*
X118235500Y-76993100D01*
X118255502Y-76924979D01*
X118309158Y-76878486D01*
X118379432Y-76868382D01*
X118444012Y-76897876D01*
X118456737Y-76910602D01*
X118542865Y-77010031D01*
X118542869Y-77010035D01*
X118546250Y-77013938D01*
X118718126Y-77156632D01*
X118911000Y-77269338D01*
X119119692Y-77349030D01*
X119124760Y-77350061D01*
X119124763Y-77350062D01*
X119223578Y-77370166D01*
X119338597Y-77393567D01*
X119343772Y-77393757D01*
X119343774Y-77393757D01*
X119556673Y-77401564D01*
X119556677Y-77401564D01*
X119561837Y-77401753D01*
X119566957Y-77401097D01*
X119566959Y-77401097D01*
X119778288Y-77374025D01*
X119778289Y-77374025D01*
X119783416Y-77373368D01*
X119798662Y-77368794D01*
X119992429Y-77310661D01*
X119992434Y-77310659D01*
X119997384Y-77309174D01*
X120197994Y-77210896D01*
X120379860Y-77081173D01*
X120538096Y-76923489D01*
X120575414Y-76871556D01*
X120668453Y-76742077D01*
X120669776Y-76743028D01*
X120716645Y-76699857D01*
X120786580Y-76687625D01*
X120852026Y-76715144D01*
X120879875Y-76746994D01*
X120939987Y-76845088D01*
X121086250Y-77013938D01*
X121258126Y-77156632D01*
X121451000Y-77269338D01*
X121659692Y-77349030D01*
X121664760Y-77350061D01*
X121664763Y-77350062D01*
X121763578Y-77370166D01*
X121878597Y-77393567D01*
X121883772Y-77393757D01*
X121883774Y-77393757D01*
X122096673Y-77401564D01*
X122096677Y-77401564D01*
X122101837Y-77401753D01*
X122106957Y-77401097D01*
X122106959Y-77401097D01*
X122318288Y-77374025D01*
X122318289Y-77374025D01*
X122323416Y-77373368D01*
X122338662Y-77368794D01*
X122532429Y-77310661D01*
X122532434Y-77310659D01*
X122537384Y-77309174D01*
X122737994Y-77210896D01*
X122919860Y-77081173D01*
X123078096Y-76923489D01*
X123115414Y-76871556D01*
X123205435Y-76746277D01*
X123208453Y-76742077D01*
X123253044Y-76651854D01*
X123301156Y-76599648D01*
X123369857Y-76581741D01*
X123437334Y-76603819D01*
G37*
%TD.AperFunction*%
%TA.AperFunction,NonConductor*%
G36*
X112454421Y-84200028D02*
G01*
X112461909Y-84201702D01*
X112467844Y-84201515D01*
X112532959Y-84227514D01*
X112574193Y-84285309D01*
X112577636Y-84356222D01*
X112574754Y-84366295D01*
X112556951Y-84419970D01*
X112527026Y-84510191D01*
X112526326Y-84517027D01*
X112526325Y-84517030D01*
X112524953Y-84530425D01*
X112516500Y-84612928D01*
X112516500Y-85212072D01*
X112516837Y-85215318D01*
X112516837Y-85215322D01*
X112525873Y-85302404D01*
X112527293Y-85316093D01*
X112529474Y-85322630D01*
X112529475Y-85322635D01*
X112530638Y-85326120D01*
X112530721Y-85328406D01*
X112530930Y-85329372D01*
X112530758Y-85329409D01*
X112533225Y-85397069D01*
X112497044Y-85458154D01*
X112433581Y-85489981D01*
X112411116Y-85492000D01*
X111859500Y-85492000D01*
X111791379Y-85471998D01*
X111744886Y-85418342D01*
X111733500Y-85366000D01*
X111733500Y-84649600D01*
X111732049Y-84635617D01*
X111723238Y-84550692D01*
X111723237Y-84550688D01*
X111722526Y-84543834D01*
X111719056Y-84533431D01*
X111686382Y-84435497D01*
X111666550Y-84376054D01*
X111666518Y-84376002D01*
X111656187Y-84308777D01*
X111685053Y-84243913D01*
X111744405Y-84204953D01*
X111781072Y-84199500D01*
X112443233Y-84199500D01*
X112454421Y-84200028D01*
G37*
%TD.AperFunction*%
%TA.AperFunction,NonConductor*%
G36*
X106734526Y-73116002D02*
G01*
X106781019Y-73169658D01*
X106791123Y-73239932D01*
X106761629Y-73304512D01*
X106755500Y-73311095D01*
X106541747Y-73524848D01*
X106533461Y-73532388D01*
X106526982Y-73536500D01*
X106521557Y-73542277D01*
X106480357Y-73586151D01*
X106477602Y-73588993D01*
X106457865Y-73608730D01*
X106455385Y-73611927D01*
X106447682Y-73620947D01*
X106417414Y-73653179D01*
X106413595Y-73660125D01*
X106413593Y-73660128D01*
X106407652Y-73670934D01*
X106396801Y-73687453D01*
X106384386Y-73703459D01*
X106381241Y-73710728D01*
X106381238Y-73710732D01*
X106366826Y-73744037D01*
X106361609Y-73754687D01*
X106340305Y-73793440D01*
X106338334Y-73801115D01*
X106338334Y-73801116D01*
X106335267Y-73813062D01*
X106328863Y-73831766D01*
X106320819Y-73850355D01*
X106319580Y-73858178D01*
X106319577Y-73858188D01*
X106313901Y-73894024D01*
X106311495Y-73905644D01*
X106300500Y-73948470D01*
X106300500Y-73968724D01*
X106298949Y-73988434D01*
X106295780Y-74008443D01*
X106296526Y-74016335D01*
X106299941Y-74052461D01*
X106300500Y-74064319D01*
X106300500Y-75740233D01*
X106299973Y-75751416D01*
X106298298Y-75758909D01*
X106298547Y-75766835D01*
X106298547Y-75766836D01*
X106300438Y-75826986D01*
X106300500Y-75830945D01*
X106300500Y-75858856D01*
X106300997Y-75862790D01*
X106300997Y-75862791D01*
X106301005Y-75862856D01*
X106301938Y-75874693D01*
X106303327Y-75918889D01*
X106308978Y-75938339D01*
X106312987Y-75957700D01*
X106314197Y-75967274D01*
X106315526Y-75977797D01*
X106318445Y-75985168D01*
X106318445Y-75985170D01*
X106331804Y-76018912D01*
X106335649Y-76030142D01*
X106347982Y-76072593D01*
X106352015Y-76079412D01*
X106352017Y-76079417D01*
X106358293Y-76090028D01*
X106366988Y-76107776D01*
X106374448Y-76126617D01*
X106379110Y-76133033D01*
X106379110Y-76133034D01*
X106400436Y-76162387D01*
X106406952Y-76172307D01*
X106429458Y-76210362D01*
X106443779Y-76224683D01*
X106456619Y-76239716D01*
X106468528Y-76256107D01*
X106474634Y-76261158D01*
X106502605Y-76284298D01*
X106511384Y-76292288D01*
X109148843Y-78929747D01*
X109156387Y-78938037D01*
X109160500Y-78944518D01*
X109166277Y-78949943D01*
X109210167Y-78991158D01*
X109213009Y-78993913D01*
X109232731Y-79013635D01*
X109235855Y-79016058D01*
X109235859Y-79016062D01*
X109235924Y-79016112D01*
X109244947Y-79023819D01*
X109265546Y-79043163D01*
X109298815Y-79095136D01*
X109333449Y-79198946D01*
X109330779Y-79199837D01*
X109339597Y-79257226D01*
X109310729Y-79322088D01*
X109251377Y-79361047D01*
X109214712Y-79366500D01*
X108292767Y-79366500D01*
X108281584Y-79365973D01*
X108274091Y-79364298D01*
X108266165Y-79364547D01*
X108266164Y-79364547D01*
X108206014Y-79366438D01*
X108202055Y-79366500D01*
X108174144Y-79366500D01*
X108170210Y-79366997D01*
X108170209Y-79366997D01*
X108170144Y-79367005D01*
X108158307Y-79367938D01*
X108126490Y-79368938D01*
X108122029Y-79369078D01*
X108114110Y-79369327D01*
X108096454Y-79374456D01*
X108094658Y-79374978D01*
X108075306Y-79378986D01*
X108068235Y-79379880D01*
X108055203Y-79381526D01*
X108047834Y-79384443D01*
X108047832Y-79384444D01*
X108014097Y-79397800D01*
X108002869Y-79401645D01*
X107960407Y-79413982D01*
X107953584Y-79418017D01*
X107953582Y-79418018D01*
X107942972Y-79424293D01*
X107925224Y-79432988D01*
X107906383Y-79440448D01*
X107899967Y-79445110D01*
X107899966Y-79445110D01*
X107870613Y-79466436D01*
X107860693Y-79472952D01*
X107829465Y-79491420D01*
X107829462Y-79491422D01*
X107822638Y-79495458D01*
X107808317Y-79509779D01*
X107793284Y-79522619D01*
X107776893Y-79534528D01*
X107771843Y-79540632D01*
X107771838Y-79540637D01*
X107748707Y-79568598D01*
X107740717Y-79577379D01*
X106795742Y-80522353D01*
X106787463Y-80529887D01*
X106780982Y-80534000D01*
X106754248Y-80562469D01*
X106734357Y-80583651D01*
X106731602Y-80586493D01*
X106711865Y-80606230D01*
X106709385Y-80609427D01*
X106701682Y-80618447D01*
X106671414Y-80650679D01*
X106667595Y-80657625D01*
X106667593Y-80657628D01*
X106661652Y-80668434D01*
X106650801Y-80684953D01*
X106638386Y-80700959D01*
X106635241Y-80708228D01*
X106635238Y-80708232D01*
X106620826Y-80741537D01*
X106615609Y-80752187D01*
X106594305Y-80790940D01*
X106592334Y-80798615D01*
X106592334Y-80798616D01*
X106589267Y-80810562D01*
X106582863Y-80829266D01*
X106574819Y-80847855D01*
X106573580Y-80855678D01*
X106573577Y-80855688D01*
X106567901Y-80891524D01*
X106565495Y-80903144D01*
X106564120Y-80908500D01*
X106554500Y-80945970D01*
X106554500Y-80966224D01*
X106552949Y-80985934D01*
X106549780Y-81005943D01*
X106550526Y-81013835D01*
X106553941Y-81049961D01*
X106554500Y-81061819D01*
X106554500Y-84249233D01*
X106553973Y-84260416D01*
X106552298Y-84267909D01*
X106552547Y-84275835D01*
X106552547Y-84275836D01*
X106554438Y-84335986D01*
X106554500Y-84339945D01*
X106554500Y-84367856D01*
X106554997Y-84371790D01*
X106554997Y-84371791D01*
X106555005Y-84371856D01*
X106555938Y-84383693D01*
X106557327Y-84427889D01*
X106562460Y-84445556D01*
X106562978Y-84447339D01*
X106566987Y-84466700D01*
X106569526Y-84486797D01*
X106572445Y-84494168D01*
X106572445Y-84494170D01*
X106585804Y-84527912D01*
X106589649Y-84539142D01*
X106601982Y-84581593D01*
X106606015Y-84588412D01*
X106606017Y-84588417D01*
X106612293Y-84599028D01*
X106620988Y-84616776D01*
X106628448Y-84635617D01*
X106633110Y-84642033D01*
X106633110Y-84642034D01*
X106654436Y-84671387D01*
X106660952Y-84681307D01*
X106683458Y-84719362D01*
X106697779Y-84733683D01*
X106710619Y-84748716D01*
X106722528Y-84765107D01*
X106728634Y-84770158D01*
X106756605Y-84793298D01*
X106765384Y-84801288D01*
X107229595Y-85265499D01*
X107263621Y-85327811D01*
X107266500Y-85354594D01*
X107266500Y-85366000D01*
X107246498Y-85434121D01*
X107192842Y-85480614D01*
X107140500Y-85492000D01*
X100634000Y-85492000D01*
X100565879Y-85471998D01*
X100519386Y-85418342D01*
X100508000Y-85366000D01*
X100508000Y-82632703D01*
X101390743Y-82632703D01*
X101428268Y-82917734D01*
X101504129Y-83195036D01*
X101505813Y-83198984D01*
X101589479Y-83395134D01*
X101616923Y-83459476D01*
X101764561Y-83706161D01*
X101944313Y-83930528D01*
X102152851Y-84128423D01*
X102386317Y-84296186D01*
X102390112Y-84298195D01*
X102390113Y-84298196D01*
X102410097Y-84308777D01*
X102640392Y-84430712D01*
X102696594Y-84451279D01*
X102906004Y-84527912D01*
X102910373Y-84529511D01*
X103191264Y-84590755D01*
X103219841Y-84593004D01*
X103414282Y-84608307D01*
X103414291Y-84608307D01*
X103416739Y-84608500D01*
X103572271Y-84608500D01*
X103574407Y-84608354D01*
X103574418Y-84608354D01*
X103782548Y-84594165D01*
X103782554Y-84594164D01*
X103786825Y-84593873D01*
X103791020Y-84593004D01*
X103791022Y-84593004D01*
X103995339Y-84550692D01*
X104068342Y-84535574D01*
X104339343Y-84439607D01*
X104470609Y-84371856D01*
X104591005Y-84309715D01*
X104591006Y-84309715D01*
X104594812Y-84307750D01*
X104598313Y-84305289D01*
X104598317Y-84305287D01*
X104750616Y-84198249D01*
X104830023Y-84142441D01*
X104983245Y-84000058D01*
X105037479Y-83949661D01*
X105037481Y-83949658D01*
X105040622Y-83946740D01*
X105222713Y-83724268D01*
X105372927Y-83479142D01*
X105411509Y-83391251D01*
X105486757Y-83219830D01*
X105488483Y-83215898D01*
X105502449Y-83166872D01*
X105566068Y-82943534D01*
X105567244Y-82939406D01*
X105607751Y-82654784D01*
X105607845Y-82636951D01*
X105609235Y-82371583D01*
X105609235Y-82371576D01*
X105609257Y-82367297D01*
X105571732Y-82082266D01*
X105566514Y-82063190D01*
X105549585Y-82001311D01*
X105495871Y-81804964D01*
X105420900Y-81629197D01*
X105384763Y-81544476D01*
X105384761Y-81544472D01*
X105383077Y-81540524D01*
X105307094Y-81413565D01*
X105237643Y-81297521D01*
X105237640Y-81297517D01*
X105235439Y-81293839D01*
X105055687Y-81069472D01*
X104847149Y-80871577D01*
X104613683Y-80703814D01*
X104591843Y-80692250D01*
X104568654Y-80679972D01*
X104359608Y-80569288D01*
X104182681Y-80504542D01*
X104093658Y-80471964D01*
X104093656Y-80471963D01*
X104089627Y-80470489D01*
X103808736Y-80409245D01*
X103777685Y-80406801D01*
X103585718Y-80391693D01*
X103585709Y-80391693D01*
X103583261Y-80391500D01*
X103427729Y-80391500D01*
X103425593Y-80391646D01*
X103425582Y-80391646D01*
X103217452Y-80405835D01*
X103217446Y-80405836D01*
X103213175Y-80406127D01*
X103208980Y-80406996D01*
X103208978Y-80406996D01*
X103133552Y-80422616D01*
X102931658Y-80464426D01*
X102660657Y-80560393D01*
X102405188Y-80692250D01*
X102401687Y-80694711D01*
X102401683Y-80694713D01*
X102309222Y-80759696D01*
X102169977Y-80857559D01*
X102115158Y-80908500D01*
X101971787Y-81041729D01*
X101959378Y-81053260D01*
X101777287Y-81275732D01*
X101627073Y-81520858D01*
X101625347Y-81524791D01*
X101625346Y-81524792D01*
X101513243Y-81780170D01*
X101511517Y-81784102D01*
X101432756Y-82060594D01*
X101392249Y-82345216D01*
X101392227Y-82349505D01*
X101392226Y-82349512D01*
X101390765Y-82628417D01*
X101390743Y-82632703D01*
X100508000Y-82632703D01*
X100508000Y-76676822D01*
X100528002Y-76608701D01*
X100581658Y-76562208D01*
X100651932Y-76552104D01*
X100716512Y-76581598D01*
X100742584Y-76615034D01*
X100743266Y-76614616D01*
X100823948Y-76746277D01*
X100859987Y-76805088D01*
X101006250Y-76973938D01*
X101178126Y-77116632D01*
X101371000Y-77229338D01*
X101579692Y-77309030D01*
X101584760Y-77310061D01*
X101584763Y-77310062D01*
X101692017Y-77331883D01*
X101798597Y-77353567D01*
X101803772Y-77353757D01*
X101803774Y-77353757D01*
X102016673Y-77361564D01*
X102016677Y-77361564D01*
X102021837Y-77361753D01*
X102026957Y-77361097D01*
X102026959Y-77361097D01*
X102238288Y-77334025D01*
X102238289Y-77334025D01*
X102243416Y-77333368D01*
X102319102Y-77310661D01*
X102452429Y-77270661D01*
X102452434Y-77270659D01*
X102457384Y-77269174D01*
X102657994Y-77170896D01*
X102839860Y-77041173D01*
X102948091Y-76933319D01*
X103010462Y-76899404D01*
X103081268Y-76904592D01*
X103138030Y-76947238D01*
X103155012Y-76978341D01*
X103179691Y-77044171D01*
X103199385Y-77096705D01*
X103286739Y-77213261D01*
X103403295Y-77300615D01*
X103539684Y-77351745D01*
X103601866Y-77358500D01*
X105398134Y-77358500D01*
X105460316Y-77351745D01*
X105596705Y-77300615D01*
X105713261Y-77213261D01*
X105800615Y-77096705D01*
X105851745Y-76960316D01*
X105858500Y-76898134D01*
X105858500Y-75101866D01*
X105858075Y-75097949D01*
X105855356Y-75072925D01*
X105851745Y-75039684D01*
X105800615Y-74903295D01*
X105713261Y-74786739D01*
X105596705Y-74699385D01*
X105565165Y-74687561D01*
X105478203Y-74654960D01*
X105421439Y-74612318D01*
X105396739Y-74545756D01*
X105411947Y-74476408D01*
X105433493Y-74447727D01*
X105497956Y-74383489D01*
X105538096Y-74343489D01*
X105597594Y-74260689D01*
X105665435Y-74166277D01*
X105668453Y-74162077D01*
X105689320Y-74119857D01*
X105765136Y-73966453D01*
X105765137Y-73966451D01*
X105767430Y-73961811D01*
X105816791Y-73799344D01*
X105830865Y-73753023D01*
X105830865Y-73753021D01*
X105832370Y-73748069D01*
X105861529Y-73526590D01*
X105861629Y-73522502D01*
X105863074Y-73463365D01*
X105863074Y-73463361D01*
X105863156Y-73460000D01*
X105844852Y-73237361D01*
X105845934Y-73237272D01*
X105853892Y-73172109D01*
X105899233Y-73117476D01*
X105969594Y-73096000D01*
X106666405Y-73096000D01*
X106734526Y-73116002D01*
G37*
%TD.AperFunction*%
M02*
