%TF.GenerationSoftware,KiCad,Pcbnew,(6.0.0)*%
%TF.CreationDate,2023-03-26T17:46:31-04:00*%
%TF.ProjectId,daughterBoard,64617567-6874-4657-9242-6f6172642e6b,rev?*%
%TF.SameCoordinates,Original*%
%TF.FileFunction,Copper,L2,Inr*%
%TF.FilePolarity,Positive*%
%FSLAX46Y46*%
G04 Gerber Fmt 4.6, Leading zero omitted, Abs format (unit mm)*
G04 Created by KiCad (PCBNEW (6.0.0)) date 2023-03-26 17:46:31*
%MOMM*%
%LPD*%
G01*
G04 APERTURE LIST*
%TA.AperFunction,ComponentPad*%
%ADD10R,1.700000X1.700000*%
%TD*%
%TA.AperFunction,ComponentPad*%
%ADD11O,1.700000X1.700000*%
%TD*%
%TA.AperFunction,ViaPad*%
%ADD12C,0.800000*%
%TD*%
G04 APERTURE END LIST*
D10*
%TO.N,/SCM*%
%TO.C,J4*%
X119500000Y-52000000D03*
D11*
%TO.N,unconnected-(J4-Pad2)*%
X122040000Y-52000000D03*
%TO.N,/SDM*%
X119500000Y-54540000D03*
%TO.N,unconnected-(J4-Pad4)*%
X122040000Y-54540000D03*
%TO.N,+3V3*%
X119500000Y-57080000D03*
X122040000Y-57080000D03*
%TO.N,GND*%
X119500000Y-59620000D03*
X122040000Y-59620000D03*
%TO.N,unconnected-(J4-Pad9)*%
X119500000Y-62160000D03*
%TO.N,unconnected-(J4-Pad10)*%
X122040000Y-62160000D03*
%TD*%
D10*
%TO.N,Net-(J2-Pad1)*%
%TO.C,J2*%
X119500000Y-73500000D03*
D11*
%TO.N,unconnected-(J2-Pad2)*%
X122040000Y-73500000D03*
%TO.N,Net-(J2-Pad3)*%
X119500000Y-76040000D03*
%TO.N,unconnected-(J2-Pad4)*%
X122040000Y-76040000D03*
%TD*%
D10*
%TO.N,Net-(J3-Pad1)*%
%TO.C,J3*%
X104500000Y-76000000D03*
D11*
%TO.N,unconnected-(J3-Pad2)*%
X101960000Y-76000000D03*
%TO.N,Net-(J3-Pad3)*%
X104500000Y-73460000D03*
%TO.N,unconnected-(J3-Pad4)*%
X101960000Y-73460000D03*
%TD*%
D10*
%TO.N,/SCM*%
%TO.C,J1*%
X102000000Y-52000000D03*
D11*
%TO.N,unconnected-(J1-Pad2)*%
X104540000Y-52000000D03*
%TO.N,/SDM*%
X102000000Y-54540000D03*
%TO.N,unconnected-(J1-Pad4)*%
X104540000Y-54540000D03*
%TO.N,+3V3*%
X102000000Y-57080000D03*
X104540000Y-57080000D03*
%TO.N,GND*%
X102000000Y-59620000D03*
X104540000Y-59620000D03*
%TO.N,unconnected-(J1-Pad9)*%
X102000000Y-62160000D03*
%TO.N,unconnected-(J1-Pad10)*%
X104540000Y-62160000D03*
%TD*%
D12*
%TO.N,+3V3*%
X109728000Y-61087000D03*
X116713000Y-63627000D03*
X111506000Y-75057000D03*
X116500000Y-76500000D03*
X108331000Y-81407000D03*
X101000000Y-67000000D03*
X117221000Y-64389000D03*
X110071500Y-74000000D03*
X123000040Y-67001893D03*
%TO.N,GND*%
X111000000Y-80000000D03*
X113000000Y-80000000D03*
X101054500Y-66000000D03*
X122973500Y-66002610D03*
X112014000Y-82423000D03*
X118618000Y-71882000D03*
X116500000Y-54500000D03*
X112000000Y-80000000D03*
%TO.N,Net-(C3-Pad1)*%
X117531916Y-67526500D03*
%TO.N,Net-(C6-Pad1)*%
X105918000Y-65786000D03*
%TO.N,Net-(R1-Pad2)*%
X115062000Y-84074000D03*
%TO.N,/INT0*%
X111379000Y-65913000D03*
%TO.N,/INT1*%
X111464849Y-68986971D03*
%TO.N,Net-(R4-Pad2)*%
X111887000Y-64770000D03*
%TO.N,/SC3*%
X112395000Y-65913000D03*
%TO.N,/SD3*%
X112487701Y-67012299D03*
%TO.N,/SC2*%
X112463103Y-69036897D03*
%TO.N,/SD2*%
X112513029Y-70035151D03*
%TO.N,/SC1*%
X111500000Y-71000000D03*
%TO.N,/SD1*%
X111512299Y-69987701D03*
%TO.N,/SC0*%
X111476583Y-67987537D03*
%TO.N,/SD0*%
X111383299Y-66933299D03*
%TO.N,/INT2*%
X112499557Y-71034563D03*
%TO.N,/INT3*%
X112475402Y-68024598D03*
%TD*%
%TA.AperFunction,Conductor*%
%TO.N,GND*%
G36*
X118348562Y-50528002D02*
G01*
X118395055Y-50581658D01*
X118405159Y-50651932D01*
X118375665Y-50716512D01*
X118356006Y-50734826D01*
X118323568Y-50759137D01*
X118286739Y-50786739D01*
X118199385Y-50903295D01*
X118148255Y-51039684D01*
X118141500Y-51101866D01*
X118141500Y-52898134D01*
X118148255Y-52960316D01*
X118199385Y-53096705D01*
X118286739Y-53213261D01*
X118403295Y-53300615D01*
X118411704Y-53303767D01*
X118411705Y-53303768D01*
X118520451Y-53344535D01*
X118577216Y-53387176D01*
X118601916Y-53453738D01*
X118586709Y-53523087D01*
X118567316Y-53549568D01*
X118440629Y-53682138D01*
X118314743Y-53866680D01*
X118299006Y-53900583D01*
X118223516Y-54063213D01*
X118220688Y-54069305D01*
X118160989Y-54284570D01*
X118137251Y-54506695D01*
X118137548Y-54511848D01*
X118137548Y-54511851D01*
X118143011Y-54606590D01*
X118150110Y-54729715D01*
X118151247Y-54734761D01*
X118151248Y-54734767D01*
X118171119Y-54822939D01*
X118199222Y-54947639D01*
X118237461Y-55041811D01*
X118273647Y-55130926D01*
X118283266Y-55154616D01*
X118334019Y-55237438D01*
X118397291Y-55340688D01*
X118399987Y-55345088D01*
X118546250Y-55513938D01*
X118718126Y-55656632D01*
X118788595Y-55697811D01*
X118791445Y-55699476D01*
X118840169Y-55751114D01*
X118853240Y-55820897D01*
X118826509Y-55886669D01*
X118786055Y-55920027D01*
X118773607Y-55926507D01*
X118769474Y-55929610D01*
X118769471Y-55929612D01*
X118745247Y-55947800D01*
X118594965Y-56060635D01*
X118440629Y-56222138D01*
X118314743Y-56406680D01*
X118299006Y-56440583D01*
X118223516Y-56603213D01*
X118220688Y-56609305D01*
X118160989Y-56824570D01*
X118137251Y-57046695D01*
X118137548Y-57051848D01*
X118137548Y-57051851D01*
X118143011Y-57146590D01*
X118150110Y-57269715D01*
X118151247Y-57274761D01*
X118151248Y-57274767D01*
X118171119Y-57362939D01*
X118199222Y-57487639D01*
X118283266Y-57694616D01*
X118334019Y-57777438D01*
X118397291Y-57880688D01*
X118399987Y-57885088D01*
X118546250Y-58053938D01*
X118718126Y-58196632D01*
X118791955Y-58239774D01*
X118840679Y-58291412D01*
X118853750Y-58361195D01*
X118827019Y-58426967D01*
X118786562Y-58460327D01*
X118778457Y-58464546D01*
X118769738Y-58470036D01*
X118599433Y-58597905D01*
X118591726Y-58604748D01*
X118444590Y-58758717D01*
X118438104Y-58766727D01*
X118318098Y-58942649D01*
X118313000Y-58951623D01*
X118223338Y-59144783D01*
X118219775Y-59154470D01*
X118164389Y-59354183D01*
X118165912Y-59362607D01*
X118178292Y-59366000D01*
X122168000Y-59366000D01*
X122236121Y-59386002D01*
X122282614Y-59439658D01*
X122294000Y-59492000D01*
X122294000Y-59748000D01*
X122273998Y-59816121D01*
X122220342Y-59862614D01*
X122168000Y-59874000D01*
X118183225Y-59874000D01*
X118169694Y-59877973D01*
X118168257Y-59887966D01*
X118198565Y-60022446D01*
X118201645Y-60032275D01*
X118281770Y-60229603D01*
X118286413Y-60238794D01*
X118397694Y-60420388D01*
X118403777Y-60428699D01*
X118543213Y-60589667D01*
X118550580Y-60596883D01*
X118714434Y-60732916D01*
X118722881Y-60738831D01*
X118791969Y-60779203D01*
X118840693Y-60830842D01*
X118853764Y-60900625D01*
X118827033Y-60966396D01*
X118786584Y-60999752D01*
X118773607Y-61006507D01*
X118769474Y-61009610D01*
X118769471Y-61009612D01*
X118666400Y-61087000D01*
X118594965Y-61140635D01*
X118440629Y-61302138D01*
X118314743Y-61486680D01*
X118299006Y-61520583D01*
X118223516Y-61683213D01*
X118220688Y-61689305D01*
X118160989Y-61904570D01*
X118137251Y-62126695D01*
X118137548Y-62131848D01*
X118137548Y-62131851D01*
X118143011Y-62226590D01*
X118150110Y-62349715D01*
X118151247Y-62354761D01*
X118151248Y-62354767D01*
X118171119Y-62442939D01*
X118199222Y-62567639D01*
X118237461Y-62661811D01*
X118276603Y-62758206D01*
X118283266Y-62774616D01*
X118320810Y-62835882D01*
X118397291Y-62960688D01*
X118399987Y-62965088D01*
X118546250Y-63133938D01*
X118718126Y-63276632D01*
X118911000Y-63389338D01*
X119119692Y-63469030D01*
X119124760Y-63470061D01*
X119124763Y-63470062D01*
X119232017Y-63491883D01*
X119338597Y-63513567D01*
X119343772Y-63513757D01*
X119343774Y-63513757D01*
X119556673Y-63521564D01*
X119556677Y-63521564D01*
X119561837Y-63521753D01*
X119566957Y-63521097D01*
X119566959Y-63521097D01*
X119778288Y-63494025D01*
X119778289Y-63494025D01*
X119783416Y-63493368D01*
X119788366Y-63491883D01*
X119992429Y-63430661D01*
X119992434Y-63430659D01*
X119997384Y-63429174D01*
X120197994Y-63330896D01*
X120379860Y-63201173D01*
X120538096Y-63043489D01*
X120597594Y-62960689D01*
X120668453Y-62862077D01*
X120669776Y-62863028D01*
X120716645Y-62819857D01*
X120786580Y-62807625D01*
X120852026Y-62835144D01*
X120879875Y-62866994D01*
X120939987Y-62965088D01*
X121086250Y-63133938D01*
X121258126Y-63276632D01*
X121451000Y-63389338D01*
X121659692Y-63469030D01*
X121664760Y-63470061D01*
X121664763Y-63470062D01*
X121772017Y-63491883D01*
X121878597Y-63513567D01*
X121883772Y-63513757D01*
X121883774Y-63513757D01*
X122096673Y-63521564D01*
X122096677Y-63521564D01*
X122101837Y-63521753D01*
X122106957Y-63521097D01*
X122106959Y-63521097D01*
X122318288Y-63494025D01*
X122318289Y-63494025D01*
X122323416Y-63493368D01*
X122328366Y-63491883D01*
X122532429Y-63430661D01*
X122532434Y-63430659D01*
X122537384Y-63429174D01*
X122737994Y-63330896D01*
X122919860Y-63201173D01*
X123078096Y-63043489D01*
X123137594Y-62960689D01*
X123205435Y-62866277D01*
X123208453Y-62862077D01*
X123253044Y-62771854D01*
X123301156Y-62719648D01*
X123369857Y-62701741D01*
X123437334Y-62723819D01*
X123482162Y-62778873D01*
X123492000Y-62827682D01*
X123492000Y-66032428D01*
X123471998Y-66100549D01*
X123418342Y-66147042D01*
X123348068Y-66157146D01*
X123314750Y-66147534D01*
X123288363Y-66135785D01*
X123288355Y-66135782D01*
X123282328Y-66133099D01*
X123169921Y-66109206D01*
X123101984Y-66094765D01*
X123101979Y-66094765D01*
X123095527Y-66093393D01*
X122904553Y-66093393D01*
X122898101Y-66094765D01*
X122898096Y-66094765D01*
X122830159Y-66109206D01*
X122717752Y-66133099D01*
X122711722Y-66135784D01*
X122711721Y-66135784D01*
X122549318Y-66208090D01*
X122549316Y-66208091D01*
X122543288Y-66210775D01*
X122388787Y-66323027D01*
X122384366Y-66327937D01*
X122384365Y-66327938D01*
X122265497Y-66459955D01*
X122261000Y-66464949D01*
X122246610Y-66489874D01*
X122171844Y-66619372D01*
X122165513Y-66630337D01*
X122106498Y-66811965D01*
X122105808Y-66818526D01*
X122105808Y-66818528D01*
X122087833Y-66989556D01*
X122086536Y-67001893D01*
X122087226Y-67008458D01*
X122102021Y-67149221D01*
X122106498Y-67191821D01*
X122165513Y-67373449D01*
X122261000Y-67538837D01*
X122265418Y-67543744D01*
X122265419Y-67543745D01*
X122382661Y-67673955D01*
X122388787Y-67680759D01*
X122543288Y-67793011D01*
X122549316Y-67795695D01*
X122549318Y-67795696D01*
X122711719Y-67868001D01*
X122717752Y-67870687D01*
X122811152Y-67890540D01*
X122898096Y-67909021D01*
X122898101Y-67909021D01*
X122904553Y-67910393D01*
X123095527Y-67910393D01*
X123101979Y-67909021D01*
X123101984Y-67909021D01*
X123188928Y-67890540D01*
X123282328Y-67870687D01*
X123288355Y-67868004D01*
X123288363Y-67868001D01*
X123314750Y-67856252D01*
X123385117Y-67846817D01*
X123449414Y-67876923D01*
X123487228Y-67937011D01*
X123492000Y-67971358D01*
X123492000Y-72826519D01*
X123471998Y-72894640D01*
X123418342Y-72941133D01*
X123348068Y-72951237D01*
X123283488Y-72921743D01*
X123250452Y-72876764D01*
X123241354Y-72855840D01*
X123179105Y-72759618D01*
X123122822Y-72672617D01*
X123122820Y-72672614D01*
X123120014Y-72668277D01*
X122969670Y-72503051D01*
X122965619Y-72499852D01*
X122965615Y-72499848D01*
X122798414Y-72367800D01*
X122798410Y-72367798D01*
X122794359Y-72364598D01*
X122598789Y-72256638D01*
X122593920Y-72254914D01*
X122593916Y-72254912D01*
X122393087Y-72183795D01*
X122393083Y-72183794D01*
X122388212Y-72182069D01*
X122383119Y-72181162D01*
X122383116Y-72181161D01*
X122173373Y-72143800D01*
X122173367Y-72143799D01*
X122168284Y-72142894D01*
X122094452Y-72141992D01*
X121950081Y-72140228D01*
X121950079Y-72140228D01*
X121944911Y-72140165D01*
X121724091Y-72173955D01*
X121511756Y-72243357D01*
X121481443Y-72259137D01*
X121384482Y-72309612D01*
X121313607Y-72346507D01*
X121309474Y-72349610D01*
X121309471Y-72349612D01*
X121153298Y-72466870D01*
X121134965Y-72480635D01*
X121078537Y-72539684D01*
X121054283Y-72565064D01*
X120992759Y-72600494D01*
X120921846Y-72597037D01*
X120864060Y-72555791D01*
X120845207Y-72522243D01*
X120803767Y-72411703D01*
X120800615Y-72403295D01*
X120713261Y-72286739D01*
X120596705Y-72199385D01*
X120460316Y-72148255D01*
X120398134Y-72141500D01*
X118601866Y-72141500D01*
X118539684Y-72148255D01*
X118403295Y-72199385D01*
X118286739Y-72286739D01*
X118199385Y-72403295D01*
X118148255Y-72539684D01*
X118141500Y-72601866D01*
X118141500Y-74398134D01*
X118148255Y-74460316D01*
X118199385Y-74596705D01*
X118286739Y-74713261D01*
X118403295Y-74800615D01*
X118411704Y-74803767D01*
X118411705Y-74803768D01*
X118520451Y-74844535D01*
X118577216Y-74887176D01*
X118601916Y-74953738D01*
X118586709Y-75023087D01*
X118567316Y-75049568D01*
X118474771Y-75146411D01*
X118440629Y-75182138D01*
X118314743Y-75366680D01*
X118220688Y-75569305D01*
X118160989Y-75784570D01*
X118137251Y-76006695D01*
X118150110Y-76229715D01*
X118151247Y-76234761D01*
X118151248Y-76234767D01*
X118172275Y-76328069D01*
X118199222Y-76447639D01*
X118231723Y-76527680D01*
X118267194Y-76615034D01*
X118283266Y-76654616D01*
X118334022Y-76737443D01*
X118397291Y-76840688D01*
X118399987Y-76845088D01*
X118546250Y-77013938D01*
X118718126Y-77156632D01*
X118911000Y-77269338D01*
X119119692Y-77349030D01*
X119124760Y-77350061D01*
X119124763Y-77350062D01*
X119223578Y-77370166D01*
X119338597Y-77393567D01*
X119343772Y-77393757D01*
X119343774Y-77393757D01*
X119556673Y-77401564D01*
X119556677Y-77401564D01*
X119561837Y-77401753D01*
X119566957Y-77401097D01*
X119566959Y-77401097D01*
X119778288Y-77374025D01*
X119778289Y-77374025D01*
X119783416Y-77373368D01*
X119798662Y-77368794D01*
X119992429Y-77310661D01*
X119992434Y-77310659D01*
X119997384Y-77309174D01*
X120197994Y-77210896D01*
X120379860Y-77081173D01*
X120538096Y-76923489D01*
X120575414Y-76871556D01*
X120668453Y-76742077D01*
X120669776Y-76743028D01*
X120716645Y-76699857D01*
X120786580Y-76687625D01*
X120852026Y-76715144D01*
X120879875Y-76746994D01*
X120939987Y-76845088D01*
X121086250Y-77013938D01*
X121258126Y-77156632D01*
X121451000Y-77269338D01*
X121659692Y-77349030D01*
X121664760Y-77350061D01*
X121664763Y-77350062D01*
X121763578Y-77370166D01*
X121878597Y-77393567D01*
X121883772Y-77393757D01*
X121883774Y-77393757D01*
X122096673Y-77401564D01*
X122096677Y-77401564D01*
X122101837Y-77401753D01*
X122106957Y-77401097D01*
X122106959Y-77401097D01*
X122318288Y-77374025D01*
X122318289Y-77374025D01*
X122323416Y-77373368D01*
X122338662Y-77368794D01*
X122532429Y-77310661D01*
X122532434Y-77310659D01*
X122537384Y-77309174D01*
X122737994Y-77210896D01*
X122919860Y-77081173D01*
X123078096Y-76923489D01*
X123115414Y-76871556D01*
X123205435Y-76746277D01*
X123208453Y-76742077D01*
X123253044Y-76651854D01*
X123301156Y-76599648D01*
X123369857Y-76581741D01*
X123437334Y-76603819D01*
X123482162Y-76658873D01*
X123492000Y-76707682D01*
X123492000Y-85366000D01*
X123471998Y-85434121D01*
X123418342Y-85480614D01*
X123366000Y-85492000D01*
X100634000Y-85492000D01*
X100565879Y-85471998D01*
X100519386Y-85418342D01*
X100508000Y-85366000D01*
X100508000Y-82632703D01*
X101390743Y-82632703D01*
X101428268Y-82917734D01*
X101504129Y-83195036D01*
X101505813Y-83198984D01*
X101589479Y-83395134D01*
X101616923Y-83459476D01*
X101764561Y-83706161D01*
X101944313Y-83930528D01*
X102152851Y-84128423D01*
X102386317Y-84296186D01*
X102390112Y-84298195D01*
X102390113Y-84298196D01*
X102411869Y-84309715D01*
X102640392Y-84430712D01*
X102910373Y-84529511D01*
X103191264Y-84590755D01*
X103219841Y-84593004D01*
X103414282Y-84608307D01*
X103414291Y-84608307D01*
X103416739Y-84608500D01*
X103572271Y-84608500D01*
X103574407Y-84608354D01*
X103574418Y-84608354D01*
X103782548Y-84594165D01*
X103782554Y-84594164D01*
X103786825Y-84593873D01*
X103791020Y-84593004D01*
X103791022Y-84593004D01*
X103927584Y-84564723D01*
X104068342Y-84535574D01*
X104339343Y-84439607D01*
X104594812Y-84307750D01*
X104598313Y-84305289D01*
X104598317Y-84305287D01*
X104712417Y-84225096D01*
X104830023Y-84142441D01*
X104903674Y-84074000D01*
X114148496Y-84074000D01*
X114149186Y-84080565D01*
X114155383Y-84139522D01*
X114168458Y-84263928D01*
X114227473Y-84445556D01*
X114322960Y-84610944D01*
X114450747Y-84752866D01*
X114605248Y-84865118D01*
X114611276Y-84867802D01*
X114611278Y-84867803D01*
X114773681Y-84940109D01*
X114779712Y-84942794D01*
X114873112Y-84962647D01*
X114960056Y-84981128D01*
X114960061Y-84981128D01*
X114966513Y-84982500D01*
X115157487Y-84982500D01*
X115163939Y-84981128D01*
X115163944Y-84981128D01*
X115250888Y-84962647D01*
X115344288Y-84942794D01*
X115350319Y-84940109D01*
X115512722Y-84867803D01*
X115512724Y-84867802D01*
X115518752Y-84865118D01*
X115673253Y-84752866D01*
X115801040Y-84610944D01*
X115896527Y-84445556D01*
X115955542Y-84263928D01*
X115968618Y-84139522D01*
X115974814Y-84080565D01*
X115975504Y-84074000D01*
X115961780Y-83943421D01*
X115956232Y-83890635D01*
X115956232Y-83890633D01*
X115955542Y-83884072D01*
X115896527Y-83702444D01*
X115801040Y-83537056D01*
X115673253Y-83395134D01*
X115518752Y-83282882D01*
X115512724Y-83280198D01*
X115512722Y-83280197D01*
X115350319Y-83207891D01*
X115350318Y-83207891D01*
X115344288Y-83205206D01*
X115250888Y-83185353D01*
X115163944Y-83166872D01*
X115163939Y-83166872D01*
X115157487Y-83165500D01*
X114966513Y-83165500D01*
X114960061Y-83166872D01*
X114960056Y-83166872D01*
X114873112Y-83185353D01*
X114779712Y-83205206D01*
X114773682Y-83207891D01*
X114773681Y-83207891D01*
X114611278Y-83280197D01*
X114611276Y-83280198D01*
X114605248Y-83282882D01*
X114450747Y-83395134D01*
X114322960Y-83537056D01*
X114227473Y-83702444D01*
X114168458Y-83884072D01*
X114167768Y-83890633D01*
X114167768Y-83890635D01*
X114162220Y-83943421D01*
X114148496Y-84074000D01*
X104903674Y-84074000D01*
X105040622Y-83946740D01*
X105222713Y-83724268D01*
X105372927Y-83479142D01*
X105411509Y-83391251D01*
X105486757Y-83219830D01*
X105488483Y-83215898D01*
X105502449Y-83166872D01*
X105566068Y-82943534D01*
X105567244Y-82939406D01*
X105607751Y-82654784D01*
X105607845Y-82636951D01*
X105607867Y-82632703D01*
X118390743Y-82632703D01*
X118428268Y-82917734D01*
X118504129Y-83195036D01*
X118505813Y-83198984D01*
X118589479Y-83395134D01*
X118616923Y-83459476D01*
X118764561Y-83706161D01*
X118944313Y-83930528D01*
X119152851Y-84128423D01*
X119386317Y-84296186D01*
X119390112Y-84298195D01*
X119390113Y-84298196D01*
X119411869Y-84309715D01*
X119640392Y-84430712D01*
X119910373Y-84529511D01*
X120191264Y-84590755D01*
X120219841Y-84593004D01*
X120414282Y-84608307D01*
X120414291Y-84608307D01*
X120416739Y-84608500D01*
X120572271Y-84608500D01*
X120574407Y-84608354D01*
X120574418Y-84608354D01*
X120782548Y-84594165D01*
X120782554Y-84594164D01*
X120786825Y-84593873D01*
X120791020Y-84593004D01*
X120791022Y-84593004D01*
X120927584Y-84564723D01*
X121068342Y-84535574D01*
X121339343Y-84439607D01*
X121594812Y-84307750D01*
X121598313Y-84305289D01*
X121598317Y-84305287D01*
X121712417Y-84225096D01*
X121830023Y-84142441D01*
X122040622Y-83946740D01*
X122222713Y-83724268D01*
X122372927Y-83479142D01*
X122411509Y-83391251D01*
X122486757Y-83219830D01*
X122488483Y-83215898D01*
X122502449Y-83166872D01*
X122566068Y-82943534D01*
X122567244Y-82939406D01*
X122607751Y-82654784D01*
X122607845Y-82636951D01*
X122609235Y-82371583D01*
X122609235Y-82371576D01*
X122609257Y-82367297D01*
X122571732Y-82082266D01*
X122495871Y-81804964D01*
X122481926Y-81772271D01*
X122384763Y-81544476D01*
X122384761Y-81544472D01*
X122383077Y-81540524D01*
X122307094Y-81413565D01*
X122237643Y-81297521D01*
X122237640Y-81297517D01*
X122235439Y-81293839D01*
X122055687Y-81069472D01*
X121847149Y-80871577D01*
X121613683Y-80703814D01*
X121591843Y-80692250D01*
X121568654Y-80679972D01*
X121359608Y-80569288D01*
X121089627Y-80470489D01*
X120808736Y-80409245D01*
X120777685Y-80406801D01*
X120585718Y-80391693D01*
X120585709Y-80391693D01*
X120583261Y-80391500D01*
X120427729Y-80391500D01*
X120425593Y-80391646D01*
X120425582Y-80391646D01*
X120217452Y-80405835D01*
X120217446Y-80405836D01*
X120213175Y-80406127D01*
X120208980Y-80406996D01*
X120208978Y-80406996D01*
X120072416Y-80435277D01*
X119931658Y-80464426D01*
X119660657Y-80560393D01*
X119405188Y-80692250D01*
X119401687Y-80694711D01*
X119401683Y-80694713D01*
X119287582Y-80774905D01*
X119169977Y-80857559D01*
X119091597Y-80930394D01*
X118971787Y-81041729D01*
X118959378Y-81053260D01*
X118777287Y-81275732D01*
X118627073Y-81520858D01*
X118625347Y-81524791D01*
X118625346Y-81524792D01*
X118513243Y-81780170D01*
X118511517Y-81784102D01*
X118432756Y-82060594D01*
X118392249Y-82345216D01*
X118392227Y-82349505D01*
X118392226Y-82349512D01*
X118390765Y-82628417D01*
X118390743Y-82632703D01*
X105607867Y-82632703D01*
X105609235Y-82371583D01*
X105609235Y-82371576D01*
X105609257Y-82367297D01*
X105571732Y-82082266D01*
X105495871Y-81804964D01*
X105481926Y-81772271D01*
X105384763Y-81544476D01*
X105384761Y-81544472D01*
X105383077Y-81540524D01*
X105307094Y-81413565D01*
X105303165Y-81407000D01*
X107417496Y-81407000D01*
X107437458Y-81596928D01*
X107496473Y-81778556D01*
X107591960Y-81943944D01*
X107719747Y-82085866D01*
X107874248Y-82198118D01*
X107880276Y-82200802D01*
X107880278Y-82200803D01*
X108042681Y-82273109D01*
X108048712Y-82275794D01*
X108142112Y-82295647D01*
X108229056Y-82314128D01*
X108229061Y-82314128D01*
X108235513Y-82315500D01*
X108426487Y-82315500D01*
X108432939Y-82314128D01*
X108432944Y-82314128D01*
X108519888Y-82295647D01*
X108613288Y-82275794D01*
X108619319Y-82273109D01*
X108781722Y-82200803D01*
X108781724Y-82200802D01*
X108787752Y-82198118D01*
X108942253Y-82085866D01*
X109070040Y-81943944D01*
X109165527Y-81778556D01*
X109224542Y-81596928D01*
X109244504Y-81407000D01*
X109243814Y-81400435D01*
X109225232Y-81223635D01*
X109225232Y-81223633D01*
X109224542Y-81217072D01*
X109165527Y-81035444D01*
X109070040Y-80870056D01*
X108942253Y-80728134D01*
X108787752Y-80615882D01*
X108781724Y-80613198D01*
X108781722Y-80613197D01*
X108619319Y-80540891D01*
X108619318Y-80540891D01*
X108613288Y-80538206D01*
X108519887Y-80518353D01*
X108432944Y-80499872D01*
X108432939Y-80499872D01*
X108426487Y-80498500D01*
X108235513Y-80498500D01*
X108229061Y-80499872D01*
X108229056Y-80499872D01*
X108142113Y-80518353D01*
X108048712Y-80538206D01*
X108042682Y-80540891D01*
X108042681Y-80540891D01*
X107880278Y-80613197D01*
X107880276Y-80613198D01*
X107874248Y-80615882D01*
X107719747Y-80728134D01*
X107591960Y-80870056D01*
X107496473Y-81035444D01*
X107437458Y-81217072D01*
X107436768Y-81223633D01*
X107436768Y-81223635D01*
X107418186Y-81400435D01*
X107417496Y-81407000D01*
X105303165Y-81407000D01*
X105237643Y-81297521D01*
X105237640Y-81297517D01*
X105235439Y-81293839D01*
X105055687Y-81069472D01*
X104847149Y-80871577D01*
X104613683Y-80703814D01*
X104591843Y-80692250D01*
X104568654Y-80679972D01*
X104359608Y-80569288D01*
X104089627Y-80470489D01*
X103808736Y-80409245D01*
X103777685Y-80406801D01*
X103585718Y-80391693D01*
X103585709Y-80391693D01*
X103583261Y-80391500D01*
X103427729Y-80391500D01*
X103425593Y-80391646D01*
X103425582Y-80391646D01*
X103217452Y-80405835D01*
X103217446Y-80405836D01*
X103213175Y-80406127D01*
X103208980Y-80406996D01*
X103208978Y-80406996D01*
X103072416Y-80435277D01*
X102931658Y-80464426D01*
X102660657Y-80560393D01*
X102405188Y-80692250D01*
X102401687Y-80694711D01*
X102401683Y-80694713D01*
X102287582Y-80774905D01*
X102169977Y-80857559D01*
X102091597Y-80930394D01*
X101971787Y-81041729D01*
X101959378Y-81053260D01*
X101777287Y-81275732D01*
X101627073Y-81520858D01*
X101625347Y-81524791D01*
X101625346Y-81524792D01*
X101513243Y-81780170D01*
X101511517Y-81784102D01*
X101432756Y-82060594D01*
X101392249Y-82345216D01*
X101392227Y-82349505D01*
X101392226Y-82349512D01*
X101390765Y-82628417D01*
X101390743Y-82632703D01*
X100508000Y-82632703D01*
X100508000Y-76676822D01*
X100528002Y-76608701D01*
X100581658Y-76562208D01*
X100651932Y-76552104D01*
X100716512Y-76581598D01*
X100742584Y-76615034D01*
X100743266Y-76614616D01*
X100823948Y-76746277D01*
X100859987Y-76805088D01*
X101006250Y-76973938D01*
X101178126Y-77116632D01*
X101371000Y-77229338D01*
X101579692Y-77309030D01*
X101584760Y-77310061D01*
X101584763Y-77310062D01*
X101692017Y-77331883D01*
X101798597Y-77353567D01*
X101803772Y-77353757D01*
X101803774Y-77353757D01*
X102016673Y-77361564D01*
X102016677Y-77361564D01*
X102021837Y-77361753D01*
X102026957Y-77361097D01*
X102026959Y-77361097D01*
X102238288Y-77334025D01*
X102238289Y-77334025D01*
X102243416Y-77333368D01*
X102319102Y-77310661D01*
X102452429Y-77270661D01*
X102452434Y-77270659D01*
X102457384Y-77269174D01*
X102657994Y-77170896D01*
X102839860Y-77041173D01*
X102948091Y-76933319D01*
X103010462Y-76899404D01*
X103081268Y-76904592D01*
X103138030Y-76947238D01*
X103155012Y-76978341D01*
X103179691Y-77044171D01*
X103199385Y-77096705D01*
X103286739Y-77213261D01*
X103403295Y-77300615D01*
X103539684Y-77351745D01*
X103601866Y-77358500D01*
X105398134Y-77358500D01*
X105460316Y-77351745D01*
X105596705Y-77300615D01*
X105713261Y-77213261D01*
X105800615Y-77096705D01*
X105851745Y-76960316D01*
X105858500Y-76898134D01*
X105858500Y-76500000D01*
X115586496Y-76500000D01*
X115587186Y-76506565D01*
X115605081Y-76676822D01*
X115606458Y-76689928D01*
X115665473Y-76871556D01*
X115668776Y-76877278D01*
X115668777Y-76877279D01*
X115678845Y-76894717D01*
X115760960Y-77036944D01*
X115765378Y-77041851D01*
X115765379Y-77041852D01*
X115868727Y-77156632D01*
X115888747Y-77178866D01*
X115960752Y-77231181D01*
X116013271Y-77269338D01*
X116043248Y-77291118D01*
X116049276Y-77293802D01*
X116049278Y-77293803D01*
X116211681Y-77366109D01*
X116217712Y-77368794D01*
X116311113Y-77388647D01*
X116398056Y-77407128D01*
X116398061Y-77407128D01*
X116404513Y-77408500D01*
X116595487Y-77408500D01*
X116601939Y-77407128D01*
X116601944Y-77407128D01*
X116688887Y-77388647D01*
X116782288Y-77368794D01*
X116788319Y-77366109D01*
X116950722Y-77293803D01*
X116950724Y-77293802D01*
X116956752Y-77291118D01*
X116986730Y-77269338D01*
X117039248Y-77231181D01*
X117111253Y-77178866D01*
X117131273Y-77156632D01*
X117234621Y-77041852D01*
X117234622Y-77041851D01*
X117239040Y-77036944D01*
X117321155Y-76894717D01*
X117331223Y-76877279D01*
X117331224Y-76877278D01*
X117334527Y-76871556D01*
X117393542Y-76689928D01*
X117394920Y-76676822D01*
X117412814Y-76506565D01*
X117413504Y-76500000D01*
X117393542Y-76310072D01*
X117334527Y-76128444D01*
X117239040Y-75963056D01*
X117135550Y-75848118D01*
X117115675Y-75826045D01*
X117115674Y-75826044D01*
X117111253Y-75821134D01*
X116956752Y-75708882D01*
X116950724Y-75706198D01*
X116950722Y-75706197D01*
X116788319Y-75633891D01*
X116788318Y-75633891D01*
X116782288Y-75631206D01*
X116688888Y-75611353D01*
X116601944Y-75592872D01*
X116601939Y-75592872D01*
X116595487Y-75591500D01*
X116404513Y-75591500D01*
X116398061Y-75592872D01*
X116398056Y-75592872D01*
X116311112Y-75611353D01*
X116217712Y-75631206D01*
X116211682Y-75633891D01*
X116211681Y-75633891D01*
X116049278Y-75706197D01*
X116049276Y-75706198D01*
X116043248Y-75708882D01*
X115888747Y-75821134D01*
X115884326Y-75826044D01*
X115884325Y-75826045D01*
X115864451Y-75848118D01*
X115760960Y-75963056D01*
X115665473Y-76128444D01*
X115606458Y-76310072D01*
X115586496Y-76500000D01*
X105858500Y-76500000D01*
X105858500Y-75101866D01*
X105851745Y-75039684D01*
X105800615Y-74903295D01*
X105713261Y-74786739D01*
X105596705Y-74699385D01*
X105565165Y-74687561D01*
X105478203Y-74654960D01*
X105421439Y-74612318D01*
X105396739Y-74545756D01*
X105411947Y-74476408D01*
X105433493Y-74447727D01*
X105497956Y-74383489D01*
X105538096Y-74343489D01*
X105597594Y-74260689D01*
X105665435Y-74166277D01*
X105668453Y-74162077D01*
X105689320Y-74119857D01*
X105748556Y-74000000D01*
X109157996Y-74000000D01*
X109158686Y-74006565D01*
X109176086Y-74172113D01*
X109177958Y-74189928D01*
X109236973Y-74371556D01*
X109240276Y-74377278D01*
X109240277Y-74377279D01*
X109245969Y-74387137D01*
X109332460Y-74536944D01*
X109336878Y-74541851D01*
X109336879Y-74541852D01*
X109439759Y-74656112D01*
X109460247Y-74678866D01*
X109533100Y-74731797D01*
X109601315Y-74781358D01*
X109614748Y-74791118D01*
X109620776Y-74793802D01*
X109620778Y-74793803D01*
X109783181Y-74866109D01*
X109789212Y-74868794D01*
X109872545Y-74886507D01*
X109969556Y-74907128D01*
X109969561Y-74907128D01*
X109976013Y-74908500D01*
X110166987Y-74908500D01*
X110173439Y-74907128D01*
X110173444Y-74907128D01*
X110270455Y-74886507D01*
X110353788Y-74868794D01*
X110363213Y-74864598D01*
X110410137Y-74843706D01*
X110425597Y-74836823D01*
X110495963Y-74827389D01*
X110560260Y-74857495D01*
X110598074Y-74917584D01*
X110602155Y-74965100D01*
X110592496Y-75057000D01*
X110593186Y-75063565D01*
X110608396Y-75208277D01*
X110612458Y-75246928D01*
X110671473Y-75428556D01*
X110674776Y-75434278D01*
X110674777Y-75434279D01*
X110701828Y-75481133D01*
X110766960Y-75593944D01*
X110771378Y-75598851D01*
X110771379Y-75598852D01*
X110873945Y-75712763D01*
X110894747Y-75735866D01*
X111049248Y-75848118D01*
X111055276Y-75850802D01*
X111055278Y-75850803D01*
X111217681Y-75923109D01*
X111223712Y-75925794D01*
X111317112Y-75945647D01*
X111404056Y-75964128D01*
X111404061Y-75964128D01*
X111410513Y-75965500D01*
X111601487Y-75965500D01*
X111607939Y-75964128D01*
X111607944Y-75964128D01*
X111694888Y-75945647D01*
X111788288Y-75925794D01*
X111794319Y-75923109D01*
X111956722Y-75850803D01*
X111956724Y-75850802D01*
X111962752Y-75848118D01*
X112117253Y-75735866D01*
X112138055Y-75712763D01*
X112240621Y-75598852D01*
X112240622Y-75598851D01*
X112245040Y-75593944D01*
X112310172Y-75481133D01*
X112337223Y-75434279D01*
X112337224Y-75434278D01*
X112340527Y-75428556D01*
X112399542Y-75246928D01*
X112403605Y-75208277D01*
X112418814Y-75063565D01*
X112419504Y-75057000D01*
X112411478Y-74980635D01*
X112400232Y-74873635D01*
X112400232Y-74873633D01*
X112399542Y-74867072D01*
X112340527Y-74685444D01*
X112330981Y-74668909D01*
X112275796Y-74573327D01*
X112245040Y-74520056D01*
X112206489Y-74477240D01*
X112121675Y-74383045D01*
X112121674Y-74383044D01*
X112117253Y-74378134D01*
X111962752Y-74265882D01*
X111956724Y-74263198D01*
X111956722Y-74263197D01*
X111794319Y-74190891D01*
X111794318Y-74190891D01*
X111788288Y-74188206D01*
X111685121Y-74166277D01*
X111607944Y-74149872D01*
X111607939Y-74149872D01*
X111601487Y-74148500D01*
X111410513Y-74148500D01*
X111404061Y-74149872D01*
X111404056Y-74149872D01*
X111326879Y-74166277D01*
X111223712Y-74188206D01*
X111217682Y-74190891D01*
X111217681Y-74190891D01*
X111151904Y-74220177D01*
X111081537Y-74229611D01*
X111017240Y-74199505D01*
X110979426Y-74139416D01*
X110975345Y-74091900D01*
X110984314Y-74006565D01*
X110985004Y-74000000D01*
X110979505Y-73947680D01*
X110965732Y-73816635D01*
X110965732Y-73816633D01*
X110965042Y-73810072D01*
X110906027Y-73628444D01*
X110810540Y-73463056D01*
X110804769Y-73456646D01*
X110687175Y-73326045D01*
X110687174Y-73326044D01*
X110682753Y-73321134D01*
X110528252Y-73208882D01*
X110522224Y-73206198D01*
X110522222Y-73206197D01*
X110359819Y-73133891D01*
X110359818Y-73133891D01*
X110353788Y-73131206D01*
X110260387Y-73111353D01*
X110173444Y-73092872D01*
X110173439Y-73092872D01*
X110166987Y-73091500D01*
X109976013Y-73091500D01*
X109969561Y-73092872D01*
X109969556Y-73092872D01*
X109882613Y-73111353D01*
X109789212Y-73131206D01*
X109783182Y-73133891D01*
X109783181Y-73133891D01*
X109620778Y-73206197D01*
X109620776Y-73206198D01*
X109614748Y-73208882D01*
X109460247Y-73321134D01*
X109455826Y-73326044D01*
X109455825Y-73326045D01*
X109338232Y-73456646D01*
X109332460Y-73463056D01*
X109236973Y-73628444D01*
X109177958Y-73810072D01*
X109177268Y-73816633D01*
X109177268Y-73816635D01*
X109163495Y-73947680D01*
X109157996Y-74000000D01*
X105748556Y-74000000D01*
X105765136Y-73966453D01*
X105765137Y-73966451D01*
X105767430Y-73961811D01*
X105832370Y-73748069D01*
X105861529Y-73526590D01*
X105863156Y-73460000D01*
X105844852Y-73237361D01*
X105790431Y-73020702D01*
X105701354Y-72815840D01*
X105580014Y-72628277D01*
X105429670Y-72463051D01*
X105425619Y-72459852D01*
X105425615Y-72459848D01*
X105258414Y-72327800D01*
X105258410Y-72327798D01*
X105254359Y-72324598D01*
X105058789Y-72216638D01*
X105053920Y-72214914D01*
X105053916Y-72214912D01*
X104853087Y-72143795D01*
X104853083Y-72143794D01*
X104848212Y-72142069D01*
X104843119Y-72141162D01*
X104843116Y-72141161D01*
X104633373Y-72103800D01*
X104633367Y-72103799D01*
X104628284Y-72102894D01*
X104554452Y-72101992D01*
X104410081Y-72100228D01*
X104410079Y-72100228D01*
X104404911Y-72100165D01*
X104184091Y-72133955D01*
X103971756Y-72203357D01*
X103773607Y-72306507D01*
X103769474Y-72309610D01*
X103769471Y-72309612D01*
X103599100Y-72437530D01*
X103594965Y-72440635D01*
X103591393Y-72444373D01*
X103445504Y-72597037D01*
X103440629Y-72602138D01*
X103333201Y-72759621D01*
X103278293Y-72804621D01*
X103207768Y-72812792D01*
X103144021Y-72781538D01*
X103123324Y-72757054D01*
X103042822Y-72632617D01*
X103042820Y-72632614D01*
X103040014Y-72628277D01*
X102889670Y-72463051D01*
X102885619Y-72459852D01*
X102885615Y-72459848D01*
X102718414Y-72327800D01*
X102718410Y-72327798D01*
X102714359Y-72324598D01*
X102518789Y-72216638D01*
X102513920Y-72214914D01*
X102513916Y-72214912D01*
X102313087Y-72143795D01*
X102313083Y-72143794D01*
X102308212Y-72142069D01*
X102303119Y-72141162D01*
X102303116Y-72141161D01*
X102093373Y-72103800D01*
X102093367Y-72103799D01*
X102088284Y-72102894D01*
X102014452Y-72101992D01*
X101870081Y-72100228D01*
X101870079Y-72100228D01*
X101864911Y-72100165D01*
X101644091Y-72133955D01*
X101431756Y-72203357D01*
X101233607Y-72306507D01*
X101229474Y-72309610D01*
X101229471Y-72309612D01*
X101059100Y-72437530D01*
X101054965Y-72440635D01*
X101051393Y-72444373D01*
X100905504Y-72597037D01*
X100900629Y-72602138D01*
X100774743Y-72786680D01*
X100748946Y-72842256D01*
X100748288Y-72843673D01*
X100701464Y-72897040D01*
X100633221Y-72916621D01*
X100565225Y-72896198D01*
X100519065Y-72842256D01*
X100508000Y-72790623D01*
X100508000Y-67969448D01*
X100528002Y-67901327D01*
X100581658Y-67854834D01*
X100651932Y-67844730D01*
X100685247Y-67854341D01*
X100711673Y-67866106D01*
X100711679Y-67866108D01*
X100717712Y-67868794D01*
X100811112Y-67888647D01*
X100898056Y-67907128D01*
X100898061Y-67907128D01*
X100904513Y-67908500D01*
X101095487Y-67908500D01*
X101101939Y-67907128D01*
X101101944Y-67907128D01*
X101188888Y-67888647D01*
X101282288Y-67868794D01*
X101288319Y-67866109D01*
X101450722Y-67793803D01*
X101450724Y-67793802D01*
X101456752Y-67791118D01*
X101611253Y-67678866D01*
X101679302Y-67603290D01*
X101734621Y-67541852D01*
X101734622Y-67541851D01*
X101739040Y-67536944D01*
X101834527Y-67371556D01*
X101893542Y-67189928D01*
X101896559Y-67161229D01*
X101912814Y-67006565D01*
X101913504Y-67000000D01*
X101897082Y-66843751D01*
X101894232Y-66816635D01*
X101894232Y-66816633D01*
X101893542Y-66810072D01*
X101834527Y-66628444D01*
X101739040Y-66463056D01*
X101611253Y-66321134D01*
X101456752Y-66208882D01*
X101450724Y-66206198D01*
X101450722Y-66206197D01*
X101288319Y-66133891D01*
X101288318Y-66133891D01*
X101282288Y-66131206D01*
X101178787Y-66109206D01*
X101101944Y-66092872D01*
X101101939Y-66092872D01*
X101095487Y-66091500D01*
X100904513Y-66091500D01*
X100898061Y-66092872D01*
X100898056Y-66092872D01*
X100821213Y-66109206D01*
X100717712Y-66131206D01*
X100711679Y-66133892D01*
X100711673Y-66133894D01*
X100685247Y-66145659D01*
X100614880Y-66155093D01*
X100550584Y-66124986D01*
X100512771Y-66064896D01*
X100508000Y-66030552D01*
X100508000Y-65786000D01*
X105004496Y-65786000D01*
X105024458Y-65975928D01*
X105083473Y-66157556D01*
X105178960Y-66322944D01*
X105183378Y-66327851D01*
X105183379Y-66327852D01*
X105250769Y-66402696D01*
X105306747Y-66464866D01*
X105405843Y-66536864D01*
X105448737Y-66568028D01*
X105461248Y-66577118D01*
X105467276Y-66579802D01*
X105467278Y-66579803D01*
X105618269Y-66647028D01*
X105635712Y-66654794D01*
X105729112Y-66674647D01*
X105816056Y-66693128D01*
X105816061Y-66693128D01*
X105822513Y-66694500D01*
X106013487Y-66694500D01*
X106019939Y-66693128D01*
X106019944Y-66693128D01*
X106106888Y-66674647D01*
X106200288Y-66654794D01*
X106217731Y-66647028D01*
X106368722Y-66579803D01*
X106368724Y-66579802D01*
X106374752Y-66577118D01*
X106387264Y-66568028D01*
X106430157Y-66536864D01*
X106529253Y-66464866D01*
X106585231Y-66402696D01*
X106652621Y-66327852D01*
X106652622Y-66327851D01*
X106657040Y-66322944D01*
X106752527Y-66157556D01*
X106811542Y-65975928D01*
X106818156Y-65913000D01*
X110465496Y-65913000D01*
X110485458Y-66102928D01*
X110544473Y-66284556D01*
X110547776Y-66290278D01*
X110547777Y-66290279D01*
X110590267Y-66363873D01*
X110607005Y-66432868D01*
X110590268Y-66489870D01*
X110548772Y-66561743D01*
X110489757Y-66743371D01*
X110489067Y-66749932D01*
X110489067Y-66749934D01*
X110482114Y-66816093D01*
X110469795Y-66933299D01*
X110489757Y-67123227D01*
X110548772Y-67304855D01*
X110642612Y-67467390D01*
X110644259Y-67470243D01*
X110643737Y-67470544D01*
X110666057Y-67533101D01*
X110649383Y-67603290D01*
X110642056Y-67615981D01*
X110583041Y-67797609D01*
X110582351Y-67804170D01*
X110582351Y-67804172D01*
X110575642Y-67868002D01*
X110563079Y-67987537D01*
X110583041Y-68177465D01*
X110642056Y-68359093D01*
X110666758Y-68401877D01*
X110673810Y-68414092D01*
X110690548Y-68483087D01*
X110673810Y-68540091D01*
X110630322Y-68615415D01*
X110571307Y-68797043D01*
X110570617Y-68803604D01*
X110570617Y-68803606D01*
X110565370Y-68853532D01*
X110551345Y-68986971D01*
X110571307Y-69176899D01*
X110630322Y-69358527D01*
X110633625Y-69364249D01*
X110633626Y-69364250D01*
X110692042Y-69465429D01*
X110708780Y-69534424D01*
X110692043Y-69591428D01*
X110677772Y-69616145D01*
X110618757Y-69797773D01*
X110598795Y-69987701D01*
X110618757Y-70177629D01*
X110677772Y-70359257D01*
X110681075Y-70364979D01*
X110681076Y-70364980D01*
X110712957Y-70420199D01*
X110729695Y-70489194D01*
X110712957Y-70546199D01*
X110665473Y-70628444D01*
X110606458Y-70810072D01*
X110605768Y-70816633D01*
X110605768Y-70816635D01*
X110587186Y-70993435D01*
X110586496Y-71000000D01*
X110606458Y-71189928D01*
X110665473Y-71371556D01*
X110760960Y-71536944D01*
X110765378Y-71541851D01*
X110765379Y-71541852D01*
X110796500Y-71576415D01*
X110888747Y-71678866D01*
X110936319Y-71713429D01*
X111024008Y-71777139D01*
X111043248Y-71791118D01*
X111049276Y-71793802D01*
X111049278Y-71793803D01*
X111211681Y-71866109D01*
X111217712Y-71868794D01*
X111311112Y-71888647D01*
X111398056Y-71907128D01*
X111398061Y-71907128D01*
X111404513Y-71908500D01*
X111595487Y-71908500D01*
X111601939Y-71907128D01*
X111601944Y-71907128D01*
X111688888Y-71888647D01*
X111782288Y-71868794D01*
X111914156Y-71810083D01*
X111984522Y-71800649D01*
X112031008Y-71819777D01*
X112031746Y-71818499D01*
X112037464Y-71821800D01*
X112042805Y-71825681D01*
X112048833Y-71828365D01*
X112048835Y-71828366D01*
X112142720Y-71870166D01*
X112217269Y-71903357D01*
X112310669Y-71923210D01*
X112397613Y-71941691D01*
X112397618Y-71941691D01*
X112404070Y-71943063D01*
X112595044Y-71943063D01*
X112601496Y-71941691D01*
X112601501Y-71941691D01*
X112688445Y-71923210D01*
X112781845Y-71903357D01*
X112856394Y-71870166D01*
X112950279Y-71828366D01*
X112950281Y-71828365D01*
X112956309Y-71825681D01*
X112990763Y-71800649D01*
X113023121Y-71777139D01*
X113110810Y-71713429D01*
X113238597Y-71571507D01*
X113334084Y-71406119D01*
X113393099Y-71224491D01*
X113397422Y-71183365D01*
X113412371Y-71041128D01*
X113413061Y-71034563D01*
X113393099Y-70844635D01*
X113334084Y-70663007D01*
X113303204Y-70609522D01*
X113286467Y-70540530D01*
X113303204Y-70483526D01*
X113347556Y-70406707D01*
X113406571Y-70225079D01*
X113426533Y-70035151D01*
X113406571Y-69845223D01*
X113347556Y-69663595D01*
X113316860Y-69610427D01*
X113285313Y-69555787D01*
X113268575Y-69486792D01*
X113285312Y-69429788D01*
X113297630Y-69408453D01*
X113356645Y-69226825D01*
X113361893Y-69176899D01*
X113375917Y-69043462D01*
X113376607Y-69036897D01*
X113356645Y-68846969D01*
X113297630Y-68665341D01*
X113262445Y-68604399D01*
X113245707Y-68535404D01*
X113262445Y-68478399D01*
X113306625Y-68401877D01*
X113306626Y-68401876D01*
X113309929Y-68396154D01*
X113368944Y-68214526D01*
X113372180Y-68183743D01*
X113388216Y-68031163D01*
X113388906Y-68024598D01*
X113375606Y-67898056D01*
X113369634Y-67841233D01*
X113369634Y-67841231D01*
X113368944Y-67834670D01*
X113309929Y-67653042D01*
X113292161Y-67622266D01*
X113274744Y-67592100D01*
X113258830Y-67526500D01*
X116618412Y-67526500D01*
X116619102Y-67533065D01*
X116632373Y-67659327D01*
X116638374Y-67716428D01*
X116697389Y-67898056D01*
X116700692Y-67903778D01*
X116700693Y-67903779D01*
X116704512Y-67910393D01*
X116792876Y-68063444D01*
X116797294Y-68068351D01*
X116797295Y-68068352D01*
X116916241Y-68200455D01*
X116920663Y-68205366D01*
X117075164Y-68317618D01*
X117081192Y-68320302D01*
X117081194Y-68320303D01*
X117237443Y-68389869D01*
X117249628Y-68395294D01*
X117338065Y-68414092D01*
X117429972Y-68433628D01*
X117429977Y-68433628D01*
X117436429Y-68435000D01*
X117627403Y-68435000D01*
X117633855Y-68433628D01*
X117633860Y-68433628D01*
X117725767Y-68414092D01*
X117814204Y-68395294D01*
X117826389Y-68389869D01*
X117982638Y-68320303D01*
X117982640Y-68320302D01*
X117988668Y-68317618D01*
X118143169Y-68205366D01*
X118147591Y-68200455D01*
X118266537Y-68068352D01*
X118266538Y-68068351D01*
X118270956Y-68063444D01*
X118359320Y-67910393D01*
X118363139Y-67903779D01*
X118363140Y-67903778D01*
X118366443Y-67898056D01*
X118425458Y-67716428D01*
X118431460Y-67659327D01*
X118444730Y-67533065D01*
X118445420Y-67526500D01*
X118430428Y-67383855D01*
X118426148Y-67343135D01*
X118426148Y-67343133D01*
X118425458Y-67336572D01*
X118366443Y-67154944D01*
X118270956Y-66989556D01*
X118143169Y-66847634D01*
X117988668Y-66735382D01*
X117982640Y-66732698D01*
X117982638Y-66732697D01*
X117820235Y-66660391D01*
X117820234Y-66660391D01*
X117814204Y-66657706D01*
X117715012Y-66636622D01*
X117633860Y-66619372D01*
X117633855Y-66619372D01*
X117627403Y-66618000D01*
X117436429Y-66618000D01*
X117429977Y-66619372D01*
X117429972Y-66619372D01*
X117348820Y-66636622D01*
X117249628Y-66657706D01*
X117243598Y-66660391D01*
X117243597Y-66660391D01*
X117081194Y-66732697D01*
X117081192Y-66732698D01*
X117075164Y-66735382D01*
X116920663Y-66847634D01*
X116792876Y-66989556D01*
X116697389Y-67154944D01*
X116638374Y-67336572D01*
X116637684Y-67343133D01*
X116637684Y-67343135D01*
X116633404Y-67383855D01*
X116618412Y-67526500D01*
X113258830Y-67526500D01*
X113258006Y-67523105D01*
X113274744Y-67466100D01*
X113318924Y-67389578D01*
X113318925Y-67389577D01*
X113322228Y-67383855D01*
X113381243Y-67202227D01*
X113383027Y-67185258D01*
X113400515Y-67018864D01*
X113401205Y-67012299D01*
X113392212Y-66926734D01*
X113381933Y-66828934D01*
X113381933Y-66828932D01*
X113381243Y-66822371D01*
X113322228Y-66640743D01*
X113311823Y-66622721D01*
X113230045Y-66481077D01*
X113230043Y-66481074D01*
X113226741Y-66475355D01*
X113222322Y-66470447D01*
X113218440Y-66465104D01*
X113219504Y-66464331D01*
X113191857Y-66406719D01*
X113200620Y-66336266D01*
X113207091Y-66323416D01*
X113209558Y-66319144D01*
X113229527Y-66284556D01*
X113288542Y-66102928D01*
X113308504Y-65913000D01*
X113288542Y-65723072D01*
X113229527Y-65541444D01*
X113134040Y-65376056D01*
X113006253Y-65234134D01*
X112851752Y-65121882D01*
X112845722Y-65119197D01*
X112839999Y-65115893D01*
X112840838Y-65114441D01*
X112793121Y-65073887D01*
X112772467Y-65005961D01*
X112777563Y-64972758D01*
X112777129Y-64972666D01*
X112778502Y-64966205D01*
X112780542Y-64959928D01*
X112785177Y-64915834D01*
X112799814Y-64776565D01*
X112800504Y-64770000D01*
X112780542Y-64580072D01*
X112721527Y-64398444D01*
X112716075Y-64389000D01*
X112668077Y-64305866D01*
X112626040Y-64233056D01*
X112498253Y-64091134D01*
X112370831Y-63998556D01*
X112349094Y-63982763D01*
X112349093Y-63982762D01*
X112343752Y-63978882D01*
X112337724Y-63976198D01*
X112337722Y-63976197D01*
X112175319Y-63903891D01*
X112175318Y-63903891D01*
X112169288Y-63901206D01*
X112075888Y-63881353D01*
X111988944Y-63862872D01*
X111988939Y-63862872D01*
X111982487Y-63861500D01*
X111791513Y-63861500D01*
X111785061Y-63862872D01*
X111785056Y-63862872D01*
X111698112Y-63881353D01*
X111604712Y-63901206D01*
X111598682Y-63903891D01*
X111598681Y-63903891D01*
X111436278Y-63976197D01*
X111436276Y-63976198D01*
X111430248Y-63978882D01*
X111424907Y-63982762D01*
X111424906Y-63982763D01*
X111403169Y-63998556D01*
X111275747Y-64091134D01*
X111147960Y-64233056D01*
X111105923Y-64305866D01*
X111057926Y-64389000D01*
X111052473Y-64398444D01*
X110993458Y-64580072D01*
X110973496Y-64770000D01*
X110974186Y-64776565D01*
X110988824Y-64915834D01*
X110993458Y-64959928D01*
X110995498Y-64966205D01*
X110996871Y-64972666D01*
X110995575Y-64972942D01*
X110997401Y-65036781D01*
X110960740Y-65097580D01*
X110933680Y-65115337D01*
X110934001Y-65115893D01*
X110928278Y-65119197D01*
X110922248Y-65121882D01*
X110767747Y-65234134D01*
X110639960Y-65376056D01*
X110544473Y-65541444D01*
X110485458Y-65723072D01*
X110465496Y-65913000D01*
X106818156Y-65913000D01*
X106831504Y-65786000D01*
X106811542Y-65596072D01*
X106752527Y-65414444D01*
X106657040Y-65249056D01*
X106529253Y-65107134D01*
X106374752Y-64994882D01*
X106368724Y-64992198D01*
X106368722Y-64992197D01*
X106206319Y-64919891D01*
X106206318Y-64919891D01*
X106200288Y-64917206D01*
X106106888Y-64897353D01*
X106019944Y-64878872D01*
X106019939Y-64878872D01*
X106013487Y-64877500D01*
X105822513Y-64877500D01*
X105816061Y-64878872D01*
X105816056Y-64878872D01*
X105729112Y-64897353D01*
X105635712Y-64917206D01*
X105629682Y-64919891D01*
X105629681Y-64919891D01*
X105467278Y-64992197D01*
X105467276Y-64992198D01*
X105461248Y-64994882D01*
X105306747Y-65107134D01*
X105178960Y-65249056D01*
X105083473Y-65414444D01*
X105024458Y-65596072D01*
X105004496Y-65786000D01*
X100508000Y-65786000D01*
X100508000Y-63627000D01*
X115799496Y-63627000D01*
X115800186Y-63633565D01*
X115807826Y-63706251D01*
X115819458Y-63816928D01*
X115878473Y-63998556D01*
X115973960Y-64163944D01*
X115978378Y-64168851D01*
X115978379Y-64168852D01*
X116005589Y-64199072D01*
X116101747Y-64305866D01*
X116200843Y-64377864D01*
X116237820Y-64404729D01*
X116256248Y-64418118D01*
X116259232Y-64419447D01*
X116307370Y-64469935D01*
X116320686Y-64514498D01*
X116327458Y-64578928D01*
X116386473Y-64760556D01*
X116389776Y-64766278D01*
X116389777Y-64766279D01*
X116395716Y-64776565D01*
X116481960Y-64925944D01*
X116486378Y-64930851D01*
X116486379Y-64930852D01*
X116581758Y-65036781D01*
X116609747Y-65067866D01*
X116764248Y-65180118D01*
X116770276Y-65182802D01*
X116770278Y-65182803D01*
X116908062Y-65244148D01*
X116938712Y-65257794D01*
X117032112Y-65277647D01*
X117119056Y-65296128D01*
X117119061Y-65296128D01*
X117125513Y-65297500D01*
X117316487Y-65297500D01*
X117322939Y-65296128D01*
X117322944Y-65296128D01*
X117409888Y-65277647D01*
X117503288Y-65257794D01*
X117533938Y-65244148D01*
X117671722Y-65182803D01*
X117671724Y-65182802D01*
X117677752Y-65180118D01*
X117832253Y-65067866D01*
X117860242Y-65036781D01*
X117955621Y-64930852D01*
X117955622Y-64930851D01*
X117960040Y-64925944D01*
X118046284Y-64776565D01*
X118052223Y-64766279D01*
X118052224Y-64766278D01*
X118055527Y-64760556D01*
X118114542Y-64578928D01*
X118125998Y-64469935D01*
X118133814Y-64395565D01*
X118134504Y-64389000D01*
X118133814Y-64382435D01*
X118115232Y-64205635D01*
X118115232Y-64205633D01*
X118114542Y-64199072D01*
X118055527Y-64017444D01*
X117960040Y-63852056D01*
X117934064Y-63823206D01*
X117836675Y-63715045D01*
X117836674Y-63715044D01*
X117832253Y-63710134D01*
X117717829Y-63627000D01*
X117683094Y-63601763D01*
X117683093Y-63601762D01*
X117677752Y-63597882D01*
X117674768Y-63596553D01*
X117626630Y-63546065D01*
X117613314Y-63501502D01*
X117607232Y-63443636D01*
X117607232Y-63443635D01*
X117606542Y-63437072D01*
X117547527Y-63255444D01*
X117517925Y-63204171D01*
X117477375Y-63133938D01*
X117452040Y-63090056D01*
X117339519Y-62965088D01*
X117328675Y-62953045D01*
X117328674Y-62953044D01*
X117324253Y-62948134D01*
X117169752Y-62835882D01*
X117163724Y-62833198D01*
X117163722Y-62833197D01*
X117001319Y-62760891D01*
X117001318Y-62760891D01*
X116995288Y-62758206D01*
X116901887Y-62738353D01*
X116814944Y-62719872D01*
X116814939Y-62719872D01*
X116808487Y-62718500D01*
X116617513Y-62718500D01*
X116611061Y-62719872D01*
X116611056Y-62719872D01*
X116524113Y-62738353D01*
X116430712Y-62758206D01*
X116424682Y-62760891D01*
X116424681Y-62760891D01*
X116262278Y-62833197D01*
X116262276Y-62833198D01*
X116256248Y-62835882D01*
X116101747Y-62948134D01*
X116097326Y-62953044D01*
X116097325Y-62953045D01*
X116086482Y-62965088D01*
X115973960Y-63090056D01*
X115948625Y-63133938D01*
X115908076Y-63204171D01*
X115878473Y-63255444D01*
X115819458Y-63437072D01*
X115818768Y-63443633D01*
X115818768Y-63443635D01*
X115802602Y-63597449D01*
X115799496Y-63627000D01*
X100508000Y-63627000D01*
X100508000Y-62741925D01*
X100528002Y-62673804D01*
X100581658Y-62627311D01*
X100651932Y-62617207D01*
X100716512Y-62646701D01*
X100750743Y-62694521D01*
X100776603Y-62758206D01*
X100783266Y-62774616D01*
X100820810Y-62835882D01*
X100897291Y-62960688D01*
X100899987Y-62965088D01*
X101046250Y-63133938D01*
X101218126Y-63276632D01*
X101411000Y-63389338D01*
X101619692Y-63469030D01*
X101624760Y-63470061D01*
X101624763Y-63470062D01*
X101732017Y-63491883D01*
X101838597Y-63513567D01*
X101843772Y-63513757D01*
X101843774Y-63513757D01*
X102056673Y-63521564D01*
X102056677Y-63521564D01*
X102061837Y-63521753D01*
X102066957Y-63521097D01*
X102066959Y-63521097D01*
X102278288Y-63494025D01*
X102278289Y-63494025D01*
X102283416Y-63493368D01*
X102288366Y-63491883D01*
X102492429Y-63430661D01*
X102492434Y-63430659D01*
X102497384Y-63429174D01*
X102697994Y-63330896D01*
X102879860Y-63201173D01*
X103038096Y-63043489D01*
X103097594Y-62960689D01*
X103168453Y-62862077D01*
X103169776Y-62863028D01*
X103216645Y-62819857D01*
X103286580Y-62807625D01*
X103352026Y-62835144D01*
X103379875Y-62866994D01*
X103439987Y-62965088D01*
X103586250Y-63133938D01*
X103758126Y-63276632D01*
X103951000Y-63389338D01*
X104159692Y-63469030D01*
X104164760Y-63470061D01*
X104164763Y-63470062D01*
X104272017Y-63491883D01*
X104378597Y-63513567D01*
X104383772Y-63513757D01*
X104383774Y-63513757D01*
X104596673Y-63521564D01*
X104596677Y-63521564D01*
X104601837Y-63521753D01*
X104606957Y-63521097D01*
X104606959Y-63521097D01*
X104818288Y-63494025D01*
X104818289Y-63494025D01*
X104823416Y-63493368D01*
X104828366Y-63491883D01*
X105032429Y-63430661D01*
X105032434Y-63430659D01*
X105037384Y-63429174D01*
X105237994Y-63330896D01*
X105419860Y-63201173D01*
X105578096Y-63043489D01*
X105637594Y-62960689D01*
X105705435Y-62866277D01*
X105708453Y-62862077D01*
X105721400Y-62835882D01*
X105805136Y-62666453D01*
X105805137Y-62666451D01*
X105807430Y-62661811D01*
X105872370Y-62448069D01*
X105901529Y-62226590D01*
X105903156Y-62160000D01*
X105884852Y-61937361D01*
X105830431Y-61720702D01*
X105741354Y-61515840D01*
X105620014Y-61328277D01*
X105469670Y-61163051D01*
X105465619Y-61159852D01*
X105465615Y-61159848D01*
X105373374Y-61087000D01*
X108814496Y-61087000D01*
X108815186Y-61093565D01*
X108822891Y-61166870D01*
X108834458Y-61276928D01*
X108893473Y-61458556D01*
X108988960Y-61623944D01*
X109116747Y-61765866D01*
X109271248Y-61878118D01*
X109277276Y-61880802D01*
X109277278Y-61880803D01*
X109415902Y-61942522D01*
X109445712Y-61955794D01*
X109539112Y-61975647D01*
X109626056Y-61994128D01*
X109626061Y-61994128D01*
X109632513Y-61995500D01*
X109823487Y-61995500D01*
X109829939Y-61994128D01*
X109829944Y-61994128D01*
X109916888Y-61975647D01*
X110010288Y-61955794D01*
X110040098Y-61942522D01*
X110178722Y-61880803D01*
X110178724Y-61880802D01*
X110184752Y-61878118D01*
X110339253Y-61765866D01*
X110467040Y-61623944D01*
X110562527Y-61458556D01*
X110621542Y-61276928D01*
X110633110Y-61166870D01*
X110640814Y-61093565D01*
X110641504Y-61087000D01*
X110633044Y-61006507D01*
X110622232Y-60903635D01*
X110622232Y-60903633D01*
X110621542Y-60897072D01*
X110562527Y-60715444D01*
X110467040Y-60550056D01*
X110339253Y-60408134D01*
X110184752Y-60295882D01*
X110178724Y-60293198D01*
X110178722Y-60293197D01*
X110016319Y-60220891D01*
X110016318Y-60220891D01*
X110010288Y-60218206D01*
X109916887Y-60198353D01*
X109829944Y-60179872D01*
X109829939Y-60179872D01*
X109823487Y-60178500D01*
X109632513Y-60178500D01*
X109626061Y-60179872D01*
X109626056Y-60179872D01*
X109539113Y-60198353D01*
X109445712Y-60218206D01*
X109439682Y-60220891D01*
X109439681Y-60220891D01*
X109277278Y-60293197D01*
X109277276Y-60293198D01*
X109271248Y-60295882D01*
X109116747Y-60408134D01*
X108988960Y-60550056D01*
X108893473Y-60715444D01*
X108834458Y-60897072D01*
X108833768Y-60903633D01*
X108833768Y-60903635D01*
X108822956Y-61006507D01*
X108814496Y-61087000D01*
X105373374Y-61087000D01*
X105298414Y-61027800D01*
X105298410Y-61027798D01*
X105294359Y-61024598D01*
X105252569Y-61001529D01*
X105202598Y-60951097D01*
X105187826Y-60881654D01*
X105212942Y-60815248D01*
X105240294Y-60788641D01*
X105415328Y-60663792D01*
X105423200Y-60657139D01*
X105574052Y-60506812D01*
X105580730Y-60498965D01*
X105705003Y-60326020D01*
X105710313Y-60317183D01*
X105804670Y-60126267D01*
X105808469Y-60116672D01*
X105870377Y-59912910D01*
X105872555Y-59902837D01*
X105873986Y-59891962D01*
X105871775Y-59877778D01*
X105858617Y-59874000D01*
X101872000Y-59874000D01*
X101803879Y-59853998D01*
X101757386Y-59800342D01*
X101746000Y-59748000D01*
X101746000Y-59492000D01*
X101766002Y-59423879D01*
X101819658Y-59377386D01*
X101872000Y-59366000D01*
X105858344Y-59366000D01*
X105871875Y-59362027D01*
X105873180Y-59352947D01*
X105831214Y-59185875D01*
X105827894Y-59176124D01*
X105742972Y-58980814D01*
X105738105Y-58971739D01*
X105622426Y-58792926D01*
X105616136Y-58784757D01*
X105472806Y-58627240D01*
X105465273Y-58620215D01*
X105298139Y-58488222D01*
X105289556Y-58482520D01*
X105252602Y-58462120D01*
X105202631Y-58411687D01*
X105187859Y-58342245D01*
X105212975Y-58275839D01*
X105240327Y-58249232D01*
X105263797Y-58232491D01*
X105419860Y-58121173D01*
X105578096Y-57963489D01*
X105637594Y-57880689D01*
X105705435Y-57786277D01*
X105708453Y-57782077D01*
X105729320Y-57739857D01*
X105805136Y-57586453D01*
X105805137Y-57586451D01*
X105807430Y-57581811D01*
X105872370Y-57368069D01*
X105901529Y-57146590D01*
X105903156Y-57080000D01*
X105884852Y-56857361D01*
X105830431Y-56640702D01*
X105741354Y-56435840D01*
X105620014Y-56248277D01*
X105469670Y-56083051D01*
X105465619Y-56079852D01*
X105465615Y-56079848D01*
X105298414Y-55947800D01*
X105298410Y-55947798D01*
X105294359Y-55944598D01*
X105253053Y-55921796D01*
X105203084Y-55871364D01*
X105188312Y-55801921D01*
X105213428Y-55735516D01*
X105240780Y-55708909D01*
X105284603Y-55677650D01*
X105419860Y-55581173D01*
X105578096Y-55423489D01*
X105637594Y-55340689D01*
X105705435Y-55246277D01*
X105708453Y-55242077D01*
X105729320Y-55199857D01*
X105805136Y-55046453D01*
X105805137Y-55046451D01*
X105807430Y-55041811D01*
X105872370Y-54828069D01*
X105901529Y-54606590D01*
X105903156Y-54540000D01*
X105884852Y-54317361D01*
X105830431Y-54100702D01*
X105741354Y-53895840D01*
X105620014Y-53708277D01*
X105551247Y-53632703D01*
X109890743Y-53632703D01*
X109891302Y-53636947D01*
X109891302Y-53636951D01*
X109900692Y-53708277D01*
X109928268Y-53917734D01*
X110004129Y-54195036D01*
X110005813Y-54198984D01*
X110054165Y-54312342D01*
X110116923Y-54459476D01*
X110264561Y-54706161D01*
X110444313Y-54930528D01*
X110561581Y-55041811D01*
X110646004Y-55121925D01*
X110652851Y-55128423D01*
X110886317Y-55296186D01*
X110890112Y-55298195D01*
X110890113Y-55298196D01*
X110911869Y-55309715D01*
X111140392Y-55430712D01*
X111410373Y-55529511D01*
X111691264Y-55590755D01*
X111719841Y-55593004D01*
X111914282Y-55608307D01*
X111914291Y-55608307D01*
X111916739Y-55608500D01*
X112072271Y-55608500D01*
X112074407Y-55608354D01*
X112074418Y-55608354D01*
X112282548Y-55594165D01*
X112282554Y-55594164D01*
X112286825Y-55593873D01*
X112291020Y-55593004D01*
X112291022Y-55593004D01*
X112427583Y-55564724D01*
X112568342Y-55535574D01*
X112839343Y-55439607D01*
X113094812Y-55307750D01*
X113098313Y-55305289D01*
X113098317Y-55305287D01*
X113248328Y-55199857D01*
X113330023Y-55142441D01*
X113486313Y-54997207D01*
X113537479Y-54949661D01*
X113537481Y-54949658D01*
X113540622Y-54946740D01*
X113722713Y-54724268D01*
X113872927Y-54479142D01*
X113988483Y-54215898D01*
X114067244Y-53939406D01*
X114107751Y-53654784D01*
X114107845Y-53636951D01*
X114109235Y-53371583D01*
X114109235Y-53371576D01*
X114109257Y-53367297D01*
X114106542Y-53346669D01*
X114088695Y-53211114D01*
X114071732Y-53082266D01*
X113995871Y-52804964D01*
X113913503Y-52611856D01*
X113884763Y-52544476D01*
X113884761Y-52544472D01*
X113883077Y-52540524D01*
X113735439Y-52293839D01*
X113555687Y-52069472D01*
X113347149Y-51871577D01*
X113113683Y-51703814D01*
X113091843Y-51692250D01*
X113068654Y-51679972D01*
X112859608Y-51569288D01*
X112589627Y-51470489D01*
X112308736Y-51409245D01*
X112277685Y-51406801D01*
X112085718Y-51391693D01*
X112085709Y-51391693D01*
X112083261Y-51391500D01*
X111927729Y-51391500D01*
X111925593Y-51391646D01*
X111925582Y-51391646D01*
X111717452Y-51405835D01*
X111717446Y-51405836D01*
X111713175Y-51406127D01*
X111708980Y-51406996D01*
X111708978Y-51406996D01*
X111572416Y-51435277D01*
X111431658Y-51464426D01*
X111160657Y-51560393D01*
X110905188Y-51692250D01*
X110901687Y-51694711D01*
X110901683Y-51694713D01*
X110891594Y-51701804D01*
X110669977Y-51857559D01*
X110459378Y-52053260D01*
X110277287Y-52275732D01*
X110127073Y-52520858D01*
X110011517Y-52784102D01*
X109932756Y-53060594D01*
X109911334Y-53211114D01*
X109898597Y-53300615D01*
X109892249Y-53345216D01*
X109892227Y-53349505D01*
X109892226Y-53349512D01*
X109890765Y-53628417D01*
X109890743Y-53632703D01*
X105551247Y-53632703D01*
X105469670Y-53543051D01*
X105465619Y-53539852D01*
X105465615Y-53539848D01*
X105298414Y-53407800D01*
X105298410Y-53407798D01*
X105294359Y-53404598D01*
X105253053Y-53381796D01*
X105203084Y-53331364D01*
X105188312Y-53261921D01*
X105213428Y-53195516D01*
X105240780Y-53168909D01*
X105303270Y-53124335D01*
X105419860Y-53041173D01*
X105578096Y-52883489D01*
X105631548Y-52809103D01*
X105705435Y-52706277D01*
X105708453Y-52702077D01*
X105778846Y-52559648D01*
X105805136Y-52506453D01*
X105805137Y-52506451D01*
X105807430Y-52501811D01*
X105872370Y-52288069D01*
X105901529Y-52066590D01*
X105903156Y-52000000D01*
X105884852Y-51777361D01*
X105830431Y-51560702D01*
X105741354Y-51355840D01*
X105620014Y-51168277D01*
X105469670Y-51003051D01*
X105465619Y-50999852D01*
X105465615Y-50999848D01*
X105298414Y-50867800D01*
X105298410Y-50867798D01*
X105294359Y-50864598D01*
X105098789Y-50756638D01*
X105093919Y-50754913D01*
X105093909Y-50754909D01*
X105087874Y-50752772D01*
X105030338Y-50711178D01*
X105004423Y-50645080D01*
X105018358Y-50575464D01*
X105067717Y-50524433D01*
X105129935Y-50508000D01*
X118280441Y-50508000D01*
X118348562Y-50528002D01*
G37*
%TD.AperFunction*%
%TD*%
M02*
