%TF.GenerationSoftware,KiCad,Pcbnew,(6.0.0)*%
%TF.CreationDate,2023-03-26T17:46:31-04:00*%
%TF.ProjectId,daughterBoard,64617567-6874-4657-9242-6f6172642e6b,rev?*%
%TF.SameCoordinates,Original*%
%TF.FileFunction,Legend,Bot*%
%TF.FilePolarity,Positive*%
%FSLAX46Y46*%
G04 Gerber Fmt 4.6, Leading zero omitted, Abs format (unit mm)*
G04 Created by KiCad (PCBNEW (6.0.0)) date 2023-03-26 17:46:31*
%MOMM*%
%LPD*%
G01*
G04 APERTURE LIST*
G04 Aperture macros list*
%AMRoundRect*
0 Rectangle with rounded corners*
0 $1 Rounding radius*
0 $2 $3 $4 $5 $6 $7 $8 $9 X,Y pos of 4 corners*
0 Add a 4 corners polygon primitive as box body*
4,1,4,$2,$3,$4,$5,$6,$7,$8,$9,$2,$3,0*
0 Add four circle primitives for the rounded corners*
1,1,$1+$1,$2,$3*
1,1,$1+$1,$4,$5*
1,1,$1+$1,$6,$7*
1,1,$1+$1,$8,$9*
0 Add four rect primitives between the rounded corners*
20,1,$1+$1,$2,$3,$4,$5,0*
20,1,$1+$1,$4,$5,$6,$7,0*
20,1,$1+$1,$6,$7,$8,$9,0*
20,1,$1+$1,$8,$9,$2,$3,0*%
G04 Aperture macros list end*
%ADD10C,0.150000*%
%ADD11C,0.120000*%
%ADD12C,3.200000*%
%ADD13R,1.700000X1.700000*%
%ADD14O,1.700000X1.700000*%
%ADD15RoundRect,0.250000X0.475000X-0.337500X0.475000X0.337500X-0.475000X0.337500X-0.475000X-0.337500X0*%
%ADD16RoundRect,0.250000X-0.475000X0.337500X-0.475000X-0.337500X0.475000X-0.337500X0.475000X0.337500X0*%
%ADD17RoundRect,0.250000X0.337500X0.475000X-0.337500X0.475000X-0.337500X-0.475000X0.337500X-0.475000X0*%
%ADD18RoundRect,0.237500X-0.237500X0.250000X-0.237500X-0.250000X0.237500X-0.250000X0.237500X0.250000X0*%
%ADD19RoundRect,0.237500X-0.250000X-0.237500X0.250000X-0.237500X0.250000X0.237500X-0.250000X0.237500X0*%
%ADD20RoundRect,0.237500X0.250000X0.237500X-0.250000X0.237500X-0.250000X-0.237500X0.250000X-0.237500X0*%
G04 APERTURE END LIST*
D10*
%TO.C,C10*%
X109196142Y-77970142D02*
X109243761Y-77922523D01*
X109291380Y-77779666D01*
X109291380Y-77684428D01*
X109243761Y-77541571D01*
X109148523Y-77446333D01*
X109053285Y-77398714D01*
X108862809Y-77351095D01*
X108719952Y-77351095D01*
X108529476Y-77398714D01*
X108434238Y-77446333D01*
X108339000Y-77541571D01*
X108291380Y-77684428D01*
X108291380Y-77779666D01*
X108339000Y-77922523D01*
X108386619Y-77970142D01*
X109291380Y-78922523D02*
X109291380Y-78351095D01*
X109291380Y-78636809D02*
X108291380Y-78636809D01*
X108434238Y-78541571D01*
X108529476Y-78446333D01*
X108577095Y-78351095D01*
X108291380Y-79541571D02*
X108291380Y-79636809D01*
X108339000Y-79732047D01*
X108386619Y-79779666D01*
X108481857Y-79827285D01*
X108672333Y-79874904D01*
X108910428Y-79874904D01*
X109100904Y-79827285D01*
X109196142Y-79779666D01*
X109243761Y-79732047D01*
X109291380Y-79636809D01*
X109291380Y-79541571D01*
X109243761Y-79446333D01*
X109196142Y-79398714D01*
X109100904Y-79351095D01*
X108910428Y-79303476D01*
X108672333Y-79303476D01*
X108481857Y-79351095D01*
X108386619Y-79398714D01*
X108339000Y-79446333D01*
X108291380Y-79541571D01*
%TO.C,C8*%
X107291142Y-84542333D02*
X107338761Y-84494714D01*
X107386380Y-84351857D01*
X107386380Y-84256619D01*
X107338761Y-84113761D01*
X107243523Y-84018523D01*
X107148285Y-83970904D01*
X106957809Y-83923285D01*
X106814952Y-83923285D01*
X106624476Y-83970904D01*
X106529238Y-84018523D01*
X106434000Y-84113761D01*
X106386380Y-84256619D01*
X106386380Y-84351857D01*
X106434000Y-84494714D01*
X106481619Y-84542333D01*
X106814952Y-85113761D02*
X106767333Y-85018523D01*
X106719714Y-84970904D01*
X106624476Y-84923285D01*
X106576857Y-84923285D01*
X106481619Y-84970904D01*
X106434000Y-85018523D01*
X106386380Y-85113761D01*
X106386380Y-85304238D01*
X106434000Y-85399476D01*
X106481619Y-85447095D01*
X106576857Y-85494714D01*
X106624476Y-85494714D01*
X106719714Y-85447095D01*
X106767333Y-85399476D01*
X106814952Y-85304238D01*
X106814952Y-85113761D01*
X106862571Y-85018523D01*
X106910190Y-84970904D01*
X107005428Y-84923285D01*
X107195904Y-84923285D01*
X107291142Y-84970904D01*
X107338761Y-85018523D01*
X107386380Y-85113761D01*
X107386380Y-85304238D01*
X107338761Y-85399476D01*
X107291142Y-85447095D01*
X107195904Y-85494714D01*
X107005428Y-85494714D01*
X106910190Y-85447095D01*
X106862571Y-85399476D01*
X106814952Y-85304238D01*
%TO.C,C5*%
X106402142Y-69398333D02*
X106449761Y-69350714D01*
X106497380Y-69207857D01*
X106497380Y-69112619D01*
X106449761Y-68969761D01*
X106354523Y-68874523D01*
X106259285Y-68826904D01*
X106068809Y-68779285D01*
X105925952Y-68779285D01*
X105735476Y-68826904D01*
X105640238Y-68874523D01*
X105545000Y-68969761D01*
X105497380Y-69112619D01*
X105497380Y-69207857D01*
X105545000Y-69350714D01*
X105592619Y-69398333D01*
X105497380Y-70303095D02*
X105497380Y-69826904D01*
X105973571Y-69779285D01*
X105925952Y-69826904D01*
X105878333Y-69922142D01*
X105878333Y-70160238D01*
X105925952Y-70255476D01*
X105973571Y-70303095D01*
X106068809Y-70350714D01*
X106306904Y-70350714D01*
X106402142Y-70303095D01*
X106449761Y-70255476D01*
X106497380Y-70160238D01*
X106497380Y-69922142D01*
X106449761Y-69826904D01*
X106402142Y-69779285D01*
%TO.C,C11*%
X114537142Y-76857142D02*
X114584761Y-76809523D01*
X114632380Y-76666666D01*
X114632380Y-76571428D01*
X114584761Y-76428571D01*
X114489523Y-76333333D01*
X114394285Y-76285714D01*
X114203809Y-76238095D01*
X114060952Y-76238095D01*
X113870476Y-76285714D01*
X113775238Y-76333333D01*
X113680000Y-76428571D01*
X113632380Y-76571428D01*
X113632380Y-76666666D01*
X113680000Y-76809523D01*
X113727619Y-76857142D01*
X114632380Y-77809523D02*
X114632380Y-77238095D01*
X114632380Y-77523809D02*
X113632380Y-77523809D01*
X113775238Y-77428571D01*
X113870476Y-77333333D01*
X113918095Y-77238095D01*
X114632380Y-78761904D02*
X114632380Y-78190476D01*
X114632380Y-78476190D02*
X113632380Y-78476190D01*
X113775238Y-78380952D01*
X113870476Y-78285714D01*
X113918095Y-78190476D01*
%TO.C,C13*%
X118371857Y-65127142D02*
X118419476Y-65174761D01*
X118562333Y-65222380D01*
X118657571Y-65222380D01*
X118800428Y-65174761D01*
X118895666Y-65079523D01*
X118943285Y-64984285D01*
X118990904Y-64793809D01*
X118990904Y-64650952D01*
X118943285Y-64460476D01*
X118895666Y-64365238D01*
X118800428Y-64270000D01*
X118657571Y-64222380D01*
X118562333Y-64222380D01*
X118419476Y-64270000D01*
X118371857Y-64317619D01*
X117419476Y-65222380D02*
X117990904Y-65222380D01*
X117705190Y-65222380D02*
X117705190Y-64222380D01*
X117800428Y-64365238D01*
X117895666Y-64460476D01*
X117990904Y-64508095D01*
X117086142Y-64222380D02*
X116467095Y-64222380D01*
X116800428Y-64603333D01*
X116657571Y-64603333D01*
X116562333Y-64650952D01*
X116514714Y-64698571D01*
X116467095Y-64793809D01*
X116467095Y-65031904D01*
X116514714Y-65127142D01*
X116562333Y-65174761D01*
X116657571Y-65222380D01*
X116943285Y-65222380D01*
X117038523Y-65174761D01*
X117086142Y-65127142D01*
%TO.C,R1*%
X115498380Y-83833333D02*
X115022190Y-83500000D01*
X115498380Y-83261904D02*
X114498380Y-83261904D01*
X114498380Y-83642857D01*
X114546000Y-83738095D01*
X114593619Y-83785714D01*
X114688857Y-83833333D01*
X114831714Y-83833333D01*
X114926952Y-83785714D01*
X114974571Y-83738095D01*
X115022190Y-83642857D01*
X115022190Y-83261904D01*
X115498380Y-84785714D02*
X115498380Y-84214285D01*
X115498380Y-84500000D02*
X114498380Y-84500000D01*
X114641238Y-84404761D01*
X114736476Y-84309523D01*
X114784095Y-84214285D01*
%TO.C,C1*%
X122785142Y-66508333D02*
X122832761Y-66460714D01*
X122880380Y-66317857D01*
X122880380Y-66222619D01*
X122832761Y-66079761D01*
X122737523Y-65984523D01*
X122642285Y-65936904D01*
X122451809Y-65889285D01*
X122308952Y-65889285D01*
X122118476Y-65936904D01*
X122023238Y-65984523D01*
X121928000Y-66079761D01*
X121880380Y-66222619D01*
X121880380Y-66317857D01*
X121928000Y-66460714D01*
X121975619Y-66508333D01*
X122880380Y-67460714D02*
X122880380Y-66889285D01*
X122880380Y-67175000D02*
X121880380Y-67175000D01*
X122023238Y-67079761D01*
X122118476Y-66984523D01*
X122166095Y-66889285D01*
%TO.C,R4*%
X111958380Y-59777333D02*
X111482190Y-59444000D01*
X111958380Y-59205904D02*
X110958380Y-59205904D01*
X110958380Y-59586857D01*
X111006000Y-59682095D01*
X111053619Y-59729714D01*
X111148857Y-59777333D01*
X111291714Y-59777333D01*
X111386952Y-59729714D01*
X111434571Y-59682095D01*
X111482190Y-59586857D01*
X111482190Y-59205904D01*
X111291714Y-60634476D02*
X111958380Y-60634476D01*
X110910761Y-60396380D02*
X111625047Y-60158285D01*
X111625047Y-60777333D01*
%TO.C,R7*%
X112942666Y-71953380D02*
X113276000Y-71477190D01*
X113514095Y-71953380D02*
X113514095Y-70953380D01*
X113133142Y-70953380D01*
X113037904Y-71001000D01*
X112990285Y-71048619D01*
X112942666Y-71143857D01*
X112942666Y-71286714D01*
X112990285Y-71381952D01*
X113037904Y-71429571D01*
X113133142Y-71477190D01*
X113514095Y-71477190D01*
X112609333Y-70953380D02*
X111942666Y-70953380D01*
X112371238Y-71953380D01*
%TO.C,R14*%
X113291857Y-70683380D02*
X113625190Y-70207190D01*
X113863285Y-70683380D02*
X113863285Y-69683380D01*
X113482333Y-69683380D01*
X113387095Y-69731000D01*
X113339476Y-69778619D01*
X113291857Y-69873857D01*
X113291857Y-70016714D01*
X113339476Y-70111952D01*
X113387095Y-70159571D01*
X113482333Y-70207190D01*
X113863285Y-70207190D01*
X112339476Y-70683380D02*
X112910904Y-70683380D01*
X112625190Y-70683380D02*
X112625190Y-69683380D01*
X112720428Y-69826238D01*
X112815666Y-69921476D01*
X112910904Y-69969095D01*
X111482333Y-70016714D02*
X111482333Y-70683380D01*
X111720428Y-69635761D02*
X111958523Y-70350047D01*
X111339476Y-70350047D01*
%TO.C,C3*%
X118848142Y-66381333D02*
X118895761Y-66333714D01*
X118943380Y-66190857D01*
X118943380Y-66095619D01*
X118895761Y-65952761D01*
X118800523Y-65857523D01*
X118705285Y-65809904D01*
X118514809Y-65762285D01*
X118371952Y-65762285D01*
X118181476Y-65809904D01*
X118086238Y-65857523D01*
X117991000Y-65952761D01*
X117943380Y-66095619D01*
X117943380Y-66190857D01*
X117991000Y-66333714D01*
X118038619Y-66381333D01*
X117943380Y-66714666D02*
X117943380Y-67333714D01*
X118324333Y-67000380D01*
X118324333Y-67143238D01*
X118371952Y-67238476D01*
X118419571Y-67286095D01*
X118514809Y-67333714D01*
X118752904Y-67333714D01*
X118848142Y-67286095D01*
X118895761Y-67238476D01*
X118943380Y-67143238D01*
X118943380Y-66857523D01*
X118895761Y-66762285D01*
X118848142Y-66714666D01*
%TO.C,C6*%
X103227142Y-64095333D02*
X103274761Y-64047714D01*
X103322380Y-63904857D01*
X103322380Y-63809619D01*
X103274761Y-63666761D01*
X103179523Y-63571523D01*
X103084285Y-63523904D01*
X102893809Y-63476285D01*
X102750952Y-63476285D01*
X102560476Y-63523904D01*
X102465238Y-63571523D01*
X102370000Y-63666761D01*
X102322380Y-63809619D01*
X102322380Y-63904857D01*
X102370000Y-64047714D01*
X102417619Y-64095333D01*
X102322380Y-64952476D02*
X102322380Y-64762000D01*
X102370000Y-64666761D01*
X102417619Y-64619142D01*
X102560476Y-64523904D01*
X102750952Y-64476285D01*
X103131904Y-64476285D01*
X103227142Y-64523904D01*
X103274761Y-64571523D01*
X103322380Y-64666761D01*
X103322380Y-64857238D01*
X103274761Y-64952476D01*
X103227142Y-65000095D01*
X103131904Y-65047714D01*
X102893809Y-65047714D01*
X102798571Y-65000095D01*
X102750952Y-64952476D01*
X102703333Y-64857238D01*
X102703333Y-64666761D01*
X102750952Y-64571523D01*
X102798571Y-64523904D01*
X102893809Y-64476285D01*
%TO.C,C9*%
X110847142Y-80986333D02*
X110894761Y-80938714D01*
X110942380Y-80795857D01*
X110942380Y-80700619D01*
X110894761Y-80557761D01*
X110799523Y-80462523D01*
X110704285Y-80414904D01*
X110513809Y-80367285D01*
X110370952Y-80367285D01*
X110180476Y-80414904D01*
X110085238Y-80462523D01*
X109990000Y-80557761D01*
X109942380Y-80700619D01*
X109942380Y-80795857D01*
X109990000Y-80938714D01*
X110037619Y-80986333D01*
X110942380Y-81462523D02*
X110942380Y-81653000D01*
X110894761Y-81748238D01*
X110847142Y-81795857D01*
X110704285Y-81891095D01*
X110513809Y-81938714D01*
X110132857Y-81938714D01*
X110037619Y-81891095D01*
X109990000Y-81843476D01*
X109942380Y-81748238D01*
X109942380Y-81557761D01*
X109990000Y-81462523D01*
X110037619Y-81414904D01*
X110132857Y-81367285D01*
X110370952Y-81367285D01*
X110466190Y-81414904D01*
X110513809Y-81462523D01*
X110561428Y-81557761D01*
X110561428Y-81748238D01*
X110513809Y-81843476D01*
X110466190Y-81891095D01*
X110370952Y-81938714D01*
%TO.C,R5*%
X113863380Y-66635333D02*
X113387190Y-66302000D01*
X113863380Y-66063904D02*
X112863380Y-66063904D01*
X112863380Y-66444857D01*
X112911000Y-66540095D01*
X112958619Y-66587714D01*
X113053857Y-66635333D01*
X113196714Y-66635333D01*
X113291952Y-66587714D01*
X113339571Y-66540095D01*
X113387190Y-66444857D01*
X113387190Y-66063904D01*
X112863380Y-67540095D02*
X112863380Y-67063904D01*
X113339571Y-67016285D01*
X113291952Y-67063904D01*
X113244333Y-67159142D01*
X113244333Y-67397238D01*
X113291952Y-67492476D01*
X113339571Y-67540095D01*
X113434809Y-67587714D01*
X113672904Y-67587714D01*
X113768142Y-67540095D01*
X113815761Y-67492476D01*
X113863380Y-67397238D01*
X113863380Y-67159142D01*
X113815761Y-67063904D01*
X113768142Y-67016285D01*
%TO.C,R8*%
X112942666Y-73477380D02*
X113276000Y-73001190D01*
X113514095Y-73477380D02*
X113514095Y-72477380D01*
X113133142Y-72477380D01*
X113037904Y-72525000D01*
X112990285Y-72572619D01*
X112942666Y-72667857D01*
X112942666Y-72810714D01*
X112990285Y-72905952D01*
X113037904Y-72953571D01*
X113133142Y-73001190D01*
X113514095Y-73001190D01*
X112371238Y-72905952D02*
X112466476Y-72858333D01*
X112514095Y-72810714D01*
X112561714Y-72715476D01*
X112561714Y-72667857D01*
X112514095Y-72572619D01*
X112466476Y-72525000D01*
X112371238Y-72477380D01*
X112180761Y-72477380D01*
X112085523Y-72525000D01*
X112037904Y-72572619D01*
X111990285Y-72667857D01*
X111990285Y-72715476D01*
X112037904Y-72810714D01*
X112085523Y-72858333D01*
X112180761Y-72905952D01*
X112371238Y-72905952D01*
X112466476Y-72953571D01*
X112514095Y-73001190D01*
X112561714Y-73096428D01*
X112561714Y-73286904D01*
X112514095Y-73382142D01*
X112466476Y-73429761D01*
X112371238Y-73477380D01*
X112180761Y-73477380D01*
X112085523Y-73429761D01*
X112037904Y-73382142D01*
X111990285Y-73286904D01*
X111990285Y-73096428D01*
X112037904Y-73001190D01*
X112085523Y-72953571D01*
X112180761Y-72905952D01*
%TO.C,R12*%
X111894857Y-65222380D02*
X112228190Y-64746190D01*
X112466285Y-65222380D02*
X112466285Y-64222380D01*
X112085333Y-64222380D01*
X111990095Y-64270000D01*
X111942476Y-64317619D01*
X111894857Y-64412857D01*
X111894857Y-64555714D01*
X111942476Y-64650952D01*
X111990095Y-64698571D01*
X112085333Y-64746190D01*
X112466285Y-64746190D01*
X110942476Y-65222380D02*
X111513904Y-65222380D01*
X111228190Y-65222380D02*
X111228190Y-64222380D01*
X111323428Y-64365238D01*
X111418666Y-64460476D01*
X111513904Y-64508095D01*
X110561523Y-64317619D02*
X110513904Y-64270000D01*
X110418666Y-64222380D01*
X110180571Y-64222380D01*
X110085333Y-64270000D01*
X110037714Y-64317619D01*
X109990095Y-64412857D01*
X109990095Y-64508095D01*
X110037714Y-64650952D01*
X110609142Y-65222380D01*
X109990095Y-65222380D01*
%TO.C,C12*%
X115142857Y-61677142D02*
X115190476Y-61724761D01*
X115333333Y-61772380D01*
X115428571Y-61772380D01*
X115571428Y-61724761D01*
X115666666Y-61629523D01*
X115714285Y-61534285D01*
X115761904Y-61343809D01*
X115761904Y-61200952D01*
X115714285Y-61010476D01*
X115666666Y-60915238D01*
X115571428Y-60820000D01*
X115428571Y-60772380D01*
X115333333Y-60772380D01*
X115190476Y-60820000D01*
X115142857Y-60867619D01*
X114190476Y-61772380D02*
X114761904Y-61772380D01*
X114476190Y-61772380D02*
X114476190Y-60772380D01*
X114571428Y-60915238D01*
X114666666Y-61010476D01*
X114761904Y-61058095D01*
X113809523Y-60867619D02*
X113761904Y-60820000D01*
X113666666Y-60772380D01*
X113428571Y-60772380D01*
X113333333Y-60820000D01*
X113285714Y-60867619D01*
X113238095Y-60962857D01*
X113238095Y-61058095D01*
X113285714Y-61200952D01*
X113857142Y-61772380D01*
X113238095Y-61772380D01*
%TO.C,R11*%
X112021857Y-66492380D02*
X112355190Y-66016190D01*
X112593285Y-66492380D02*
X112593285Y-65492380D01*
X112212333Y-65492380D01*
X112117095Y-65540000D01*
X112069476Y-65587619D01*
X112021857Y-65682857D01*
X112021857Y-65825714D01*
X112069476Y-65920952D01*
X112117095Y-65968571D01*
X112212333Y-66016190D01*
X112593285Y-66016190D01*
X111069476Y-66492380D02*
X111640904Y-66492380D01*
X111355190Y-66492380D02*
X111355190Y-65492380D01*
X111450428Y-65635238D01*
X111545666Y-65730476D01*
X111640904Y-65778095D01*
X110117095Y-66492380D02*
X110688523Y-66492380D01*
X110402809Y-66492380D02*
X110402809Y-65492380D01*
X110498047Y-65635238D01*
X110593285Y-65730476D01*
X110688523Y-65778095D01*
%TO.C,R10*%
X112021857Y-69413380D02*
X112355190Y-68937190D01*
X112593285Y-69413380D02*
X112593285Y-68413380D01*
X112212333Y-68413380D01*
X112117095Y-68461000D01*
X112069476Y-68508619D01*
X112021857Y-68603857D01*
X112021857Y-68746714D01*
X112069476Y-68841952D01*
X112117095Y-68889571D01*
X112212333Y-68937190D01*
X112593285Y-68937190D01*
X111069476Y-69413380D02*
X111640904Y-69413380D01*
X111355190Y-69413380D02*
X111355190Y-68413380D01*
X111450428Y-68556238D01*
X111545666Y-68651476D01*
X111640904Y-68699095D01*
X110450428Y-68413380D02*
X110355190Y-68413380D01*
X110259952Y-68461000D01*
X110212333Y-68508619D01*
X110164714Y-68603857D01*
X110117095Y-68794333D01*
X110117095Y-69032428D01*
X110164714Y-69222904D01*
X110212333Y-69318142D01*
X110259952Y-69365761D01*
X110355190Y-69413380D01*
X110450428Y-69413380D01*
X110545666Y-69365761D01*
X110593285Y-69318142D01*
X110640904Y-69222904D01*
X110688523Y-69032428D01*
X110688523Y-68794333D01*
X110640904Y-68603857D01*
X110593285Y-68508619D01*
X110545666Y-68461000D01*
X110450428Y-68413380D01*
%TO.C,R6*%
X113863380Y-68413333D02*
X113387190Y-68080000D01*
X113863380Y-67841904D02*
X112863380Y-67841904D01*
X112863380Y-68222857D01*
X112911000Y-68318095D01*
X112958619Y-68365714D01*
X113053857Y-68413333D01*
X113196714Y-68413333D01*
X113291952Y-68365714D01*
X113339571Y-68318095D01*
X113387190Y-68222857D01*
X113387190Y-67841904D01*
X112863380Y-69270476D02*
X112863380Y-69080000D01*
X112911000Y-68984761D01*
X112958619Y-68937142D01*
X113101476Y-68841904D01*
X113291952Y-68794285D01*
X113672904Y-68794285D01*
X113768142Y-68841904D01*
X113815761Y-68889523D01*
X113863380Y-68984761D01*
X113863380Y-69175238D01*
X113815761Y-69270476D01*
X113768142Y-69318095D01*
X113672904Y-69365714D01*
X113434809Y-69365714D01*
X113339571Y-69318095D01*
X113291952Y-69270476D01*
X113244333Y-69175238D01*
X113244333Y-68984761D01*
X113291952Y-68889523D01*
X113339571Y-68841904D01*
X113434809Y-68794285D01*
%TO.C,R13*%
X116847857Y-76398380D02*
X117181190Y-75922190D01*
X117419285Y-76398380D02*
X117419285Y-75398380D01*
X117038333Y-75398380D01*
X116943095Y-75446000D01*
X116895476Y-75493619D01*
X116847857Y-75588857D01*
X116847857Y-75731714D01*
X116895476Y-75826952D01*
X116943095Y-75874571D01*
X117038333Y-75922190D01*
X117419285Y-75922190D01*
X115895476Y-76398380D02*
X116466904Y-76398380D01*
X116181190Y-76398380D02*
X116181190Y-75398380D01*
X116276428Y-75541238D01*
X116371666Y-75636476D01*
X116466904Y-75684095D01*
X115562142Y-75398380D02*
X114943095Y-75398380D01*
X115276428Y-75779333D01*
X115133571Y-75779333D01*
X115038333Y-75826952D01*
X114990714Y-75874571D01*
X114943095Y-75969809D01*
X114943095Y-76207904D01*
X114990714Y-76303142D01*
X115038333Y-76350761D01*
X115133571Y-76398380D01*
X115419285Y-76398380D01*
X115514523Y-76350761D01*
X115562142Y-76303142D01*
%TO.C,C2*%
X120880142Y-66381333D02*
X120927761Y-66333714D01*
X120975380Y-66190857D01*
X120975380Y-66095619D01*
X120927761Y-65952761D01*
X120832523Y-65857523D01*
X120737285Y-65809904D01*
X120546809Y-65762285D01*
X120403952Y-65762285D01*
X120213476Y-65809904D01*
X120118238Y-65857523D01*
X120023000Y-65952761D01*
X119975380Y-66095619D01*
X119975380Y-66190857D01*
X120023000Y-66333714D01*
X120070619Y-66381333D01*
X120070619Y-66762285D02*
X120023000Y-66809904D01*
X119975380Y-66905142D01*
X119975380Y-67143238D01*
X120023000Y-67238476D01*
X120070619Y-67286095D01*
X120165857Y-67333714D01*
X120261095Y-67333714D01*
X120403952Y-67286095D01*
X120975380Y-66714666D01*
X120975380Y-67333714D01*
%TO.C,C4*%
X102084142Y-66604333D02*
X102131761Y-66556714D01*
X102179380Y-66413857D01*
X102179380Y-66318619D01*
X102131761Y-66175761D01*
X102036523Y-66080523D01*
X101941285Y-66032904D01*
X101750809Y-65985285D01*
X101607952Y-65985285D01*
X101417476Y-66032904D01*
X101322238Y-66080523D01*
X101227000Y-66175761D01*
X101179380Y-66318619D01*
X101179380Y-66413857D01*
X101227000Y-66556714D01*
X101274619Y-66604333D01*
X101512714Y-67461476D02*
X102179380Y-67461476D01*
X101131761Y-67223380D02*
X101846047Y-66985285D01*
X101846047Y-67604333D01*
%TO.C,C7*%
X107418142Y-73333333D02*
X107465761Y-73285714D01*
X107513380Y-73142857D01*
X107513380Y-73047619D01*
X107465761Y-72904761D01*
X107370523Y-72809523D01*
X107275285Y-72761904D01*
X107084809Y-72714285D01*
X106941952Y-72714285D01*
X106751476Y-72761904D01*
X106656238Y-72809523D01*
X106561000Y-72904761D01*
X106513380Y-73047619D01*
X106513380Y-73142857D01*
X106561000Y-73285714D01*
X106608619Y-73333333D01*
X106513380Y-73666666D02*
X106513380Y-74333333D01*
X107513380Y-73904761D01*
%TO.C,R3*%
X111164666Y-67889380D02*
X111498000Y-67413190D01*
X111736095Y-67889380D02*
X111736095Y-66889380D01*
X111355142Y-66889380D01*
X111259904Y-66937000D01*
X111212285Y-66984619D01*
X111164666Y-67079857D01*
X111164666Y-67222714D01*
X111212285Y-67317952D01*
X111259904Y-67365571D01*
X111355142Y-67413190D01*
X111736095Y-67413190D01*
X110831333Y-66889380D02*
X110212285Y-66889380D01*
X110545619Y-67270333D01*
X110402761Y-67270333D01*
X110307523Y-67317952D01*
X110259904Y-67365571D01*
X110212285Y-67460809D01*
X110212285Y-67698904D01*
X110259904Y-67794142D01*
X110307523Y-67841761D01*
X110402761Y-67889380D01*
X110688476Y-67889380D01*
X110783714Y-67841761D01*
X110831333Y-67794142D01*
%TO.C,R9*%
X110402666Y-72207380D02*
X110736000Y-71731190D01*
X110974095Y-72207380D02*
X110974095Y-71207380D01*
X110593142Y-71207380D01*
X110497904Y-71255000D01*
X110450285Y-71302619D01*
X110402666Y-71397857D01*
X110402666Y-71540714D01*
X110450285Y-71635952D01*
X110497904Y-71683571D01*
X110593142Y-71731190D01*
X110974095Y-71731190D01*
X109926476Y-72207380D02*
X109736000Y-72207380D01*
X109640761Y-72159761D01*
X109593142Y-72112142D01*
X109497904Y-71969285D01*
X109450285Y-71778809D01*
X109450285Y-71397857D01*
X109497904Y-71302619D01*
X109545523Y-71255000D01*
X109640761Y-71207380D01*
X109831238Y-71207380D01*
X109926476Y-71255000D01*
X109974095Y-71302619D01*
X110021714Y-71397857D01*
X110021714Y-71635952D01*
X109974095Y-71731190D01*
X109926476Y-71778809D01*
X109831238Y-71826428D01*
X109640761Y-71826428D01*
X109545523Y-71778809D01*
X109497904Y-71731190D01*
X109450285Y-71635952D01*
%TO.C,R2*%
X108624666Y-62047380D02*
X108958000Y-61571190D01*
X109196095Y-62047380D02*
X109196095Y-61047380D01*
X108815142Y-61047380D01*
X108719904Y-61095000D01*
X108672285Y-61142619D01*
X108624666Y-61237857D01*
X108624666Y-61380714D01*
X108672285Y-61475952D01*
X108719904Y-61523571D01*
X108815142Y-61571190D01*
X109196095Y-61571190D01*
X108243714Y-61142619D02*
X108196095Y-61095000D01*
X108100857Y-61047380D01*
X107862761Y-61047380D01*
X107767523Y-61095000D01*
X107719904Y-61142619D01*
X107672285Y-61237857D01*
X107672285Y-61333095D01*
X107719904Y-61475952D01*
X108291333Y-62047380D01*
X107672285Y-62047380D01*
D11*
%TO.C,C10*%
X111235000Y-77761252D02*
X111235000Y-77238748D01*
X109765000Y-77761252D02*
X109765000Y-77238748D01*
%TO.C,C8*%
X107765000Y-83738748D02*
X107765000Y-84261252D01*
X109235000Y-83738748D02*
X109235000Y-84261252D01*
%TO.C,C5*%
X105235000Y-69334748D02*
X105235000Y-69857252D01*
X103765000Y-69334748D02*
X103765000Y-69857252D01*
%TO.C,C11*%
X111765000Y-77761252D02*
X111765000Y-77238748D01*
X113235000Y-77761252D02*
X113235000Y-77238748D01*
%TO.C,C13*%
X114761252Y-64265000D02*
X114238748Y-64265000D01*
X114761252Y-65735000D02*
X114238748Y-65735000D01*
%TO.C,R1*%
X112977500Y-83745276D02*
X112977500Y-84254724D01*
X114022500Y-83745276D02*
X114022500Y-84254724D01*
%TO.C,C1*%
X121765000Y-69238748D02*
X121765000Y-69761252D01*
X123235000Y-69238748D02*
X123235000Y-69761252D01*
%TO.C,R4*%
X112022500Y-62245276D02*
X112022500Y-62754724D01*
X110977500Y-62245276D02*
X110977500Y-62754724D01*
%TO.C,R7*%
X115245276Y-70977500D02*
X115754724Y-70977500D01*
X115245276Y-72022500D02*
X115754724Y-72022500D01*
%TO.C,R14*%
X115754724Y-70522500D02*
X115245276Y-70522500D01*
X115754724Y-69477500D02*
X115245276Y-69477500D01*
%TO.C,C3*%
X119235000Y-69238748D02*
X119235000Y-69761252D01*
X117765000Y-69238748D02*
X117765000Y-69761252D01*
%TO.C,C6*%
X103786000Y-66025752D02*
X103786000Y-65503248D01*
X105256000Y-66025752D02*
X105256000Y-65503248D01*
%TO.C,C9*%
X109765000Y-83738748D02*
X109765000Y-84261252D01*
X111235000Y-83738748D02*
X111235000Y-84261252D01*
%TO.C,R5*%
X115245276Y-67522500D02*
X115754724Y-67522500D01*
X115245276Y-66477500D02*
X115754724Y-66477500D01*
%TO.C,R8*%
X115245276Y-72477500D02*
X115754724Y-72477500D01*
X115245276Y-73522500D02*
X115754724Y-73522500D01*
%TO.C,R12*%
X108754724Y-63977500D02*
X108245276Y-63977500D01*
X108754724Y-65022500D02*
X108245276Y-65022500D01*
%TO.C,C12*%
X114761252Y-62265000D02*
X114238748Y-62265000D01*
X114761252Y-63735000D02*
X114238748Y-63735000D01*
%TO.C,R11*%
X108754724Y-66522500D02*
X108245276Y-66522500D01*
X108754724Y-65477500D02*
X108245276Y-65477500D01*
%TO.C,R10*%
X108754724Y-69522500D02*
X108245276Y-69522500D01*
X108754724Y-68477500D02*
X108245276Y-68477500D01*
%TO.C,R6*%
X115245276Y-69022500D02*
X115754724Y-69022500D01*
X115245276Y-67977500D02*
X115754724Y-67977500D01*
%TO.C,R13*%
X115754724Y-75022500D02*
X115245276Y-75022500D01*
X115754724Y-73977500D02*
X115245276Y-73977500D01*
%TO.C,C2*%
X119765000Y-69238748D02*
X119765000Y-69761252D01*
X121235000Y-69238748D02*
X121235000Y-69761252D01*
%TO.C,C4*%
X101265000Y-69334748D02*
X101265000Y-69857252D01*
X102735000Y-69334748D02*
X102735000Y-69857252D01*
%TO.C,C7*%
X109235000Y-73761252D02*
X109235000Y-73238748D01*
X107765000Y-73761252D02*
X107765000Y-73238748D01*
%TO.C,R3*%
X108245276Y-66977500D02*
X108754724Y-66977500D01*
X108245276Y-68022500D02*
X108754724Y-68022500D01*
%TO.C,R9*%
X108754724Y-71022500D02*
X108245276Y-71022500D01*
X108754724Y-69977500D02*
X108245276Y-69977500D01*
%TO.C,R2*%
X108245276Y-63522500D02*
X108754724Y-63522500D01*
X108245276Y-62477500D02*
X108754724Y-62477500D01*
%TD*%
%LPC*%
D12*
%TO.C,REF\u002A\u002A*%
X103500000Y-82500000D03*
%TD*%
D13*
%TO.C,J4*%
X119500000Y-52000000D03*
D14*
X122040000Y-52000000D03*
X119500000Y-54540000D03*
X122040000Y-54540000D03*
X119500000Y-57080000D03*
X122040000Y-57080000D03*
X119500000Y-59620000D03*
X122040000Y-59620000D03*
X119500000Y-62160000D03*
X122040000Y-62160000D03*
%TD*%
D12*
%TO.C,REF\u002A\u002A*%
X120500000Y-82500000D03*
%TD*%
D13*
%TO.C,J2*%
X119500000Y-73500000D03*
D14*
X122040000Y-73500000D03*
X119500000Y-76040000D03*
X122040000Y-76040000D03*
%TD*%
D12*
%TO.C,REF\u002A\u002A*%
X112000000Y-53500000D03*
%TD*%
D13*
%TO.C,J3*%
X104500000Y-76000000D03*
D14*
X101960000Y-76000000D03*
X104500000Y-73460000D03*
X101960000Y-73460000D03*
%TD*%
D13*
%TO.C,J1*%
X102000000Y-52000000D03*
D14*
X104540000Y-52000000D03*
X102000000Y-54540000D03*
X104540000Y-54540000D03*
X102000000Y-57080000D03*
X104540000Y-57080000D03*
X102000000Y-59620000D03*
X104540000Y-59620000D03*
X102000000Y-62160000D03*
X104540000Y-62160000D03*
%TD*%
D15*
%TO.C,C10*%
X110500000Y-78537500D03*
X110500000Y-76462500D03*
%TD*%
D16*
%TO.C,C8*%
X108500000Y-82962500D03*
X108500000Y-85037500D03*
%TD*%
%TO.C,C5*%
X104500000Y-68558500D03*
X104500000Y-70633500D03*
%TD*%
D15*
%TO.C,C11*%
X112500000Y-78537500D03*
X112500000Y-76462500D03*
%TD*%
D17*
%TO.C,C13*%
X115537500Y-65000000D03*
X113462500Y-65000000D03*
%TD*%
D18*
%TO.C,R1*%
X113500000Y-83087500D03*
X113500000Y-84912500D03*
%TD*%
D16*
%TO.C,C1*%
X122500000Y-68462500D03*
X122500000Y-70537500D03*
%TD*%
D18*
%TO.C,R4*%
X111500000Y-61587500D03*
X111500000Y-63412500D03*
%TD*%
D19*
%TO.C,R7*%
X114587500Y-71500000D03*
X116412500Y-71500000D03*
%TD*%
D20*
%TO.C,R14*%
X116412500Y-70000000D03*
X114587500Y-70000000D03*
%TD*%
D16*
%TO.C,C3*%
X118500000Y-68462500D03*
X118500000Y-70537500D03*
%TD*%
D15*
%TO.C,C6*%
X104521000Y-66802000D03*
X104521000Y-64727000D03*
%TD*%
D16*
%TO.C,C9*%
X110500000Y-82962500D03*
X110500000Y-85037500D03*
%TD*%
D19*
%TO.C,R5*%
X114587500Y-67000000D03*
X116412500Y-67000000D03*
%TD*%
%TO.C,R8*%
X114587500Y-73000000D03*
X116412500Y-73000000D03*
%TD*%
D20*
%TO.C,R12*%
X109412500Y-64500000D03*
X107587500Y-64500000D03*
%TD*%
D17*
%TO.C,C12*%
X115537500Y-63000000D03*
X113462500Y-63000000D03*
%TD*%
D20*
%TO.C,R11*%
X109412500Y-66000000D03*
X107587500Y-66000000D03*
%TD*%
%TO.C,R10*%
X109412500Y-69000000D03*
X107587500Y-69000000D03*
%TD*%
D19*
%TO.C,R6*%
X114587500Y-68500000D03*
X116412500Y-68500000D03*
%TD*%
D20*
%TO.C,R13*%
X116412500Y-74500000D03*
X114587500Y-74500000D03*
%TD*%
D16*
%TO.C,C2*%
X120500000Y-68462500D03*
X120500000Y-70537500D03*
%TD*%
%TO.C,C4*%
X102000000Y-68558500D03*
X102000000Y-70633500D03*
%TD*%
D15*
%TO.C,C7*%
X108500000Y-74537500D03*
X108500000Y-72462500D03*
%TD*%
D19*
%TO.C,R3*%
X107587500Y-67500000D03*
X109412500Y-67500000D03*
%TD*%
D20*
%TO.C,R9*%
X109412500Y-70500000D03*
X107587500Y-70500000D03*
%TD*%
D19*
%TO.C,R2*%
X107587500Y-63000000D03*
X109412500Y-63000000D03*
%TD*%
M02*
