%TF.GenerationSoftware,KiCad,Pcbnew,(6.0.0)*%
%TF.CreationDate,2023-03-26T17:46:31-04:00*%
%TF.ProjectId,daughterBoard,64617567-6874-4657-9242-6f6172642e6b,rev?*%
%TF.SameCoordinates,Original*%
%TF.FileFunction,Legend,Top*%
%TF.FilePolarity,Positive*%
%FSLAX46Y46*%
G04 Gerber Fmt 4.6, Leading zero omitted, Abs format (unit mm)*
G04 Created by KiCad (PCBNEW (6.0.0)) date 2023-03-26 17:46:31*
%MOMM*%
%LPD*%
G01*
G04 APERTURE LIST*
G04 Aperture macros list*
%AMFreePoly0*
4,1,6,1.000000,0.000000,0.500000,-0.750000,-0.500000,-0.750000,-0.500000,0.750000,0.500000,0.750000,1.000000,0.000000,1.000000,0.000000,$1*%
%AMFreePoly1*
4,1,6,0.500000,-0.750000,-0.650000,-0.750000,-0.150000,0.000000,-0.650000,0.750000,0.500000,0.750000,0.500000,-0.750000,0.500000,-0.750000,$1*%
G04 Aperture macros list end*
%ADD10C,0.150000*%
%ADD11C,0.120000*%
%ADD12C,0.127000*%
%ADD13C,0.200000*%
%ADD14O,0.299999X1.699999*%
%ADD15C,3.200000*%
%ADD16R,1.700000X1.700000*%
%ADD17O,1.700000X1.700000*%
%ADD18FreePoly0,0.000000*%
%ADD19FreePoly1,0.000000*%
%ADD20R,0.812800X0.254000*%
%ADD21R,1.803400X2.489200*%
%ADD22R,0.500000X0.400000*%
%ADD23FreePoly0,270.000000*%
%ADD24FreePoly1,270.000000*%
%ADD25FreePoly0,90.000000*%
%ADD26FreePoly1,90.000000*%
%ADD27R,1.016000X0.508000*%
%ADD28R,0.508000X1.016000*%
%ADD29O,1.699999X0.349999*%
G04 APERTURE END LIST*
D10*
%TO.C,U4*%
X105624380Y-68198904D02*
X106433904Y-68198904D01*
X106529142Y-68151285D01*
X106576761Y-68103666D01*
X106624380Y-68008428D01*
X106624380Y-67817952D01*
X106576761Y-67722714D01*
X106529142Y-67675095D01*
X106433904Y-67627476D01*
X105624380Y-67627476D01*
X105957714Y-66722714D02*
X106624380Y-66722714D01*
X105576761Y-66960809D02*
X106291047Y-67198904D01*
X106291047Y-66579857D01*
%TO.C,J4*%
X115871666Y-50379380D02*
X115871666Y-51093666D01*
X115824047Y-51236523D01*
X115728809Y-51331761D01*
X115585952Y-51379380D01*
X115490714Y-51379380D01*
X116776428Y-50712714D02*
X116776428Y-51379380D01*
X116538333Y-50331761D02*
X116300238Y-51046047D01*
X116919285Y-51046047D01*
%TO.C,U1*%
X116650380Y-68515904D02*
X117459904Y-68515904D01*
X117555142Y-68468285D01*
X117602761Y-68420666D01*
X117650380Y-68325428D01*
X117650380Y-68134952D01*
X117602761Y-68039714D01*
X117555142Y-67992095D01*
X117459904Y-67944476D01*
X116650380Y-67944476D01*
X117650380Y-66944476D02*
X117650380Y-67515904D01*
X117650380Y-67230190D02*
X116650380Y-67230190D01*
X116793238Y-67325428D01*
X116888476Y-67420666D01*
X116936095Y-67515904D01*
%TO.C,JP3*%
X111053666Y-62952380D02*
X111053666Y-63666666D01*
X111006047Y-63809523D01*
X110910809Y-63904761D01*
X110767952Y-63952380D01*
X110672714Y-63952380D01*
X111529857Y-63952380D02*
X111529857Y-62952380D01*
X111910809Y-62952380D01*
X112006047Y-63000000D01*
X112053666Y-63047619D01*
X112101285Y-63142857D01*
X112101285Y-63285714D01*
X112053666Y-63380952D01*
X112006047Y-63428571D01*
X111910809Y-63476190D01*
X111529857Y-63476190D01*
X112434619Y-62952380D02*
X113053666Y-62952380D01*
X112720333Y-63333333D01*
X112863190Y-63333333D01*
X112958428Y-63380952D01*
X113006047Y-63428571D01*
X113053666Y-63523809D01*
X113053666Y-63761904D01*
X113006047Y-63857142D01*
X112958428Y-63904761D01*
X112863190Y-63952380D01*
X112577476Y-63952380D01*
X112482238Y-63904761D01*
X112434619Y-63857142D01*
%TO.C,U5*%
X114427095Y-76414380D02*
X114427095Y-77223904D01*
X114474714Y-77319142D01*
X114522333Y-77366761D01*
X114617571Y-77414380D01*
X114808047Y-77414380D01*
X114903285Y-77366761D01*
X114950904Y-77319142D01*
X114998523Y-77223904D01*
X114998523Y-76414380D01*
X115950904Y-76414380D02*
X115474714Y-76414380D01*
X115427095Y-76890571D01*
X115474714Y-76842952D01*
X115569952Y-76795333D01*
X115808047Y-76795333D01*
X115903285Y-76842952D01*
X115950904Y-76890571D01*
X115998523Y-76985809D01*
X115998523Y-77223904D01*
X115950904Y-77319142D01*
X115903285Y-77366761D01*
X115808047Y-77414380D01*
X115569952Y-77414380D01*
X115474714Y-77366761D01*
X115427095Y-77319142D01*
%TO.C,D1*%
X111809619Y-72383123D02*
X111809619Y-71743123D01*
X111962000Y-71743123D01*
X112053428Y-71773600D01*
X112114380Y-71834552D01*
X112144857Y-71895504D01*
X112175333Y-72017409D01*
X112175333Y-72108838D01*
X112144857Y-72230742D01*
X112114380Y-72291695D01*
X112053428Y-72352647D01*
X111962000Y-72383123D01*
X111809619Y-72383123D01*
X112784857Y-72383123D02*
X112419142Y-72383123D01*
X112602000Y-72383123D02*
X112602000Y-71743123D01*
X112541047Y-71834552D01*
X112480095Y-71895504D01*
X112419142Y-71925980D01*
%TO.C,J2*%
X120189666Y-77938380D02*
X120189666Y-78652666D01*
X120142047Y-78795523D01*
X120046809Y-78890761D01*
X119903952Y-78938380D01*
X119808714Y-78938380D01*
X120618238Y-78033619D02*
X120665857Y-77986000D01*
X120761095Y-77938380D01*
X120999190Y-77938380D01*
X121094428Y-77986000D01*
X121142047Y-78033619D01*
X121189666Y-78128857D01*
X121189666Y-78224095D01*
X121142047Y-78366952D01*
X120570619Y-78938380D01*
X121189666Y-78938380D01*
%TO.C,JP6*%
X107116666Y-54951380D02*
X107116666Y-55665666D01*
X107069047Y-55808523D01*
X106973809Y-55903761D01*
X106830952Y-55951380D01*
X106735714Y-55951380D01*
X107592857Y-55951380D02*
X107592857Y-54951380D01*
X107973809Y-54951380D01*
X108069047Y-54999000D01*
X108116666Y-55046619D01*
X108164285Y-55141857D01*
X108164285Y-55284714D01*
X108116666Y-55379952D01*
X108069047Y-55427571D01*
X107973809Y-55475190D01*
X107592857Y-55475190D01*
X109021428Y-54951380D02*
X108830952Y-54951380D01*
X108735714Y-54999000D01*
X108688095Y-55046619D01*
X108592857Y-55189476D01*
X108545238Y-55379952D01*
X108545238Y-55760904D01*
X108592857Y-55856142D01*
X108640476Y-55903761D01*
X108735714Y-55951380D01*
X108926190Y-55951380D01*
X109021428Y-55903761D01*
X109069047Y-55856142D01*
X109116666Y-55760904D01*
X109116666Y-55522809D01*
X109069047Y-55427571D01*
X109021428Y-55379952D01*
X108926190Y-55332333D01*
X108735714Y-55332333D01*
X108640476Y-55379952D01*
X108592857Y-55427571D01*
X108545238Y-55522809D01*
%TO.C,J3*%
X102896666Y-77782380D02*
X102896666Y-78496666D01*
X102849047Y-78639523D01*
X102753809Y-78734761D01*
X102610952Y-78782380D01*
X102515714Y-78782380D01*
X103277619Y-77782380D02*
X103896666Y-77782380D01*
X103563333Y-78163333D01*
X103706190Y-78163333D01*
X103801428Y-78210952D01*
X103849047Y-78258571D01*
X103896666Y-78353809D01*
X103896666Y-78591904D01*
X103849047Y-78687142D01*
X103801428Y-78734761D01*
X103706190Y-78782380D01*
X103420476Y-78782380D01*
X103325238Y-78734761D01*
X103277619Y-78687142D01*
%TO.C,JP4*%
X111166666Y-55967380D02*
X111166666Y-56681666D01*
X111119047Y-56824523D01*
X111023809Y-56919761D01*
X110880952Y-56967380D01*
X110785714Y-56967380D01*
X111642857Y-56967380D02*
X111642857Y-55967380D01*
X112023809Y-55967380D01*
X112119047Y-56015000D01*
X112166666Y-56062619D01*
X112214285Y-56157857D01*
X112214285Y-56300714D01*
X112166666Y-56395952D01*
X112119047Y-56443571D01*
X112023809Y-56491190D01*
X111642857Y-56491190D01*
X113071428Y-56300714D02*
X113071428Y-56967380D01*
X112833333Y-55919761D02*
X112595238Y-56634047D01*
X113214285Y-56634047D01*
%TO.C,JP2*%
X115117666Y-54951380D02*
X115117666Y-55665666D01*
X115070047Y-55808523D01*
X114974809Y-55903761D01*
X114831952Y-55951380D01*
X114736714Y-55951380D01*
X115593857Y-55951380D02*
X115593857Y-54951380D01*
X115974809Y-54951380D01*
X116070047Y-54999000D01*
X116117666Y-55046619D01*
X116165285Y-55141857D01*
X116165285Y-55284714D01*
X116117666Y-55379952D01*
X116070047Y-55427571D01*
X115974809Y-55475190D01*
X115593857Y-55475190D01*
X116546238Y-55046619D02*
X116593857Y-54999000D01*
X116689095Y-54951380D01*
X116927190Y-54951380D01*
X117022428Y-54999000D01*
X117070047Y-55046619D01*
X117117666Y-55141857D01*
X117117666Y-55237095D01*
X117070047Y-55379952D01*
X116498619Y-55951380D01*
X117117666Y-55951380D01*
%TO.C,J1*%
X107235666Y-50633380D02*
X107235666Y-51347666D01*
X107188047Y-51490523D01*
X107092809Y-51585761D01*
X106949952Y-51633380D01*
X106854714Y-51633380D01*
X108235666Y-51633380D02*
X107664238Y-51633380D01*
X107949952Y-51633380D02*
X107949952Y-50633380D01*
X107854714Y-50776238D01*
X107759476Y-50871476D01*
X107664238Y-50919095D01*
%TO.C,JP1*%
X116292380Y-65349333D02*
X117006666Y-65349333D01*
X117149523Y-65396952D01*
X117244761Y-65492190D01*
X117292380Y-65635047D01*
X117292380Y-65730285D01*
X117292380Y-64873142D02*
X116292380Y-64873142D01*
X116292380Y-64492190D01*
X116340000Y-64396952D01*
X116387619Y-64349333D01*
X116482857Y-64301714D01*
X116625714Y-64301714D01*
X116720952Y-64349333D01*
X116768571Y-64396952D01*
X116816190Y-64492190D01*
X116816190Y-64873142D01*
X117292380Y-63349333D02*
X117292380Y-63920761D01*
X117292380Y-63635047D02*
X116292380Y-63635047D01*
X116435238Y-63730285D01*
X116530476Y-63825523D01*
X116578095Y-63920761D01*
%TO.C,JP5*%
X106513380Y-65349333D02*
X107227666Y-65349333D01*
X107370523Y-65396952D01*
X107465761Y-65492190D01*
X107513380Y-65635047D01*
X107513380Y-65730285D01*
X107513380Y-64873142D02*
X106513380Y-64873142D01*
X106513380Y-64492190D01*
X106561000Y-64396952D01*
X106608619Y-64349333D01*
X106703857Y-64301714D01*
X106846714Y-64301714D01*
X106941952Y-64349333D01*
X106989571Y-64396952D01*
X107037190Y-64492190D01*
X107037190Y-64873142D01*
X106513380Y-63396952D02*
X106513380Y-63873142D01*
X106989571Y-63920761D01*
X106941952Y-63873142D01*
X106894333Y-63777904D01*
X106894333Y-63539809D01*
X106941952Y-63444571D01*
X106989571Y-63396952D01*
X107084809Y-63349333D01*
X107322904Y-63349333D01*
X107418142Y-63396952D01*
X107465761Y-63444571D01*
X107513380Y-63539809D01*
X107513380Y-63777904D01*
X107465761Y-63873142D01*
X107418142Y-63920761D01*
%TO.C,U3*%
X116038380Y-83438904D02*
X116847904Y-83438904D01*
X116943142Y-83391285D01*
X116990761Y-83343666D01*
X117038380Y-83248428D01*
X117038380Y-83057952D01*
X116990761Y-82962714D01*
X116943142Y-82915095D01*
X116847904Y-82867476D01*
X116038380Y-82867476D01*
X116038380Y-82486523D02*
X116038380Y-81867476D01*
X116419333Y-82200809D01*
X116419333Y-82057952D01*
X116466952Y-81962714D01*
X116514571Y-81915095D01*
X116609809Y-81867476D01*
X116847904Y-81867476D01*
X116943142Y-81915095D01*
X116990761Y-81962714D01*
X117038380Y-82057952D01*
X117038380Y-82343666D01*
X116990761Y-82438904D01*
X116943142Y-82486523D01*
%TO.C,U2*%
X105791095Y-69556380D02*
X105791095Y-70365904D01*
X105838714Y-70461142D01*
X105886333Y-70508761D01*
X105981571Y-70556380D01*
X106172047Y-70556380D01*
X106267285Y-70508761D01*
X106314904Y-70461142D01*
X106362523Y-70365904D01*
X106362523Y-69556380D01*
X106791095Y-69651619D02*
X106838714Y-69604000D01*
X106933952Y-69556380D01*
X107172047Y-69556380D01*
X107267285Y-69604000D01*
X107314904Y-69651619D01*
X107362523Y-69746857D01*
X107362523Y-69842095D01*
X107314904Y-69984952D01*
X106743476Y-70556380D01*
X107362523Y-70556380D01*
X112000000Y-66952380D02*
X112000000Y-67190476D01*
X111761904Y-67095238D02*
X112000000Y-67190476D01*
X112238095Y-67095238D01*
X111857142Y-67380952D02*
X112000000Y-67190476D01*
X112142857Y-67380952D01*
D11*
%TO.C,U4*%
X104324997Y-66599999D02*
X105049999Y-67325002D01*
X105049999Y-67325002D02*
X105049999Y-68400001D01*
X101950001Y-66599999D02*
X104324997Y-66599999D01*
X101950001Y-68400001D02*
X105049999Y-68400001D01*
X101950001Y-66599999D02*
X101950001Y-68400001D01*
%TO.C,J4*%
X120770000Y-53270000D02*
X120770000Y-50670000D01*
X118170000Y-63490000D02*
X123370000Y-63490000D01*
X123370000Y-50670000D02*
X123370000Y-63490000D01*
X118170000Y-52000000D02*
X118170000Y-50670000D01*
X118170000Y-53270000D02*
X118170000Y-63490000D01*
X118170000Y-50670000D02*
X119500000Y-50670000D01*
X118170000Y-53270000D02*
X120770000Y-53270000D01*
X120770000Y-50670000D02*
X123370000Y-50670000D01*
%TO.C,U1*%
X118950001Y-68400001D02*
X122049999Y-68400001D01*
X121324997Y-66599999D02*
X122049999Y-67325002D01*
X118950001Y-66599999D02*
X121324997Y-66599999D01*
X118950001Y-66599999D02*
X118950001Y-68400001D01*
X122049999Y-67325002D02*
X122049999Y-68400001D01*
%TO.C,JP3*%
X110600000Y-62500000D02*
X110600000Y-60500000D01*
X113400000Y-62500000D02*
X110600000Y-62500000D01*
X110600000Y-60500000D02*
X113400000Y-60500000D01*
X113400000Y-60500000D02*
X113400000Y-62500000D01*
%TO.C,U5*%
X110323600Y-78459741D02*
X110323600Y-78676400D01*
X113676400Y-78676400D02*
X113676400Y-78459741D01*
X110323600Y-75323600D02*
X110323600Y-75540259D01*
X113676400Y-75540259D02*
X113676400Y-75323600D01*
X110323600Y-78676400D02*
X113676400Y-78676400D01*
X113676400Y-75323600D02*
X110323600Y-75323600D01*
X109813060Y-75926171D02*
G75*
G03*
X109813060Y-76073829I-18860J-73829D01*
G01*
D12*
%TO.C,D1*%
X111863500Y-73025000D02*
X112136500Y-73025000D01*
X111863500Y-73975000D02*
X112136500Y-73975000D01*
D13*
X110600000Y-73100000D02*
G75*
G03*
X110600000Y-73100000I-100000J0D01*
G01*
D11*
%TO.C,J2*%
X118170000Y-77370000D02*
X123370000Y-77370000D01*
X120770000Y-74770000D02*
X120770000Y-72170000D01*
X123370000Y-72170000D02*
X123370000Y-77370000D01*
X118170000Y-72170000D02*
X119500000Y-72170000D01*
X120770000Y-72170000D02*
X123370000Y-72170000D01*
X118170000Y-74770000D02*
X118170000Y-77370000D01*
X118170000Y-73500000D02*
X118170000Y-72170000D01*
X118170000Y-74770000D02*
X120770000Y-74770000D01*
%TO.C,JP6*%
X107000000Y-56600000D02*
X109000000Y-56600000D01*
X109000000Y-59400000D02*
X107000000Y-59400000D01*
X107000000Y-59400000D02*
X107000000Y-56600000D01*
X109000000Y-56600000D02*
X109000000Y-59400000D01*
%TO.C,J3*%
X105830000Y-74730000D02*
X103230000Y-74730000D01*
X105830000Y-72130000D02*
X100630000Y-72130000D01*
X105830000Y-74730000D02*
X105830000Y-72130000D01*
X105830000Y-77330000D02*
X104500000Y-77330000D01*
X105830000Y-76000000D02*
X105830000Y-77330000D01*
X103230000Y-74730000D02*
X103230000Y-77330000D01*
X100630000Y-77330000D02*
X100630000Y-72130000D01*
X103230000Y-77330000D02*
X100630000Y-77330000D01*
%TO.C,JP4*%
X113400000Y-59500000D02*
X110600000Y-59500000D01*
X113400000Y-57500000D02*
X113400000Y-59500000D01*
X110600000Y-59500000D02*
X110600000Y-57500000D01*
X110600000Y-57500000D02*
X113400000Y-57500000D01*
%TO.C,JP2*%
X117000000Y-56600000D02*
X117000000Y-59400000D01*
X115000000Y-56600000D02*
X117000000Y-56600000D01*
X115000000Y-59400000D02*
X115000000Y-56600000D01*
X117000000Y-59400000D02*
X115000000Y-59400000D01*
%TO.C,J1*%
X103270000Y-53270000D02*
X103270000Y-50670000D01*
X100670000Y-53270000D02*
X100670000Y-63490000D01*
X103270000Y-50670000D02*
X105870000Y-50670000D01*
X100670000Y-50670000D02*
X102000000Y-50670000D01*
X100670000Y-53270000D02*
X103270000Y-53270000D01*
X100670000Y-52000000D02*
X100670000Y-50670000D01*
X100670000Y-63490000D02*
X105870000Y-63490000D01*
X105870000Y-50670000D02*
X105870000Y-63490000D01*
%TO.C,JP1*%
X117000000Y-62900000D02*
X115000000Y-62900000D01*
X115000000Y-62900000D02*
X115000000Y-60100000D01*
X117000000Y-60100000D02*
X117000000Y-62900000D01*
X115000000Y-60100000D02*
X117000000Y-60100000D01*
%TO.C,JP5*%
X109000000Y-62900000D02*
X107000000Y-62900000D01*
X107000000Y-62900000D02*
X107000000Y-60100000D01*
X107000000Y-60100000D02*
X109000000Y-60100000D01*
X109000000Y-60100000D02*
X109000000Y-62900000D01*
%TO.C,U3*%
X109142500Y-80849000D02*
X109142500Y-84151000D01*
X109142500Y-84151000D02*
X114857500Y-84151000D01*
X114857500Y-84151000D02*
X114857500Y-80849000D01*
X114857500Y-80849000D02*
X109142500Y-80849000D01*
%TO.C,U2*%
X108425001Y-64125000D02*
X113599999Y-64125000D01*
X110400001Y-70799998D02*
X113600002Y-70799998D01*
%TD*%
%LPC*%
D14*
%TO.C,U4*%
X104500001Y-65450002D03*
X104000002Y-65450002D03*
X103500000Y-65450002D03*
X103000001Y-65450002D03*
X102499999Y-65450002D03*
X102499999Y-69550001D03*
X103000001Y-69550001D03*
X103500000Y-69550001D03*
X104000002Y-69550001D03*
X104500001Y-69550001D03*
%TD*%
D15*
%TO.C,REF\u002A\u002A*%
X103500000Y-82500000D03*
%TD*%
D16*
%TO.C,J4*%
X119500000Y-52000000D03*
D17*
X122040000Y-52000000D03*
X119500000Y-54540000D03*
X122040000Y-54540000D03*
X119500000Y-57080000D03*
X122040000Y-57080000D03*
X119500000Y-59620000D03*
X122040000Y-59620000D03*
X119500000Y-62160000D03*
X122040000Y-62160000D03*
%TD*%
D14*
%TO.C,U1*%
X121500001Y-65450002D03*
X121000002Y-65450002D03*
X120500000Y-65450002D03*
X120000001Y-65450002D03*
X119499999Y-65450002D03*
X119499999Y-69550001D03*
X120000001Y-69550001D03*
X120500000Y-69550001D03*
X121000002Y-69550001D03*
X121500001Y-69550001D03*
%TD*%
D15*
%TO.C,REF\u002A\u002A*%
X120500000Y-82500000D03*
%TD*%
D18*
%TO.C,JP3*%
X111275000Y-61500000D03*
D19*
X112725000Y-61500000D03*
%TD*%
D20*
%TO.C,U5*%
X110552200Y-75999999D03*
X110552200Y-76500001D03*
X110552200Y-77000000D03*
X110552200Y-77499999D03*
X110552200Y-78000001D03*
X113447800Y-78000001D03*
X113447800Y-77499999D03*
X113447800Y-77000000D03*
X113447800Y-76500001D03*
X113447800Y-75999999D03*
D21*
X112000000Y-77000000D03*
%TD*%
D22*
%TO.C,D1*%
X111350000Y-73150000D03*
X111350000Y-73850000D03*
X112650000Y-73850000D03*
X112650000Y-73150000D03*
%TD*%
D16*
%TO.C,J2*%
X119500000Y-73500000D03*
D17*
X122040000Y-73500000D03*
X119500000Y-76040000D03*
X122040000Y-76040000D03*
%TD*%
D23*
%TO.C,JP6*%
X108000000Y-57275000D03*
D24*
X108000000Y-58725000D03*
%TD*%
D15*
%TO.C,REF\u002A\u002A*%
X112000000Y-53500000D03*
%TD*%
D16*
%TO.C,J3*%
X104500000Y-76000000D03*
D17*
X101960000Y-76000000D03*
X104500000Y-73460000D03*
X101960000Y-73460000D03*
%TD*%
D18*
%TO.C,JP4*%
X111275000Y-58500000D03*
D19*
X112725000Y-58500000D03*
%TD*%
D23*
%TO.C,JP2*%
X116000000Y-57275000D03*
D24*
X116000000Y-58725000D03*
%TD*%
D16*
%TO.C,J1*%
X102000000Y-52000000D03*
D17*
X104540000Y-52000000D03*
X102000000Y-54540000D03*
X104540000Y-54540000D03*
X102000000Y-57080000D03*
X104540000Y-57080000D03*
X102000000Y-59620000D03*
X104540000Y-59620000D03*
X102000000Y-62160000D03*
X104540000Y-62160000D03*
%TD*%
D25*
%TO.C,JP1*%
X116000000Y-62225000D03*
D26*
X116000000Y-60775000D03*
%TD*%
D25*
%TO.C,JP5*%
X108000000Y-62225000D03*
D26*
X108000000Y-60775000D03*
%TD*%
D27*
%TO.C,U3*%
X110146001Y-81700027D03*
D28*
X111199999Y-81446027D03*
X112000000Y-81446027D03*
X112800001Y-81446027D03*
D27*
X113853999Y-81700027D03*
X113853999Y-82500000D03*
X113853999Y-83299973D03*
D28*
X112800001Y-83553973D03*
X112000000Y-83553973D03*
X111199999Y-83553973D03*
D27*
X110146001Y-83299973D03*
X110146001Y-82500000D03*
%TD*%
D29*
%TO.C,U2*%
X109150001Y-64575000D03*
X109150001Y-65225001D03*
X109150001Y-65874999D03*
X109150001Y-66525001D03*
X109150001Y-67174999D03*
X109150001Y-67825001D03*
X109150001Y-68474999D03*
X109150001Y-69125001D03*
X109150001Y-69774999D03*
X109150001Y-70425000D03*
X114849999Y-70425000D03*
X114849999Y-69774999D03*
X114849999Y-69125001D03*
X114849999Y-68474999D03*
X114849999Y-67825001D03*
X114849999Y-67174999D03*
X114849999Y-66525001D03*
X114849999Y-65874999D03*
X114849999Y-65225001D03*
X114849999Y-64575000D03*
%TD*%
M02*
