M48
; DRILL file {KiCad (6.0.0)} date Sun Mar 26 17:46:55 2023
; FORMAT={-:-/ absolute / metric / decimal}
; #@! TF.CreationDate,2023-03-26T17:46:55-04:00
; #@! TF.GenerationSoftware,Kicad,Pcbnew,(6.0.0)
; #@! TF.FileFunction,Plated,1,4,PTH
FMAT,2
METRIC
; #@! TA.AperFunction,Plated,PTH,ViaDrill
T1C0.400
; #@! TA.AperFunction,Plated,PTH,ComponentDrill
T2C1.000
%
G90
G05
T1
X101.0Y-67.0
X101.054Y-66.0
X105.918Y-65.786
X108.331Y-81.407
X109.728Y-61.087
X110.072Y-74.0
X111.0Y-80.0
X111.379Y-65.913
X111.383Y-66.933
X111.465Y-68.987
X111.477Y-67.988
X111.5Y-71.0
X111.506Y-75.057
X111.512Y-69.988
X111.887Y-64.77
X112.0Y-80.0
X112.014Y-82.423
X112.395Y-65.913
X112.463Y-69.037
X112.475Y-68.025
X112.488Y-67.012
X112.5Y-71.035
X112.513Y-70.035
X113.0Y-80.0
X115.062Y-84.074
X116.5Y-54.5
X116.5Y-76.5
X116.713Y-63.627
X117.221Y-64.389
X117.532Y-67.526
X118.618Y-71.882
X122.974Y-66.003
X123.0Y-67.002
T2
X101.96Y-73.46
X101.96Y-76.0
X102.0Y-52.0
X102.0Y-54.54
X102.0Y-57.08
X102.0Y-59.62
X102.0Y-62.16
X104.5Y-73.46
X104.5Y-76.0
X104.54Y-52.0
X104.54Y-54.54
X104.54Y-57.08
X104.54Y-59.62
X104.54Y-62.16
X119.5Y-52.0
X119.5Y-54.54
X119.5Y-57.08
X119.5Y-59.62
X119.5Y-62.16
X119.5Y-73.5
X119.5Y-76.04
X122.04Y-52.0
X122.04Y-54.54
X122.04Y-57.08
X122.04Y-59.62
X122.04Y-62.16
X122.04Y-73.5
X122.04Y-76.04
T0
M30
