%FSLAX45Y45*%
G04 Gerber Fmt 4.5, Leading zero omitted, Abs format (unit mm)*
G04 Created by KiCad (PCBNEW (6.0.0)) date 2023-03-26 17:47:11*
%MOMM*%
%LPD*%
G01*
G04 APERTURE LIST*
%TA.AperFunction,Profile*%
%ADD10C,0.100000*%
%TD*%
%ADD11C,0.200000*%
%ADD12C,0.040000*%
%ADD13C,0.100000*%
G04 APERTURE END LIST*
D10*
X12400000Y-5000000D02*
X12400000Y-8600000D01*
X10000000Y-5000000D02*
X10000000Y-8600000D01*
X10000000Y-5000000D02*
X12400000Y-5000000D01*
X12400000Y-8600000D02*
X10000000Y-8600000D01*
D11*
D12*
X10080000Y-6680000D02*
X10120000Y-6720000D01*
X10120000Y-6680000D02*
X10080000Y-6720000D01*
X10085450Y-6580000D02*
X10125450Y-6620000D01*
X10125450Y-6580000D02*
X10085450Y-6620000D01*
X10571800Y-6558600D02*
X10611800Y-6598600D01*
X10611800Y-6558600D02*
X10571800Y-6598600D01*
X10813100Y-8120700D02*
X10853100Y-8160700D01*
X10853100Y-8120700D02*
X10813100Y-8160700D01*
X10952800Y-6088700D02*
X10992800Y-6128700D01*
X10992800Y-6088700D02*
X10952800Y-6128700D01*
X10987150Y-7380000D02*
X11027150Y-7420000D01*
X11027150Y-7380000D02*
X10987150Y-7420000D01*
X11080000Y-7980000D02*
X11120000Y-8020000D01*
X11120000Y-7980000D02*
X11080000Y-8020000D01*
X11117900Y-6571300D02*
X11157900Y-6611300D01*
X11157900Y-6571300D02*
X11117900Y-6611300D01*
X11118330Y-6673330D02*
X11158330Y-6713330D01*
X11158330Y-6673330D02*
X11118330Y-6713330D01*
X11126485Y-6878697D02*
X11166485Y-6918697D01*
X11166485Y-6878697D02*
X11126485Y-6918697D01*
X11127658Y-6778754D02*
X11167658Y-6818754D01*
X11167658Y-6778754D02*
X11127658Y-6818754D01*
X11130000Y-7080000D02*
X11170000Y-7120000D01*
X11170000Y-7080000D02*
X11130000Y-7120000D01*
X11130600Y-7485700D02*
X11170600Y-7525700D01*
X11170600Y-7485700D02*
X11130600Y-7525700D01*
X11131230Y-6978770D02*
X11171230Y-7018770D01*
X11171230Y-6978770D02*
X11131230Y-7018770D01*
X11168700Y-6457000D02*
X11208700Y-6497000D01*
X11208700Y-6457000D02*
X11168700Y-6497000D01*
X11180000Y-7980000D02*
X11220000Y-8020000D01*
X11220000Y-7980000D02*
X11180000Y-8020000D01*
X11181400Y-8222300D02*
X11221400Y-8262300D01*
X11221400Y-8222300D02*
X11181400Y-8262300D01*
X11219500Y-6571300D02*
X11259500Y-6611300D01*
X11259500Y-6571300D02*
X11219500Y-6611300D01*
X11226310Y-6883690D02*
X11266310Y-6923690D01*
X11266310Y-6883690D02*
X11226310Y-6923690D01*
X11227540Y-6782460D02*
X11267540Y-6822460D01*
X11267540Y-6782460D02*
X11227540Y-6822460D01*
X11228770Y-6681230D02*
X11268770Y-6721230D01*
X11268770Y-6681230D02*
X11228770Y-6721230D01*
X11229956Y-7083456D02*
X11269956Y-7123456D01*
X11269956Y-7083456D02*
X11229956Y-7123456D01*
X11231303Y-6983515D02*
X11271303Y-7023515D01*
X11271303Y-6983515D02*
X11231303Y-7023515D01*
X11280000Y-7980000D02*
X11320000Y-8020000D01*
X11320000Y-7980000D02*
X11280000Y-8020000D01*
X11486200Y-8387400D02*
X11526200Y-8427400D01*
X11526200Y-8387400D02*
X11486200Y-8427400D01*
X11630000Y-5430000D02*
X11670000Y-5470000D01*
X11670000Y-5430000D02*
X11630000Y-5470000D01*
X11630000Y-7630000D02*
X11670000Y-7670000D01*
X11670000Y-7630000D02*
X11630000Y-7670000D01*
X11651300Y-6342700D02*
X11691300Y-6382700D01*
X11691300Y-6342700D02*
X11651300Y-6382700D01*
X11702100Y-6418900D02*
X11742100Y-6458900D01*
X11742100Y-6418900D02*
X11702100Y-6458900D01*
X11733192Y-6732650D02*
X11773192Y-6772650D01*
X11773192Y-6732650D02*
X11733192Y-6772650D01*
X11841800Y-7168200D02*
X11881800Y-7208200D01*
X11881800Y-7168200D02*
X11841800Y-7208200D01*
X12277350Y-6580261D02*
X12317350Y-6620261D01*
X12317350Y-6580261D02*
X12277350Y-6620261D01*
X12280004Y-6680189D02*
X12320004Y-6720189D01*
X12320004Y-6680189D02*
X12280004Y-6720189D01*
D13*
X10246000Y-7346000D02*
G75*
G03*
X10246000Y-7346000I-50000J0D01*
G01*
X10246000Y-7600000D02*
G75*
G03*
X10246000Y-7600000I-50000J0D01*
G01*
X10250000Y-5200000D02*
G75*
G03*
X10250000Y-5200000I-50000J0D01*
G01*
X10250000Y-5454000D02*
G75*
G03*
X10250000Y-5454000I-50000J0D01*
G01*
X10250000Y-5708000D02*
G75*
G03*
X10250000Y-5708000I-50000J0D01*
G01*
X10250000Y-5962000D02*
G75*
G03*
X10250000Y-5962000I-50000J0D01*
G01*
X10250000Y-6216000D02*
G75*
G03*
X10250000Y-6216000I-50000J0D01*
G01*
X10500000Y-7346000D02*
G75*
G03*
X10500000Y-7346000I-50000J0D01*
G01*
X10500000Y-7600000D02*
G75*
G03*
X10500000Y-7600000I-50000J0D01*
G01*
X10504000Y-5200000D02*
G75*
G03*
X10504000Y-5200000I-50000J0D01*
G01*
X10504000Y-5454000D02*
G75*
G03*
X10504000Y-5454000I-50000J0D01*
G01*
X10504000Y-5708000D02*
G75*
G03*
X10504000Y-5708000I-50000J0D01*
G01*
X10504000Y-5962000D02*
G75*
G03*
X10504000Y-5962000I-50000J0D01*
G01*
X10504000Y-6216000D02*
G75*
G03*
X10504000Y-6216000I-50000J0D01*
G01*
X12000000Y-5200000D02*
G75*
G03*
X12000000Y-5200000I-50000J0D01*
G01*
X12000000Y-5454000D02*
G75*
G03*
X12000000Y-5454000I-50000J0D01*
G01*
X12000000Y-5708000D02*
G75*
G03*
X12000000Y-5708000I-50000J0D01*
G01*
X12000000Y-5962000D02*
G75*
G03*
X12000000Y-5962000I-50000J0D01*
G01*
X12000000Y-6216000D02*
G75*
G03*
X12000000Y-6216000I-50000J0D01*
G01*
X12000000Y-7350000D02*
G75*
G03*
X12000000Y-7350000I-50000J0D01*
G01*
X12000000Y-7604000D02*
G75*
G03*
X12000000Y-7604000I-50000J0D01*
G01*
X12254000Y-5200000D02*
G75*
G03*
X12254000Y-5200000I-50000J0D01*
G01*
X12254000Y-5454000D02*
G75*
G03*
X12254000Y-5454000I-50000J0D01*
G01*
X12254000Y-5708000D02*
G75*
G03*
X12254000Y-5708000I-50000J0D01*
G01*
X12254000Y-5962000D02*
G75*
G03*
X12254000Y-5962000I-50000J0D01*
G01*
X12254000Y-6216000D02*
G75*
G03*
X12254000Y-6216000I-50000J0D01*
G01*
X12254000Y-7350000D02*
G75*
G03*
X12254000Y-7350000I-50000J0D01*
G01*
X12254000Y-7604000D02*
G75*
G03*
X12254000Y-7604000I-50000J0D01*
G01*
D11*
X10252619Y-8915476D02*
X10252619Y-8715476D01*
X10300238Y-8715476D01*
X10328810Y-8725000D01*
X10347857Y-8744048D01*
X10357381Y-8763095D01*
X10366905Y-8801190D01*
X10366905Y-8829762D01*
X10357381Y-8867857D01*
X10347857Y-8886905D01*
X10328810Y-8905952D01*
X10300238Y-8915476D01*
X10252619Y-8915476D01*
X10452619Y-8915476D02*
X10452619Y-8782143D01*
X10452619Y-8820238D02*
X10462143Y-8801190D01*
X10471667Y-8791667D01*
X10490714Y-8782143D01*
X10509762Y-8782143D01*
X10576429Y-8915476D02*
X10576429Y-8782143D01*
X10576429Y-8715476D02*
X10566905Y-8725000D01*
X10576429Y-8734524D01*
X10585952Y-8725000D01*
X10576429Y-8715476D01*
X10576429Y-8734524D01*
X10700238Y-8915476D02*
X10681190Y-8905952D01*
X10671667Y-8886905D01*
X10671667Y-8715476D01*
X10805000Y-8915476D02*
X10785952Y-8905952D01*
X10776429Y-8886905D01*
X10776429Y-8715476D01*
X11033571Y-8915476D02*
X11033571Y-8715476D01*
X11100238Y-8858333D01*
X11166905Y-8715476D01*
X11166905Y-8915476D01*
X11347857Y-8915476D02*
X11347857Y-8810714D01*
X11338333Y-8791667D01*
X11319286Y-8782143D01*
X11281190Y-8782143D01*
X11262143Y-8791667D01*
X11347857Y-8905952D02*
X11328809Y-8915476D01*
X11281190Y-8915476D01*
X11262143Y-8905952D01*
X11252619Y-8886905D01*
X11252619Y-8867857D01*
X11262143Y-8848810D01*
X11281190Y-8839286D01*
X11328809Y-8839286D01*
X11347857Y-8829762D01*
X11443095Y-8782143D02*
X11443095Y-8982143D01*
X11443095Y-8791667D02*
X11462143Y-8782143D01*
X11500238Y-8782143D01*
X11519286Y-8791667D01*
X11528809Y-8801190D01*
X11538333Y-8820238D01*
X11538333Y-8877381D01*
X11528809Y-8896429D01*
X11519286Y-8905952D01*
X11500238Y-8915476D01*
X11462143Y-8915476D01*
X11443095Y-8905952D01*
X11624048Y-8896429D02*
X11633571Y-8905952D01*
X11624048Y-8915476D01*
X11614524Y-8905952D01*
X11624048Y-8896429D01*
X11624048Y-8915476D01*
X11624048Y-8791667D02*
X11633571Y-8801190D01*
X11624048Y-8810714D01*
X11614524Y-8801190D01*
X11624048Y-8791667D01*
X11624048Y-8810714D01*
D12*
X9955000Y-9225000D02*
X9995000Y-9265000D01*
X9995000Y-9225000D02*
X9955000Y-9265000D01*
D11*
X10290714Y-9135476D02*
X10309762Y-9135476D01*
X10328810Y-9145000D01*
X10338333Y-9154524D01*
X10347857Y-9173571D01*
X10357381Y-9211667D01*
X10357381Y-9259286D01*
X10347857Y-9297381D01*
X10338333Y-9316429D01*
X10328810Y-9325952D01*
X10309762Y-9335476D01*
X10290714Y-9335476D01*
X10271667Y-9325952D01*
X10262143Y-9316429D01*
X10252619Y-9297381D01*
X10243095Y-9259286D01*
X10243095Y-9211667D01*
X10252619Y-9173571D01*
X10262143Y-9154524D01*
X10271667Y-9145000D01*
X10290714Y-9135476D01*
X10443095Y-9316429D02*
X10452619Y-9325952D01*
X10443095Y-9335476D01*
X10433571Y-9325952D01*
X10443095Y-9316429D01*
X10443095Y-9335476D01*
X10624048Y-9202143D02*
X10624048Y-9335476D01*
X10576429Y-9125952D02*
X10528810Y-9268810D01*
X10652619Y-9268810D01*
X10766905Y-9135476D02*
X10785952Y-9135476D01*
X10805000Y-9145000D01*
X10814524Y-9154524D01*
X10824048Y-9173571D01*
X10833571Y-9211667D01*
X10833571Y-9259286D01*
X10824048Y-9297381D01*
X10814524Y-9316429D01*
X10805000Y-9325952D01*
X10785952Y-9335476D01*
X10766905Y-9335476D01*
X10747857Y-9325952D01*
X10738333Y-9316429D01*
X10728810Y-9297381D01*
X10719286Y-9259286D01*
X10719286Y-9211667D01*
X10728810Y-9173571D01*
X10738333Y-9154524D01*
X10747857Y-9145000D01*
X10766905Y-9135476D01*
X10957381Y-9135476D02*
X10976429Y-9135476D01*
X10995476Y-9145000D01*
X11005000Y-9154524D01*
X11014524Y-9173571D01*
X11024048Y-9211667D01*
X11024048Y-9259286D01*
X11014524Y-9297381D01*
X11005000Y-9316429D01*
X10995476Y-9325952D01*
X10976429Y-9335476D01*
X10957381Y-9335476D01*
X10938333Y-9325952D01*
X10928810Y-9316429D01*
X10919286Y-9297381D01*
X10909762Y-9259286D01*
X10909762Y-9211667D01*
X10919286Y-9173571D01*
X10928810Y-9154524D01*
X10938333Y-9145000D01*
X10957381Y-9135476D01*
X11109762Y-9335476D02*
X11109762Y-9202143D01*
X11109762Y-9221190D02*
X11119286Y-9211667D01*
X11138333Y-9202143D01*
X11166905Y-9202143D01*
X11185952Y-9211667D01*
X11195476Y-9230714D01*
X11195476Y-9335476D01*
X11195476Y-9230714D02*
X11205000Y-9211667D01*
X11224048Y-9202143D01*
X11252619Y-9202143D01*
X11271667Y-9211667D01*
X11281190Y-9230714D01*
X11281190Y-9335476D01*
X11376428Y-9335476D02*
X11376428Y-9202143D01*
X11376428Y-9221190D02*
X11385952Y-9211667D01*
X11405000Y-9202143D01*
X11433571Y-9202143D01*
X11452619Y-9211667D01*
X11462143Y-9230714D01*
X11462143Y-9335476D01*
X11462143Y-9230714D02*
X11471667Y-9211667D01*
X11490714Y-9202143D01*
X11519286Y-9202143D01*
X11538333Y-9211667D01*
X11547857Y-9230714D01*
X11547857Y-9335476D01*
X11938333Y-9125952D02*
X11766905Y-9383095D01*
X12195476Y-9135476D02*
X12214524Y-9135476D01*
X12233571Y-9145000D01*
X12243095Y-9154524D01*
X12252619Y-9173571D01*
X12262143Y-9211667D01*
X12262143Y-9259286D01*
X12252619Y-9297381D01*
X12243095Y-9316429D01*
X12233571Y-9325952D01*
X12214524Y-9335476D01*
X12195476Y-9335476D01*
X12176428Y-9325952D01*
X12166905Y-9316429D01*
X12157381Y-9297381D01*
X12147857Y-9259286D01*
X12147857Y-9211667D01*
X12157381Y-9173571D01*
X12166905Y-9154524D01*
X12176428Y-9145000D01*
X12195476Y-9135476D01*
X12347857Y-9316429D02*
X12357381Y-9325952D01*
X12347857Y-9335476D01*
X12338333Y-9325952D01*
X12347857Y-9316429D01*
X12347857Y-9335476D01*
X12481190Y-9135476D02*
X12500238Y-9135476D01*
X12519286Y-9145000D01*
X12528809Y-9154524D01*
X12538333Y-9173571D01*
X12547857Y-9211667D01*
X12547857Y-9259286D01*
X12538333Y-9297381D01*
X12528809Y-9316429D01*
X12519286Y-9325952D01*
X12500238Y-9335476D01*
X12481190Y-9335476D01*
X12462143Y-9325952D01*
X12452619Y-9316429D01*
X12443095Y-9297381D01*
X12433571Y-9259286D01*
X12433571Y-9211667D01*
X12443095Y-9173571D01*
X12452619Y-9154524D01*
X12462143Y-9145000D01*
X12481190Y-9135476D01*
X12738333Y-9335476D02*
X12624048Y-9335476D01*
X12681190Y-9335476D02*
X12681190Y-9135476D01*
X12662143Y-9164048D01*
X12643095Y-9183095D01*
X12624048Y-9192619D01*
X12919286Y-9135476D02*
X12824048Y-9135476D01*
X12814524Y-9230714D01*
X12824048Y-9221190D01*
X12843095Y-9211667D01*
X12890714Y-9211667D01*
X12909762Y-9221190D01*
X12919286Y-9230714D01*
X12928809Y-9249762D01*
X12928809Y-9297381D01*
X12919286Y-9316429D01*
X12909762Y-9325952D01*
X12890714Y-9335476D01*
X12843095Y-9335476D01*
X12824048Y-9325952D01*
X12814524Y-9316429D01*
X12995476Y-9135476D02*
X13128809Y-9135476D01*
X13043095Y-9335476D01*
X13195476Y-9135476D02*
X13195476Y-9173571D01*
X13271667Y-9135476D02*
X13271667Y-9173571D01*
X13566905Y-9411667D02*
X13557381Y-9402143D01*
X13538333Y-9373571D01*
X13528809Y-9354524D01*
X13519286Y-9325952D01*
X13509762Y-9278333D01*
X13509762Y-9240238D01*
X13519286Y-9192619D01*
X13528809Y-9164048D01*
X13538333Y-9145000D01*
X13557381Y-9116429D01*
X13566905Y-9106905D01*
X13624048Y-9135476D02*
X13747857Y-9135476D01*
X13681190Y-9211667D01*
X13709762Y-9211667D01*
X13728809Y-9221190D01*
X13738333Y-9230714D01*
X13747857Y-9249762D01*
X13747857Y-9297381D01*
X13738333Y-9316429D01*
X13728809Y-9325952D01*
X13709762Y-9335476D01*
X13652619Y-9335476D01*
X13633571Y-9325952D01*
X13624048Y-9316429D01*
X13814524Y-9135476D02*
X13938333Y-9135476D01*
X13871667Y-9211667D01*
X13900238Y-9211667D01*
X13919286Y-9221190D01*
X13928809Y-9230714D01*
X13938333Y-9249762D01*
X13938333Y-9297381D01*
X13928809Y-9316429D01*
X13919286Y-9325952D01*
X13900238Y-9335476D01*
X13843095Y-9335476D01*
X13824048Y-9325952D01*
X13814524Y-9316429D01*
X14176428Y-9335476D02*
X14176428Y-9135476D01*
X14262143Y-9335476D02*
X14262143Y-9230714D01*
X14252619Y-9211667D01*
X14233571Y-9202143D01*
X14205000Y-9202143D01*
X14185952Y-9211667D01*
X14176428Y-9221190D01*
X14385952Y-9335476D02*
X14366905Y-9325952D01*
X14357381Y-9316429D01*
X14347857Y-9297381D01*
X14347857Y-9240238D01*
X14357381Y-9221190D01*
X14366905Y-9211667D01*
X14385952Y-9202143D01*
X14414524Y-9202143D01*
X14433571Y-9211667D01*
X14443095Y-9221190D01*
X14452619Y-9240238D01*
X14452619Y-9297381D01*
X14443095Y-9316429D01*
X14433571Y-9325952D01*
X14414524Y-9335476D01*
X14385952Y-9335476D01*
X14566905Y-9335476D02*
X14547857Y-9325952D01*
X14538333Y-9306905D01*
X14538333Y-9135476D01*
X14719286Y-9325952D02*
X14700238Y-9335476D01*
X14662143Y-9335476D01*
X14643095Y-9325952D01*
X14633571Y-9306905D01*
X14633571Y-9230714D01*
X14643095Y-9211667D01*
X14662143Y-9202143D01*
X14700238Y-9202143D01*
X14719286Y-9211667D01*
X14728809Y-9230714D01*
X14728809Y-9249762D01*
X14633571Y-9268810D01*
X14805000Y-9325952D02*
X14824048Y-9335476D01*
X14862143Y-9335476D01*
X14881190Y-9325952D01*
X14890714Y-9306905D01*
X14890714Y-9297381D01*
X14881190Y-9278333D01*
X14862143Y-9268810D01*
X14833571Y-9268810D01*
X14814524Y-9259286D01*
X14805000Y-9240238D01*
X14805000Y-9230714D01*
X14814524Y-9211667D01*
X14833571Y-9202143D01*
X14862143Y-9202143D01*
X14881190Y-9211667D01*
X14957381Y-9411667D02*
X14966905Y-9402143D01*
X14985952Y-9373571D01*
X14995476Y-9354524D01*
X15005000Y-9325952D01*
X15014524Y-9278333D01*
X15014524Y-9240238D01*
X15005000Y-9192619D01*
X14995476Y-9164048D01*
X14985952Y-9145000D01*
X14966905Y-9116429D01*
X14957381Y-9106905D01*
D13*
X9995000Y-9509000D02*
G75*
G03*
X9995000Y-9509000I-50000J0D01*
G01*
D11*
X10357381Y-9599476D02*
X10243095Y-9599476D01*
X10300238Y-9599476D02*
X10300238Y-9399476D01*
X10281190Y-9428048D01*
X10262143Y-9447095D01*
X10243095Y-9456619D01*
X10443095Y-9580429D02*
X10452619Y-9589952D01*
X10443095Y-9599476D01*
X10433571Y-9589952D01*
X10443095Y-9580429D01*
X10443095Y-9599476D01*
X10576429Y-9399476D02*
X10595476Y-9399476D01*
X10614524Y-9409000D01*
X10624048Y-9418524D01*
X10633571Y-9437571D01*
X10643095Y-9475667D01*
X10643095Y-9523286D01*
X10633571Y-9561381D01*
X10624048Y-9580429D01*
X10614524Y-9589952D01*
X10595476Y-9599476D01*
X10576429Y-9599476D01*
X10557381Y-9589952D01*
X10547857Y-9580429D01*
X10538333Y-9561381D01*
X10528810Y-9523286D01*
X10528810Y-9475667D01*
X10538333Y-9437571D01*
X10547857Y-9418524D01*
X10557381Y-9409000D01*
X10576429Y-9399476D01*
X10766905Y-9399476D02*
X10785952Y-9399476D01*
X10805000Y-9409000D01*
X10814524Y-9418524D01*
X10824048Y-9437571D01*
X10833571Y-9475667D01*
X10833571Y-9523286D01*
X10824048Y-9561381D01*
X10814524Y-9580429D01*
X10805000Y-9589952D01*
X10785952Y-9599476D01*
X10766905Y-9599476D01*
X10747857Y-9589952D01*
X10738333Y-9580429D01*
X10728810Y-9561381D01*
X10719286Y-9523286D01*
X10719286Y-9475667D01*
X10728810Y-9437571D01*
X10738333Y-9418524D01*
X10747857Y-9409000D01*
X10766905Y-9399476D01*
X10957381Y-9399476D02*
X10976429Y-9399476D01*
X10995476Y-9409000D01*
X11005000Y-9418524D01*
X11014524Y-9437571D01*
X11024048Y-9475667D01*
X11024048Y-9523286D01*
X11014524Y-9561381D01*
X11005000Y-9580429D01*
X10995476Y-9589952D01*
X10976429Y-9599476D01*
X10957381Y-9599476D01*
X10938333Y-9589952D01*
X10928810Y-9580429D01*
X10919286Y-9561381D01*
X10909762Y-9523286D01*
X10909762Y-9475667D01*
X10919286Y-9437571D01*
X10928810Y-9418524D01*
X10938333Y-9409000D01*
X10957381Y-9399476D01*
X11109762Y-9599476D02*
X11109762Y-9466143D01*
X11109762Y-9485190D02*
X11119286Y-9475667D01*
X11138333Y-9466143D01*
X11166905Y-9466143D01*
X11185952Y-9475667D01*
X11195476Y-9494714D01*
X11195476Y-9599476D01*
X11195476Y-9494714D02*
X11205000Y-9475667D01*
X11224048Y-9466143D01*
X11252619Y-9466143D01*
X11271667Y-9475667D01*
X11281190Y-9494714D01*
X11281190Y-9599476D01*
X11376428Y-9599476D02*
X11376428Y-9466143D01*
X11376428Y-9485190D02*
X11385952Y-9475667D01*
X11405000Y-9466143D01*
X11433571Y-9466143D01*
X11452619Y-9475667D01*
X11462143Y-9494714D01*
X11462143Y-9599476D01*
X11462143Y-9494714D02*
X11471667Y-9475667D01*
X11490714Y-9466143D01*
X11519286Y-9466143D01*
X11538333Y-9475667D01*
X11547857Y-9494714D01*
X11547857Y-9599476D01*
X11938333Y-9389952D02*
X11766905Y-9647095D01*
X12195476Y-9399476D02*
X12214524Y-9399476D01*
X12233571Y-9409000D01*
X12243095Y-9418524D01*
X12252619Y-9437571D01*
X12262143Y-9475667D01*
X12262143Y-9523286D01*
X12252619Y-9561381D01*
X12243095Y-9580429D01*
X12233571Y-9589952D01*
X12214524Y-9599476D01*
X12195476Y-9599476D01*
X12176428Y-9589952D01*
X12166905Y-9580429D01*
X12157381Y-9561381D01*
X12147857Y-9523286D01*
X12147857Y-9475667D01*
X12157381Y-9437571D01*
X12166905Y-9418524D01*
X12176428Y-9409000D01*
X12195476Y-9399476D01*
X12347857Y-9580429D02*
X12357381Y-9589952D01*
X12347857Y-9599476D01*
X12338333Y-9589952D01*
X12347857Y-9580429D01*
X12347857Y-9599476D01*
X12481190Y-9399476D02*
X12500238Y-9399476D01*
X12519286Y-9409000D01*
X12528809Y-9418524D01*
X12538333Y-9437571D01*
X12547857Y-9475667D01*
X12547857Y-9523286D01*
X12538333Y-9561381D01*
X12528809Y-9580429D01*
X12519286Y-9589952D01*
X12500238Y-9599476D01*
X12481190Y-9599476D01*
X12462143Y-9589952D01*
X12452619Y-9580429D01*
X12443095Y-9561381D01*
X12433571Y-9523286D01*
X12433571Y-9475667D01*
X12443095Y-9437571D01*
X12452619Y-9418524D01*
X12462143Y-9409000D01*
X12481190Y-9399476D01*
X12614524Y-9399476D02*
X12738333Y-9399476D01*
X12671667Y-9475667D01*
X12700238Y-9475667D01*
X12719286Y-9485190D01*
X12728809Y-9494714D01*
X12738333Y-9513762D01*
X12738333Y-9561381D01*
X12728809Y-9580429D01*
X12719286Y-9589952D01*
X12700238Y-9599476D01*
X12643095Y-9599476D01*
X12624048Y-9589952D01*
X12614524Y-9580429D01*
X12833571Y-9599476D02*
X12871667Y-9599476D01*
X12890714Y-9589952D01*
X12900238Y-9580429D01*
X12919286Y-9551857D01*
X12928809Y-9513762D01*
X12928809Y-9437571D01*
X12919286Y-9418524D01*
X12909762Y-9409000D01*
X12890714Y-9399476D01*
X12852619Y-9399476D01*
X12833571Y-9409000D01*
X12824048Y-9418524D01*
X12814524Y-9437571D01*
X12814524Y-9485190D01*
X12824048Y-9504238D01*
X12833571Y-9513762D01*
X12852619Y-9523286D01*
X12890714Y-9523286D01*
X12909762Y-9513762D01*
X12919286Y-9504238D01*
X12928809Y-9485190D01*
X13100238Y-9466143D02*
X13100238Y-9599476D01*
X13052619Y-9389952D02*
X13005000Y-9532810D01*
X13128809Y-9532810D01*
X13195476Y-9399476D02*
X13195476Y-9437571D01*
X13271667Y-9399476D02*
X13271667Y-9437571D01*
X13566905Y-9675667D02*
X13557381Y-9666143D01*
X13538333Y-9637571D01*
X13528809Y-9618524D01*
X13519286Y-9589952D01*
X13509762Y-9542333D01*
X13509762Y-9504238D01*
X13519286Y-9456619D01*
X13528809Y-9428048D01*
X13538333Y-9409000D01*
X13557381Y-9380429D01*
X13566905Y-9370905D01*
X13633571Y-9418524D02*
X13643095Y-9409000D01*
X13662143Y-9399476D01*
X13709762Y-9399476D01*
X13728809Y-9409000D01*
X13738333Y-9418524D01*
X13747857Y-9437571D01*
X13747857Y-9456619D01*
X13738333Y-9485190D01*
X13624048Y-9599476D01*
X13747857Y-9599476D01*
X13862143Y-9485190D02*
X13843095Y-9475667D01*
X13833571Y-9466143D01*
X13824048Y-9447095D01*
X13824048Y-9437571D01*
X13833571Y-9418524D01*
X13843095Y-9409000D01*
X13862143Y-9399476D01*
X13900238Y-9399476D01*
X13919286Y-9409000D01*
X13928809Y-9418524D01*
X13938333Y-9437571D01*
X13938333Y-9447095D01*
X13928809Y-9466143D01*
X13919286Y-9475667D01*
X13900238Y-9485190D01*
X13862143Y-9485190D01*
X13843095Y-9494714D01*
X13833571Y-9504238D01*
X13824048Y-9523286D01*
X13824048Y-9561381D01*
X13833571Y-9580429D01*
X13843095Y-9589952D01*
X13862143Y-9599476D01*
X13900238Y-9599476D01*
X13919286Y-9589952D01*
X13928809Y-9580429D01*
X13938333Y-9561381D01*
X13938333Y-9523286D01*
X13928809Y-9504238D01*
X13919286Y-9494714D01*
X13900238Y-9485190D01*
X14176428Y-9599476D02*
X14176428Y-9399476D01*
X14262143Y-9599476D02*
X14262143Y-9494714D01*
X14252619Y-9475667D01*
X14233571Y-9466143D01*
X14205000Y-9466143D01*
X14185952Y-9475667D01*
X14176428Y-9485190D01*
X14385952Y-9599476D02*
X14366905Y-9589952D01*
X14357381Y-9580429D01*
X14347857Y-9561381D01*
X14347857Y-9504238D01*
X14357381Y-9485190D01*
X14366905Y-9475667D01*
X14385952Y-9466143D01*
X14414524Y-9466143D01*
X14433571Y-9475667D01*
X14443095Y-9485190D01*
X14452619Y-9504238D01*
X14452619Y-9561381D01*
X14443095Y-9580429D01*
X14433571Y-9589952D01*
X14414524Y-9599476D01*
X14385952Y-9599476D01*
X14566905Y-9599476D02*
X14547857Y-9589952D01*
X14538333Y-9570905D01*
X14538333Y-9399476D01*
X14719286Y-9589952D02*
X14700238Y-9599476D01*
X14662143Y-9599476D01*
X14643095Y-9589952D01*
X14633571Y-9570905D01*
X14633571Y-9494714D01*
X14643095Y-9475667D01*
X14662143Y-9466143D01*
X14700238Y-9466143D01*
X14719286Y-9475667D01*
X14728809Y-9494714D01*
X14728809Y-9513762D01*
X14633571Y-9532810D01*
X14805000Y-9589952D02*
X14824048Y-9599476D01*
X14862143Y-9599476D01*
X14881190Y-9589952D01*
X14890714Y-9570905D01*
X14890714Y-9561381D01*
X14881190Y-9542333D01*
X14862143Y-9532810D01*
X14833571Y-9532810D01*
X14814524Y-9523286D01*
X14805000Y-9504238D01*
X14805000Y-9494714D01*
X14814524Y-9475667D01*
X14833571Y-9466143D01*
X14862143Y-9466143D01*
X14881190Y-9475667D01*
X14957381Y-9675667D02*
X14966905Y-9666143D01*
X14985952Y-9637571D01*
X14995476Y-9618524D01*
X15005000Y-9589952D01*
X15014524Y-9542333D01*
X15014524Y-9504238D01*
X15005000Y-9456619D01*
X14995476Y-9428048D01*
X14985952Y-9409000D01*
X14966905Y-9380429D01*
X14957381Y-9370905D01*
M02*
